<?xml version="1.0" encoding="utf-8"?>
<!-- Generator: Adobe Illustrator 17.1.0, SVG Export Plug-In . SVG Version: 6.00 Build 0)  -->
<!DOCTYPE svg PUBLIC "-//W3C//DTD SVG 1.1//EN" "http://www.w3.org/Graphics/SVG/1.1/DTD/svg11.dtd">
<svg version="1.1" id="Layer_1" xmlns="http://www.w3.org/2000/svg" xmlns:xlink="http://www.w3.org/1999/xlink" x="0px" y="0px"
	 viewBox="0 0 620.8 384.1" style="enable-background:new 0 0 620.8 384.1;" xml:space="preserve">
<path style="fill:none;stroke:#000000;stroke-width:3.1708;stroke-linecap:round;stroke-miterlimit:10;" d="M204,306.8h160.8
	c32.2,0,32.2,0,32.2-36.5l0-182.4H236.2c-32.2,0-32.2,0-32.2,36.5L204,306.8z"/>
<line style="fill:none;stroke:#000000;stroke-width:3.1708;stroke-linecap:round;stroke-miterlimit:10;" x1="236.2" y1="244.2" x2="364.8" y2="244.2"/>
<line style="fill:none;stroke:#000000;stroke-width:3.1708;stroke-linecap:round;stroke-miterlimit:10;" x1="236.2" y1="263.5" x2="364.8" y2="263.5"/>
<path style="fill:none;stroke:#000000;stroke-width:3.1708;stroke-linecap:round;stroke-miterlimit:10;" d="M301,121.1h5.1l9.7,14.1
	l9.7-14.1h5.1l-12.4,17.9v16.3h-4.8v-16.3L301,121.1z M276.7,121.1h10.8c3.9,0,6.9,0.9,8.9,2.6c2,1.7,3,4.3,3,7.6c0,3.4-1,5.9-3,7.7
	c-2,1.7-5,2.6-8.9,2.6h-6v13.7h-4.8V121.1z M281.5,124.9v12.8h6c2.2,0,3.9-0.5,5.1-1.7c1.2-1.1,1.8-2.7,1.8-4.8
	c0-2.1-0.6-3.6-1.8-4.7c-1.2-1.1-2.9-1.7-5.1-1.7L281.5,124.9z"/>
<path d="M283.2,207.8c-0.2,0-0.3,0-0.5-0.1l-25.4-15c-0.3-0.2-0.5-0.5-0.5-0.8c0-0.3,0.2-0.7,0.5-0.8l25.4-15c0.5-0.3,1-0.1,1.3,0.3
	c0.3,0.5,0.1,1-0.3,1.3l-24,14.1l24,14.1c0.5,0.3,0.6,0.9,0.3,1.3C283.8,207.7,283.5,207.8,283.2,207.8L283.2,207.8z"/>
<path d="M320.8,207.8c-0.3,0-0.6-0.2-0.8-0.5c-0.3-0.5-0.1-1,0.3-1.3l24-14.1l-24-14.1c-0.5-0.3-0.6-0.9-0.3-1.3
	c0.3-0.5,0.9-0.6,1.3-0.3l25.4,15c0.3,0.2,0.5,0.5,0.5,0.8c0,0.3-0.2,0.7-0.5,0.8l-25.4,15C321.2,207.8,321,207.8,320.8,207.8
	L320.8,207.8z"/>
<path d="M288.4,217.6c-0.1,0-0.2,0-0.3-0.1c-0.3-0.2-0.4-0.5-0.3-0.9l26.5-51.1c0.2-0.3,0.5-0.4,0.8-0.3c0.3,0.2,0.4,0.5,0.3,0.9
	l-26.5,51.2C288.8,217.5,288.6,217.6,288.4,217.6L288.4,217.6z"/>
</svg>
