<?xml version="1.0" encoding="utf-8"?>
<!-- Generator: Adobe Illustrator 17.1.0, SVG Export Plug-In . SVG Version: 6.00 Build 0)  -->
<!DOCTYPE svg PUBLIC "-//W3C//DTD SVG 1.1//EN" "http://www.w3.org/Graphics/SVG/1.1/DTD/svg11.dtd">
<svg version="1.1" id="Layer_1" xmlns="http://www.w3.org/2000/svg" xmlns:xlink="http://www.w3.org/1999/xlink" x="0px" y="0px"
	 viewBox="0 0 775 445" style="enable-background:new 0 0 775 445;" xml:space="preserve">
<path d="M292.3,275.9h-24.1c-1.9,0-3.5-1.6-3.5-3.5c0-2,1.6-3.5,3.5-3.5h18.9c-1.3-1.4-3.2-2.9-5.9-3.9c-1.4-0.5-2.3-1.8-2.3-3.3
	l0-6.2c0-2,1.6-3.5,3.5-3.5H321c1.1,0,1.6-2,1.6-3.5v-7.1h-80.3c-1.9,0-3.5-1.6-3.5-3.5c0-2,1.6-3.5,3.5-3.5h80.3v-56.2
	c0-1.5-0.1-1.6-1.6-1.6h-72.5c-1.9,0-3.5-1.6-3.5-3.5c0-2,1.6-3.5,3.5-3.5H321c5.4,0,8.7,3.3,8.7,8.7v70.3c0,6.1-3.7,10.5-8.7,10.5
	l-35,0v0.4c6,3,9.8,8,9.8,13C295.8,274.3,294.2,275.9,292.3,275.9L292.3,275.9z M190.1,227c1.8,3.1,4.4,3.5,5.7,3.5
	c1.7-1.4,5.3-3.4,11.9-4c3.4-0.3,6.1,0.8,8.3,1.7c2.9,1.2,3.6,1.5,4.9-0.3c0.2-0.5,0.5-1,1-1.6c3.4-5.3,9.4-19.3,11.7-26.1
	c2.2-6.7,1.4-19.2-4.4-28.9c-5.4-9-14.5-14.4-20.3-12.2c-0.3,0.2-1.1,1.2-1.5,1.8c-1.2,1.7-2.9,3.9-5.7,4.3c-1.9,0.3-3.9-0.4-6-1.9
	c-0.5-0.3-1.4-0.4-2.7-0.1c-4.1,1-10,5.7-12.9,12.2c-3.9,8.7-2.2,24.4-1.6,27.9c1.5,8.2,8.7,19.7,11.4,23.4c0,0.1,0.1,0.1,0.1,0.2
	C190.1,226.9,190.1,226.9,190.1,227L190.1,227z M189.8,236.1l-0.4,5.6c6.8,0,21.4-0.1,32.9-0.1l-0.7-5.9c-3.1,1-6.1-0.2-8.2-1.1
	c-1.7-0.7-3.4-1.4-5.1-1.2c-6.2,0.5-8.3,2.6-8.3,2.6c-0.5,0.6-1.1,0.9-1.8,1.1C196.3,237.7,193,237.7,189.8,236.1L189.8,236.1z
	 M158.8,282.5h94.6c-1.3-7.6-4.1-22.1-5.6-24.8c-5.5-4.6-17.4-7.9-22-8.9c-14.6,0-37,0.1-39.9,0.1c-4.7,0.9-17,3.9-22.3,8.7
	C162.3,260.3,159.7,275.3,158.8,282.5L158.8,282.5z M257.5,289.5H154.9c-1.9,0-3.5-1.6-3.5-3.5c0-1.2,3.4-29.7,7.1-33.3
	c6.1-5.9,18.3-9.1,23.7-10.3l0.9-13c-3.8-5.7-10.1-16.5-11.6-24.9c0-0.2-3.3-20,2.1-32c3.5-7.8,10.8-14.4,17.6-16.2
	c4.3-1.1,7.1,0.1,8.6,1.3c0.3,0.2,0.5,0.4,0.7,0.4c0.3-0.3,0.8-1,1.1-1.4c1.1-1.5,2.4-3.3,4.7-4.2c10.4-4,22.7,4.9,28.9,15.2
	c7.4,12.2,7.8,26.6,5.1,34.8c-2.2,6.5-8.2,21.1-12.4,27.7l1.5,12.4c5.1,1.3,16.9,4.7,23.2,10.2c4.1,3.6,8.3,32.8,8.3,33
	c0.1,1-0.2,2-0.9,2.8C259.5,289.1,258.5,289.5,257.5,289.5L257.5,289.5z"/>
<path style="fill:#FF931E;" d="M292.4,188.1v8l12.8,10l-12.8,10v8l0.9-0.7l19-14.8l1.3-1v-3l-1.3-1l-19-14.8L292.4,188.1z
	 M267.1,188.1l-0.9,0.7l-19,14.8l-1.3,1v3l1.3,1l19,14.8l0.9,0.7v-8l-12.8-10l12.8-10V188.1z M282,181.8l-0.1,0.3l-10.6,46.5
	l-0.4,1.8h6.5l0.1-0.3l10.6-46.5l0.4-1.8H282z"/>
<path d="M583,272h-24.1c-1.9,0-3.5-1.6-3.5-3.5s1.6-3.5,3.5-3.5h18.9c-1.3-1.4-3.2-2.9-5.9-3.9c-1.4-0.5-2.3-1.8-2.3-3.3l0-6.2
	c0-2,1.6-3.5,3.5-3.5h38.5c1.1,0,1.6-2,1.6-3.5v-7.1H533c-1.9,0-3.5-1.6-3.5-3.5c0-2,1.6-3.5,3.5-3.5h80.3v-56.2
	c0-1.5-0.1-1.6-1.6-1.6h-72.5c-1.9,0-3.5-1.6-3.5-3.5s1.6-3.5,3.5-3.5h72.5c5.4,0,8.7,3.3,8.7,8.7v70.3c0,6.1-3.7,10.5-8.7,10.5
	l-35,0v0.4c6,3,9.8,8,9.8,13C586.5,270.4,584.9,272,583,272L583,272z M480.8,223.2c1.8,3.1,4.4,3.5,5.7,3.5c1.7-1.4,5.3-3.4,11.9-4
	c3.4-0.3,6.1,0.8,8.3,1.7c2.9,1.2,3.6,1.5,4.9-0.3c0.2-0.5,0.5-1,1-1.6c3.4-5.3,9.4-19.3,11.7-26.1c2.2-6.7,1.4-19.2-4.4-28.9
	c-5.4-9-14.5-14.4-20.3-12.2c-0.3,0.2-1.1,1.2-1.5,1.8c-1.2,1.7-2.9,3.9-5.7,4.3c-1.9,0.3-3.9-0.4-6-1.9c-0.5-0.3-1.4-0.4-2.7-0.1
	c-4.1,1-10,5.7-12.9,12.2c-3.9,8.7-2.2,24.4-1.6,27.9c1.5,8.2,8.7,19.7,11.4,23.4c0,0.1,0.1,0.1,0.1,0.2
	C480.8,223,480.8,223.1,480.8,223.2L480.8,223.2z M480.5,232.3l-0.4,5.6c6.8,0,21.4-0.1,32.9-0.1l-0.7-5.9c-3.1,1-6.1-0.2-8.2-1.1
	c-1.7-0.7-3.4-1.4-5.1-1.2c-6.2,0.5-8.3,2.6-8.3,2.6c-0.5,0.6-1.1,0.9-1.8,1.1C487,233.9,483.7,233.9,480.5,232.3L480.5,232.3z
	 M449.5,278.6h94.6c-1.3-7.6-4.1-22.1-5.6-24.8c-5.5-4.6-17.4-7.9-22-8.9c-14.6,0-37,0.1-39.9,0.1c-4.7,0.9-17,3.9-22.3,8.7
	C453,256.5,450.5,271.4,449.5,278.6L449.5,278.6z M548.2,285.7H445.7c-1.9,0-3.5-1.6-3.5-3.5c0-1.2,3.4-29.7,7.1-33.3
	c6.1-5.9,18.3-9.1,23.7-10.3l0.9-13c-3.8-5.7-10.1-16.5-11.6-24.9c0-0.2-3.3-20,2.1-32c3.5-7.8,10.8-14.4,17.6-16.2
	c4.3-1.1,7.1,0.1,8.6,1.3c0.3,0.2,0.5,0.4,0.7,0.4c0.3-0.3,0.8-1,1.1-1.4c1.1-1.5,2.4-3.3,4.7-4.2c10.4-4,22.7,4.9,28.9,15.2
	c7.4,12.2,7.8,26.6,5.1,34.8c-2.2,6.5-8.2,21.1-12.4,27.7l1.5,12.4c5.1,1.3,16.9,4.7,23.2,10.2c4.1,3.6,8.3,32.8,8.3,33
	c0.1,1-0.2,2-0.9,2.8C550.2,285.3,549.2,285.7,548.2,285.7L548.2,285.7z"/>
<rect x="543.7" y="181.3" style="fill:#FF931E;" width="65.5" height="6.7"/>
<rect x="543.7" y="193" style="fill:#FF931E;" width="54.5" height="6.7"/>
<rect x="543.7" y="203.8" style="fill:#FF931E;" width="46.9" height="6.7"/>
<rect x="543.7" y="215.6" style="fill:#FF931E;" width="65.5" height="6.7"/>
<path d="M438.8,123.5v3h3v-3H438.8z M432.8,123.5v3h3v-3H432.8z M426.8,123.5v3h3v-3H426.8z M390.8,123.5v3h33v-3H390.8z
	 M357.7,117.5v3h3v-3H357.7z M357.7,111.5v3h3v-3H357.7z M438.8,108.5v3c0,3.4-2.7,6-6,6h-49l3.6-3.8l-2.2-2.1l-6,6.3
	c-0.6,0.6-0.6,1.5,0,2.1l6,6.3l2.2-2.1l-3.6-3.8h49.1c5,0,9-4,9-9v-3L438.8,108.5z M357.7,105.5v3h3v-3H357.7z M402.8,75.4
	c3.3,0,6,2.7,6,6c0,3.3-2.7,6-6,6c-3.3,0-6-2.7-6-6C396.8,78.1,399.5,75.4,402.8,75.4z M402.8,72.4c-5,0-9,4.1-9,9c0,5,4.1,9,9,9
	c5,0,9-4.1,9-9C411.8,76.5,407.8,72.4,402.8,72.4z M357.7,69.4v33h3v-33H357.7z M444.8,60.4v33h3v-33H444.8z M365.2,57.4
	c-0.4,0-0.7,0.2-1,0.4l-6.3,6L360,66l3.8-3.6v49c0,5,4,9,9,9h3v-3h-3c-3.4,0-6-2.7-6-6v-49l3.8,3.6l2.1-2.2l-6.3-6
	C366,57.5,365.6,57.4,365.2,57.4z M399.8,57.4h6v8.2c0,0.7,0.4,1.3,1.1,1.4c1.1,0.3,2.2,0.8,3.2,1.3c0.6,0.3,1.3,0.2,1.8-0.2
	l5.7-5.7l4.2,4.2l-5.7,5.7c-0.5,0.5-0.6,1.2-0.2,1.8c0.6,1,1,2.1,1.3,3.2c0.2,0.6,0.8,1.1,1.4,1.1h8.1v6h-8.1
	c-0.7,0-1.3,0.5-1.4,1.1c-0.3,1.1-0.8,2.2-1.4,3.3c-0.3,0.6-0.2,1.3,0.2,1.8l5.8,5.8l-4.2,4.3l-5.8-5.8c-0.5-0.5-1.2-0.6-1.8-0.3
	c-1,0.5-2,1-3.1,1.3c-0.6,0.2-1.1,0.8-1.1,1.4v8.1h-6v-8.2c0-0.7-0.5-1.3-1.1-1.4c-1.1-0.3-2.2-0.8-3.2-1.3
	c-0.6-0.3-1.3-0.2-1.8,0.2l-5.8,5.8l-4.2-4.2l5.8-5.8c0.5-0.5,0.6-1.2,0.2-1.8c-0.6-1-1-2.1-1.3-3.2c-0.2-0.6-0.8-1.1-1.4-1.1h-8.2
	v-6h8.2c0.7,0,1.3-0.4,1.4-1.1c0.3-1.1,0.7-2.2,1.3-3.1c0.3-0.6,0.2-1.3-0.3-1.8l-5.8-5.8l4.2-4.2l5.7,5.7c0.5,0.5,1.2,0.6,1.8,0.2
	c1-0.6,2.1-1.1,3.3-1.4c0.6-0.2,1.1-0.8,1.1-1.4V57.4z M444.8,54.4v3h3v-3H444.8z M398.3,54.4c-0.8,0-1.5,0.7-1.5,1.5v8.7
	c-0.6,0.2-1.2,0.5-1.8,0.7l-6.1-6.1c-0.6-0.6-1.5-0.6-2.1,0l-6.4,6.4c-0.6,0.6-0.6,1.5,0,2.1l6.1,6.1c-0.2,0.5-0.5,1.1-0.7,1.6h-8.7
	c-0.8,0-1.5,0.7-1.5,1.5v9c0,0.8,0.7,1.5,1.5,1.5h8.7c0.2,0.6,0.4,1.1,0.7,1.7l-6.2,6.2c-0.6,0.6-0.6,1.5,0,2.1l6.4,6.4
	c0.6,0.6,1.5,0.6,2.1,0l6.2-6.2c0.5,0.3,1.1,0.5,1.7,0.7v8.7c0,0.8,0.7,1.5,1.5,1.5h9c0.8,0,1.5-0.7,1.5-1.5v-8.6
	c0.5-0.2,1.1-0.4,1.6-0.7l6.2,6.2c0.6,0.6,1.5,0.6,2.1,0l6.4-6.4c0.6-0.6,0.6-1.5,0-2.1l-6.1-6.1c0.3-0.6,0.5-1.2,0.7-1.8h8.6
	c0.8,0,1.5-0.7,1.5-1.5v-9c0-0.8-0.7-1.5-1.5-1.5h-8.6c-0.2-0.6-0.4-1.1-0.7-1.7l6.1-6.1c0.6-0.6,0.6-1.5,0-2.1l-6.4-6.4
	c-0.6-0.6-1.5-0.6-2.1,0l-6.1,6c-0.5-0.3-1.1-0.5-1.7-0.7v-8.7c0-0.8-0.7-1.5-1.5-1.5L398.3,54.4z M444.8,48.4v3h3v-3H444.8z
	 M444.8,42.4v3h3v-3H444.8z M429.8,42.4v3h3c3.4,0,6,2.7,6,6v49.1l-3.8-3.6L433,99l6.3,6c0.6,0.6,1.5,0.6,2.1,0l6.3-6l-2.1-2.2
	l-3.8,3.6V51.4c0-5-4-9-9-9H429.8z M420.4,36.6l-2.2,2.1l3.6,3.8h-49c-5,0-9,4-9,9v3h3v-3c0-3.4,2.7-6,6-6h49.1l-3.6,3.8l2.2,2.1
	l6-6.3c0.6-0.6,0.6-1.5,0-2.1L420.4,36.6z M381.8,36.4v3h33v-3H381.8z M375.8,36.4v3h3v-3H375.8z M369.8,36.4v3h3v-3H369.8z
	 M363.8,36.4v3h3v-3H363.8z"/>
<g>
	<path d="M386.5,17.2c0.8-0.1,1.8-0.2,2.8-0.2c1.9,0,3.3,0.4,4.2,1.3c0.9,0.8,1.5,2,1.5,3.7c0,1.7-0.5,3.1-1.5,4
		c-1,1-2.6,1.5-4.6,1.5c-1,0-1.8,0-2.4-0.1V17.2z M387.9,26.3c0.3,0.1,0.8,0.1,1.4,0.1c2.9,0,4.4-1.6,4.4-4.4c0-2.4-1.4-4-4.2-4
		c-0.7,0-1.2,0.1-1.6,0.1V26.3z"/>
	<path d="M403.5,23.6c0,2.8-1.9,4-3.7,4c-2,0-3.6-1.5-3.6-3.8c0-2.5,1.6-4,3.7-4C402.1,19.8,403.5,21.3,403.5,23.6z M397.6,23.7
		c0,1.6,0.9,2.9,2.3,2.9c1.3,0,2.3-1.2,2.3-2.9c0-1.3-0.6-2.9-2.2-2.9S397.6,22.3,397.6,23.7z"/>
	<path d="M410.5,27.1c-0.4,0.2-1.1,0.4-2.1,0.4c-2.2,0-3.7-1.5-3.7-3.8c0-2.3,1.6-4,4-4c0.8,0,1.5,0.2,1.9,0.4l-0.3,1
		c-0.3-0.2-0.8-0.4-1.6-0.4c-1.7,0-2.6,1.3-2.6,2.8c0,1.7,1.1,2.8,2.6,2.8c0.8,0,1.3-0.2,1.7-0.4L410.5,27.1z"/>
	<path d="M411.9,26c0.4,0.3,1.1,0.5,1.8,0.5c1,0,1.4-0.5,1.4-1.1c0-0.6-0.4-1-1.4-1.4c-1.3-0.5-2-1.2-2-2.1c0-1.2,1-2.2,2.6-2.2
		c0.8,0,1.4,0.2,1.8,0.5l-0.3,1c-0.3-0.2-0.8-0.4-1.5-0.4c-0.8,0-1.2,0.5-1.2,1c0,0.6,0.4,0.9,1.4,1.3c1.3,0.5,2,1.1,2,2.2
		c0,1.3-1,2.2-2.8,2.2c-0.8,0-1.6-0.2-2.1-0.5L411.9,26z"/>
</g>
<g>
	<path d="M457.4,67.5c-0.2-0.5-0.5-1.5-0.5-2.7c0-2.9,1.8-5.1,5.2-5.1c3.2,0,5.4,2.2,5.4,5.4c0,1.3-0.3,2.1-0.5,2.5l-1.1-0.3
		c0.2-0.5,0.4-1.2,0.4-2.1c0-2.4-1.6-4-4.3-4c-2.5,0-4.2,1.5-4.2,4c0,0.8,0.2,1.6,0.4,2.2L457.4,67.5z"/>
	<path d="M460.9,75.7c-2.8,0-4-1.9-4-3.7c0-2,1.5-3.6,3.8-3.6c2.5,0,4,1.6,4,3.7C464.7,74.3,463.1,75.7,460.9,75.7z M460.8,69.8
		c-1.6,0-2.9,0.9-2.9,2.3c0,1.3,1.2,2.3,2.9,2.3c1.3,0,2.9-0.6,2.9-2.2S462.2,69.8,460.8,69.8z"/>
	<path d="M468,83.8h-9c-0.7,0-1.4,0-1.9,0.1v-1.2l1.3-0.1v0c-0.8-0.4-1.5-1.3-1.5-2.5c0-1.8,1.5-3.2,3.8-3.2c2.5,0,4,1.5,4,3.3
		c0,1.1-0.5,1.9-1.1,2.2v0h4.4V83.8z M461.5,82.5c0.2,0,0.4,0,0.6-0.1c0.9-0.2,1.6-0.9,1.6-2c0-1.4-1.2-2.2-2.9-2.2
		c-1.5,0-2.8,0.7-2.8,2.2c0,0.9,0.6,1.7,1.6,2c0.2,0,0.4,0.1,0.6,0.1H461.5z"/>
	<path d="M460.6,86.8c-1.8,0-2.6,1.2-2.6,2.6c0,1,0.2,1.6,0.4,2.1l-1,0.2c-0.2-0.5-0.5-1.3-0.5-2.5c0-2.3,1.5-3.7,3.8-3.7
		s4,1.3,4,3.5c0,2.4-2.1,3.1-3.5,3.1c-0.3,0-0.5,0-0.6,0V86.8z M461.5,90.8c0.9,0,2.2-0.4,2.2-1.9c0-1.4-1.3-2-2.2-2.1V90.8z"/>
</g>
<g>
	<path d="M352.4,87.7c0.2,0.5,0.5,1.5,0.5,2.7c0,2.9-1.8,5.1-5.2,5.1c-3.2,0-5.4-2.2-5.4-5.4c0-1.3,0.3-2.1,0.5-2.5l1.1,0.3
		c-0.2,0.5-0.4,1.2-0.4,2.1c0,2.4,1.6,4,4.3,4c2.5,0,4.2-1.5,4.2-4c0-0.8-0.2-1.6-0.4-2.2L352.4,87.7z"/>
	<path d="M348.9,79.5c2.8,0,4,1.9,4,3.7c0,2-1.5,3.6-3.8,3.6c-2.5,0-4-1.6-4-3.7C345.1,81,346.7,79.5,348.9,79.5z M349,85.4
		c1.6,0,2.9-0.9,2.9-2.3c0-1.3-1.2-2.3-2.9-2.3c-1.3,0-2.9,0.6-2.9,2.2S347.6,85.4,349,85.4z"/>
	<path d="M341.8,71.4h9c0.7,0,1.4,0,1.9-0.1v1.2l-1.3,0.1v0c0.8,0.4,1.5,1.3,1.5,2.5c0,1.8-1.5,3.2-3.8,3.2c-2.5,0-4-1.5-4-3.3
		c0-1.1,0.5-1.9,1.1-2.2v0h-4.4V71.4z M348.3,72.7c-0.2,0-0.4,0-0.6,0.1c-0.9,0.2-1.6,0.9-1.6,2c0,1.4,1.2,2.2,2.9,2.2
		c1.5,0,2.8-0.7,2.8-2.2c0-0.9-0.6-1.7-1.6-2c-0.2,0-0.4-0.1-0.6-0.1H348.3z"/>
	<path d="M349.2,68.4c1.8,0,2.6-1.2,2.6-2.6c0-1-0.2-1.6-0.4-2.1l1-0.2c0.2,0.5,0.5,1.3,0.5,2.5c0,2.3-1.5,3.7-3.8,3.7s-4-1.3-4-3.5
		c0-2.4,2.1-3.1,3.5-3.1c0.3,0,0.5,0,0.6,0V68.4z M348.3,64.4c-0.9,0-2.2,0.4-2.2,1.9c0,1.4,1.3,2,2.2,2.1V64.4z"/>
</g>
<g>
	<path d="M387.5,132.3c0.8-0.1,1.8-0.2,2.8-0.2c1.9,0,3.3,0.4,4.2,1.3c0.9,0.8,1.5,2,1.5,3.7c0,1.7-0.5,3.1-1.5,4
		c-1,1-2.6,1.5-4.6,1.5c-1,0-1.8,0-2.4-0.1V132.3z M388.8,141.5c0.3,0.1,0.8,0.1,1.4,0.1c2.9,0,4.4-1.6,4.4-4.4c0-2.4-1.4-4-4.2-4
		c-0.7,0-1.2,0.1-1.6,0.1V141.5z"/>
	<path d="M404.5,138.8c0,2.8-1.9,4-3.7,4c-2,0-3.6-1.5-3.6-3.8c0-2.5,1.6-4,3.7-4C403,134.9,404.5,136.5,404.5,138.8z M398.6,138.8
		c0,1.6,0.9,2.9,2.3,2.9c1.3,0,2.3-1.2,2.3-2.9c0-1.3-0.6-2.9-2.2-2.9S398.6,137.4,398.6,138.8z"/>
	<path d="M411.5,142.3c-0.4,0.2-1.1,0.4-2.1,0.4c-2.2,0-3.7-1.5-3.7-3.8c0-2.3,1.6-4,4-4c0.8,0,1.5,0.2,1.9,0.4l-0.3,1
		c-0.3-0.2-0.8-0.4-1.6-0.4c-1.7,0-2.6,1.3-2.6,2.8c0,1.7,1.1,2.8,2.6,2.8c0.8,0,1.3-0.2,1.7-0.4L411.5,142.3z"/>
	<path d="M412.9,141.2c0.4,0.3,1.1,0.5,1.8,0.5c1,0,1.4-0.5,1.4-1.1c0-0.6-0.4-1-1.4-1.4c-1.3-0.5-2-1.2-2-2.1c0-1.2,1-2.2,2.6-2.2
		c0.8,0,1.4,0.2,1.8,0.5l-0.3,1c-0.3-0.2-0.8-0.4-1.5-0.4c-0.8,0-1.2,0.5-1.2,1c0,0.6,0.4,0.9,1.4,1.3c1.3,0.5,2,1.1,2,2.2
		c0,1.3-1,2.2-2.8,2.2c-0.8,0-1.6-0.2-2.1-0.5L412.9,141.2z"/>
</g>
<g>
	<g>
		
			<line style="fill:none;stroke:#000000;stroke-width:2.883;stroke-miterlimit:10;stroke-dasharray:5.7659,5.7659;" x1="561.2" y1="147.5" x2="488.8" y2="109.7"/>
		<g>
			<polygon points="495.9,106.3 490.6,110.6 490.1,117.5 479.8,105 			"/>
		</g>
	</g>
</g>
<g>
	<g>
		
			<line style="fill:none;stroke:#000000;stroke-width:2.883;stroke-miterlimit:10;stroke-dasharray:5.7659,5.7659;" x1="256" y1="154.9" x2="324.8" y2="110.8"/>
		<g>
			<polygon points="324.2,118.6 323,111.9 317.4,108 333.3,105.3 			"/>
		</g>
	</g>
</g>
<g>
	<path d="M205.3,312.4c-0.5,0.3-1.7,0.6-3.3,0.6c-4.5,0-6.8-2.8-6.8-6.5c0-4.4,3.2-6.9,7.1-6.9c1.5,0,2.7,0.3,3.2,0.6l-0.6,2.3
		c-0.6-0.2-1.4-0.5-2.5-0.5c-2.3,0-4.1,1.4-4.1,4.3c0,2.6,1.5,4.2,4.2,4.2c0.9,0,1.9-0.2,2.4-0.4L205.3,312.4z"/>
	<path d="M216,307.9c0,3.4-2.4,5-5,5c-2.7,0-4.9-1.8-4.9-4.8c0-3,2-5,5-5C214.1,303.1,216,305.1,216,307.9z M209.2,308
		c0,1.6,0.7,2.8,1.9,2.8c1.1,0,1.9-1.1,1.9-2.8c0-1.4-0.5-2.8-1.9-2.8C209.8,305.2,209.2,306.6,209.2,308z"/>
	<path d="M227,299.1v10.8c0,1.1,0,2.2,0.1,2.8h-2.6l-0.1-1.4h0c-0.6,1.1-1.7,1.6-2.9,1.6c-2.2,0-4-1.9-4-4.8c0-3.2,2-5,4.2-5
		c1.2,0,2.1,0.4,2.5,1.1h0v-5.1H227z M224.1,307.3c0-0.2,0-0.4,0-0.5c-0.2-0.8-0.8-1.4-1.7-1.4c-1.3,0-2,1.2-2,2.7
		c0,1.6,0.8,2.6,2,2.6c0.8,0,1.5-0.6,1.7-1.4c0.1-0.2,0.1-0.4,0.1-0.7V307.3z"/>
	<path d="M231.6,309c0.1,1.2,1.3,1.8,2.7,1.8c1,0,1.8-0.1,2.6-0.4l0.4,2c-1,0.4-2.1,0.6-3.4,0.6c-3.2,0-5-1.8-5-4.8
		c0-2.4,1.5-5,4.7-5c3,0,4.2,2.4,4.2,4.7c0,0.5-0.1,0.9-0.1,1.2H231.6z M235.1,307c0-0.7-0.3-1.9-1.7-1.9c-1.2,0-1.7,1.1-1.8,1.9
		H235.1z"/>
</g>
<g>
	<path d="M491.2,295.7c1.1-0.2,2.5-0.3,4-0.3c2.5,0,4.1,0.4,5.3,1.4c1.3,1,2.2,2.6,2.2,4.9c0,2.5-0.9,4.2-2.2,5.2
		c-1.4,1.1-3.4,1.7-6,1.7c-1.5,0-2.6-0.1-3.3-0.2V295.7z M494.1,306.3c0.2,0.1,0.7,0.1,1,0.1c2.7,0,4.4-1.4,4.4-4.5
		c0-2.7-1.6-4.1-4.1-4.1c-0.7,0-1.1,0.1-1.3,0.1V306.3z"/>
	<path d="M513.8,303.7c0,3.4-2.4,5-5,5c-2.7,0-4.9-1.8-4.9-4.8c0-3,2-5,5-5C511.8,298.9,513.8,300.9,513.8,303.7z M507,303.8
		c0,1.6,0.7,2.8,1.9,2.8c1.1,0,1.9-1.1,1.9-2.8c0-1.4-0.5-2.8-1.9-2.8C507.5,301,507,302.4,507,303.8z"/>
	<path d="M522.7,308.3c-0.5,0.2-1.5,0.4-2.6,0.4c-3,0-5-1.8-5-4.8c0-2.7,1.9-5,5.4-5c0.8,0,1.6,0.1,2.2,0.4l-0.5,2.2
		c-0.3-0.2-0.9-0.3-1.6-0.3c-1.5,0-2.5,1.1-2.5,2.6c0,1.7,1.2,2.6,2.6,2.6c0.7,0,1.2-0.1,1.7-0.3L522.7,308.3z"/>
	<path d="M524.3,306c0.5,0.3,1.7,0.7,2.5,0.7c0.9,0,1.2-0.3,1.2-0.8s-0.3-0.7-1.4-1.1c-1.9-0.7-2.7-1.7-2.7-2.8
		c0-1.7,1.5-3.1,3.8-3.1c1.1,0,2.1,0.2,2.7,0.5l-0.5,2c-0.4-0.2-1.2-0.5-2-0.5c-0.7,0-1.1,0.3-1.1,0.8c0,0.4,0.4,0.7,1.5,1.1
		c1.8,0.6,2.5,1.5,2.6,2.9c0,1.8-1.4,3-4.1,3c-1.2,0-2.3-0.3-3-0.7L524.3,306z"/>
</g>
<g>
	<path d="M97.1,347.3c0-0.6,0.2-1.1,0.6-1.5c0.4-0.4,0.9-0.6,1.5-0.6c0.6,0,1.1,0.2,1.5,0.6c0.4,0.4,0.6,0.9,0.6,1.5
		s-0.2,1.1-0.6,1.5c-0.4,0.4-0.9,0.6-1.5,0.6c-0.6,0-1.1-0.2-1.5-0.6C97.3,348.3,97.1,347.9,97.1,347.3z"/>
	<path d="M108.4,353.2v-14.3h4.6c1.8,0,2.9,0.1,3.4,0.2c0.8,0.2,1.5,0.7,2.1,1.4s0.8,1.6,0.8,2.8c0,0.9-0.2,1.6-0.5,2.2
		s-0.7,1.1-1.2,1.4s-1,0.6-1.5,0.7c-0.7,0.1-1.7,0.2-3,0.2h-1.9v5.4H108.4z M111.3,341.3v4.1h1.6c1.1,0,1.9-0.1,2.3-0.2
		s0.7-0.4,0.9-0.7s0.3-0.7,0.3-1.1c0-0.5-0.2-1-0.5-1.3s-0.7-0.5-1.2-0.6c-0.3-0.1-1-0.1-2.1-0.1H111.3z"/>
	<path d="M121.7,353.2v-14.3h2.7v14.3H121.7z"/>
	<path d="M129.3,346l-2.5-0.4c0.3-1,0.8-1.7,1.4-2.2s1.7-0.7,3-0.7c1.2,0,2.1,0.1,2.7,0.4s1,0.7,1.3,1.1s0.4,1.3,0.4,2.5l0,3.2
		c0,0.9,0,1.6,0.1,2s0.3,0.9,0.5,1.4h-2.7c-0.1-0.2-0.2-0.5-0.3-0.8c0-0.2-0.1-0.3-0.1-0.3c-0.5,0.5-1,0.8-1.5,1s-1.1,0.3-1.7,0.3
		c-1.1,0-1.9-0.3-2.5-0.9s-0.9-1.3-0.9-2.2c0-0.6,0.1-1.1,0.4-1.6s0.7-0.8,1.2-1.1s1.2-0.5,2.2-0.6c1.3-0.2,2.2-0.5,2.7-0.7v-0.3
		c0-0.5-0.1-0.9-0.4-1.1s-0.8-0.3-1.5-0.3c-0.5,0-0.9,0.1-1.1,0.3S129.5,345.5,129.3,346z M133,348.2c-0.4,0.1-0.9,0.3-1.7,0.4
		s-1.3,0.3-1.5,0.5c-0.4,0.3-0.5,0.6-0.5,1c0,0.4,0.1,0.7,0.4,1s0.7,0.4,1.1,0.4c0.5,0,1-0.2,1.4-0.5c0.3-0.2,0.6-0.5,0.7-0.9
		c0.1-0.2,0.1-0.7,0.1-1.3V348.2z"/>
	<path d="M138.4,341.5v-2.5h2.7v2.5H138.4z M138.4,353.2v-10.4h2.7v10.4H138.4z"/>
	<path d="M153.4,353.2h-2.7v-5.3c0-1.1-0.1-1.8-0.2-2.2s-0.3-0.6-0.6-0.8s-0.6-0.3-1-0.3c-0.5,0-0.9,0.1-1.3,0.4s-0.6,0.6-0.8,1
		s-0.2,1.2-0.2,2.4v4.7h-2.7v-10.4h2.5v1.5c0.9-1.2,2-1.8,3.4-1.8c0.6,0,1.2,0.1,1.7,0.3s0.9,0.5,1.1,0.8s0.4,0.7,0.5,1.2
		s0.2,1,0.2,1.8V353.2z"/>
	<path d="M155.8,349.4v-2.7h5.4v2.7H155.8z"/>
	<path d="M167.6,342.9v2.2h-1.9v4.2c0,0.8,0,1.3,0.1,1.5s0.1,0.3,0.2,0.3s0.3,0.1,0.5,0.1c0.3,0,0.6-0.1,1.1-0.3l0.2,2.1
		c-0.6,0.3-1.4,0.4-2.2,0.4c-0.5,0-0.9-0.1-1.3-0.2s-0.7-0.4-0.9-0.6s-0.3-0.6-0.4-1.1c-0.1-0.3-0.1-1-0.1-1.9V345h-1.3v-2.2h1.3
		v-2.1l2.8-1.6v3.7H167.6z"/>
	<path d="M175.5,349.9l2.7,0.5c-0.4,1-0.9,1.8-1.7,2.3s-1.7,0.8-2.8,0.8c-1.8,0-3.1-0.6-4-1.8c-0.7-0.9-1-2.1-1-3.6
		c0-1.7,0.4-3.1,1.3-4s2-1.5,3.4-1.5c1.5,0,2.8,0.5,3.7,1.5s1.3,2.6,1.3,4.7h-6.9c0,0.8,0.2,1.4,0.7,1.9s1,0.7,1.6,0.7
		c0.4,0,0.8-0.1,1.1-0.4S175.3,350.5,175.5,349.9z M175.6,347.2c0-0.8-0.2-1.4-0.6-1.8s-0.9-0.6-1.4-0.6c-0.6,0-1.1,0.2-1.5,0.7
		s-0.6,1-0.6,1.8H175.6z"/>
	<path d="M179.3,353.2l3.7-5.3l-3.6-5h3.3l1.8,2.9l1.9-2.9h3.2l-3.5,4.9l3.8,5.5h-3.4l-2.1-3.2l-2.1,3.2H179.3z"/>
	<path d="M196.5,342.9v2.2h-1.9v4.2c0,0.8,0,1.3,0.1,1.5s0.1,0.3,0.2,0.3s0.3,0.1,0.5,0.1c0.3,0,0.6-0.1,1.1-0.3l0.2,2.1
		c-0.6,0.3-1.4,0.4-2.2,0.4c-0.5,0-0.9-0.1-1.3-0.2s-0.7-0.4-0.9-0.6s-0.3-0.6-0.4-1.1c-0.1-0.3-0.1-1-0.1-1.9V345h-1.3v-2.2h1.3
		v-2.1l2.8-1.6v3.7H196.5z"/>
	<path d="M202.7,342.9h1.5v-0.8c0-0.9,0.1-1.5,0.3-2s0.5-0.8,1-1s1.1-0.4,1.9-0.4c0.8,0,1.5,0.1,2.3,0.4l-0.4,1.9
		c-0.4-0.1-0.9-0.2-1.3-0.2c-0.4,0-0.7,0.1-0.9,0.3s-0.3,0.5-0.3,1.1v0.7h2.1v2.2H207v8.2h-2.7V345h-1.5V342.9z"/>
	<path d="M210.6,341.5v-2.5h2.7v2.5H210.6z M210.6,353.2v-10.4h2.7v10.4H210.6z"/>
	<path d="M216.1,353.2v-14.3h2.7v14.3H216.1z"/>
	<path d="M227.7,349.9l2.7,0.5c-0.4,1-0.9,1.8-1.7,2.3s-1.7,0.8-2.8,0.8c-1.8,0-3.1-0.6-4-1.8c-0.7-0.9-1-2.1-1-3.6
		c0-1.7,0.4-3.1,1.3-4s2-1.5,3.4-1.5c1.5,0,2.8,0.5,3.7,1.5s1.3,2.6,1.3,4.7h-6.9c0,0.8,0.2,1.4,0.7,1.9s1,0.7,1.6,0.7
		c0.4,0,0.8-0.1,1.1-0.4S227.5,350.5,227.7,349.9z M227.9,347.2c0-0.8-0.2-1.4-0.6-1.8s-0.9-0.6-1.4-0.6c-0.6,0-1.1,0.2-1.5,0.7
		s-0.6,1-0.6,1.8H227.9z"/>
	<path d="M231.8,350.3l2.8-0.4c0.1,0.5,0.4,0.9,0.7,1.2s0.9,0.4,1.5,0.4c0.7,0,1.2-0.1,1.6-0.4c0.2-0.2,0.4-0.4,0.4-0.7
		c0-0.2-0.1-0.4-0.2-0.5c-0.1-0.1-0.4-0.3-0.9-0.4c-2.2-0.5-3.6-0.9-4.2-1.3c-0.8-0.6-1.2-1.3-1.2-2.3c0-0.9,0.4-1.7,1.1-2.3
		s1.8-0.9,3.3-0.9c1.4,0,2.5,0.2,3.2,0.7s1.2,1.1,1.4,2.1l-2.6,0.5c-0.1-0.4-0.3-0.7-0.6-0.9s-0.8-0.3-1.3-0.3
		c-0.7,0-1.2,0.1-1.6,0.3c-0.2,0.1-0.3,0.3-0.3,0.6c0,0.2,0.1,0.4,0.3,0.5c0.2,0.2,1.1,0.4,2.6,0.8s2.5,0.7,3.1,1.2
		c0.6,0.5,0.9,1.2,0.9,2c0,1-0.4,1.8-1.2,2.5s-2,1-3.5,1c-1.4,0-2.5-0.3-3.4-0.9S232.1,351.3,231.8,350.3z"/>
	<path d="M102.6,381.2c0,0.8-0.3,1.5-0.8,2s-1.2,0.8-2,0.8c-0.8,0-1.5-0.3-2-0.8s-0.8-1.2-0.8-2s0.3-1.5,0.8-2s1.2-0.8,2-0.8
		c0.8,0,1.5,0.3,2,0.8S102.6,380.4,102.6,381.2z"/>
	<path d="M109.5,383.6l2.8-0.3c0.2,0.9,0.5,1.6,1,2.1s1.2,0.7,2.1,0.7c0.9,0,1.6-0.2,2.1-0.6s0.7-0.9,0.7-1.4c0-0.3-0.1-0.6-0.3-0.9
		s-0.5-0.4-1-0.6c-0.3-0.1-1.1-0.3-2.3-0.6c-1.5-0.4-2.6-0.9-3.3-1.4c-0.9-0.8-1.3-1.7-1.3-2.9c0-0.7,0.2-1.4,0.6-2s1-1.1,1.8-1.5
		s1.7-0.5,2.8-0.5c1.8,0,3.1,0.4,4.1,1.2s1.4,1.8,1.4,3.2l-2.9,0.1c-0.1-0.7-0.4-1.3-0.8-1.6s-1-0.5-1.8-0.5c-0.8,0-1.5,0.2-2,0.5
		c-0.3,0.2-0.5,0.5-0.5,0.9c0,0.3,0.1,0.6,0.4,0.9c0.4,0.3,1.2,0.6,2.7,1s2.4,0.7,3.1,1s1.2,0.8,1.6,1.5s0.6,1.4,0.6,2.3
		c0,0.8-0.2,1.6-0.7,2.3s-1.1,1.2-1.9,1.6s-1.9,0.5-3.1,0.5c-1.8,0-3.2-0.4-4.2-1.3S109.7,385.2,109.5,383.6z"/>
	<path d="M128.3,377.9v2.2h-1.9v4.2c0,0.8,0,1.3,0.1,1.5s0.1,0.3,0.2,0.3s0.3,0.1,0.5,0.1c0.3,0,0.6-0.1,1.1-0.3l0.2,2.1
		c-0.6,0.3-1.4,0.4-2.2,0.4c-0.5,0-0.9-0.1-1.3-0.2s-0.7-0.4-0.9-0.6s-0.3-0.6-0.4-1.1c-0.1-0.3-0.1-1-0.1-1.9V380h-1.3v-2.2h1.3
		v-2.1l2.8-1.6v3.7H128.3z"/>
	<path d="M132.3,381l-2.5-0.4c0.3-1,0.8-1.7,1.4-2.2s1.7-0.7,3-0.7c1.2,0,2.1,0.1,2.7,0.4s1,0.7,1.3,1.1s0.4,1.3,0.4,2.5l0,3.2
		c0,0.9,0,1.6,0.1,2s0.3,0.9,0.5,1.4h-2.7c-0.1-0.2-0.2-0.5-0.3-0.8c0-0.2-0.1-0.3-0.1-0.3c-0.5,0.5-1,0.8-1.5,1s-1.1,0.3-1.7,0.3
		c-1.1,0-1.9-0.3-2.5-0.9s-0.9-1.3-0.9-2.2c0-0.6,0.1-1.1,0.4-1.6s0.7-0.8,1.2-1.1s1.2-0.5,2.2-0.6c1.3-0.2,2.2-0.5,2.7-0.7v-0.3
		c0-0.5-0.1-0.9-0.4-1.1s-0.8-0.3-1.5-0.3c-0.5,0-0.9,0.1-1.1,0.3S132.4,380.5,132.3,381z M135.9,383.2c-0.4,0.1-0.9,0.3-1.7,0.4
		s-1.3,0.3-1.5,0.5c-0.4,0.3-0.5,0.6-0.5,1c0,0.4,0.1,0.7,0.4,1s0.7,0.4,1.1,0.4c0.5,0,1-0.2,1.4-0.5c0.3-0.2,0.6-0.5,0.7-0.9
		c0.1-0.2,0.1-0.7,0.1-1.3V383.2z"/>
	<path d="M146.1,377.9v2.2h-1.9v4.2c0,0.8,0,1.3,0.1,1.5s0.1,0.3,0.2,0.3s0.3,0.1,0.5,0.1c0.3,0,0.6-0.1,1.1-0.3l0.2,2.1
		c-0.6,0.3-1.4,0.4-2.2,0.4c-0.5,0-0.9-0.1-1.3-0.2s-0.7-0.4-0.9-0.6s-0.3-0.6-0.4-1.1c-0.1-0.3-0.1-1-0.1-1.9V380h-1.3v-2.2h1.3
		v-2.1l2.8-1.6v3.7H146.1z"/>
	<path d="M148,376.5v-2.5h2.7v2.5H148z M148,388.2v-10.4h2.7v10.4H148z"/>
	<path d="M162.6,380.9l-2.7,0.5c-0.1-0.5-0.3-0.9-0.6-1.2s-0.7-0.4-1.3-0.4c-0.7,0-1.2,0.2-1.6,0.7s-0.6,1.3-0.6,2.4
		c0,1.2,0.2,2.1,0.6,2.6s1,0.8,1.7,0.8c0.5,0,0.9-0.1,1.3-0.4s0.6-0.8,0.7-1.5l2.7,0.5c-0.3,1.2-0.8,2.2-1.6,2.8s-1.9,0.9-3.2,0.9
		c-1.5,0-2.7-0.5-3.6-1.4s-1.4-2.3-1.4-4c0-1.7,0.5-3,1.4-4s2.1-1.4,3.7-1.4c1.3,0,2.3,0.3,3,0.8S162.3,379.8,162.6,380.9z"/>
	<path d="M169.3,385.3l2.8-0.4c0.1,0.5,0.4,0.9,0.7,1.2s0.9,0.4,1.5,0.4c0.7,0,1.2-0.1,1.6-0.4c0.2-0.2,0.4-0.4,0.4-0.7
		c0-0.2-0.1-0.4-0.2-0.5c-0.1-0.1-0.4-0.3-0.9-0.4c-2.2-0.5-3.6-0.9-4.2-1.3c-0.8-0.6-1.2-1.3-1.2-2.3c0-0.9,0.4-1.7,1.1-2.3
		s1.8-0.9,3.3-0.9c1.4,0,2.5,0.2,3.2,0.7s1.2,1.1,1.4,2.1l-2.6,0.5c-0.1-0.4-0.3-0.7-0.6-0.9s-0.8-0.3-1.3-0.3
		c-0.7,0-1.2,0.1-1.6,0.3c-0.2,0.1-0.3,0.3-0.3,0.6c0,0.2,0.1,0.4,0.3,0.5c0.2,0.2,1.1,0.4,2.6,0.8s2.5,0.7,3.1,1.2
		c0.6,0.5,0.9,1.2,0.9,2c0,1-0.4,1.8-1.2,2.5s-2,1-3.5,1c-1.4,0-2.5-0.3-3.4-0.9S169.5,386.3,169.3,385.3z"/>
	<path d="M181.4,376.5v-2.5h2.7v2.5H181.4z M181.4,388.2v-10.4h2.7v10.4H181.4z"/>
	<path d="M191.7,377.9v2.2h-1.9v4.2c0,0.8,0,1.3,0.1,1.5s0.1,0.3,0.2,0.3s0.3,0.1,0.5,0.1c0.3,0,0.6-0.1,1.1-0.3l0.2,2.1
		c-0.6,0.3-1.4,0.4-2.2,0.4c-0.5,0-0.9-0.1-1.3-0.2s-0.7-0.4-0.9-0.6s-0.3-0.6-0.4-1.1c-0.1-0.3-0.1-1-0.1-1.9V380h-1.3v-2.2h1.3
		v-2.1l2.8-1.6v3.7H191.7z"/>
	<path d="M199.6,384.9l2.7,0.5c-0.4,1-0.9,1.8-1.7,2.3s-1.7,0.8-2.8,0.8c-1.8,0-3.1-0.6-4-1.8c-0.7-0.9-1-2.1-1-3.6
		c0-1.7,0.4-3.1,1.3-4s2-1.5,3.4-1.5c1.5,0,2.8,0.5,3.7,1.5s1.3,2.6,1.3,4.7h-6.9c0,0.8,0.2,1.4,0.7,1.9s1,0.7,1.6,0.7
		c0.4,0,0.8-0.1,1.1-0.4S199.4,385.5,199.6,384.9z M199.7,382.2c0-0.8-0.2-1.4-0.6-1.8s-0.9-0.6-1.4-0.6c-0.6,0-1.1,0.2-1.5,0.7
		s-0.6,1-0.6,1.8H199.7z"/>
	<path d="M210,388.9l3.1,0.4c0.1,0.4,0.2,0.6,0.4,0.8c0.3,0.2,0.7,0.3,1.2,0.3c0.7,0,1.3-0.1,1.6-0.3c0.2-0.1,0.4-0.4,0.5-0.7
		c0.1-0.2,0.1-0.6,0.1-1.3v-1.5c-0.8,1.1-1.9,1.7-3.1,1.7c-1.4,0-2.5-0.6-3.3-1.8c-0.6-0.9-1-2.1-1-3.5c0-1.7,0.4-3.1,1.3-4
		s1.9-1.4,3.1-1.4c1.3,0,2.3,0.6,3.2,1.7v-1.5h2.6v9.3c0,1.2-0.1,2.1-0.3,2.7s-0.5,1.1-0.8,1.4s-0.9,0.6-1.5,0.8s-1.4,0.3-2.3,0.3
		c-1.8,0-3-0.3-3.7-0.9s-1.1-1.4-1.1-2.3C210,389.2,210,389,210,388.9z M212.5,382.8c0,1.1,0.2,1.9,0.6,2.4s1,0.8,1.6,0.8
		c0.7,0,1.2-0.3,1.7-0.8s0.7-1.3,0.7-2.3c0-1.1-0.2-1.9-0.7-2.4s-1-0.8-1.7-0.8c-0.7,0-1.2,0.3-1.6,0.8S212.5,381.8,212.5,382.8z"/>
	<path d="M228.5,384.9l2.7,0.5c-0.4,1-0.9,1.8-1.7,2.3s-1.7,0.8-2.8,0.8c-1.8,0-3.1-0.6-4-1.8c-0.7-0.9-1-2.1-1-3.6
		c0-1.7,0.4-3.1,1.3-4s2-1.5,3.4-1.5c1.5,0,2.8,0.5,3.7,1.5s1.3,2.6,1.3,4.7h-6.9c0,0.8,0.2,1.4,0.7,1.9s1,0.7,1.6,0.7
		c0.4,0,0.8-0.1,1.1-0.4S228.3,385.5,228.5,384.9z M228.6,382.2c0-0.8-0.2-1.4-0.6-1.8s-0.9-0.6-1.4-0.6c-0.6,0-1.1,0.2-1.5,0.7
		s-0.6,1-0.6,1.8H228.6z"/>
	<path d="M243,388.2h-2.7v-5.3c0-1.1-0.1-1.8-0.2-2.2s-0.3-0.6-0.6-0.8s-0.6-0.3-1-0.3c-0.5,0-0.9,0.1-1.3,0.4s-0.6,0.6-0.8,1
		s-0.2,1.2-0.2,2.4v4.7h-2.7v-10.4h2.5v1.5c0.9-1.2,2-1.8,3.4-1.8c0.6,0,1.2,0.1,1.7,0.3s0.9,0.5,1.1,0.8s0.4,0.7,0.5,1.2
		s0.2,1,0.2,1.8V388.2z"/>
	<path d="M251.8,384.9l2.7,0.5c-0.4,1-0.9,1.8-1.7,2.3s-1.7,0.8-2.8,0.8c-1.8,0-3.1-0.6-4-1.8c-0.7-0.9-1-2.1-1-3.6
		c0-1.7,0.4-3.1,1.3-4s2-1.5,3.4-1.5c1.5,0,2.8,0.5,3.7,1.5s1.3,2.6,1.3,4.7h-6.9c0,0.8,0.2,1.4,0.7,1.9s1,0.7,1.6,0.7
		c0.4,0,0.8-0.1,1.1-0.4S251.7,385.5,251.8,384.9z M252,382.2c0-0.8-0.2-1.4-0.6-1.8s-0.9-0.6-1.4-0.6c-0.6,0-1.1,0.2-1.5,0.7
		s-0.6,1-0.6,1.8H252z"/>
	<path d="M259.6,388.2h-2.7v-10.4h2.5v1.5c0.4-0.7,0.8-1.2,1.2-1.4s0.7-0.3,1.2-0.3c0.6,0,1.2,0.2,1.8,0.5l-0.8,2.4
		c-0.5-0.3-0.9-0.4-1.3-0.4c-0.4,0-0.7,0.1-1,0.3s-0.5,0.6-0.6,1.1s-0.2,1.7-0.2,3.5V388.2z"/>
	<path d="M266.8,381l-2.5-0.4c0.3-1,0.8-1.7,1.4-2.2s1.7-0.7,3-0.7c1.2,0,2.1,0.1,2.7,0.4s1,0.7,1.3,1.1s0.4,1.3,0.4,2.5l0,3.2
		c0,0.9,0,1.6,0.1,2s0.3,0.9,0.5,1.4H271c-0.1-0.2-0.2-0.5-0.3-0.8c0-0.2-0.1-0.3-0.1-0.3c-0.5,0.5-1,0.8-1.5,1s-1.1,0.3-1.7,0.3
		c-1.1,0-1.9-0.3-2.5-0.9s-0.9-1.3-0.9-2.2c0-0.6,0.1-1.1,0.4-1.6s0.7-0.8,1.2-1.1s1.2-0.5,2.2-0.6c1.3-0.2,2.2-0.5,2.7-0.7v-0.3
		c0-0.5-0.1-0.9-0.4-1.1s-0.8-0.3-1.5-0.3c-0.5,0-0.9,0.1-1.1,0.3S266.9,380.5,266.8,381z M270.4,383.2c-0.4,0.1-0.9,0.3-1.7,0.4
		s-1.3,0.3-1.5,0.5c-0.4,0.3-0.5,0.6-0.5,1c0,0.4,0.1,0.7,0.4,1s0.7,0.4,1.1,0.4c0.5,0,1-0.2,1.4-0.5c0.3-0.2,0.6-0.5,0.7-0.9
		c0.1-0.2,0.1-0.7,0.1-1.3V383.2z"/>
	<path d="M280.6,377.9v2.2h-1.9v4.2c0,0.8,0,1.3,0.1,1.5s0.1,0.3,0.2,0.3s0.3,0.1,0.5,0.1c0.3,0,0.6-0.1,1.1-0.3l0.2,2.1
		c-0.6,0.3-1.4,0.4-2.2,0.4c-0.5,0-0.9-0.1-1.3-0.2s-0.7-0.4-0.9-0.6s-0.3-0.6-0.4-1.1c-0.1-0.3-0.1-1-0.1-1.9V380h-1.3v-2.2h1.3
		v-2.1l2.8-1.6v3.7H280.6z"/>
	<path d="M281.9,382.9c0-0.9,0.2-1.8,0.7-2.6s1.1-1.5,1.9-2s1.7-0.7,2.8-0.7c1.6,0,2.9,0.5,3.9,1.5s1.5,2.3,1.5,3.9
		c0,1.6-0.5,2.9-1.5,3.9s-2.3,1.5-3.8,1.5c-1,0-1.9-0.2-2.7-0.6s-1.5-1.1-2-1.9S281.9,384.1,281.9,382.9z M284.7,383
		c0,1,0.2,1.8,0.7,2.4s1.1,0.8,1.8,0.8s1.3-0.3,1.8-0.8s0.7-1.3,0.7-2.4c0-1-0.2-1.8-0.7-2.3s-1.1-0.8-1.8-0.8s-1.3,0.3-1.8,0.8
		S284.7,382,284.7,383z"/>
	<path d="M297.4,388.2h-2.7v-10.4h2.5v1.5c0.4-0.7,0.8-1.2,1.2-1.4s0.7-0.3,1.2-0.3c0.6,0,1.2,0.2,1.8,0.5l-0.8,2.4
		c-0.5-0.3-0.9-0.4-1.3-0.4c-0.4,0-0.7,0.1-1,0.3s-0.5,0.6-0.6,1.1s-0.2,1.7-0.2,3.5V388.2z"/>
	<path d="M301.5,385.3l2.8-0.4c0.1,0.5,0.4,0.9,0.7,1.2s0.9,0.4,1.5,0.4c0.7,0,1.2-0.1,1.6-0.4c0.2-0.2,0.4-0.4,0.4-0.7
		c0-0.2-0.1-0.4-0.2-0.5c-0.1-0.1-0.4-0.3-0.9-0.4c-2.2-0.5-3.6-0.9-4.2-1.3c-0.8-0.6-1.2-1.3-1.2-2.3c0-0.9,0.4-1.7,1.1-2.3
		s1.8-0.9,3.3-0.9c1.4,0,2.5,0.2,3.2,0.7s1.2,1.1,1.4,2.1l-2.6,0.5c-0.1-0.4-0.3-0.7-0.6-0.9s-0.8-0.3-1.3-0.3
		c-0.7,0-1.2,0.1-1.6,0.3c-0.2,0.1-0.3,0.3-0.3,0.6c0,0.2,0.1,0.4,0.3,0.5c0.2,0.2,1.1,0.4,2.6,0.8s2.5,0.7,3.1,1.2
		c0.6,0.5,0.9,1.2,0.9,2c0,1-0.4,1.8-1.2,2.5s-2,1-3.5,1c-1.4,0-2.5-0.3-3.4-0.9S301.8,386.3,301.5,385.3z"/>
	<path d="M102.6,416.2c0,0.8-0.3,1.5-0.8,2s-1.2,0.8-2,0.8c-0.8,0-1.5-0.3-2-0.8s-0.8-1.2-0.8-2s0.3-1.5,0.8-2s1.2-0.8,2-0.8
		c0.8,0,1.5,0.3,2,0.8S102.6,415.4,102.6,416.2z"/>
	<path d="M107.9,423.2v-11.9h-4.2v-2.4H115v2.4h-4.2v11.9H107.9z"/>
	<path d="M121.4,419.9l2.7,0.5c-0.4,1-0.9,1.8-1.7,2.3s-1.7,0.8-2.8,0.8c-1.8,0-3.1-0.6-4-1.8c-0.7-0.9-1-2.1-1-3.6
		c0-1.7,0.4-3.1,1.3-4s2-1.5,3.4-1.5c1.5,0,2.8,0.5,3.7,1.5s1.3,2.6,1.3,4.7h-6.9c0,0.8,0.2,1.4,0.7,1.9s1,0.7,1.6,0.7
		c0.4,0,0.8-0.1,1.1-0.4S121.3,420.5,121.4,419.9z M121.6,417.2c0-0.8-0.2-1.4-0.6-1.8s-0.9-0.6-1.4-0.6c-0.6,0-1.1,0.2-1.5,0.7
		s-0.6,1-0.6,1.8H121.6z"/>
	<path d="M125.2,423.2l3.7-5.3l-3.6-5h3.3l1.8,2.9l1.9-2.9h3.2l-3.5,4.9l3.8,5.5h-3.4l-2.1-3.2l-2.1,3.2H125.2z"/>
	<path d="M142.4,412.9v2.2h-1.9v4.2c0,0.8,0,1.3,0.1,1.5s0.1,0.3,0.2,0.3s0.3,0.1,0.5,0.1c0.3,0,0.6-0.1,1.1-0.3l0.2,2.1
		c-0.6,0.3-1.4,0.4-2.2,0.4c-0.5,0-0.9-0.1-1.3-0.2s-0.7-0.4-0.9-0.6s-0.3-0.6-0.4-1.1c-0.1-0.3-0.1-1-0.1-1.9V415h-1.3v-2.2h1.3
		v-2.1l2.8-1.6v3.7H142.4z"/>
	<path d="M155.9,419.9l2.7,0.5c-0.4,1-0.9,1.8-1.7,2.3s-1.7,0.8-2.8,0.8c-1.8,0-3.1-0.6-4-1.8c-0.7-0.9-1-2.1-1-3.6
		c0-1.7,0.4-3.1,1.3-4s2-1.5,3.4-1.5c1.5,0,2.8,0.5,3.7,1.5s1.3,2.6,1.3,4.7h-6.9c0,0.8,0.2,1.4,0.7,1.9s1,0.7,1.6,0.7
		c0.4,0,0.8-0.1,1.1-0.4S155.7,420.5,155.9,419.9z M156,417.2c0-0.8-0.2-1.4-0.6-1.8s-0.9-0.6-1.4-0.6c-0.6,0-1.1,0.2-1.5,0.7
		s-0.6,1-0.6,1.8H156z"/>
	<path d="M170.5,423.2h-2.5v-1.5c-0.4,0.6-0.9,1-1.5,1.3s-1.2,0.4-1.7,0.4c-1.2,0-2.2-0.5-3.1-1.4s-1.3-2.3-1.3-4
		c0-1.8,0.4-3.1,1.2-4s1.9-1.4,3.1-1.4c1.2,0,2.2,0.5,3,1.4v-5.2h2.7V423.2z M163.2,417.8c0,1.1,0.2,1.9,0.5,2.4
		c0.4,0.7,1.1,1.1,1.9,1.1c0.6,0,1.2-0.3,1.6-0.8s0.7-1.3,0.7-2.4c0-1.2-0.2-2-0.6-2.6s-1-0.8-1.7-0.8c-0.7,0-1.2,0.3-1.6,0.8
		S163.2,416.8,163.2,417.8z"/>
	<path d="M173.2,411.5v-2.5h2.7v2.5H173.2z M173.2,423.2v-10.4h2.7v10.4H173.2z"/>
	<path d="M183.5,412.9v2.2h-1.9v4.2c0,0.8,0,1.3,0.1,1.5s0.1,0.3,0.2,0.3s0.3,0.1,0.5,0.1c0.3,0,0.6-0.1,1.1-0.3l0.2,2.1
		c-0.6,0.3-1.4,0.4-2.2,0.4c-0.5,0-0.9-0.1-1.3-0.2s-0.7-0.4-0.9-0.6s-0.3-0.6-0.4-1.1c-0.1-0.3-0.1-1-0.1-1.9V415h-1.3v-2.2h1.3
		v-2.1l2.8-1.6v3.7H183.5z"/>
	<path d="M184.8,417.9c0-0.9,0.2-1.8,0.7-2.6s1.1-1.5,1.9-2s1.7-0.7,2.8-0.7c1.6,0,2.9,0.5,3.9,1.5s1.5,2.3,1.5,3.9
		c0,1.6-0.5,2.9-1.5,3.9s-2.3,1.5-3.8,1.5c-1,0-1.9-0.2-2.7-0.6s-1.5-1.1-2-1.9S184.8,419.1,184.8,417.9z M187.6,418
		c0,1,0.2,1.8,0.7,2.4s1.1,0.8,1.8,0.8s1.3-0.3,1.8-0.8s0.7-1.3,0.7-2.4c0-1-0.2-1.8-0.7-2.3s-1.1-0.8-1.8-0.8s-1.3,0.3-1.8,0.8
		S187.6,417,187.6,418z"/>
	<path d="M200.3,423.2h-2.7v-10.4h2.5v1.5c0.4-0.7,0.8-1.2,1.2-1.4s0.7-0.3,1.2-0.3c0.6,0,1.2,0.2,1.8,0.5l-0.8,2.4
		c-0.5-0.3-0.9-0.4-1.3-0.4c-0.4,0-0.7,0.1-1,0.3s-0.5,0.6-0.6,1.1s-0.2,1.7-0.2,3.5V423.2z"/>
	<path d="M204.5,420.3l2.8-0.4c0.1,0.5,0.4,0.9,0.7,1.2s0.9,0.4,1.5,0.4c0.7,0,1.2-0.1,1.6-0.4c0.2-0.2,0.4-0.4,0.4-0.7
		c0-0.2-0.1-0.4-0.2-0.5c-0.1-0.1-0.4-0.3-0.9-0.4c-2.2-0.5-3.6-0.9-4.2-1.3c-0.8-0.6-1.2-1.3-1.2-2.3c0-0.9,0.4-1.7,1.1-2.3
		s1.8-0.9,3.3-0.9c1.4,0,2.5,0.2,3.2,0.7s1.2,1.1,1.4,2.1l-2.6,0.5c-0.1-0.4-0.3-0.7-0.6-0.9s-0.8-0.3-1.3-0.3
		c-0.7,0-1.2,0.1-1.6,0.3c-0.2,0.1-0.3,0.3-0.3,0.6c0,0.2,0.1,0.4,0.3,0.5c0.2,0.2,1.1,0.4,2.6,0.8s2.5,0.7,3.1,1.2
		c0.6,0.5,0.9,1.2,0.9,2c0,1-0.4,1.8-1.2,2.5s-2,1-3.5,1c-1.4,0-2.5-0.3-3.4-0.9S204.7,421.3,204.5,420.3z"/>
</g>
<g>
	<path d="M403.4,347.3c0-0.6,0.2-1.1,0.6-1.5c0.4-0.4,0.9-0.6,1.5-0.6c0.6,0,1.1,0.2,1.5,0.6c0.4,0.4,0.6,0.9,0.6,1.5
		s-0.2,1.1-0.6,1.5c-0.4,0.4-0.9,0.6-1.5,0.6c-0.6,0-1.1-0.2-1.5-0.6C403.6,348.3,403.4,347.9,403.4,347.3z"/>
	<path d="M414.6,353.2v-14.3h4.3l2.6,9.8l2.6-9.8h4.3v14.3h-2.7V342l-2.8,11.3h-2.8l-2.8-11.3v11.3H414.6z"/>
	<path d="M433.4,346l-2.5-0.4c0.3-1,0.8-1.7,1.4-2.2s1.7-0.7,3-0.7c1.2,0,2.1,0.1,2.7,0.4s1,0.7,1.3,1.1s0.4,1.3,0.4,2.5l0,3.2
		c0,0.9,0,1.6,0.1,2s0.3,0.9,0.5,1.4h-2.7c-0.1-0.2-0.2-0.5-0.3-0.8c0-0.2-0.1-0.3-0.1-0.3c-0.5,0.5-1,0.8-1.5,1s-1.1,0.3-1.7,0.3
		c-1.1,0-1.9-0.3-2.5-0.9s-0.9-1.3-0.9-2.2c0-0.6,0.1-1.1,0.4-1.6s0.7-0.8,1.2-1.1s1.2-0.5,2.2-0.6c1.3-0.2,2.2-0.5,2.7-0.7v-0.3
		c0-0.5-0.1-0.9-0.4-1.1s-0.8-0.3-1.5-0.3c-0.5,0-0.9,0.1-1.1,0.3S433.5,345.5,433.4,346z M437,348.2c-0.4,0.1-0.9,0.3-1.7,0.4
		s-1.3,0.3-1.5,0.5c-0.4,0.3-0.5,0.6-0.5,1c0,0.4,0.1,0.7,0.4,1s0.7,0.4,1.1,0.4c0.5,0,1-0.2,1.4-0.5c0.3-0.2,0.6-0.5,0.7-0.9
		c0.1-0.2,0.1-0.7,0.1-1.3V348.2z"/>
	<path d="M451.9,353.2h-2.7v-5.3c0-1.1-0.1-1.8-0.2-2.2s-0.3-0.6-0.6-0.8s-0.6-0.3-1-0.3c-0.5,0-0.9,0.1-1.3,0.4s-0.6,0.6-0.8,1
		s-0.2,1.2-0.2,2.4v4.7h-2.7v-10.4h2.5v1.5c0.9-1.2,2-1.8,3.4-1.8c0.6,0,1.2,0.1,1.7,0.3s0.9,0.5,1.1,0.8s0.4,0.7,0.5,1.2
		s0.2,1,0.2,1.8V353.2z"/>
	<path d="M456.7,346l-2.5-0.4c0.3-1,0.8-1.7,1.4-2.2s1.7-0.7,3-0.7c1.2,0,2.1,0.1,2.7,0.4s1,0.7,1.3,1.1s0.4,1.3,0.4,2.5l0,3.2
		c0,0.9,0,1.6,0.1,2s0.3,0.9,0.5,1.4h-2.7c-0.1-0.2-0.2-0.5-0.3-0.8c0-0.2-0.1-0.3-0.1-0.3c-0.5,0.5-1,0.8-1.5,1s-1.1,0.3-1.7,0.3
		c-1.1,0-1.9-0.3-2.5-0.9s-0.9-1.3-0.9-2.2c0-0.6,0.1-1.1,0.4-1.6s0.7-0.8,1.2-1.1s1.2-0.5,2.2-0.6c1.3-0.2,2.2-0.5,2.7-0.7v-0.3
		c0-0.5-0.1-0.9-0.4-1.1s-0.8-0.3-1.5-0.3c-0.5,0-0.9,0.1-1.1,0.3S456.9,345.5,456.7,346z M460.4,348.2c-0.4,0.1-0.9,0.3-1.7,0.4
		s-1.3,0.3-1.5,0.5c-0.4,0.3-0.5,0.6-0.5,1c0,0.4,0.1,0.7,0.4,1s0.7,0.4,1.1,0.4c0.5,0,1-0.2,1.4-0.5c0.3-0.2,0.6-0.5,0.7-0.9
		c0.1-0.2,0.1-0.7,0.1-1.3V348.2z"/>
	<path d="M465.5,353.9l3.1,0.4c0.1,0.4,0.2,0.6,0.4,0.8c0.3,0.2,0.7,0.3,1.2,0.3c0.7,0,1.3-0.1,1.6-0.3c0.2-0.1,0.4-0.4,0.5-0.7
		c0.1-0.2,0.1-0.6,0.1-1.3v-1.5c-0.8,1.1-1.9,1.7-3.1,1.7c-1.4,0-2.5-0.6-3.3-1.8c-0.6-0.9-1-2.1-1-3.5c0-1.7,0.4-3.1,1.3-4
		s1.9-1.4,3.1-1.4c1.3,0,2.3,0.6,3.2,1.7v-1.5h2.6v9.3c0,1.2-0.1,2.1-0.3,2.7s-0.5,1.1-0.8,1.4s-0.9,0.6-1.5,0.8s-1.4,0.3-2.3,0.3
		c-1.8,0-3-0.3-3.7-0.9s-1.1-1.4-1.1-2.3C465.5,354.2,465.5,354,465.5,353.9z M468,347.8c0,1.1,0.2,1.9,0.6,2.4s1,0.8,1.6,0.8
		c0.7,0,1.2-0.3,1.7-0.8s0.7-1.3,0.7-2.3c0-1.1-0.2-1.9-0.7-2.4s-1-0.8-1.7-0.8c-0.7,0-1.2,0.3-1.6,0.8S468,346.8,468,347.8z"/>
	<path d="M484,349.9l2.7,0.5c-0.4,1-0.9,1.8-1.7,2.3s-1.7,0.8-2.8,0.8c-1.8,0-3.1-0.6-4-1.8c-0.7-0.9-1-2.1-1-3.6
		c0-1.7,0.4-3.1,1.3-4s2-1.5,3.4-1.5c1.5,0,2.8,0.5,3.7,1.5s1.3,2.6,1.3,4.7H480c0,0.8,0.2,1.4,0.7,1.9s1,0.7,1.6,0.7
		c0.4,0,0.8-0.1,1.1-0.4S483.8,350.5,484,349.9z M484.2,347.2c0-0.8-0.2-1.4-0.6-1.8s-0.9-0.6-1.4-0.6c-0.6,0-1.1,0.2-1.5,0.7
		s-0.6,1-0.6,1.8H484.2z"/>
	<path d="M504.2,353.2h-2.5v-1.5c-0.4,0.6-0.9,1-1.5,1.3s-1.2,0.4-1.7,0.4c-1.2,0-2.2-0.5-3.1-1.4s-1.3-2.3-1.3-4
		c0-1.8,0.4-3.1,1.2-4s1.9-1.4,3.1-1.4c1.2,0,2.2,0.5,3,1.4v-5.2h2.7V353.2z M496.9,347.8c0,1.1,0.2,1.9,0.5,2.4
		c0.4,0.7,1.1,1.1,1.9,1.1c0.6,0,1.2-0.3,1.6-0.8s0.7-1.3,0.7-2.4c0-1.2-0.2-2-0.6-2.6s-1-0.8-1.7-0.8c-0.7,0-1.2,0.3-1.6,0.8
		S496.9,346.8,496.9,347.8z"/>
	<path d="M506.3,347.9c0-0.9,0.2-1.8,0.7-2.6s1.1-1.5,1.9-2s1.7-0.7,2.8-0.7c1.6,0,2.9,0.5,3.9,1.5s1.5,2.3,1.5,3.9
		c0,1.6-0.5,2.9-1.5,3.9s-2.3,1.5-3.8,1.5c-1,0-1.9-0.2-2.7-0.6s-1.5-1.1-2-1.9S506.3,349.1,506.3,347.9z M509.1,348
		c0,1,0.2,1.8,0.7,2.4s1.1,0.8,1.8,0.8s1.3-0.3,1.8-0.8s0.7-1.3,0.7-2.4c0-1-0.2-1.8-0.7-2.3s-1.1-0.8-1.8-0.8s-1.3,0.3-1.8,0.8
		S509.1,347,509.1,348z"/>
	<path d="M528.1,345.9l-2.7,0.5c-0.1-0.5-0.3-0.9-0.6-1.2s-0.7-0.4-1.3-0.4c-0.7,0-1.2,0.2-1.6,0.7s-0.6,1.3-0.6,2.4
		c0,1.2,0.2,2.1,0.6,2.6s1,0.8,1.7,0.8c0.5,0,0.9-0.1,1.3-0.4s0.6-0.8,0.7-1.5l2.7,0.5c-0.3,1.2-0.8,2.2-1.6,2.8s-1.9,0.9-3.2,0.9
		c-1.5,0-2.7-0.5-3.6-1.4s-1.4-2.3-1.4-4c0-1.7,0.5-3,1.4-4s2.1-1.4,3.7-1.4c1.3,0,2.3,0.3,3,0.8S527.8,344.8,528.1,345.9z"/>
	<path d="M529.3,350.3l2.8-0.4c0.1,0.5,0.4,0.9,0.7,1.2s0.9,0.4,1.5,0.4c0.7,0,1.2-0.1,1.6-0.4c0.2-0.2,0.4-0.4,0.4-0.7
		c0-0.2-0.1-0.4-0.2-0.5c-0.1-0.1-0.4-0.3-0.9-0.4c-2.2-0.5-3.6-0.9-4.2-1.3c-0.8-0.6-1.2-1.3-1.2-2.3c0-0.9,0.4-1.7,1.1-2.3
		s1.8-0.9,3.3-0.9c1.4,0,2.5,0.2,3.2,0.7s1.2,1.1,1.4,2.1l-2.6,0.5c-0.1-0.4-0.3-0.7-0.6-0.9s-0.8-0.3-1.3-0.3
		c-0.7,0-1.2,0.1-1.6,0.3c-0.2,0.1-0.3,0.3-0.3,0.6c0,0.2,0.1,0.4,0.3,0.5c0.2,0.2,1.1,0.4,2.6,0.8s2.5,0.7,3.1,1.2
		c0.6,0.5,0.9,1.2,0.9,2c0,1-0.4,1.8-1.2,2.5s-2,1-3.5,1c-1.4,0-2.5-0.3-3.4-0.9S529.5,351.3,529.3,350.3z"/>
	<path d="M546.9,341.5v-2.5h2.7v2.5H546.9z M546.9,353.2v-10.4h2.7v10.4H546.9z"/>
	<path d="M561.9,353.2h-2.7v-5.3c0-1.1-0.1-1.8-0.2-2.2s-0.3-0.6-0.6-0.8s-0.6-0.3-1-0.3c-0.5,0-0.9,0.1-1.3,0.4s-0.6,0.6-0.8,1
		s-0.2,1.2-0.2,2.4v4.7h-2.7v-10.4h2.5v1.5c0.9-1.2,2-1.8,3.4-1.8c0.6,0,1.2,0.1,1.7,0.3s0.9,0.5,1.1,0.8s0.4,0.7,0.5,1.2
		s0.2,1,0.2,1.8V353.2z"/>
	<path d="M570,353.9l3.1,0.4c0.1,0.4,0.2,0.6,0.4,0.8c0.3,0.2,0.7,0.3,1.2,0.3c0.7,0,1.3-0.1,1.6-0.3c0.2-0.1,0.4-0.4,0.5-0.7
		c0.1-0.2,0.1-0.6,0.1-1.3v-1.5c-0.8,1.1-1.9,1.7-3.1,1.7c-1.4,0-2.5-0.6-3.3-1.8c-0.6-0.9-1-2.1-1-3.5c0-1.7,0.4-3.1,1.3-4
		s1.9-1.4,3.1-1.4c1.3,0,2.3,0.6,3.2,1.7v-1.5h2.6v9.3c0,1.2-0.1,2.1-0.3,2.7s-0.5,1.1-0.8,1.4s-0.9,0.6-1.5,0.8s-1.4,0.3-2.3,0.3
		c-1.8,0-3-0.3-3.7-0.9s-1.1-1.4-1.1-2.3C570,354.2,570,354,570,353.9z M572.4,347.8c0,1.1,0.2,1.9,0.6,2.4s1,0.8,1.6,0.8
		c0.7,0,1.2-0.3,1.7-0.8s0.7-1.3,0.7-2.3c0-1.1-0.2-1.9-0.7-2.4s-1-0.8-1.7-0.8c-0.7,0-1.2,0.3-1.6,0.8S572.4,346.8,572.4,347.8z"/>
	<path d="M582.5,341.5v-2.5h2.7v2.5H582.5z M582.5,353.2v-10.4h2.7v10.4H582.5z"/>
	<path d="M592.8,342.9v2.2h-1.9v4.2c0,0.8,0,1.3,0.1,1.5s0.1,0.3,0.2,0.3s0.3,0.1,0.5,0.1c0.3,0,0.6-0.1,1.1-0.3l0.2,2.1
		c-0.6,0.3-1.4,0.4-2.2,0.4c-0.5,0-0.9-0.1-1.3-0.2s-0.7-0.4-0.9-0.6s-0.3-0.6-0.4-1.1c-0.1-0.3-0.1-1-0.1-1.9V345h-1.3v-2.2h1.3
		v-2.1l2.8-1.6v3.7H592.8z"/>
	<path d="M409,381.2c0,0.8-0.3,1.5-0.8,2s-1.2,0.8-2,0.8c-0.8,0-1.5-0.3-2-0.8s-0.8-1.2-0.8-2s0.3-1.5,0.8-2s1.2-0.8,2-0.8
		c0.8,0,1.5,0.3,2,0.8S409,380.4,409,381.2z"/>
	<path d="M425.7,383l2.8,0.9c-0.4,1.6-1.1,2.7-2.1,3.5s-2.3,1.1-3.8,1.1c-1.9,0-3.5-0.6-4.7-1.9s-1.8-3.1-1.8-5.3
		c0-2.4,0.6-4.2,1.8-5.6s2.8-2,4.9-2c1.8,0,3.2,0.5,4.3,1.6c0.7,0.6,1.1,1.5,1.5,2.6l-2.9,0.7c-0.2-0.7-0.5-1.3-1.1-1.8
		s-1.2-0.6-2-0.6c-1.1,0-1.9,0.4-2.6,1.1s-1,2-1,3.7c0,1.8,0.3,3.1,1,3.9s1.5,1.2,2.5,1.2c0.8,0,1.4-0.2,2-0.7S425.5,384,425.7,383z
		"/>
	<path d="M430.3,382.9c0-0.9,0.2-1.8,0.7-2.6s1.1-1.5,1.9-2s1.7-0.7,2.8-0.7c1.6,0,2.9,0.5,3.9,1.5s1.5,2.3,1.5,3.9
		c0,1.6-0.5,2.9-1.5,3.9s-2.3,1.5-3.8,1.5c-1,0-1.9-0.2-2.7-0.6s-1.5-1.1-2-1.9S430.3,384.1,430.3,382.9z M433.2,383
		c0,1,0.2,1.8,0.7,2.4s1.1,0.8,1.8,0.8s1.3-0.3,1.8-0.8s0.7-1.3,0.7-2.4c0-1-0.2-1.8-0.7-2.3s-1.1-0.8-1.8-0.8s-1.3,0.3-1.8,0.8
		S433.2,382,433.2,383z"/>
	<path d="M452.6,388.2h-2.7v-5.3c0-1.1-0.1-1.8-0.2-2.2s-0.3-0.6-0.6-0.8s-0.6-0.3-1-0.3c-0.5,0-0.9,0.1-1.3,0.4s-0.6,0.6-0.8,1
		s-0.2,1.2-0.2,2.4v4.7h-2.7v-10.4h2.5v1.5c0.9-1.2,2-1.8,3.4-1.8c0.6,0,1.2,0.1,1.7,0.3s0.9,0.5,1.1,0.8s0.4,0.7,0.5,1.2
		s0.2,1,0.2,1.8V388.2z"/>
	<path d="M460.2,377.9v2.2h-1.9v4.2c0,0.8,0,1.3,0.1,1.5s0.1,0.3,0.2,0.3s0.3,0.1,0.5,0.1c0.3,0,0.6-0.1,1.1-0.3l0.2,2.1
		c-0.6,0.3-1.4,0.4-2.2,0.4c-0.5,0-0.9-0.1-1.3-0.2s-0.7-0.4-0.9-0.6s-0.3-0.6-0.4-1.1c-0.1-0.3-0.1-1-0.1-1.9V380h-1.3v-2.2h1.3
		v-2.1l2.8-1.6v3.7H460.2z"/>
	<path d="M462.1,376.5v-2.5h2.7v2.5H462.1z M462.1,388.2v-10.4h2.7v10.4H462.1z"/>
	<path d="M477.1,388.2h-2.7v-5.3c0-1.1-0.1-1.8-0.2-2.2s-0.3-0.6-0.6-0.8s-0.6-0.3-1-0.3c-0.5,0-0.9,0.1-1.3,0.4s-0.6,0.6-0.8,1
		s-0.2,1.2-0.2,2.4v4.7h-2.7v-10.4h2.5v1.5c0.9-1.2,2-1.8,3.4-1.8c0.6,0,1.2,0.1,1.7,0.3s0.9,0.5,1.1,0.8s0.4,0.7,0.5,1.2
		s0.2,1,0.2,1.8V388.2z"/>
	<path d="M486.7,388.2v-1.6c-0.4,0.6-0.9,1-1.5,1.3s-1.3,0.5-1.9,0.5c-0.7,0-1.3-0.2-1.9-0.5s-1-0.7-1.2-1.3s-0.4-1.3-0.4-2.3v-6.6
		h2.7v4.8c0,1.5,0.1,2.4,0.2,2.7s0.3,0.6,0.6,0.8s0.6,0.3,1,0.3c0.5,0,0.9-0.1,1.3-0.4s0.6-0.6,0.8-1s0.2-1.3,0.2-2.8v-4.4h2.7v10.4
		H486.7z"/>
	<path d="M491.4,382.9c0-0.9,0.2-1.8,0.7-2.6s1.1-1.5,1.9-2s1.7-0.7,2.8-0.7c1.6,0,2.9,0.5,3.9,1.5s1.5,2.3,1.5,3.9
		c0,1.6-0.5,2.9-1.5,3.9s-2.3,1.5-3.8,1.5c-1,0-1.9-0.2-2.7-0.6s-1.5-1.1-2-1.9S491.4,384.1,491.4,382.9z M494.2,383
		c0,1,0.2,1.8,0.7,2.4s1.1,0.8,1.8,0.8s1.3-0.3,1.8-0.8s0.7-1.3,0.7-2.4c0-1-0.2-1.8-0.7-2.3s-1.1-0.8-1.8-0.8s-1.3,0.3-1.8,0.8
		S494.2,382,494.2,383z"/>
	<path d="M511.1,388.2v-1.6c-0.4,0.6-0.9,1-1.5,1.3s-1.3,0.5-1.9,0.5c-0.7,0-1.3-0.2-1.9-0.5s-1-0.7-1.2-1.3s-0.4-1.3-0.4-2.3v-6.6
		h2.7v4.8c0,1.5,0.1,2.4,0.2,2.7s0.3,0.6,0.6,0.8s0.6,0.3,1,0.3c0.5,0,0.9-0.1,1.3-0.4s0.6-0.6,0.8-1s0.2-1.3,0.2-2.8v-4.4h2.7v10.4
		H511.1z"/>
	<path d="M515.5,385.3l2.8-0.4c0.1,0.5,0.4,0.9,0.7,1.2s0.9,0.4,1.5,0.4c0.7,0,1.2-0.1,1.6-0.4c0.2-0.2,0.4-0.4,0.4-0.7
		c0-0.2-0.1-0.4-0.2-0.5c-0.1-0.1-0.4-0.3-0.9-0.4c-2.2-0.5-3.6-0.9-4.2-1.3c-0.8-0.6-1.2-1.3-1.2-2.3c0-0.9,0.4-1.7,1.1-2.3
		s1.8-0.9,3.3-0.9c1.4,0,2.5,0.2,3.2,0.7s1.2,1.1,1.4,2.1l-2.6,0.5c-0.1-0.4-0.3-0.7-0.6-0.9s-0.8-0.3-1.3-0.3
		c-0.7,0-1.2,0.1-1.6,0.3c-0.2,0.1-0.3,0.3-0.3,0.6c0,0.2,0.1,0.4,0.3,0.5c0.2,0.2,1.1,0.4,2.6,0.8s2.5,0.7,3.1,1.2
		c0.6,0.5,0.9,1.2,0.9,2c0,1-0.4,1.8-1.2,2.5s-2,1-3.5,1c-1.4,0-2.5-0.3-3.4-0.9S515.8,386.3,515.5,385.3z"/>
	<path d="M542.7,388.2h-2.5v-1.5c-0.4,0.6-0.9,1-1.5,1.3s-1.2,0.4-1.7,0.4c-1.2,0-2.2-0.5-3.1-1.4s-1.3-2.3-1.3-4
		c0-1.8,0.4-3.1,1.2-4s1.9-1.4,3.1-1.4c1.2,0,2.2,0.5,3,1.4v-5.2h2.7V388.2z M535.4,382.8c0,1.1,0.2,1.9,0.5,2.4
		c0.4,0.7,1.1,1.1,1.9,1.1c0.6,0,1.2-0.3,1.6-0.8s0.7-1.3,0.7-2.4c0-1.2-0.2-2-0.6-2.6s-1-0.8-1.7-0.8c-0.7,0-1.2,0.3-1.6,0.8
		S535.4,381.8,535.4,382.8z"/>
	<path d="M551.4,384.9l2.7,0.5c-0.4,1-0.9,1.8-1.7,2.3s-1.7,0.8-2.8,0.8c-1.8,0-3.1-0.6-4-1.8c-0.7-0.9-1-2.1-1-3.6
		c0-1.7,0.4-3.1,1.3-4s2-1.5,3.4-1.5c1.5,0,2.8,0.5,3.7,1.5s1.3,2.6,1.3,4.7h-6.9c0,0.8,0.2,1.4,0.7,1.9s1,0.7,1.6,0.7
		c0.4,0,0.8-0.1,1.1-0.4S551.2,385.5,551.4,384.9z M551.6,382.2c0-0.8-0.2-1.4-0.6-1.8s-0.9-0.6-1.4-0.6c-0.6,0-1.1,0.2-1.5,0.7
		s-0.6,1-0.6,1.8H551.6z"/>
	<path d="M556.5,388.2v-14.3h2.7v14.3H556.5z"/>
	<path d="M562.1,376.5v-2.5h2.7v2.5H562.1z M562.1,388.2v-10.4h2.7v10.4H562.1z"/>
	<path d="M570.5,388.2l-4.2-10.4h2.9l2,5.3l0.6,1.8c0.1-0.4,0.2-0.7,0.3-0.9c0.1-0.3,0.2-0.6,0.3-0.9l2-5.3h2.8l-4.1,10.4H570.5z"/>
	<path d="M584.8,384.9l2.7,0.5c-0.4,1-0.9,1.8-1.7,2.3s-1.7,0.8-2.8,0.8c-1.8,0-3.1-0.6-4-1.8c-0.7-0.9-1-2.1-1-3.6
		c0-1.7,0.4-3.1,1.3-4s2-1.5,3.4-1.5c1.5,0,2.8,0.5,3.7,1.5s1.3,2.6,1.3,4.7h-6.9c0,0.8,0.2,1.4,0.7,1.9s1,0.7,1.6,0.7
		c0.4,0,0.8-0.1,1.1-0.4S584.6,385.5,584.8,384.9z M584.9,382.2c0-0.8-0.2-1.4-0.6-1.8s-0.9-0.6-1.4-0.6c-0.6,0-1.1,0.2-1.5,0.7
		s-0.6,1-0.6,1.8H584.9z"/>
	<path d="M592.5,388.2h-2.7v-10.4h2.5v1.5c0.4-0.7,0.8-1.2,1.2-1.4s0.7-0.3,1.2-0.3c0.6,0,1.2,0.2,1.8,0.5l-0.8,2.4
		c-0.5-0.3-0.9-0.4-1.3-0.4c-0.4,0-0.7,0.1-1,0.3s-0.5,0.6-0.6,1.1s-0.2,1.7-0.2,3.5V388.2z"/>
	<path d="M596.4,377.9h2.9l2.5,7.4l2.4-7.4h2.8l-3.7,10l-0.7,1.8c-0.2,0.6-0.5,1.1-0.7,1.4s-0.5,0.6-0.8,0.8s-0.6,0.4-1,0.5
		s-0.9,0.2-1.4,0.2c-0.5,0-1-0.1-1.6-0.2l-0.2-2.1c0.4,0.1,0.8,0.1,1.2,0.1c0.6,0,1.1-0.2,1.4-0.6s0.5-0.9,0.7-1.4L596.4,377.9z"/>
	<path d="M614.2,388.2v-14.3h2.7v5.2c0.8-1,1.8-1.4,3-1.4c1.3,0,2.3,0.5,3.1,1.4s1.2,2.2,1.2,3.9c0,1.8-0.4,3.1-1.3,4.1
		s-1.9,1.4-3.1,1.4c-0.6,0-1.2-0.1-1.8-0.4s-1.1-0.7-1.5-1.3v1.5H614.2z M616.9,382.8c0,1.1,0.2,1.9,0.5,2.4
		c0.5,0.7,1.1,1.1,1.9,1.1c0.6,0,1.1-0.3,1.5-0.8s0.6-1.3,0.6-2.4c0-1.2-0.2-2-0.6-2.6s-1-0.8-1.7-0.8c-0.7,0-1.2,0.3-1.6,0.8
		S616.9,381.8,616.9,382.8z"/>
	<path d="M633.4,388.2v-1.6c-0.4,0.6-0.9,1-1.5,1.3s-1.3,0.5-1.9,0.5c-0.7,0-1.3-0.2-1.9-0.5s-1-0.7-1.2-1.3s-0.4-1.3-0.4-2.3v-6.6
		h2.7v4.8c0,1.5,0.1,2.4,0.2,2.7s0.3,0.6,0.6,0.8s0.6,0.3,1,0.3c0.5,0,0.9-0.1,1.3-0.4s0.6-0.6,0.8-1s0.2-1.3,0.2-2.8v-4.4h2.7v10.4
		H633.4z"/>
	<path d="M638.8,376.5v-2.5h2.7v2.5H638.8z M638.8,388.2v-10.4h2.7v10.4H638.8z"/>
	<path d="M644.3,388.2v-14.3h2.7v14.3H644.3z"/>
	<path d="M659.4,388.2h-2.5v-1.5c-0.4,0.6-0.9,1-1.5,1.3s-1.2,0.4-1.7,0.4c-1.2,0-2.2-0.5-3.1-1.4s-1.3-2.3-1.3-4
		c0-1.8,0.4-3.1,1.2-4s1.9-1.4,3.1-1.4c1.2,0,2.2,0.5,3,1.4v-5.2h2.7V388.2z M652.1,382.8c0,1.1,0.2,1.9,0.5,2.4
		c0.4,0.7,1.1,1.1,1.9,1.1c0.6,0,1.2-0.3,1.6-0.8s0.7-1.3,0.7-2.4c0-1.2-0.2-2-0.6-2.6s-1-0.8-1.7-0.8c-0.7,0-1.2,0.3-1.6,0.8
		S652.1,381.8,652.1,382.8z"/>
	<path d="M667.6,377.9h2.6v1.5c0.3-0.5,0.8-0.9,1.3-1.3s1.2-0.5,1.9-0.5c1.2,0,2.2,0.5,3.1,1.4s1.3,2.3,1.3,3.9c0,1.7-0.4,3.1-1.3,4
		s-1.9,1.4-3.1,1.4c-0.6,0-1.1-0.1-1.6-0.3s-1-0.6-1.5-1.2v5.2h-2.7V377.9z M670.3,382.9c0,1.2,0.2,2,0.7,2.6s1,0.8,1.7,0.8
		c0.6,0,1.2-0.3,1.6-0.8s0.6-1.3,0.6-2.5c0-1.1-0.2-1.9-0.7-2.4s-1-0.8-1.6-0.8c-0.7,0-1.2,0.3-1.7,0.8S670.3,381.9,670.3,382.9z"/>
	<path d="M682.5,388.2h-2.7v-10.4h2.5v1.5c0.4-0.7,0.8-1.2,1.2-1.4s0.7-0.3,1.2-0.3c0.6,0,1.2,0.2,1.8,0.5l-0.8,2.4
		c-0.5-0.3-0.9-0.4-1.3-0.4c-0.4,0-0.7,0.1-1,0.3s-0.5,0.6-0.6,1.1s-0.2,1.7-0.2,3.5V388.2z"/>
	<path d="M687,382.9c0-0.9,0.2-1.8,0.7-2.6s1.1-1.5,1.9-2s1.7-0.7,2.8-0.7c1.6,0,2.9,0.5,3.9,1.5s1.5,2.3,1.5,3.9
		c0,1.6-0.5,2.9-1.5,3.9s-2.3,1.5-3.8,1.5c-1,0-1.9-0.2-2.7-0.6s-1.5-1.1-2-1.9S687,384.1,687,382.9z M689.8,383
		c0,1,0.2,1.8,0.7,2.4s1.1,0.8,1.8,0.8s1.3-0.3,1.8-0.8s0.7-1.3,0.7-2.4c0-1-0.2-1.8-0.7-2.3s-1.1-0.8-1.8-0.8s-1.3,0.3-1.8,0.8
		S689.8,382,689.8,383z"/>
	<path d="M708.9,380.9l-2.7,0.5c-0.1-0.5-0.3-0.9-0.6-1.2s-0.7-0.4-1.3-0.4c-0.7,0-1.2,0.2-1.6,0.7s-0.6,1.3-0.6,2.4
		c0,1.2,0.2,2.1,0.6,2.6s1,0.8,1.7,0.8c0.5,0,0.9-0.1,1.3-0.4s0.6-0.8,0.7-1.5l2.7,0.5c-0.3,1.2-0.8,2.2-1.6,2.8s-1.9,0.9-3.2,0.9
		c-1.5,0-2.7-0.5-3.6-1.4s-1.4-2.3-1.4-4c0-1.7,0.5-3,1.4-4s2.1-1.4,3.7-1.4c1.3,0,2.3,0.3,3,0.8S708.6,379.8,708.9,380.9z"/>
	<path d="M717,384.9l2.7,0.5c-0.4,1-0.9,1.8-1.7,2.3s-1.7,0.8-2.8,0.8c-1.8,0-3.1-0.6-4-1.8c-0.7-0.9-1-2.1-1-3.6
		c0-1.7,0.4-3.1,1.3-4s2-1.5,3.4-1.5c1.5,0,2.8,0.5,3.7,1.5s1.3,2.6,1.3,4.7H713c0,0.8,0.2,1.4,0.7,1.9s1,0.7,1.6,0.7
		c0.4,0,0.8-0.1,1.1-0.4S716.9,385.5,717,384.9z M717.2,382.2c0-0.8-0.2-1.4-0.6-1.8s-0.9-0.6-1.4-0.6c-0.6,0-1.1,0.2-1.5,0.7
		s-0.6,1-0.6,1.8H717.2z"/>
	<path d="M721.2,385.3l2.8-0.4c0.1,0.5,0.4,0.9,0.7,1.2s0.9,0.4,1.5,0.4c0.7,0,1.2-0.1,1.6-0.4c0.2-0.2,0.4-0.4,0.4-0.7
		c0-0.2-0.1-0.4-0.2-0.5c-0.1-0.1-0.4-0.3-0.9-0.4c-2.2-0.5-3.6-0.9-4.2-1.3c-0.8-0.6-1.2-1.3-1.2-2.3c0-0.9,0.4-1.7,1.1-2.3
		s1.8-0.9,3.3-0.9c1.4,0,2.5,0.2,3.2,0.7s1.2,1.1,1.4,2.1l-2.6,0.5c-0.1-0.4-0.3-0.7-0.6-0.9s-0.8-0.3-1.3-0.3
		c-0.7,0-1.2,0.1-1.6,0.3c-0.2,0.1-0.3,0.3-0.3,0.6c0,0.2,0.1,0.4,0.3,0.5c0.2,0.2,1.1,0.4,2.6,0.8s2.5,0.7,3.1,1.2
		c0.6,0.5,0.9,1.2,0.9,2c0,1-0.4,1.8-1.2,2.5s-2,1-3.5,1c-1.4,0-2.5-0.3-3.4-0.9S721.4,386.3,721.2,385.3z"/>
	<path d="M732.3,385.3l2.8-0.4c0.1,0.5,0.4,0.9,0.7,1.2s0.9,0.4,1.5,0.4c0.7,0,1.2-0.1,1.6-0.4c0.2-0.2,0.4-0.4,0.4-0.7
		c0-0.2-0.1-0.4-0.2-0.5c-0.1-0.1-0.4-0.3-0.9-0.4c-2.2-0.5-3.6-0.9-4.2-1.3c-0.8-0.6-1.2-1.3-1.2-2.3c0-0.9,0.4-1.7,1.1-2.3
		s1.8-0.9,3.3-0.9c1.4,0,2.5,0.2,3.2,0.7s1.2,1.1,1.4,2.1l-2.6,0.5c-0.1-0.4-0.3-0.7-0.6-0.9s-0.8-0.3-1.3-0.3
		c-0.7,0-1.2,0.1-1.6,0.3c-0.2,0.1-0.3,0.3-0.3,0.6c0,0.2,0.1,0.4,0.3,0.5c0.2,0.2,1.1,0.4,2.6,0.8s2.5,0.7,3.1,1.2
		c0.6,0.5,0.9,1.2,0.9,2c0,1-0.4,1.8-1.2,2.5s-2,1-3.5,1c-1.4,0-2.5-0.3-3.4-0.9S732.5,386.3,732.3,385.3z"/>
	<path d="M409,416.2c0,0.8-0.3,1.5-0.8,2s-1.2,0.8-2,0.8c-0.8,0-1.5-0.3-2-0.8s-0.8-1.2-0.8-2s0.3-1.5,0.8-2s1.2-0.8,2-0.8
		c0.8,0,1.5,0.3,2,0.8S409,415.4,409,416.2z"/>
	<path d="M420.2,423.2l-5.1-14.3h3.1l3.6,10.6l3.5-10.6h3.1l-5.1,14.3H420.2z"/>
	<path d="M430.8,416l-2.5-0.4c0.3-1,0.8-1.7,1.4-2.2s1.7-0.7,3-0.7c1.2,0,2.1,0.1,2.7,0.4s1,0.7,1.3,1.1s0.4,1.3,0.4,2.5l0,3.2
		c0,0.9,0,1.6,0.1,2s0.3,0.9,0.5,1.4h-2.7c-0.1-0.2-0.2-0.5-0.3-0.8c0-0.2-0.1-0.3-0.1-0.3c-0.5,0.5-1,0.8-1.5,1s-1.1,0.3-1.7,0.3
		c-1.1,0-1.9-0.3-2.5-0.9s-0.9-1.3-0.9-2.2c0-0.6,0.1-1.1,0.4-1.6s0.7-0.8,1.2-1.1s1.2-0.5,2.2-0.6c1.3-0.2,2.2-0.5,2.7-0.7v-0.3
		c0-0.5-0.1-0.9-0.4-1.1s-0.8-0.3-1.5-0.3c-0.5,0-0.9,0.1-1.1,0.3S431,415.5,430.8,416z M434.5,418.2c-0.4,0.1-0.9,0.3-1.7,0.4
		s-1.3,0.3-1.5,0.5c-0.4,0.3-0.5,0.6-0.5,1c0,0.4,0.1,0.7,0.4,1s0.7,0.4,1.1,0.4c0.5,0,1-0.2,1.4-0.5c0.3-0.2,0.6-0.5,0.7-0.9
		c0.1-0.2,0.1-0.7,0.1-1.3V418.2z"/>
	<path d="M439.9,423.2v-14.3h2.7v14.3H439.9z"/>
	<path d="M445.4,411.5v-2.5h2.7v2.5H445.4z M445.4,423.2v-10.4h2.7v10.4H445.4z"/>
	<path d="M460.5,423.2H458v-1.5c-0.4,0.6-0.9,1-1.5,1.3s-1.2,0.4-1.7,0.4c-1.2,0-2.2-0.5-3.1-1.4s-1.3-2.3-1.3-4
		c0-1.8,0.4-3.1,1.2-4s1.9-1.4,3.1-1.4c1.2,0,2.2,0.5,3,1.4v-5.2h2.7V423.2z M453.2,417.8c0,1.1,0.2,1.9,0.5,2.4
		c0.4,0.7,1.1,1.1,1.9,1.1c0.6,0,1.2-0.3,1.6-0.8s0.7-1.3,0.7-2.4c0-1.2-0.2-2-0.6-2.6s-1-0.8-1.7-0.8c-0.7,0-1.2,0.3-1.6,0.8
		S453.2,416.8,453.2,417.8z"/>
	<path d="M465.3,416l-2.5-0.4c0.3-1,0.8-1.7,1.4-2.2s1.7-0.7,3-0.7c1.2,0,2.1,0.1,2.7,0.4s1,0.7,1.3,1.1s0.4,1.3,0.4,2.5l0,3.2
		c0,0.9,0,1.6,0.1,2s0.3,0.9,0.5,1.4h-2.7c-0.1-0.2-0.2-0.5-0.3-0.8c0-0.2-0.1-0.3-0.1-0.3c-0.5,0.5-1,0.8-1.5,1s-1.1,0.3-1.7,0.3
		c-1.1,0-1.9-0.3-2.5-0.9s-0.9-1.3-0.9-2.2c0-0.6,0.1-1.1,0.4-1.6s0.7-0.8,1.2-1.1s1.2-0.5,2.2-0.6c1.3-0.2,2.2-0.5,2.7-0.7v-0.3
		c0-0.5-0.1-0.9-0.4-1.1s-0.8-0.3-1.5-0.3c-0.5,0-0.9,0.1-1.1,0.3S465.4,415.5,465.3,416z M468.9,418.2c-0.4,0.1-0.9,0.3-1.7,0.4
		s-1.3,0.3-1.5,0.5c-0.4,0.3-0.5,0.6-0.5,1c0,0.4,0.1,0.7,0.4,1s0.7,0.4,1.1,0.4c0.5,0,1-0.2,1.4-0.5c0.3-0.2,0.6-0.5,0.7-0.9
		c0.1-0.2,0.1-0.7,0.1-1.3V418.2z"/>
	<path d="M479.1,412.9v2.2h-1.9v4.2c0,0.8,0,1.3,0.1,1.5s0.1,0.3,0.2,0.3s0.3,0.1,0.5,0.1c0.3,0,0.6-0.1,1.1-0.3l0.2,2.1
		c-0.6,0.3-1.4,0.4-2.2,0.4c-0.5,0-0.9-0.1-1.3-0.2s-0.7-0.4-0.9-0.6s-0.3-0.6-0.4-1.1c-0.1-0.3-0.1-1-0.1-1.9V415h-1.3v-2.2h1.3
		v-2.1l2.8-1.6v3.7H479.1z"/>
	<path d="M481,411.5v-2.5h2.7v2.5H481z M481,423.2v-10.4h2.7v10.4H481z"/>
	<path d="M485.9,417.9c0-0.9,0.2-1.8,0.7-2.6s1.1-1.5,1.9-2s1.7-0.7,2.8-0.7c1.6,0,2.9,0.5,3.9,1.5s1.5,2.3,1.5,3.9
		c0,1.6-0.5,2.9-1.5,3.9s-2.3,1.5-3.8,1.5c-1,0-1.9-0.2-2.7-0.6s-1.5-1.1-2-1.9S485.9,419.1,485.9,417.9z M488.7,418
		c0,1,0.2,1.8,0.7,2.4s1.1,0.8,1.8,0.8s1.3-0.3,1.8-0.8s0.7-1.3,0.7-2.4c0-1-0.2-1.8-0.7-2.3s-1.1-0.8-1.8-0.8s-1.3,0.3-1.8,0.8
		S488.7,417,488.7,418z"/>
	<path d="M508.2,423.2h-2.7v-5.3c0-1.1-0.1-1.8-0.2-2.2s-0.3-0.6-0.6-0.8s-0.6-0.3-1-0.3c-0.5,0-0.9,0.1-1.3,0.4s-0.6,0.6-0.8,1
		s-0.2,1.2-0.2,2.4v4.7h-2.7v-10.4h2.5v1.5c0.9-1.2,2-1.8,3.4-1.8c0.6,0,1.2,0.1,1.7,0.3s0.9,0.5,1.1,0.8s0.4,0.7,0.5,1.2
		s0.2,1,0.2,1.8V423.2z"/>
	<path d="M525.6,415.9l-2.7,0.5c-0.1-0.5-0.3-0.9-0.6-1.2s-0.7-0.4-1.3-0.4c-0.7,0-1.2,0.2-1.6,0.7s-0.6,1.3-0.6,2.4
		c0,1.2,0.2,2.1,0.6,2.6s1,0.8,1.7,0.8c0.5,0,0.9-0.1,1.3-0.4s0.6-0.8,0.7-1.5l2.7,0.5c-0.3,1.2-0.8,2.2-1.6,2.8s-1.9,0.9-3.2,0.9
		c-1.5,0-2.7-0.5-3.6-1.4s-1.4-2.3-1.4-4c0-1.7,0.5-3,1.4-4s2.1-1.4,3.7-1.4c1.3,0,2.3,0.3,3,0.8S525.3,414.8,525.6,415.9z"/>
	<path d="M530.4,408.9v5.3c0.9-1,1.9-1.6,3.2-1.6c0.6,0,1.2,0.1,1.7,0.4s0.9,0.5,1.1,0.9s0.4,0.8,0.5,1.2s0.1,1.1,0.1,2.1v6.1h-2.7
		v-5.5c0-1.1-0.1-1.8-0.2-2.1s-0.3-0.5-0.6-0.7s-0.6-0.3-1-0.3c-0.5,0-0.9,0.1-1.2,0.3s-0.6,0.6-0.8,1s-0.2,1.1-0.2,2v5.2h-2.7
		v-14.3H530.4z"/>
	<path d="M545.9,419.9l2.7,0.5c-0.4,1-0.9,1.8-1.7,2.3s-1.7,0.8-2.8,0.8c-1.8,0-3.1-0.6-4-1.8c-0.7-0.9-1-2.1-1-3.6
		c0-1.7,0.4-3.1,1.3-4s2-1.5,3.4-1.5c1.5,0,2.8,0.5,3.7,1.5s1.3,2.6,1.3,4.7h-6.9c0,0.8,0.2,1.4,0.7,1.9s1,0.7,1.6,0.7
		c0.4,0,0.8-0.1,1.1-0.4S545.7,420.5,545.9,419.9z M546.1,417.2c0-0.8-0.2-1.4-0.6-1.8s-0.9-0.6-1.4-0.6c-0.6,0-1.1,0.2-1.5,0.7
		s-0.6,1-0.6,1.8H546.1z"/>
	<path d="M560.1,415.9l-2.7,0.5c-0.1-0.5-0.3-0.9-0.6-1.2s-0.7-0.4-1.3-0.4c-0.7,0-1.2,0.2-1.6,0.7s-0.6,1.3-0.6,2.4
		c0,1.2,0.2,2.1,0.6,2.6s1,0.8,1.7,0.8c0.5,0,0.9-0.1,1.3-0.4s0.6-0.8,0.7-1.5l2.7,0.5c-0.3,1.2-0.8,2.2-1.6,2.8s-1.9,0.9-3.2,0.9
		c-1.5,0-2.7-0.5-3.6-1.4s-1.4-2.3-1.4-4c0-1.7,0.5-3,1.4-4s2.1-1.4,3.7-1.4c1.3,0,2.3,0.3,3,0.8S559.7,414.8,560.1,415.9z"/>
	<path d="M562,423.2v-14.3h2.7v7.6l3.2-3.7h3.4l-3.5,3.8l3.8,6.6h-3l-2.6-4.7l-1.3,1.3v3.3H562z"/>
	<path d="M572.3,420.3l2.8-0.4c0.1,0.5,0.4,0.9,0.7,1.2s0.9,0.4,1.5,0.4c0.7,0,1.2-0.1,1.6-0.4c0.2-0.2,0.4-0.4,0.4-0.7
		c0-0.2-0.1-0.4-0.2-0.5c-0.1-0.1-0.4-0.3-0.9-0.4c-2.2-0.5-3.6-0.9-4.2-1.3c-0.8-0.6-1.2-1.3-1.2-2.3c0-0.9,0.4-1.7,1.1-2.3
		s1.8-0.9,3.3-0.9c1.4,0,2.5,0.2,3.2,0.7s1.2,1.1,1.4,2.1l-2.6,0.5c-0.1-0.4-0.3-0.7-0.6-0.9s-0.8-0.3-1.3-0.3
		c-0.7,0-1.2,0.1-1.6,0.3c-0.2,0.1-0.3,0.3-0.3,0.6c0,0.2,0.1,0.4,0.3,0.5c0.2,0.2,1.1,0.4,2.6,0.8s2.5,0.7,3.1,1.2
		c0.6,0.5,0.9,1.2,0.9,2c0,1-0.4,1.8-1.2,2.5s-2,1-3.5,1c-1.4,0-2.5-0.3-3.4-0.9S572.5,421.3,572.3,420.3z"/>
	<path d="M596.8,423.2v-1.6c-0.4,0.6-0.9,1-1.5,1.3s-1.3,0.5-1.9,0.5c-0.7,0-1.3-0.2-1.9-0.5s-1-0.7-1.2-1.3s-0.4-1.3-0.4-2.3v-6.6
		h2.7v4.8c0,1.5,0.1,2.4,0.2,2.7s0.3,0.6,0.6,0.8s0.6,0.3,1,0.3c0.5,0,0.9-0.1,1.3-0.4s0.6-0.6,0.8-1s0.2-1.3,0.2-2.8v-4.4h2.7v10.4
		H596.8z"/>
	<path d="M601.2,420.3l2.8-0.4c0.1,0.5,0.4,0.9,0.7,1.2s0.9,0.4,1.5,0.4c0.7,0,1.2-0.1,1.6-0.4c0.2-0.2,0.4-0.4,0.4-0.7
		c0-0.2-0.1-0.4-0.2-0.5c-0.1-0.1-0.4-0.3-0.9-0.4c-2.2-0.5-3.6-0.9-4.2-1.3c-0.8-0.6-1.2-1.3-1.2-2.3c0-0.9,0.4-1.7,1.1-2.3
		s1.8-0.9,3.3-0.9c1.4,0,2.5,0.2,3.2,0.7s1.2,1.1,1.4,2.1l-2.6,0.5c-0.1-0.4-0.3-0.7-0.6-0.9s-0.8-0.3-1.3-0.3
		c-0.7,0-1.2,0.1-1.6,0.3c-0.2,0.1-0.3,0.3-0.3,0.6c0,0.2,0.1,0.4,0.3,0.5c0.2,0.2,1.1,0.4,2.6,0.8s2.5,0.7,3.1,1.2
		c0.6,0.5,0.9,1.2,0.9,2c0,1-0.4,1.8-1.2,2.5s-2,1-3.5,1c-1.4,0-2.5-0.3-3.4-0.9S601.4,421.3,601.2,420.3z"/>
	<path d="M613.3,411.5v-2.5h2.7v2.5H613.3z M613.3,423.2v-10.4h2.7v10.4H613.3z"/>
	<path d="M628.3,423.2h-2.7v-5.3c0-1.1-0.1-1.8-0.2-2.2s-0.3-0.6-0.6-0.8s-0.6-0.3-1-0.3c-0.5,0-0.9,0.1-1.3,0.4s-0.6,0.6-0.8,1
		s-0.2,1.2-0.2,2.4v4.7h-2.7v-10.4h2.5v1.5c0.9-1.2,2-1.8,3.4-1.8c0.6,0,1.2,0.1,1.7,0.3s0.9,0.5,1.1,0.8s0.4,0.7,0.5,1.2
		s0.2,1,0.2,1.8V423.2z"/>
	<path d="M630.8,423.9l3.1,0.4c0.1,0.4,0.2,0.6,0.4,0.8c0.3,0.2,0.7,0.3,1.2,0.3c0.7,0,1.3-0.1,1.6-0.3c0.2-0.1,0.4-0.4,0.5-0.7
		c0.1-0.2,0.1-0.6,0.1-1.3v-1.5c-0.8,1.1-1.9,1.7-3.1,1.7c-1.4,0-2.5-0.6-3.3-1.8c-0.6-0.9-1-2.1-1-3.5c0-1.7,0.4-3.1,1.3-4
		s1.9-1.4,3.1-1.4c1.3,0,2.3,0.6,3.2,1.7v-1.5h2.6v9.3c0,1.2-0.1,2.1-0.3,2.7s-0.5,1.1-0.8,1.4s-0.9,0.6-1.5,0.8s-1.4,0.3-2.3,0.3
		c-1.8,0-3-0.3-3.7-0.9s-1.1-1.4-1.1-2.3C630.8,424.2,630.8,424,630.8,423.9z M633.3,417.8c0,1.1,0.2,1.9,0.6,2.4s1,0.8,1.6,0.8
		c0.7,0,1.2-0.3,1.7-0.8s0.7-1.3,0.7-2.3c0-1.1-0.2-1.9-0.7-2.4s-1-0.8-1.7-0.8c-0.7,0-1.2,0.3-1.6,0.8S633.3,416.8,633.3,417.8z"/>
	<path d="M647.9,420.3l2.8-0.4c0.1,0.5,0.4,0.9,0.7,1.2s0.9,0.4,1.5,0.4c0.7,0,1.2-0.1,1.6-0.4c0.2-0.2,0.4-0.4,0.4-0.7
		c0-0.2-0.1-0.4-0.2-0.5c-0.1-0.1-0.4-0.3-0.9-0.4c-2.2-0.5-3.6-0.9-4.2-1.3c-0.8-0.6-1.2-1.3-1.2-2.3c0-0.9,0.4-1.7,1.1-2.3
		s1.8-0.9,3.3-0.9c1.4,0,2.5,0.2,3.2,0.7s1.2,1.1,1.4,2.1l-2.6,0.5c-0.1-0.4-0.3-0.7-0.6-0.9s-0.8-0.3-1.3-0.3
		c-0.7,0-1.2,0.1-1.6,0.3c-0.2,0.1-0.3,0.3-0.3,0.6c0,0.2,0.1,0.4,0.3,0.5c0.2,0.2,1.1,0.4,2.6,0.8s2.5,0.7,3.1,1.2
		c0.6,0.5,0.9,1.2,0.9,2c0,1-0.4,1.8-1.2,2.5s-2,1-3.5,1c-1.4,0-2.5-0.3-3.4-0.9S648.1,421.3,647.9,420.3z"/>
	<path d="M669,415.9l-2.7,0.5c-0.1-0.5-0.3-0.9-0.6-1.2s-0.7-0.4-1.3-0.4c-0.7,0-1.2,0.2-1.6,0.7s-0.6,1.3-0.6,2.4
		c0,1.2,0.2,2.1,0.6,2.6s1,0.8,1.7,0.8c0.5,0,0.9-0.1,1.3-0.4s0.6-0.8,0.7-1.5l2.7,0.5c-0.3,1.2-0.8,2.2-1.6,2.8s-1.9,0.9-3.2,0.9
		c-1.5,0-2.7-0.5-3.6-1.4s-1.4-2.3-1.4-4c0-1.7,0.5-3,1.4-4s2.1-1.4,3.7-1.4c1.3,0,2.3,0.3,3,0.8S668.7,414.8,669,415.9z"/>
	<path d="M673.7,423.2H671v-10.4h2.5v1.5c0.4-0.7,0.8-1.2,1.2-1.4s0.7-0.3,1.2-0.3c0.6,0,1.2,0.2,1.8,0.5l-0.8,2.4
		c-0.5-0.3-0.9-0.4-1.3-0.4c-0.4,0-0.7,0.1-1,0.3s-0.5,0.6-0.6,1.1s-0.2,1.7-0.2,3.5V423.2z"/>
	<path d="M678.9,411.5v-2.5h2.7v2.5H678.9z M678.9,423.2v-10.4h2.7v10.4H678.9z"/>
	<path d="M684.3,412.9h2.6v1.5c0.3-0.5,0.8-0.9,1.3-1.3s1.2-0.5,1.9-0.5c1.2,0,2.2,0.5,3.1,1.4s1.3,2.3,1.3,3.9c0,1.7-0.4,3.1-1.3,4
		s-1.9,1.4-3.1,1.4c-0.6,0-1.1-0.1-1.6-0.3s-1-0.6-1.5-1.2v5.2h-2.7V412.9z M687.1,417.9c0,1.2,0.2,2,0.7,2.6s1,0.8,1.7,0.8
		c0.6,0,1.2-0.3,1.6-0.8s0.6-1.3,0.6-2.5c0-1.1-0.2-1.9-0.7-2.4s-1-0.8-1.6-0.8c-0.7,0-1.2,0.3-1.7,0.8S687.1,416.9,687.1,417.9z"/>
	<path d="M701.4,412.9v2.2h-1.9v4.2c0,0.8,0,1.3,0.1,1.5s0.1,0.3,0.2,0.3s0.3,0.1,0.5,0.1c0.3,0,0.6-0.1,1.1-0.3l0.2,2.1
		c-0.6,0.3-1.4,0.4-2.2,0.4c-0.5,0-0.9-0.1-1.3-0.2s-0.7-0.4-0.9-0.6s-0.3-0.6-0.4-1.1c-0.1-0.3-0.1-1-0.1-1.9V415h-1.3v-2.2h1.3
		v-2.1l2.8-1.6v3.7H701.4z"/>
	<path d="M702.3,420.3l2.8-0.4c0.1,0.5,0.4,0.9,0.7,1.2s0.9,0.4,1.5,0.4c0.7,0,1.2-0.1,1.6-0.4c0.2-0.2,0.4-0.4,0.4-0.7
		c0-0.2-0.1-0.4-0.2-0.5c-0.1-0.1-0.4-0.3-0.9-0.4c-2.2-0.5-3.6-0.9-4.2-1.3c-0.8-0.6-1.2-1.3-1.2-2.3c0-0.9,0.4-1.7,1.1-2.3
		s1.8-0.9,3.3-0.9c1.4,0,2.5,0.2,3.2,0.7s1.2,1.1,1.4,2.1l-2.6,0.5c-0.1-0.4-0.3-0.7-0.6-0.9s-0.8-0.3-1.3-0.3
		c-0.7,0-1.2,0.1-1.6,0.3c-0.2,0.1-0.3,0.3-0.3,0.6c0,0.2,0.1,0.4,0.3,0.5c0.2,0.2,1.1,0.4,2.6,0.8s2.5,0.7,3.1,1.2
		c0.6,0.5,0.9,1.2,0.9,2c0,1-0.4,1.8-1.2,2.5s-2,1-3.5,1c-1.4,0-2.5-0.3-3.4-0.9S702.6,421.3,702.3,420.3z"/>
</g>
</svg>
