<?xml version="1.0" encoding="utf-8"?>
<!-- Generator: Adobe Illustrator 17.1.0, SVG Export Plug-In . SVG Version: 6.00 Build 0)  -->
<!DOCTYPE svg PUBLIC "-//W3C//DTD SVG 1.1//EN" "http://www.w3.org/Graphics/SVG/1.1/DTD/svg11.dtd">
<svg version="1.1" id="Layer_1" xmlns="http://www.w3.org/2000/svg" xmlns:xlink="http://www.w3.org/1999/xlink" x="0px" y="0px"
	 viewBox="0 0 775 445" style="enable-background:new 0 0 775 445;" xml:space="preserve">
<g>
	<rect x="368" y="42" style="fill:#F2F4F4;" width="371" height="362"/>
	<g>
		<polyline style="fill:none;stroke:#8E8E8E;stroke-miterlimit:10;" points="371,404.5 367.5,404.5 367.5,401 		"/>
		<line style="fill:none;stroke:#8E8E8E;stroke-miterlimit:10;stroke-dasharray:6,6;" x1="367.5" y1="395" x2="367.5" y2="47"/>
		<polyline style="fill:none;stroke:#8E8E8E;stroke-miterlimit:10;" points="367.5,44 367.5,41.5 371,41.5 		"/>
		<line style="fill:none;stroke:#8E8E8E;stroke-miterlimit:10;stroke-dasharray:6,6;" x1="377" y1="41.5" x2="733" y2="41.5"/>
		<polyline style="fill:none;stroke:#8E8E8E;stroke-miterlimit:10;" points="736,41.5 738.5,41.5 738.5,44 		"/>
		<line style="fill:none;stroke:#8E8E8E;stroke-miterlimit:10;stroke-dasharray:6,6;" x1="738.5" y1="50" x2="738.5" y2="398"/>
		<polyline style="fill:none;stroke:#8E8E8E;stroke-miterlimit:10;" points="738.5,401 738.5,404.5 736,404.5 		"/>
		<line style="fill:none;stroke:#8E8E8E;stroke-miterlimit:10;stroke-dasharray:6,6;" x1="730" y1="404.5" x2="374" y2="404.5"/>
	</g>
</g>
<path d="M563.3,96.7l-59.7,59.7c-1.3,1.3-1.3,3.4,0,4.8l59.7,59.7l-12.5,12.5l-64.4-64.4c-5.6-5.6-5.6-14.8,0-20.4l64.2-64.2
	L563.3,96.7z"/>
<path d="M585,185.4l28.7-28.7c1.3-1.3,1.3-3.4,0-4.8l-28.8-28.8l12.5-12.5l33.5,33.5c5.6,5.6,5.6,14.8,0,20.4l-33.2,33.2L585,185.4z
	"/>
<path d="M169.5,97.4h24.6v29.9h-24.6L169.5,97.4L169.5,97.4z M41,127.3v63.1h52v-16.6H54.6v-29.9h38.3V97.4h24.6v46.5h38.3v46.5
	h38.3v46.5h52v-63.1h-13.7v46.5h-24.6v-46.5h-38.3v-29.9h38.3v-63h-52v46.5h-24.6V80.9h-52v46.5L41,127.3L41,127.3z"/>
<g>
	<g>
		<path d="M105.7,263.8c1.3,1.3,2.1,2.8,2.2,4.4h-2.6c-0.3-1.3-0.9-2.3-1.7-3c-0.9-0.7-2.1-1.1-3.6-1.1c-1.9,0-3.4,0.7-4.6,2
			s-1.7,3.4-1.7,6.2c0,2.3,0.5,4.1,1.6,5.6S98,280,100,280c1.9,0,3.4-0.7,4.4-2.2c0.5-0.8,0.9-1.8,1.2-3.1h2.6
			c-0.2,2.1-1,3.8-2.3,5.2c-1.5,1.7-3.6,2.5-6.2,2.5c-2.2,0-4.1-0.7-5.6-2.1c-2-1.8-3-4.6-3-8.4c0-2.9,0.8-5.2,2.3-7.1
			c1.6-2,3.9-3,6.7-3C102.5,261.8,104.4,262.5,105.7,263.8z"/>
		<path d="M121.6,269c1.3,1.2,1.9,3,1.9,5.4c0,2.3-0.6,4.2-1.7,5.7c-1.1,1.5-2.8,2.2-5.2,2.2c-1.9,0-3.5-0.7-4.6-2
			c-1.1-1.3-1.7-3.1-1.7-5.3c0-2.4,0.6-4.3,1.8-5.7s2.8-2.1,4.8-2.1C118.8,267.2,120.3,267.8,121.6,269z M120.1,278.5
			c0.6-1.2,0.9-2.5,0.9-4c0-1.3-0.2-2.4-0.6-3.2c-0.7-1.3-1.8-2-3.4-2c-1.4,0-2.5,0.6-3.1,1.7s-1,2.5-1,4c0,1.5,0.3,2.8,1,3.8
			c0.7,1,1.7,1.5,3.1,1.5C118.4,280.3,119.5,279.7,120.1,278.5z"/>
		<path d="M126.4,267.6h2.4v2c0.6-0.7,1.1-1.2,1.5-1.5c0.8-0.5,1.7-0.8,2.7-0.8c1.1,0,2,0.3,2.7,0.8c0.4,0.3,0.7,0.8,1.1,1.4
			c0.5-0.8,1.2-1.3,1.9-1.7c0.7-0.4,1.5-0.6,2.4-0.6c1.9,0,3.2,0.7,3.9,2.1c0.4,0.7,0.6,1.7,0.6,3v9.5H143V272c0-0.9-0.2-1.6-0.7-2
			c-0.5-0.4-1.1-0.5-1.7-0.5c-0.9,0-1.7,0.3-2.4,0.9s-1,1.7-1,3.1v8.3h-2.4v-9.3c0-1-0.1-1.7-0.3-2.1c-0.4-0.7-1-1-2-1
			c-0.9,0-1.7,0.3-2.5,1c-0.7,0.7-1.1,2-1.1,3.8v7.5h-2.4V267.6z"/>
		<path d="M148.8,267.7h2.3v1.9c0.5-0.6,1-1.1,1.6-1.5c0.8-0.5,1.8-0.8,2.8-0.8c1.6,0,3,0.6,4.1,1.9c1.1,1.2,1.7,3,1.7,5.3
			c0,3.1-0.8,5.3-2.4,6.6c-1,0.8-2.2,1.3-3.6,1.3c-1.1,0-2-0.2-2.7-0.7c-0.4-0.3-0.9-0.7-1.4-1.4v7.3h-2.4V267.7z M157.8,278.8
			c0.7-0.9,1.1-2.3,1.1-4.2c0-1.1-0.2-2.1-0.5-2.9c-0.6-1.6-1.8-2.3-3.4-2.3c-1.7,0-2.8,0.8-3.4,2.5c-0.3,0.9-0.5,2-0.5,3.4
			c0,1.1,0.2,2,0.5,2.8c0.6,1.5,1.8,2.2,3.4,2.2C156.1,280.2,157.1,279.8,157.8,278.8z"/>
		<path d="M164.2,262.3h2.4v19.5h-2.4V262.3z"/>
		<path d="M178.9,268c0.9,0.5,1.7,1.1,2.1,1.8c0.5,0.7,0.8,1.6,1,2.5c0.1,0.7,0.2,1.7,0.2,3.1h-10.3c0,1.4,0.4,2.6,1,3.5
			c0.6,0.9,1.6,1.3,2.9,1.3c1.2,0,2.2-0.4,3-1.2c0.4-0.5,0.7-1,0.9-1.7h2.3c-0.1,0.5-0.3,1.1-0.6,1.7c-0.3,0.6-0.7,1.2-1.2,1.6
			c-0.7,0.7-1.6,1.2-2.7,1.4c-0.6,0.1-1.2,0.2-1.9,0.2c-1.8,0-3.2-0.6-4.5-1.9c-1.2-1.3-1.8-3.1-1.8-5.4c0-2.3,0.6-4.1,1.8-5.6
			c1.2-1.4,2.8-2.1,4.8-2.1C177,267.3,178,267.5,178.9,268z M179.8,273.6c-0.1-1-0.3-1.9-0.7-2.5c-0.6-1.1-1.7-1.7-3.2-1.7
			c-1.1,0-2,0.4-2.7,1.2c-0.7,0.8-1.1,1.8-1.2,3H179.8z"/>
		<path d="M183.9,267.6h3.1l3.3,5l3.3-5l2.9,0.1l-4.8,6.9l5,7.3h-3.1l-3.5-5.3l-3.4,5.3h-3l5-7.3L183.9,267.6z"/>
		<path d="M83.1,300.3h2.3v1.9c0.5-0.6,1-1.1,1.6-1.5c0.8-0.5,1.8-0.8,2.8-0.8c1.6,0,3,0.6,4.1,1.9c1.1,1.2,1.7,3,1.7,5.3
			c0,3.1-0.8,5.3-2.4,6.6c-1,0.8-2.2,1.3-3.6,1.3c-1.1,0-2-0.2-2.7-0.7c-0.4-0.3-0.9-0.7-1.4-1.4v7.3h-2.4V300.3z M92.1,311.4
			c0.7-0.9,1.1-2.3,1.1-4.2c0-1.1-0.2-2.1-0.5-2.9c-0.6-1.6-1.8-2.3-3.4-2.3c-1.7,0-2.8,0.8-3.4,2.5c-0.3,0.9-0.5,2-0.5,3.4
			c0,1.1,0.2,2,0.5,2.8c0.6,1.5,1.8,2.2,3.4,2.2C90.4,312.8,91.4,312.4,92.1,311.4z"/>
		<path d="M98.5,300.2h2.3v2.5c0.2-0.5,0.6-1.1,1.4-1.7c0.7-0.7,1.6-1,2.5-1c0,0,0.1,0,0.2,0c0.1,0,0.3,0,0.5,0.1v2.5
			c-0.1,0-0.3,0-0.4-0.1c-0.1,0-0.2,0-0.4,0c-1.2,0-2.1,0.4-2.8,1.2c-0.6,0.8-1,1.7-1,2.7v8.2h-2.4V300.2z"/>
		<path d="M117.8,301.7c1.3,1.2,1.9,3,1.9,5.4c0,2.3-0.6,4.2-1.7,5.7c-1.1,1.5-2.8,2.2-5.2,2.2c-1.9,0-3.5-0.7-4.6-2
			c-1.1-1.3-1.7-3.1-1.7-5.3c0-2.4,0.6-4.3,1.8-5.7s2.8-2.1,4.8-2.1C115,299.8,116.5,300.4,117.8,301.7z M116.3,311.1
			c0.6-1.2,0.9-2.5,0.9-4c0-1.3-0.2-2.4-0.6-3.2c-0.7-1.3-1.8-2-3.4-2c-1.4,0-2.5,0.6-3.1,1.7s-1,2.5-1,4c0,1.5,0.3,2.8,1,3.8
			c0.7,1,1.7,1.5,3.1,1.5C114.6,312.9,115.7,312.3,116.3,311.1z"/>
		<path d="M132,301c1,0.8,1.6,2.1,1.8,4h-2.3c-0.1-0.9-0.5-1.6-1-2.2c-0.5-0.6-1.3-0.9-2.4-0.9c-1.5,0-2.6,0.7-3.3,2.2
			c-0.4,1-0.6,2.2-0.6,3.6c0,1.4,0.3,2.6,0.9,3.6c0.6,1,1.5,1.5,2.8,1.5c1,0,1.8-0.3,2.4-0.9c0.6-0.6,1-1.4,1.2-2.5h2.3
			c-0.3,1.9-0.9,3.3-2,4.1s-2.4,1.3-4.1,1.3c-1.9,0-3.3-0.7-4.4-2c-1.1-1.4-1.7-3.1-1.7-5.1c0-2.5,0.6-4.4,1.8-5.8s2.8-2.1,4.6-2.1
			C129.7,299.8,131,300.2,132,301z"/>
		<path d="M145,300.6c0.9,0.5,1.7,1.1,2.1,1.8c0.5,0.7,0.8,1.6,1,2.5c0.1,0.7,0.2,1.7,0.2,3.1h-10.3c0,1.4,0.4,2.6,1,3.5
			c0.6,0.9,1.6,1.3,2.9,1.3c1.2,0,2.2-0.4,3-1.2c0.4-0.5,0.7-1,0.9-1.7h2.3c-0.1,0.5-0.3,1.1-0.6,1.7c-0.3,0.6-0.7,1.2-1.2,1.6
			c-0.7,0.7-1.6,1.2-2.7,1.4c-0.6,0.1-1.2,0.2-1.9,0.2c-1.8,0-3.2-0.6-4.5-1.9c-1.2-1.3-1.8-3.1-1.8-5.4c0-2.3,0.6-4.1,1.8-5.6
			c1.2-1.4,2.8-2.1,4.8-2.1C143.1,299.9,144,300.2,145,300.6z M145.8,306.2c-0.1-1-0.3-1.9-0.7-2.5c-0.6-1.1-1.7-1.7-3.2-1.7
			c-1.1,0-2,0.4-2.7,1.2c-0.7,0.8-1.1,1.8-1.2,3H145.8z"/>
		<path d="M152.7,310c0.1,0.8,0.3,1.4,0.6,1.8c0.6,0.8,1.7,1.2,3.2,1.2c0.9,0,1.7-0.2,2.4-0.6s1-1,1-1.8c0-0.6-0.3-1.1-0.8-1.4
			c-0.4-0.2-1-0.4-2.1-0.7l-1.9-0.5c-1.2-0.3-2.1-0.6-2.7-1c-1-0.6-1.6-1.5-1.6-2.7c0-1.3,0.5-2.4,1.5-3.3c1-0.8,2.3-1.2,4-1.2
			c2.2,0,3.7,0.6,4.7,1.9c0.6,0.8,0.9,1.7,0.9,2.6h-2.3c0-0.5-0.2-1-0.6-1.5c-0.6-0.6-1.5-0.9-2.9-0.9c-0.9,0-1.6,0.2-2.1,0.5
			s-0.7,0.8-0.7,1.4c0,0.6,0.3,1.1,0.9,1.5c0.4,0.2,0.9,0.4,1.6,0.6l1.6,0.4c1.7,0.4,2.9,0.8,3.5,1.2c0.9,0.6,1.4,1.6,1.4,2.9
			c0,1.3-0.5,2.4-1.5,3.3s-2.5,1.4-4.4,1.4c-2.1,0-3.7-0.5-4.5-1.4c-0.9-1-1.4-2.1-1.4-3.6H152.7z"/>
		<path d="M166.3,310c0.1,0.8,0.3,1.4,0.6,1.8c0.6,0.8,1.7,1.2,3.2,1.2c0.9,0,1.7-0.2,2.4-0.6s1-1,1-1.8c0-0.6-0.3-1.1-0.8-1.4
			c-0.4-0.2-1-0.4-2.1-0.7l-1.9-0.5c-1.2-0.3-2.1-0.6-2.7-1c-1-0.6-1.6-1.5-1.6-2.7c0-1.3,0.5-2.4,1.5-3.3c1-0.8,2.3-1.2,4-1.2
			c2.2,0,3.7,0.6,4.7,1.9c0.6,0.8,0.9,1.7,0.9,2.6h-2.3c0-0.5-0.2-1-0.6-1.5c-0.6-0.6-1.5-0.9-2.9-0.9c-0.9,0-1.6,0.2-2.1,0.5
			s-0.7,0.8-0.7,1.4c0,0.6,0.3,1.1,0.9,1.5c0.4,0.2,0.9,0.4,1.6,0.6l1.6,0.4c1.7,0.4,2.9,0.8,3.5,1.2c0.9,0.6,1.4,1.6,1.4,2.9
			c0,1.3-0.5,2.4-1.5,3.3S172,315,170,315c-2.1,0-3.7-0.5-4.5-1.4c-0.9-1-1.4-2.1-1.4-3.6H166.3z"/>
		<path d="M187.3,300.6c0.9,0.5,1.7,1.1,2.1,1.8c0.5,0.7,0.8,1.6,1,2.5c0.1,0.7,0.2,1.7,0.2,3.1h-10.3c0,1.4,0.4,2.6,1,3.5
			c0.6,0.9,1.6,1.3,2.9,1.3c1.2,0,2.2-0.4,3-1.2c0.4-0.5,0.7-1,0.9-1.7h2.3c-0.1,0.5-0.3,1.1-0.6,1.7c-0.3,0.6-0.7,1.2-1.2,1.6
			c-0.7,0.7-1.6,1.2-2.7,1.4c-0.6,0.1-1.2,0.2-1.9,0.2c-1.8,0-3.2-0.6-4.5-1.9c-1.2-1.3-1.8-3.1-1.8-5.4c0-2.3,0.6-4.1,1.8-5.6
			c1.2-1.4,2.8-2.1,4.8-2.1C185.3,299.9,186.3,300.2,187.3,300.6z M188.1,306.2c-0.1-1-0.3-1.9-0.7-2.5c-0.6-1.1-1.7-1.7-3.2-1.7
			c-1.1,0-2,0.4-2.7,1.2c-0.7,0.8-1.1,1.8-1.2,3H188.1z"/>
		<path d="M195,310c0.1,0.8,0.3,1.4,0.6,1.8c0.6,0.8,1.7,1.2,3.2,1.2c0.9,0,1.7-0.2,2.4-0.6s1-1,1-1.8c0-0.6-0.3-1.1-0.8-1.4
			c-0.4-0.2-1-0.4-2.1-0.7l-1.9-0.5c-1.2-0.3-2.1-0.6-2.7-1c-1-0.6-1.6-1.5-1.6-2.7c0-1.3,0.5-2.4,1.5-3.3c1-0.8,2.3-1.2,4-1.2
			c2.2,0,3.7,0.6,4.7,1.9c0.6,0.8,0.9,1.7,0.9,2.6h-2.3c0-0.5-0.2-1-0.6-1.5c-0.6-0.6-1.5-0.9-2.9-0.9c-0.9,0-1.6,0.2-2.1,0.5
			s-0.7,0.8-0.7,1.4c0,0.6,0.3,1.1,0.9,1.5c0.4,0.2,0.9,0.4,1.6,0.6l1.6,0.4c1.7,0.4,2.9,0.8,3.5,1.2c0.9,0.6,1.4,1.6,1.4,2.9
			c0,1.3-0.5,2.4-1.5,3.3s-2.5,1.4-4.4,1.4c-2.1,0-3.7-0.5-4.5-1.4c-0.9-1-1.4-2.1-1.4-3.6H195z"/>
	</g>
</g>
<g>
	<path d="M525.4,275.6c0.1,1.1,0.3,2,0.8,2.7c0.8,1.3,2.3,1.9,4.5,1.9c1,0,1.8-0.1,2.6-0.4c1.5-0.5,2.3-1.5,2.3-2.9
		c0-1.1-0.3-1.8-1-2.3c-0.7-0.4-1.7-0.8-3.1-1.2l-2.6-0.6c-1.7-0.4-2.9-0.8-3.5-1.3c-1.2-0.8-1.8-2-1.8-3.6c0-1.8,0.6-3.2,1.8-4.3
		c1.2-1.1,2.8-1.7,5-1.7c2,0,3.7,0.5,5.1,1.5c1.4,1,2.1,2.6,2.1,4.7H535c-0.1-1-0.4-1.8-0.8-2.4c-0.8-1-2.1-1.5-3.9-1.5
		c-1.5,0-2.6,0.3-3.2,1s-1,1.4-1,2.3c0,1,0.4,1.7,1.2,2.1c0.5,0.3,1.6,0.6,3.4,1.1l2.6,0.6c1.3,0.3,2.3,0.7,3,1.2
		c1.2,0.9,1.8,2.2,1.8,4c0,2.2-0.8,3.7-2.3,4.6c-1.5,0.9-3.3,1.4-5.3,1.4c-2.4,0-4.2-0.6-5.6-1.9c-1.3-1.2-2-2.9-2-5H525.4z"/>
	<path d="M541.4,262.3h2.4v2.7h-2.4V262.3z M541.4,267.7h2.4v14.1h-2.4V267.7z"/>
	<path d="M547.5,267.6h2.4v2c0.6-0.7,1.1-1.2,1.5-1.5c0.8-0.5,1.7-0.8,2.7-0.8c1.1,0,2,0.3,2.7,0.8c0.4,0.3,0.7,0.8,1.1,1.4
		c0.5-0.8,1.2-1.3,1.9-1.7c0.7-0.4,1.5-0.6,2.4-0.6c1.9,0,3.2,0.7,3.9,2.1c0.4,0.7,0.6,1.7,0.6,3v9.5h-2.5V272c0-0.9-0.2-1.6-0.7-2
		c-0.5-0.4-1.1-0.5-1.7-0.5c-0.9,0-1.7,0.3-2.4,0.9s-1,1.7-1,3.1v8.3h-2.4v-9.3c0-1-0.1-1.7-0.3-2.1c-0.4-0.7-1-1-2-1
		c-0.9,0-1.7,0.3-2.5,1c-0.7,0.7-1.1,2-1.1,3.8v7.5h-2.4V267.6z"/>
	<path d="M569.9,267.7h2.3v1.9c0.5-0.6,1-1.1,1.6-1.5c0.8-0.5,1.8-0.8,2.8-0.8c1.6,0,3,0.6,4.1,1.9c1.1,1.2,1.7,3,1.7,5.3
		c0,3.1-0.8,5.3-2.4,6.6c-1,0.8-2.2,1.3-3.6,1.3c-1.1,0-2-0.2-2.7-0.7c-0.4-0.3-0.9-0.7-1.4-1.4v7.3h-2.4V267.7z M578.9,278.8
		c0.7-0.9,1.1-2.3,1.1-4.2c0-1.1-0.2-2.1-0.5-2.9c-0.6-1.6-1.8-2.3-3.4-2.3c-1.7,0-2.8,0.8-3.4,2.5c-0.3,0.9-0.5,2-0.5,3.4
		c0,1.1,0.2,2,0.5,2.8c0.6,1.5,1.8,2.2,3.4,2.2C577.2,280.2,578.2,279.8,578.9,278.8z"/>
	<path d="M585.3,262.3h2.4v19.5h-2.4V262.3z"/>
	<path d="M600,268c0.9,0.5,1.7,1.1,2.1,1.8c0.5,0.7,0.8,1.6,1,2.5c0.1,0.7,0.2,1.7,0.2,3.1H593c0,1.4,0.4,2.6,1,3.5
		c0.6,0.9,1.6,1.3,2.9,1.3c1.2,0,2.2-0.4,3-1.2c0.4-0.5,0.7-1,0.9-1.7h2.3c-0.1,0.5-0.3,1.1-0.6,1.7c-0.3,0.6-0.7,1.2-1.2,1.6
		c-0.7,0.7-1.6,1.2-2.7,1.4c-0.6,0.1-1.2,0.2-1.9,0.2c-1.8,0-3.2-0.6-4.5-1.9c-1.2-1.3-1.8-3.1-1.8-5.4c0-2.3,0.6-4.1,1.8-5.6
		c1.2-1.4,2.8-2.1,4.8-2.1C598.1,267.3,599.1,267.5,600,268z M600.9,273.6c-0.1-1-0.3-1.9-0.7-2.5c-0.6-1.1-1.7-1.7-3.2-1.7
		c-1.1,0-2,0.4-2.7,1.2c-0.7,0.8-1.1,1.8-1.2,3H600.9z"/>
	<path d="M502.7,300.3h2.3v1.9c0.5-0.6,1-1.1,1.6-1.5c0.8-0.5,1.8-0.8,2.8-0.8c1.6,0,3,0.6,4.1,1.9c1.1,1.2,1.7,3,1.7,5.3
		c0,3.1-0.8,5.3-2.4,6.6c-1,0.8-2.2,1.3-3.6,1.3c-1.1,0-2-0.2-2.7-0.7c-0.4-0.3-0.9-0.7-1.4-1.4v7.3h-2.4V300.3z M511.7,311.4
		c0.7-0.9,1.1-2.3,1.1-4.2c0-1.1-0.2-2.1-0.5-2.9c-0.6-1.6-1.8-2.3-3.4-2.3c-1.7,0-2.8,0.8-3.4,2.5c-0.3,0.9-0.5,2-0.5,3.4
		c0,1.1,0.2,2,0.5,2.8c0.6,1.5,1.8,2.2,3.4,2.2C510,312.8,511,312.4,511.7,311.4z"/>
	<path d="M518.1,300.2h2.3v2.5c0.2-0.5,0.6-1.1,1.4-1.7c0.7-0.7,1.6-1,2.5-1c0,0,0.1,0,0.2,0c0.1,0,0.3,0,0.5,0.1v2.5
		c-0.1,0-0.3,0-0.4-0.1c-0.1,0-0.2,0-0.4,0c-1.2,0-2.1,0.4-2.8,1.2c-0.6,0.8-1,1.7-1,2.7v8.2h-2.4V300.2z"/>
	<path d="M537.4,301.7c1.3,1.2,1.9,3,1.9,5.4c0,2.3-0.6,4.2-1.7,5.7c-1.1,1.5-2.8,2.2-5.2,2.2c-1.9,0-3.5-0.7-4.6-2
		c-1.1-1.3-1.7-3.1-1.7-5.3c0-2.4,0.6-4.3,1.8-5.7s2.8-2.1,4.8-2.1C534.6,299.8,536.1,300.4,537.4,301.7z M535.9,311.1
		c0.6-1.2,0.9-2.5,0.9-4c0-1.3-0.2-2.4-0.6-3.2c-0.7-1.3-1.8-2-3.4-2c-1.4,0-2.5,0.6-3.1,1.7s-1,2.5-1,4c0,1.5,0.3,2.8,1,3.8
		c0.7,1,1.7,1.5,3.1,1.5C534.2,312.9,535.3,312.3,535.9,311.1z"/>
	<path d="M551.6,301c1,0.8,1.6,2.1,1.8,4h-2.3c-0.1-0.9-0.5-1.6-1-2.2c-0.5-0.6-1.3-0.9-2.4-0.9c-1.5,0-2.6,0.7-3.3,2.2
		c-0.4,1-0.6,2.2-0.6,3.6c0,1.4,0.3,2.6,0.9,3.6c0.6,1,1.5,1.5,2.8,1.5c1,0,1.8-0.3,2.4-0.9c0.6-0.6,1-1.4,1.2-2.5h2.3
		c-0.3,1.9-0.9,3.3-2,4.1s-2.4,1.3-4.1,1.3c-1.9,0-3.3-0.7-4.4-2c-1.1-1.4-1.7-3.1-1.7-5.1c0-2.5,0.6-4.4,1.8-5.8s2.8-2.1,4.6-2.1
		C549.3,299.8,550.6,300.2,551.6,301z"/>
	<path d="M564.6,300.6c0.9,0.5,1.7,1.1,2.1,1.8c0.5,0.7,0.8,1.6,1,2.5c0.1,0.7,0.2,1.7,0.2,3.1h-10.3c0,1.4,0.4,2.6,1,3.5
		c0.6,0.9,1.6,1.3,2.9,1.3c1.2,0,2.2-0.4,3-1.2c0.4-0.5,0.7-1,0.9-1.7h2.3c-0.1,0.5-0.3,1.1-0.6,1.7c-0.3,0.6-0.7,1.2-1.2,1.6
		c-0.7,0.7-1.6,1.2-2.7,1.4c-0.6,0.1-1.2,0.2-1.9,0.2c-1.8,0-3.2-0.6-4.5-1.9c-1.2-1.3-1.8-3.1-1.8-5.4c0-2.3,0.6-4.1,1.8-5.6
		c1.2-1.4,2.8-2.1,4.8-2.1C562.7,299.9,563.6,300.2,564.6,300.6z M565.4,306.2c-0.1-1-0.3-1.9-0.7-2.5c-0.6-1.1-1.7-1.7-3.2-1.7
		c-1.1,0-2,0.4-2.7,1.2c-0.7,0.8-1.1,1.8-1.2,3H565.4z"/>
	<path d="M572.3,310c0.1,0.8,0.3,1.4,0.6,1.8c0.6,0.8,1.7,1.2,3.2,1.2c0.9,0,1.7-0.2,2.4-0.6s1-1,1-1.8c0-0.6-0.3-1.1-0.8-1.4
		c-0.4-0.2-1-0.4-2.1-0.7l-1.9-0.5c-1.2-0.3-2.1-0.6-2.7-1c-1-0.6-1.6-1.5-1.6-2.7c0-1.3,0.5-2.4,1.5-3.3c1-0.8,2.3-1.2,4-1.2
		c2.2,0,3.7,0.6,4.7,1.9c0.6,0.8,0.9,1.7,0.9,2.6h-2.3c0-0.5-0.2-1-0.6-1.5c-0.6-0.6-1.5-0.9-2.9-0.9c-0.9,0-1.6,0.2-2.1,0.5
		s-0.7,0.8-0.7,1.4c0,0.6,0.3,1.1,0.9,1.5c0.4,0.2,0.9,0.4,1.6,0.6l1.6,0.4c1.7,0.4,2.9,0.8,3.5,1.2c0.9,0.6,1.4,1.6,1.4,2.9
		c0,1.3-0.5,2.4-1.5,3.3S578,315,576,315c-2.1,0-3.7-0.5-4.5-1.4c-0.9-1-1.4-2.1-1.4-3.6H572.3z"/>
	<path d="M585.9,310c0.1,0.8,0.3,1.4,0.6,1.8c0.6,0.8,1.7,1.2,3.2,1.2c0.9,0,1.7-0.2,2.4-0.6s1-1,1-1.8c0-0.6-0.3-1.1-0.8-1.4
		c-0.4-0.2-1-0.4-2.1-0.7l-1.9-0.5c-1.2-0.3-2.1-0.6-2.7-1c-1-0.6-1.6-1.5-1.6-2.7c0-1.3,0.5-2.4,1.5-3.3c1-0.8,2.3-1.2,4-1.2
		c2.2,0,3.7,0.6,4.7,1.9c0.6,0.8,0.9,1.7,0.9,2.6h-2.3c0-0.5-0.2-1-0.6-1.5c-0.6-0.6-1.5-0.9-2.9-0.9c-0.9,0-1.6,0.2-2.1,0.5
		s-0.7,0.8-0.7,1.4c0,0.6,0.3,1.1,0.9,1.5c0.4,0.2,0.9,0.4,1.6,0.6l1.6,0.4c1.7,0.4,2.9,0.8,3.5,1.2c0.9,0.6,1.4,1.6,1.4,2.9
		c0,1.3-0.5,2.4-1.5,3.3s-2.5,1.4-4.4,1.4c-2.1,0-3.7-0.5-4.5-1.4c-0.9-1-1.4-2.1-1.4-3.6H585.9z"/>
	<path d="M606.9,300.6c0.9,0.5,1.7,1.1,2.1,1.8c0.5,0.7,0.8,1.6,1,2.5c0.1,0.7,0.2,1.7,0.2,3.1h-10.3c0,1.4,0.4,2.6,1,3.5
		c0.6,0.9,1.6,1.3,2.9,1.3c1.2,0,2.2-0.4,3-1.2c0.4-0.5,0.7-1,0.9-1.7h2.3c-0.1,0.5-0.3,1.1-0.6,1.7c-0.3,0.6-0.7,1.2-1.2,1.6
		c-0.7,0.7-1.6,1.2-2.7,1.4c-0.6,0.1-1.2,0.2-1.9,0.2c-1.8,0-3.2-0.6-4.5-1.9c-1.2-1.3-1.8-3.1-1.8-5.4c0-2.3,0.6-4.1,1.8-5.6
		c1.2-1.4,2.8-2.1,4.8-2.1C604.9,299.9,605.9,300.2,606.9,300.6z M607.7,306.2c-0.1-1-0.3-1.9-0.7-2.5c-0.6-1.1-1.7-1.7-3.2-1.7
		c-1.1,0-2,0.4-2.7,1.2c-0.7,0.8-1.1,1.8-1.2,3H607.7z"/>
	<path d="M614.6,310c0.1,0.8,0.3,1.4,0.6,1.8c0.6,0.8,1.7,1.2,3.2,1.2c0.9,0,1.7-0.2,2.4-0.6s1-1,1-1.8c0-0.6-0.3-1.1-0.8-1.4
		c-0.4-0.2-1-0.4-2.1-0.7l-1.9-0.5c-1.2-0.3-2.1-0.6-2.7-1c-1-0.6-1.6-1.5-1.6-2.7c0-1.3,0.5-2.4,1.5-3.3c1-0.8,2.3-1.2,4-1.2
		c2.2,0,3.7,0.6,4.7,1.9c0.6,0.8,0.9,1.7,0.9,2.6h-2.3c0-0.5-0.2-1-0.6-1.5c-0.6-0.6-1.5-0.9-2.9-0.9c-0.9,0-1.6,0.2-2.1,0.5
		s-0.7,0.8-0.7,1.4c0,0.6,0.3,1.1,0.9,1.5c0.4,0.2,0.9,0.4,1.6,0.6l1.6,0.4c1.7,0.4,2.9,0.8,3.5,1.2c0.9,0.6,1.4,1.6,1.4,2.9
		c0,1.3-0.5,2.4-1.5,3.3s-2.5,1.4-4.4,1.4c-2.1,0-3.7-0.5-4.5-1.4c-0.9-1-1.4-2.1-1.4-3.6H614.6z"/>
</g>
</svg>
