<?xml version="1.0" encoding="utf-8"?>
<!-- Generator: Adobe Illustrator 17.1.0, SVG Export Plug-In . SVG Version: 6.00 Build 0)  -->
<!DOCTYPE svg PUBLIC "-//W3C//DTD SVG 1.1//EN" "http://www.w3.org/Graphics/SVG/1.1/DTD/svg11.dtd">
<svg version="1.1" id="Layer_1" xmlns="http://www.w3.org/2000/svg" xmlns:xlink="http://www.w3.org/1999/xlink" x="0px" y="0px"
	 viewBox="0 0 775 445" style="enable-background:new 0 0 775 445;" xml:space="preserve">
<path d="M231.5,199.1c4.5,0,9.6-1.5,14.7-6.1c0.5-0.5,0.5-1.3,0.2-1.9c-0.5-0.5-1.3-0.5-1.9-0.2c-13.3,12.1-27,0.5-27.5,0
	c-0.5-0.5-1.3-0.3-1.9,0.2c-0.5,0.5-0.3,1.3,0.2,1.9C215.4,193.2,222.5,199.1,231.5,199.1L231.5,199.1z"/>
<path d="M150.6,131.7c1.3,0,2.5,0.5,3.5,1.5c1,1,1.5,2.2,1.5,3.5v5.7h-10.1v-5.9C145.5,133.9,147.9,131.7,150.6,131.7L150.6,131.7z
	 M150.6,222.2l-4.5-10.1h9.1L150.6,222.2z M155.7,148.4h-10.1V145h10.1V148.4z M145.5,150.9h10.1v58.4h-10.1V150.9z M143.2,211.7
	l6.2,14.1c0.2,0.5,0.7,0.7,1.2,0.7s1-0.3,1.2-0.7l6.2-14.1c0.2-0.2,0.2-0.5,0-0.8v-0.2v-61v-5.9v-7.1c0-2-0.8-3.9-2.2-5.4
	c-1.3-1.3-3.4-2.2-5.2-2.2c-4.2,0-7.6,3.4-7.6,7.6v7.1v66.9v0.2C143,211.2,143,211.4,143.2,211.7L143.2,211.7z"/>
<path d="M150.6,160.9c-0.7,0-1.3,0.5-1.3,1.3v5.1c0,0.7,0.5,1.3,1.3,1.3c0.7,0,1.3-0.5,1.3-1.3v-5.1
	C151.9,161.4,151.3,160.9,150.6,160.9z"/>
<path d="M150.6,174.3c-0.7,0-1.3,0.5-1.3,1.3v5.1c0,0.7,0.5,1.3,1.3,1.3c0.7,0,1.3-0.5,1.3-1.3v-5.1
	C151.9,175,151.3,174.3,150.6,174.3z"/>
<path d="M150.6,188c-0.7,0-1.3,0.5-1.3,1.3v5.1c0,0.7,0.5,1.3,1.3,1.3c0.7,0,1.3-0.5,1.3-1.3v-5.1C151.9,188.5,151.3,188,150.6,188z
	"/>
<path d="M338.2,138.6c-0.7,0-1.3,0.5-1.3,1.3v18.2c0,0.7,0.5,1.3,1.3,1.3c0.7,0,1.3-0.5,1.3-1.3V140
	C339.6,139.3,338.9,138.6,338.2,138.6z"/>
<path d="M338.2,162.9c-0.7,0-1.3,0.5-1.3,1.3v5.9c0,0.7,0.5,1.3,1.3,1.3c0.7,0,1.3-0.5,1.3-1.3v-5.9
	C339.6,163.5,338.9,162.9,338.2,162.9z"/>
<path d="M132.7,186.3c0.7,0,1.3-0.5,1.3-1.3v-18.2c0-0.7-0.5-1.3-1.3-1.3s-1.3,0.7-1.3,1.3v18.2
	C131.4,185.8,132.1,186.3,132.7,186.3z"/>
<path d="M132.7,198.2c0.7,0,1.3-0.5,1.3-1.3V191c0-0.7-0.5-1.3-1.3-1.3s-1.3,0.5-1.3,1.3v5.9C131.4,197.7,132.1,198.2,132.7,198.2z"
	/>
<path d="M298.3,145.9l-2.7-2.7c-0.5-0.5-1.3-0.5-1.9,0s-0.5,1.3,0,1.9l2.7,2.7c0.2,0.2,0.5,0.3,0.8,0.3s0.7-0.2,0.8-0.3
	C298.8,147.2,298.8,146.4,298.3,145.9L298.3,145.9z"/>
<path d="M304.6,152.1c-0.5-0.5-1.3-0.5-1.9,0c-0.5,0.5-0.5,1.3,0,1.9l2.7,2.7c0.2,0.2,0.5,0.3,0.8,0.3s0.7-0.2,0.8-0.3
	c0.5-0.5,0.5-1.3,0-1.9L304.6,152.1z"/>
<path d="M296.5,152.1l-2.7,2.7c-0.5,0.5-0.5,1.3,0,1.9c0.2,0.2,0.5,0.3,0.8,0.3c0.3,0,0.7-0.2,0.8-0.3l2.7-2.7
	c0.5-0.5,0.5-1.3,0-1.9C297.8,151.6,297,151.6,296.5,152.1L296.5,152.1z"/>
<path d="M307.3,143.2c-0.5-0.5-1.3-0.5-1.9,0l-2.7,2.7c-0.5,0.5-0.5,1.3,0,1.9c0.2,0.2,0.5,0.3,0.8,0.3s0.7-0.2,0.8-0.3l2.7-2.7
	C307.8,144.5,307.8,143.7,307.3,143.2L307.3,143.2z"/>
<path d="M195.9,282.6c-0.5-0.5-1.3-0.5-1.9,0c-0.5,0.5-0.5,1.3,0,1.9l2.7,2.7c0.2,0.2,0.5,0.3,0.8,0.3c0.3,0,0.7-0.2,0.8-0.3
	c0.5-0.5,0.5-1.3,0-1.9L195.9,282.6z"/>
<path d="M204.8,291.7c-0.5-0.5-1.3-0.5-1.9,0c-0.5,0.5-0.5,1.3,0,1.9l2.7,2.7c0.2,0.2,0.5,0.3,0.8,0.3c0.3,0,0.7-0.2,0.8-0.3
	c0.5-0.5,0.5-1.3,0-1.9L204.8,291.7z"/>
<path d="M196.8,291.7l-2.7,2.7c-0.5,0.5-0.5,1.3,0,1.9c0.2,0.2,0.5,0.3,0.8,0.3s0.7-0.2,0.8-0.3l2.7-2.7c0.5-0.5,0.5-1.3,0-1.9
	C198.1,291.2,197.3,291.2,196.8,291.7L196.8,291.7z"/>
<path d="M205.8,282.6l-2.7,2.7c-0.5,0.5-0.5,1.3,0,1.9c0.2,0.2,0.5,0.3,0.8,0.3s0.7-0.2,0.8-0.3l2.7-2.7c0.5-0.5,0.5-1.3,0-1.9
	S206.4,282.1,205.8,282.6L205.8,282.6z"/>
<path d="M252.8,85.2c2.4,0,4.4,2,4.4,4.4c0,2.4-2,4.4-4.4,4.4s-4.4-2-4.4-4.4C248.5,87.2,250.5,85.2,252.8,85.2z M252.8,96.5
	c3.9,0,6.9-3,6.9-6.9c0-3.9-3-6.9-6.9-6.9c-3.9,0-6.9,3-6.9,6.9C245.9,93.5,249,96.5,252.8,96.5z"/>
<path d="M185.8,208.4c1.9,0,3.4,1.5,3.4,3.4c0,1.9-1.5,3.4-3.4,3.4c-1.9,0-3.4-1.5-3.4-3.4C182.4,209.9,184,208.4,185.8,208.4z
	 M185.8,217.6c3.2,0,5.9-2.7,5.9-5.9s-2.7-5.9-5.9-5.9s-5.9,2.7-5.9,5.9S182.6,217.6,185.8,217.6z"/>
<path d="M260.1,289.7c-1.9,0-3.4-1.5-3.4-3.4s1.5-3.4,3.4-3.4s3.4,1.5,3.4,3.4S261.9,289.7,260.1,289.7z M260.1,280.4
	c-3.2,0-5.9,2.7-5.9,5.9s2.7,5.9,5.9,5.9s5.9-2.7,5.9-5.9S263.5,280.4,260.1,280.4z"/>
<path d="M150.9,97.2c0,0.7,0.5,1.3,1.3,1.3h21.9c0.7,0,1.3-0.5,1.3-1.3c0-0.8-0.5-1.3-1.3-1.3h-21.9
	C151.6,95.8,150.9,96.5,150.9,97.2z"/>
<path d="M138,98.4h7.1c0.7,0,1.3-0.5,1.3-1.3c0-0.8-0.5-1.3-1.3-1.3H138c-0.7,0-1.3,0.5-1.3,1.3C136.6,97.9,137.3,98.4,138,98.4z"/>
<path d="M138,90.9h15.3c0.7,0,1.3-0.5,1.3-1.3c0-0.7-0.5-1.3-1.3-1.3H138c-0.7,0-1.3,0.5-1.3,1.3C136.6,90.3,137.3,90.9,138,90.9z"
	/>
<path d="M159.9,90.9h4.9c0.7,0,1.3-0.7,1.3-1.3c0-0.7-0.5-1.3-1.3-1.3h-4.9c-0.7,0-1.3,0.5-1.3,1.3C158.5,90.3,159,90.9,159.9,90.9z
	"/>
<path d="M324.1,282.1c0-0.7-0.5-1.3-1.3-1.3h-21.9c-0.7,0-1.3,0.5-1.3,1.3c0,0.8,0.5,1.3,1.3,1.3h21.9
	C323.6,283.3,324.1,282.8,324.1,282.1z"/>
<path d="M337.1,280.8H330c-0.7,0-1.3,0.5-1.3,1.3c0,0.8,0.5,1.3,1.3,1.3h7.1c0.7,0,1.3-0.5,1.3-1.3
	C338.4,281.3,337.7,280.8,337.1,280.8z"/>
<path d="M337.1,288.4h-15.3c-0.7,0-1.3,0.5-1.3,1.3c0,0.7,0.5,1.3,1.3,1.3h15.3c0.7,0,1.3-0.5,1.3-1.3
	C338.4,288.9,337.7,288.4,337.1,288.4z"/>
<path d="M315.3,288.4h-4.9c-0.7,0-1.3,0.5-1.3,1.3c0,0.7,0.5,1.3,1.3,1.3h4.9c0.7,0,1.3-0.5,1.3-1.3
	C316.5,288.9,316,288.4,315.3,288.4z"/>
<path d="M335.5,232.1l-6.4-1.2c-0.5-0.2-1.2,0.2-1.3,0.7c-1.9,4.2-4.9,7.7-8.6,10.6c-0.5,0.3-0.7,1-0.3,1.5l2.5,5.9l-3.7,2l-3.7-5.4
	c-0.2-0.3-0.7-0.5-1-0.5h-0.5c-2.5,1-5.2,1.5-7.9,1.7c-0.2-0.5-0.5-0.8-0.7-1.3c-0.2-0.5-0.3-0.8-0.7-1.3s-0.7-1.2-1-1.7
	c-0.2-0.3-0.5-0.8-0.7-1.2c-0.3-0.7-0.8-1.2-1.3-1.7L300,240c0.8,0.2,1.9,0.2,2.7,0.2c11.1,0,20-8.9,20-20c0-11.1-8.9-20-20-20
	s-20,8.9-20,20c0,3.4,0.8,6.6,2.4,9.4h-0.2c-0.7-0.2-1.3-0.5-2.2-0.7c-0.5-0.2-0.8-0.2-1.3-0.3l-2-0.5c-0.5-0.2-1-0.2-1.5-0.2
	c-0.5,0-1-0.2-1.5-0.2c-1-3.7-1.3-7.6-0.7-11.3c0.2-0.5-0.2-1.2-0.8-1.3l-6.1-2.4l1.2-4l6.4,1.2c0.5,0.2,1.2-0.2,1.3-0.7
	c1.9-4.2,4.9-7.7,8.4-10.6c0.5-0.3,0.7-1,0.3-1.5l-2.5-5.9l3.7-2l3.7,5.4c0.3,0.5,1,0.7,1.5,0.5c4.4-1.7,8.9-2.2,13.5-1.3
	c0.5,0,1.2-0.2,1.3-0.8l2.5-6.1l4,1.2l-1.2,6.4c-0.2,0.5,0.2,1.2,0.7,1.3c4.2,1.9,7.9,4.9,10.6,8.6c0.3,0.5,1,0.7,1.5,0.3l5.9-2.5
	l2,3.7l-5.4,3.7c-0.5,0.3-0.7,1-0.5,1.5c1.5,4.4,2,8.9,1.3,13.5c0,0.5,0.2,1.2,0.8,1.3l6.1,2.4L335.5,232.1z M297.1,236.8l-1-1
	c-0.2-0.2-0.5-0.3-0.7-0.5c-0.5-0.5-1.2-0.8-1.7-1.3c-0.2,0-0.2-0.2-0.3-0.2c-0.7-0.5-1.3-0.8-2-1.3c-0.3-0.2-0.5-0.3-0.8-0.5
	c-0.3-0.2-0.8-0.5-1.2-0.7c-2.5-3-4-7.1-4-11.1c0-9.6,7.9-17.5,17.5-17.5s17.5,7.9,17.5,17.5c0,9.6-7.9,17.5-17.5,17.5
	C300.8,237.8,299,237.5,297.1,236.8L297.1,236.8z M306.1,260.1l3.2,10.8h-157c2-6.9,3.9-13.1,5.9-19c4.5-14.8,18.2-23.1,35.5-21.7
	c3.7,0.2,7.4,0.5,11.1,0.7c12.6,24.9,24.9,29.8,25.4,30c0.3,0.2,0.8,0.2,1.2-0.2c0.2-0.2,5.2-3.5,12-11.5c0.7-0.8,1.3-1.7,2-2.4
	c3.5-4.2,6.4-7.4,10.8-16c4.2-0.2,7.9-0.3,11.6-0.7c2.5-0.2,5.1-0.2,7.6,0c4.5,0.5,8.8,1.7,12.5,3.5c0.7,0.3,1.3,0.7,2,1.2
	c2,1.2,3.9,2.5,5.6,4.2c3,2.9,5.4,6.4,6.9,10.4c0.3,0.8,0.7,1.5,0.8,2.4C304.2,254.5,305.2,257.2,306.1,260.1L306.1,260.1z
	 M224.2,234h13.5l3.4,14c-5.1,5.7-8.9,8.9-10.4,10.1c-1.5-0.7-5.4-3-10.4-8.8c0.2-0.2,0.3-0.3,0.5-0.7L224.2,234z M237.9,231.3
	h-14.3l-3.2-5.4h20.7L237.9,231.3z M209.7,205.3c6.2,4.5,13.5,7.2,21.1,7.2c7.4,0,14.5-2.5,20.7-6.9c-4,14.7,1.7,24.1,1.9,24.4
	c0,0.2,0.2,0.2,0.2,0.2c-4,7.7-6.7,10.8-10.1,14.7l-0.5,0.5l-3-12.8l4.4-7.6c0.2-0.3,0.2-0.8,0-1.3c-0.2-0.3-0.7-0.7-1.2-0.7h-24.8
	c-0.5,0-0.8,0.2-1.2,0.7c-0.3,0.5-0.2,0.8,0,1.3l4.5,7.7l-3.4,14c-3.4-4-7.1-9.4-10.8-16.7l0.2-0.2C208,229.7,213.8,220,209.7,205.3
	L209.7,205.3z M194.7,178.9c-0.2-0.3-0.3-0.7-0.7-0.8c-0.2,0-0.3-0.2-0.5-0.2c-0.2,0-0.3,0-0.5,0.2c-0.3,0.2-0.5,0.2-0.8,0.2
	c-2.5,0-5.2-5.2-5.2-12.8c0-6.4,2-11.1,4-12.5c2.4,3,7.2,7.9,13.8,8.3v2.2c0,6.4,5.2,11.5,11.5,11.5c6.1,0,11.1-4.7,11.5-10.8
	c2.9-1.7,5.4-0.7,6.2,0c0.3,6.1,5.4,10.8,11.5,10.8c6.4,0,11.5-5.2,11.5-11.5c0-0.7,0-1.3-0.2-2c6.6-0.3,11.5-5.2,13.8-8.3
	c2,1.3,4,5.9,4,12.5c0,7.6-2.7,12.8-5.2,12.8c-0.3,0-0.5,0-0.8-0.2c-0.3-0.2-0.7-0.2-1,0c-0.3,0.2-0.5,0.5-0.7,0.8
	c-5.9,18.9-20,31.2-36,31.2C214.8,210,200.6,197.9,194.7,178.9L194.7,178.9z M204.7,109.8c0.8-0.3,1.7-0.5,2.7-0.8
	c6.7-2.2,15-3.4,23.4-3.4c8.6,0,16.7,1.2,23.4,3.4c1,0.3,1.9,0.5,2.7,0.8c9.8,3,14.7,4.5,13.3,24.9c-0.2,2.7-0.5,5.6-0.7,8.3
	c-1.5-5.2-4.4-11.1-8.9-11.8c-7.2-0.8-27-0.7-27.8-0.7c-0.2,0-8.6,0.5-17.7-8.3c-0.3-0.3-0.7-0.3-1-0.3s-0.7,0.2-0.8,0.5
	c-1.3,1.9-2.9,5.7-0.8,9.4c-4.7-0.8-12.3-1.5-15.3,1.9c-2,2.4-3.7,6.7-4.9,10.4c-0.3-3.2-0.7-6.4-0.8-9.4
	C190,114.4,194.9,112.8,204.7,109.8L204.7,109.8z M216.3,154.5c4.9,0,8.9,4,8.9,8.9c0,4.9-4,8.9-8.9,8.9s-8.9-4-8.9-8.9
	C207.4,158.3,211.2,154.5,216.3,154.5z M245.4,151.9c-5.6,0-10.3,4-11.3,9.4c-1.7-0.7-4-1-6.6,0c-1-5.4-5.6-9.4-11.3-9.4
	c-4.7,0-8.8,2.9-10.4,6.9c-6.1,0-10.6-4.7-12.8-7.6c0.5-1.9,3-12.1,6.1-15.8c2.4-2.7,11.3-1.5,16.5-0.2c0.5,0.2,1.2-0.2,1.5-0.7
	c0.3-0.5,0.2-1.2-0.3-1.5c-3.5-2.9-2.9-5.9-2.2-7.7c9.6,8.6,18,7.9,18.4,7.9c0.2,0,20.4-0.2,27.5,0.7c5.1,0.5,7.7,12,8.4,17v0.2v0.2
	c-2.2,2.7-6.7,7.6-12.8,7.6C254.2,154.6,250.1,151.9,245.4,151.9L245.4,151.9z M254.4,163.4c0,4.9-4,8.9-8.9,8.9s-8.9-4-8.9-8.9
	c0-4.9,4-8.9,8.9-8.9S254.4,158.3,254.4,163.4z M338.7,226l-6.1-2.5c0.5-4.4,0-8.8-1.3-12.8l5.4-3.7c0.5-0.3,0.7-1,0.3-1.7l-3.2-5.7
	c-0.3-0.5-1-0.8-1.7-0.5l-6.1,2.5c-2.7-3.4-6.1-6.2-10.1-8.1l1.2-6.6c0.2-0.7-0.3-1.3-0.8-1.5l-6.2-1.9c-0.7-0.2-1.3,0.2-1.5,0.7
	l-2.5,6.1c-4.2-0.5-8.8,0-12.8,1.3l-3.7-5.4c-0.3-0.5-1-0.7-1.7-0.3l-5.6,3.4c-0.5,0.3-0.8,1-0.5,1.7l2.5,6.1
	c-3.4,2.7-6.2,6.2-8.1,10.1l-6.6-1.2c-0.7-0.2-1.3,0.3-1.5,0.8l-1.9,6.2c-0.2,0.7,0.2,1.3,0.7,1.5l6.1,2.5
	c-0.3,3.5-0.2,7.1,0.7,10.4c-2-0.2-4-0.2-6.2,0c-3.9,0.3-7.9,0.5-12.3,0.7H255c-1.2-2.4-5.2-11.8-0.2-25.6
	c6.1-5.4,10.8-13,13.8-21.9h0.5c4.4,0,7.7-6.6,7.7-15.3c0-6.7-2-12.5-5.1-14.5c0.2-0.2,0.2-0.3,0.3-0.3c0.3-0.7,0.2-1.3-0.5-1.7
	c-0.2,0-0.2-0.2-0.3-0.2c0.5-4.5,1.2-9.1,1.3-13.8c1.5-22.4-4.9-24.4-15.2-27.6c-0.8-0.3-1.7-0.5-2.7-0.8c-8.9-2.9-18-3.5-24.3-3.5
	c-6.1,0-15.3,0.7-24.3,3.5c-0.8,0.3-1.9,0.5-2.7,0.8c-10.3,3.2-16.7,5.1-15.2,27.6c0.3,4.5,0.8,9.3,1.3,13.8c-0.2,0-0.2,0-0.3,0.2
	c-0.7,0.3-0.8,1.2-0.5,1.7l0.3,0.3c-3,2-5.1,7.7-5.1,14.5c0,8.8,3.4,15.3,7.7,15.3h0.5c2.9,8.8,7.6,16.2,13.3,21.6
	c5.1,13.6,1,23.6-0.2,25.9h-0.2c-3.9-0.2-7.9-0.3-11.8-0.7c-18.5-1.5-33.2,7.6-38.1,23.4c-2,6.6-4.2,13.3-6.4,20.7
	c-0.2,0.3,0,0.8,0.2,1.2c0.2,0.3,0.7,0.5,1,0.5H311c0.3,0,0.8-0.2,1-0.5c0.2-0.3,0.3-0.7,0.2-1.2l-3.7-12.5
	c-0.8-2.9-1.7-5.6-2.5-8.3c-0.2-0.3-0.2-0.7-0.3-1c2.4-0.2,4.7-0.7,6.9-1.3l3.7,5.4c0.2,0.3,0.7,0.5,1,0.5c0.2,0,0.3,0,0.7-0.2
	l5.7-3.2c0.5-0.3,0.8-1,0.5-1.7l-2.5-6.1c3.4-2.7,6.2-6.2,8.1-10.1l6.6,1.2c0.7,0.2,1.3-0.3,1.5-0.8l1.9-6.2
	C339.6,227,339.3,226.4,338.7,226L338.7,226z"/>
<path d="M280,94.7h44.3V139c0,0.7,0.5,1.3,1.3,1.3c0.7,0,1.3-0.5,1.3-1.3V93.3c0-0.7-0.5-1.3-1.3-1.3H280c-0.7,0-1.3,0.5-1.3,1.3
	C278.6,94.1,279.3,94.7,280,94.7z"/>
<path d="M174.3,285.5h-44.5V241c0-0.7-0.5-1.3-1.3-1.3c-0.8,0-1.2,0.7-1.2,1.3v45.6c0,0.7,0.5,1.3,1.3,1.3h45.6
	c0.7,0,1.3-0.5,1.3-1.3C175.5,286,175,285.5,174.3,285.5L174.3,285.5z"/>
<path d="M562.6,94.4h-31.4c-1,0-1.9-0.8-1.9-1.8s0.8-1.8,1.9-1.8h31.4c1,0,1.9,0.8,1.9,1.8C564.5,93.5,563.7,94.4,562.6,94.4z"/>
<path d="M581.8,107.9h-50.5c-1,0-1.9-0.8-1.9-1.8c0-1,0.8-1.8,1.9-1.8h50.5c1,0,1.9,0.8,1.9,1.8
	C583.7,107.1,582.8,107.9,581.8,107.9z"/>
<path d="M602.6,186c1,0,1.9,0.8,1.9,1.8c0,0.5-0.2,1-0.6,1.3c-0.3,0.3-0.8,0.5-1.3,0.5h-71.3c-1,0-1.9-0.8-1.9-1.8
	c0-1,0.8-1.8,1.9-1.8C531.9,186,523.4,186,602.6,186L602.6,186z"/>
<path d="M602.6,123.2h-71.3c-1,0-1.9-0.8-1.9-1.8c0-1,0.8-1.8,1.9-1.8h71.3c1,0,1.9,0.8,1.9,1.8
	C604.4,122.4,603.6,123.2,602.6,123.2z"/>
<path d="M512.6,180.3l6.3,14.2l17.8-53.3c-15.6,4.8-4.7,1.4-55.4,17.1l14.7,6.1c1.2,0.5,1.5,2,0.6,2.9l-20.7,19.9l12.9,12.5
	l20.7-19.9C510.5,178.8,512.1,179.2,512.6,180.3L512.6,180.3z M612.8,197.8v-91.9h-22.8c-1,0-1.9-0.8-1.9-1.8V82.2H521v60
	c2.7-0.8,0.9-0.3,9.1-2.8c-0.4-0.3-0.7-0.8-0.7-1.4c0-1,0.8-1.8,1.9-1.8h71.3c1,0,1.9,0.8,1.9,1.8c0,1-0.8,1.8-1.9,1.8h-61.5
	l-4.3,13h65.9c1,0,1.9,0.8,1.9,1.8c0,1-0.8,1.8-1.9,1.8h-67.1l-4.3,13c0,0,0.1,0,0.1,0h71.3c1,0,1.9,0.8,1.9,1.8
	c0,1-0.8,1.8-1.9,1.8h-71.3c-0.4,0-0.8-0.2-1.1-0.4l-8.4,25.2L612.8,197.8z M616,102.8c0.3,0.3,0.5,0.7,0.5,1c0.1,0.5,0,81.6,0,82.1
	h11.1l0-91.9H607L616,102.8z M606.8,73v17.5H625L606.8,73z M591.9,84.7v17.6h18.2C599.9,92.4,603.4,95.8,591.9,84.7z M603.1,70.4
	h-67.2v8.2H590c0.4,0,1,0.2,1.3,0.5l11.7,11.3L603.1,70.4z M490.2,203.5c-0.7,0.7-1.9,0.7-2.6,0l-15.6-15c-0.7-0.7-0.7-1.9,0-2.6
	l20.1-19.3l-16.8-6.9c-1.6-0.7-1.5-2.9,0.2-3.4l41.9-13v-63c0-1,0.8-1.8,1.9-1.8h13v-10c0-1,0.8-1.8,1.9-1.8h70.9
	c0.5,0,1,0.2,1.3,0.5L630.9,91c0.3,0.3,0.5,0.8,0.5,1.4v0v95.3c0,1-0.8,1.8-1.9,1.8h-13v10c0,1-0.8,1.8-1.9,1.8h-95.3
	c-0.1,0-0.1,0-0.2,0c-0.8,0-1.5-0.4-1.8-1.1l-7.2-16.1L490.2,203.5z"/>
<g>
	<path d="M134.2,320.8h5.3c1.2,0,2.1,0.1,2.7,0.3c0.8,0.2,1.6,0.7,2.2,1.3s1.1,1.4,1.4,2.3s0.5,2,0.5,3.4c0,1.2-0.1,2.2-0.4,3
		c-0.4,1-0.9,1.9-1.5,2.5c-0.5,0.5-1.2,0.9-2,1.1c-0.6,0.2-1.5,0.3-2.6,0.3h-5.4V320.8z M137.1,323.2v9.5h2.2c0.8,0,1.4,0,1.7-0.1
		c0.5-0.1,0.9-0.3,1.2-0.6s0.6-0.7,0.8-1.4s0.3-1.5,0.3-2.6s-0.1-2-0.3-2.5s-0.5-1.1-0.8-1.4s-0.8-0.6-1.3-0.7
		c-0.4-0.1-1.2-0.1-2.4-0.1H137.1z"/>
	<path d="M154.6,331.8l2.7,0.5c-0.4,1-0.9,1.8-1.7,2.3s-1.7,0.8-2.8,0.8c-1.8,0-3.1-0.6-4-1.8c-0.7-0.9-1-2.1-1-3.6
		c0-1.7,0.4-3.1,1.3-4s2-1.5,3.4-1.5c1.5,0,2.8,0.5,3.7,1.5s1.3,2.6,1.3,4.7h-6.9c0,0.8,0.2,1.4,0.7,1.9s1,0.7,1.6,0.7
		c0.4,0,0.8-0.1,1.1-0.4S154.5,332.3,154.6,331.8z M154.8,329c0-0.8-0.2-1.4-0.6-1.8s-0.9-0.6-1.4-0.6c-0.6,0-1.1,0.2-1.5,0.7
		s-0.6,1-0.6,1.8H154.8z"/>
	<path d="M162.6,335.1l-4.2-10.4h2.9l2,5.3l0.6,1.8c0.1-0.4,0.2-0.7,0.3-0.9c0.1-0.3,0.2-0.6,0.3-0.9l2-5.3h2.8l-4.1,10.4H162.6z"/>
	<path d="M176.9,331.8l2.7,0.5c-0.4,1-0.9,1.8-1.7,2.3s-1.7,0.8-2.8,0.8c-1.8,0-3.1-0.6-4-1.8c-0.7-0.9-1-2.1-1-3.6
		c0-1.7,0.4-3.1,1.3-4s2-1.5,3.4-1.5c1.5,0,2.8,0.5,3.7,1.5s1.3,2.6,1.3,4.7h-6.9c0,0.8,0.2,1.4,0.7,1.9s1,0.7,1.6,0.7
		c0.4,0,0.8-0.1,1.1-0.4S176.7,332.3,176.9,331.8z M177,329c0-0.8-0.2-1.4-0.6-1.8s-0.9-0.6-1.4-0.6c-0.6,0-1.1,0.2-1.5,0.7
		s-0.6,1-0.6,1.8H177z"/>
	<path d="M182,335.1v-14.3h2.7v14.3H182z"/>
	<path d="M186.9,329.8c0-0.9,0.2-1.8,0.7-2.6s1.1-1.5,1.9-2s1.7-0.7,2.8-0.7c1.6,0,2.9,0.5,3.9,1.5s1.5,2.3,1.5,3.9
		c0,1.6-0.5,2.9-1.5,3.9s-2.3,1.5-3.8,1.5c-1,0-1.9-0.2-2.7-0.6s-1.5-1.1-2-1.9S186.9,331,186.9,329.8z M189.7,329.9
		c0,1,0.2,1.8,0.7,2.4s1.1,0.8,1.8,0.8s1.3-0.3,1.8-0.8s0.7-1.3,0.7-2.4c0-1-0.2-1.8-0.7-2.3s-1.1-0.8-1.8-0.8s-1.3,0.3-1.8,0.8
		S189.7,328.9,189.7,329.9z"/>
	<path d="M199.7,324.7h2.6v1.5c0.3-0.5,0.8-0.9,1.3-1.3s1.2-0.5,1.9-0.5c1.2,0,2.2,0.5,3.1,1.4s1.3,2.3,1.3,3.9c0,1.7-0.4,3.1-1.3,4
		s-1.9,1.4-3.1,1.4c-0.6,0-1.1-0.1-1.6-0.3s-1-0.6-1.5-1.2v5.2h-2.7V324.7z M202.4,329.8c0,1.2,0.2,2,0.7,2.6s1,0.8,1.7,0.8
		c0.6,0,1.2-0.3,1.6-0.8s0.6-1.3,0.6-2.5c0-1.1-0.2-1.9-0.7-2.4s-1-0.8-1.6-0.8c-0.7,0-1.2,0.3-1.7,0.8S202.4,328.7,202.4,329.8z"/>
	<path d="M218,331.8l2.7,0.5c-0.4,1-0.9,1.8-1.7,2.3s-1.7,0.8-2.8,0.8c-1.8,0-3.1-0.6-4-1.8c-0.7-0.9-1-2.1-1-3.6
		c0-1.7,0.4-3.1,1.3-4s2-1.5,3.4-1.5c1.5,0,2.8,0.5,3.7,1.5s1.3,2.6,1.3,4.7H214c0,0.8,0.2,1.4,0.7,1.9s1,0.7,1.6,0.7
		c0.4,0,0.8-0.1,1.1-0.4S217.8,332.3,218,331.8z M218.1,329c0-0.8-0.2-1.4-0.6-1.8s-0.9-0.6-1.4-0.6c-0.6,0-1.1,0.2-1.5,0.7
		s-0.6,1-0.6,1.8H218.1z"/>
	<path d="M225.7,335.1H223v-10.4h2.5v1.5c0.4-0.7,0.8-1.2,1.2-1.4s0.7-0.3,1.2-0.3c0.6,0,1.2,0.2,1.8,0.5l-0.8,2.4
		c-0.5-0.3-0.9-0.4-1.3-0.4c-0.4,0-0.7,0.1-1,0.3s-0.5,0.6-0.6,1.1s-0.2,1.7-0.2,3.5V335.1z"/>
	<path d="M229.9,332.2l2.8-0.4c0.1,0.5,0.4,0.9,0.7,1.2s0.9,0.4,1.5,0.4c0.7,0,1.2-0.1,1.6-0.4c0.2-0.2,0.4-0.4,0.4-0.7
		c0-0.2-0.1-0.4-0.2-0.5c-0.1-0.1-0.4-0.3-0.9-0.4c-2.2-0.5-3.6-0.9-4.2-1.3c-0.8-0.6-1.2-1.3-1.2-2.3c0-0.9,0.4-1.7,1.1-2.3
		s1.8-0.9,3.3-0.9c1.4,0,2.5,0.2,3.2,0.7s1.2,1.1,1.4,2.1l-2.6,0.5c-0.1-0.4-0.3-0.7-0.6-0.9s-0.8-0.3-1.3-0.3
		c-0.7,0-1.2,0.1-1.6,0.3c-0.2,0.1-0.3,0.3-0.3,0.6c0,0.2,0.1,0.4,0.3,0.5c0.2,0.2,1.1,0.4,2.6,0.8s2.5,0.7,3.1,1.2
		c0.6,0.5,0.9,1.2,0.9,2c0,1-0.4,1.8-1.2,2.5s-2,1-3.5,1c-1.4,0-2.5-0.3-3.4-0.9S230.2,333.1,229.9,332.2z"/>
	<path d="M249.6,327.9l-2.5-0.4c0.3-1,0.8-1.7,1.4-2.2s1.7-0.7,3-0.7c1.2,0,2.1,0.1,2.7,0.4s1,0.7,1.3,1.1s0.4,1.3,0.4,2.5l0,3.2
		c0,0.9,0,1.6,0.1,2s0.3,0.9,0.5,1.4h-2.7c-0.1-0.2-0.2-0.5-0.3-0.8c0-0.2-0.1-0.3-0.1-0.3c-0.5,0.5-1,0.8-1.5,1s-1.1,0.3-1.7,0.3
		c-1.1,0-1.9-0.3-2.5-0.9s-0.9-1.3-0.9-2.2c0-0.6,0.1-1.1,0.4-1.6s0.7-0.8,1.2-1.1s1.2-0.5,2.2-0.6c1.3-0.2,2.2-0.5,2.7-0.7v-0.3
		c0-0.5-0.1-0.9-0.4-1.1s-0.8-0.3-1.5-0.3c-0.5,0-0.9,0.1-1.1,0.3S249.8,327.4,249.6,327.9z M253.3,330.1c-0.4,0.1-0.9,0.3-1.7,0.4
		s-1.3,0.3-1.5,0.5c-0.4,0.3-0.5,0.6-0.5,1c0,0.4,0.1,0.7,0.4,1s0.7,0.4,1.1,0.4c0.5,0,1-0.2,1.4-0.5c0.3-0.2,0.5-0.5,0.7-0.9
		c0.1-0.2,0.1-0.7,0.1-1.3V330.1z"/>
	<path d="M261.3,335.1h-2.7v-10.4h2.5v1.5c0.4-0.7,0.8-1.2,1.2-1.4s0.7-0.3,1.2-0.3c0.6,0,1.2,0.2,1.8,0.5l-0.8,2.4
		c-0.5-0.3-0.9-0.4-1.3-0.4c-0.4,0-0.7,0.1-1,0.3s-0.5,0.6-0.6,1.1s-0.2,1.7-0.2,3.5V335.1z"/>
	<path d="M272.5,331.8l2.7,0.5c-0.4,1-0.9,1.8-1.7,2.3s-1.7,0.8-2.8,0.8c-1.8,0-3.1-0.6-4-1.8c-0.7-0.9-1-2.1-1-3.6
		c0-1.7,0.4-3.1,1.3-4s2-1.5,3.4-1.5c1.5,0,2.8,0.5,3.7,1.5s1.3,2.6,1.3,4.7h-6.9c0,0.8,0.2,1.4,0.7,1.9s1,0.7,1.6,0.7
		c0.4,0,0.8-0.1,1.1-0.4S272.3,332.3,272.5,331.8z M272.6,329c0-0.8-0.2-1.4-0.6-1.8s-0.9-0.6-1.4-0.6c-0.6,0-1.1,0.2-1.5,0.7
		s-0.6,1-0.6,1.8H272.6z"/>
	<path d="M285.1,335.1l-3.3-10.4h2.7l1.9,6.8l1.8-6.8h2.6l1.7,6.8l2-6.8h2.7l-3.3,10.4h-2.6l-1.8-6.7l-1.8,6.7H285.1z"/>
	<path d="M301.3,335.1h-2.7v-10.4h2.5v1.5c0.4-0.7,0.8-1.2,1.2-1.4s0.7-0.3,1.2-0.3c0.6,0,1.2,0.2,1.8,0.5l-0.8,2.4
		c-0.5-0.3-0.9-0.4-1.3-0.4c-0.4,0-0.7,0.1-1,0.3s-0.5,0.6-0.6,1.1s-0.2,1.7-0.2,3.5V335.1z"/>
	<path d="M306.5,323.3v-2.5h2.7v2.5H306.5z M306.5,335.1v-10.4h2.7v10.4H306.5z"/>
	<path d="M316.8,324.7v2.2h-1.9v4.2c0,0.8,0,1.3,0.1,1.5s0.1,0.3,0.2,0.3s0.3,0.1,0.5,0.1c0.3,0,0.6-0.1,1.1-0.3l0.2,2.1
		c-0.6,0.3-1.4,0.4-2.2,0.4c-0.5,0-0.9-0.1-1.3-0.2s-0.7-0.4-0.9-0.6s-0.3-0.6-0.4-1.1c-0.1-0.3-0.1-1-0.1-1.9v-4.5h-1.3v-2.2h1.3
		v-2.1l2.8-1.6v3.7H316.8z"/>
	<path d="M318.7,323.3v-2.5h2.7v2.5H318.7z M318.7,335.1v-10.4h2.7v10.4H318.7z"/>
	<path d="M333.7,335.1H331v-5.3c0-1.1-0.1-1.8-0.2-2.2s-0.3-0.6-0.6-0.8s-0.6-0.3-1-0.3c-0.5,0-0.9,0.1-1.3,0.4s-0.6,0.6-0.8,1
		s-0.2,1.2-0.2,2.4v4.7h-2.7v-10.4h2.5v1.5c0.9-1.2,2-1.8,3.4-1.8c0.6,0,1.2,0.1,1.7,0.3s0.9,0.5,1.1,0.8s0.4,0.7,0.5,1.2
		s0.2,1,0.2,1.8V335.1z"/>
	<path d="M336.2,335.8l3.1,0.4c0.1,0.4,0.2,0.6,0.4,0.8c0.3,0.2,0.7,0.3,1.2,0.3c0.7,0,1.3-0.1,1.6-0.3c0.2-0.1,0.4-0.4,0.5-0.7
		c0.1-0.2,0.1-0.6,0.1-1.3v-1.5c-0.8,1.1-1.9,1.7-3.1,1.7c-1.4,0-2.5-0.6-3.3-1.8c-0.6-0.9-1-2.1-1-3.5c0-1.7,0.4-3.1,1.3-4
		s1.9-1.4,3.1-1.4c1.3,0,2.3,0.6,3.2,1.7v-1.5h2.6v9.3c0,1.2-0.1,2.1-0.3,2.7s-0.5,1.1-0.8,1.4s-0.9,0.6-1.5,0.8s-1.4,0.3-2.3,0.3
		c-1.8,0-3-0.3-3.7-0.9s-1.1-1.4-1.1-2.3C336.2,336,336.2,335.9,336.2,335.8z M338.7,329.7c0,1.1,0.2,1.9,0.6,2.4s1,0.8,1.6,0.8
		c0.7,0,1.2-0.3,1.7-0.8s0.7-1.3,0.7-2.3c0-1.1-0.2-1.9-0.7-2.4s-1-0.8-1.7-0.8c-0.7,0-1.2,0.3-1.6,0.8S338.7,328.7,338.7,329.7z"/>
</g>
<g>
	<path d="M536.1,245.4H533l-1.2-3.3H526l-1.2,3.3h-3.1l5.6-14.3h3.1L536.1,245.4z M530.8,239.8l-2-5.3l-1.9,5.3H530.8z"/>
	<path d="M537.6,245.4v-14.3h4.6c1.8,0,2.9,0.1,3.4,0.2c0.8,0.2,1.5,0.7,2.1,1.4s0.8,1.6,0.8,2.8c0,0.9-0.2,1.6-0.5,2.2
		s-0.7,1.1-1.2,1.4s-1,0.6-1.5,0.7c-0.7,0.1-1.7,0.2-3,0.2h-1.9v5.4H537.6z M540.5,233.5v4.1h1.6c1.1,0,1.9-0.1,2.3-0.2
		s0.7-0.4,0.9-0.7s0.3-0.7,0.3-1.1c0-0.5-0.2-1-0.5-1.3s-0.7-0.5-1.2-0.6c-0.3-0.1-1-0.1-2.1-0.1H540.5z"/>
	<path d="M550.9,245.4v-14.3h2.9v14.3H550.9z"/>
	<path d="M571.6,245.4H569v-1.5c-0.4,0.6-0.9,1-1.5,1.3s-1.2,0.4-1.7,0.4c-1.2,0-2.2-0.5-3.1-1.4s-1.3-2.3-1.3-4
		c0-1.8,0.4-3.1,1.2-4s1.9-1.4,3.1-1.4c1.2,0,2.2,0.5,3,1.4v-5.2h2.7V245.4z M564.3,240c0,1.1,0.2,1.9,0.5,2.4
		c0.4,0.7,1.1,1.1,1.9,1.1c0.6,0,1.2-0.3,1.6-0.8s0.7-1.3,0.7-2.4c0-1.2-0.2-2-0.6-2.6s-1-0.8-1.7-0.8c-0.7,0-1.2,0.3-1.6,0.8
		S564.3,239,564.3,240z"/>
	<path d="M573.6,240.1c0-0.9,0.2-1.8,0.7-2.6s1.1-1.5,1.9-2s1.7-0.7,2.8-0.7c1.6,0,2.9,0.5,3.9,1.5s1.5,2.3,1.5,3.9
		c0,1.6-0.5,2.9-1.5,3.9s-2.3,1.5-3.8,1.5c-1,0-1.9-0.2-2.7-0.6s-1.5-1.1-2-1.9S573.6,241.3,573.6,240.1z M576.5,240.2
		c0,1,0.2,1.8,0.7,2.4s1.1,0.8,1.8,0.8s1.3-0.3,1.8-0.8s0.7-1.3,0.7-2.4c0-1-0.2-1.8-0.7-2.3s-1.1-0.8-1.8-0.8s-1.3,0.3-1.8,0.8
		S576.5,239.2,576.5,240.2z"/>
	<path d="M595.5,238.1l-2.7,0.5c-0.1-0.5-0.3-0.9-0.6-1.2s-0.7-0.4-1.3-0.4c-0.7,0-1.2,0.2-1.6,0.7s-0.6,1.3-0.6,2.4
		c0,1.2,0.2,2.1,0.6,2.6s1,0.8,1.7,0.8c0.5,0,0.9-0.1,1.3-0.4s0.6-0.8,0.7-1.5l2.7,0.5c-0.3,1.2-0.8,2.2-1.6,2.8s-1.9,0.9-3.2,0.9
		c-1.5,0-2.7-0.5-3.6-1.4s-1.4-2.3-1.4-4c0-1.7,0.5-3,1.4-4s2.1-1.4,3.7-1.4c1.3,0,2.3,0.3,3,0.8S595.2,237,595.5,238.1z"/>
	<path d="M596.7,242.5l2.8-0.4c0.1,0.5,0.4,0.9,0.7,1.2s0.9,0.4,1.5,0.4c0.7,0,1.2-0.1,1.6-0.4c0.2-0.2,0.4-0.4,0.4-0.7
		c0-0.2-0.1-0.4-0.2-0.5c-0.1-0.1-0.4-0.3-0.9-0.4c-2.2-0.5-3.6-0.9-4.2-1.3c-0.8-0.6-1.2-1.3-1.2-2.3c0-0.9,0.4-1.7,1.1-2.3
		s1.8-0.9,3.3-0.9c1.4,0,2.5,0.2,3.2,0.7s1.2,1.1,1.4,2.1l-2.6,0.5c-0.1-0.4-0.3-0.7-0.6-0.9s-0.8-0.3-1.3-0.3
		c-0.7,0-1.2,0.1-1.6,0.3c-0.2,0.1-0.3,0.3-0.3,0.6c0,0.2,0.1,0.4,0.3,0.5c0.2,0.2,1.1,0.4,2.6,0.8s2.5,0.7,3.1,1.2
		c0.6,0.5,0.9,1.2,0.9,2c0,1-0.4,1.8-1.2,2.5s-2,1-3.5,1c-1.4,0-2.5-0.3-3.4-0.9S596.9,243.4,596.7,242.5z"/>
	<path d="M522.5,268.8l2.8-0.3c0.2,0.9,0.5,1.6,1,2.1s1.2,0.7,2.1,0.7c0.9,0,1.6-0.2,2.1-0.6s0.7-0.9,0.7-1.4c0-0.3-0.1-0.6-0.3-0.9
		s-0.5-0.4-1-0.6c-0.3-0.1-1.1-0.3-2.3-0.6c-1.5-0.4-2.6-0.9-3.3-1.4c-0.9-0.8-1.3-1.7-1.3-2.9c0-0.7,0.2-1.4,0.6-2s1-1.1,1.8-1.5
		s1.7-0.5,2.8-0.5c1.8,0,3.1,0.4,4.1,1.2s1.4,1.8,1.4,3.2l-2.9,0.1c-0.1-0.7-0.4-1.3-0.8-1.6s-1-0.5-1.8-0.5c-0.8,0-1.5,0.2-2,0.5
		c-0.3,0.2-0.5,0.5-0.5,0.9c0,0.3,0.1,0.6,0.4,0.9c0.4,0.3,1.2,0.6,2.7,1s2.4,0.7,3.1,1s1.2,0.8,1.6,1.5s0.6,1.4,0.6,2.3
		c0,0.8-0.2,1.6-0.7,2.3s-1.1,1.2-1.9,1.6s-1.9,0.5-3.1,0.5c-1.8,0-3.2-0.4-4.2-1.3S522.6,270.4,522.5,268.8z"/>
	<path d="M536.5,259.1h5.3c1.2,0,2.1,0.1,2.7,0.3c0.8,0.2,1.6,0.7,2.2,1.3s1.1,1.4,1.4,2.3s0.5,2,0.5,3.4c0,1.2-0.1,2.2-0.4,3
		c-0.4,1-0.9,1.9-1.5,2.5c-0.5,0.5-1.2,0.9-2,1.1c-0.6,0.2-1.5,0.3-2.6,0.3h-5.4V259.1z M539.4,261.5v9.5h2.2c0.8,0,1.4,0,1.7-0.1
		c0.5-0.1,0.9-0.3,1.2-0.6s0.6-0.7,0.8-1.4s0.3-1.5,0.3-2.6s-0.1-2-0.3-2.5s-0.5-1.1-0.8-1.4s-0.8-0.6-1.3-0.7
		c-0.4-0.1-1.2-0.1-2.4-0.1H539.4z"/>
	<path d="M551,273.4v-14.3h2.9v6.4l5.8-6.4h3.9l-5.4,5.6l5.7,8.7h-3.7l-3.9-6.7l-2.3,2.4v4.3H551z"/>
	<path d="M564.4,270.5l2.8-0.4c0.1,0.5,0.4,0.9,0.7,1.2s0.9,0.4,1.5,0.4c0.7,0,1.2-0.1,1.6-0.4c0.2-0.2,0.4-0.4,0.4-0.7
		c0-0.2-0.1-0.4-0.2-0.5c-0.1-0.1-0.4-0.3-0.9-0.4c-2.2-0.5-3.6-0.9-4.2-1.3c-0.8-0.6-1.2-1.3-1.2-2.3c0-0.9,0.4-1.7,1.1-2.3
		s1.8-0.9,3.3-0.9c1.4,0,2.5,0.2,3.2,0.7s1.2,1.1,1.4,2.1l-2.6,0.5c-0.1-0.4-0.3-0.7-0.6-0.9s-0.8-0.3-1.3-0.3
		c-0.7,0-1.2,0.1-1.6,0.3c-0.2,0.1-0.3,0.3-0.3,0.6c0,0.2,0.1,0.4,0.3,0.5c0.2,0.2,1.1,0.4,2.6,0.8s2.5,0.7,3.1,1.2
		c0.6,0.5,0.9,1.2,0.9,2c0,1-0.4,1.8-1.2,2.5s-2,1-3.5,1c-1.4,0-2.5-0.3-3.4-0.9S564.7,271.4,564.4,270.5z"/>
	<path d="M532.3,296.2l2.8,0.9c-0.4,1.6-1.1,2.7-2.1,3.5s-2.3,1.1-3.8,1.1c-1.9,0-3.5-0.6-4.7-1.9s-1.8-3.1-1.8-5.3
		c0-2.4,0.6-4.2,1.8-5.6s2.8-2,4.9-2c1.8,0,3.2,0.5,4.3,1.6c0.7,0.6,1.1,1.5,1.5,2.6l-2.9,0.7c-0.2-0.7-0.5-1.3-1.1-1.8
		s-1.2-0.6-2-0.6c-1.1,0-1.9,0.4-2.6,1.1s-1,2-1,3.7c0,1.8,0.3,3.1,1,3.9s1.5,1.2,2.5,1.2c0.8,0,1.4-0.2,2-0.7
		S532.1,297.2,532.3,296.2z"/>
	<path d="M537,296.1c0-0.9,0.2-1.8,0.7-2.6s1.1-1.5,1.9-2s1.7-0.7,2.8-0.7c1.6,0,2.9,0.5,3.9,1.5s1.5,2.3,1.5,3.9
		c0,1.6-0.5,2.9-1.5,3.9s-2.3,1.5-3.8,1.5c-1,0-1.9-0.2-2.7-0.6s-1.5-1.1-2-1.9S537,297.3,537,296.1z M539.8,296.2
		c0,1,0.2,1.8,0.7,2.4s1.1,0.8,1.8,0.8s1.3-0.3,1.8-0.8s0.7-1.3,0.7-2.4c0-1-0.2-1.8-0.7-2.3s-1.1-0.8-1.8-0.8s-1.3,0.3-1.8,0.8
		S539.8,295.2,539.8,296.2z"/>
	<path d="M559.3,301.4h-2.5v-1.5c-0.4,0.6-0.9,1-1.5,1.3s-1.2,0.4-1.7,0.4c-1.2,0-2.2-0.5-3.1-1.4s-1.3-2.3-1.3-4
		c0-1.8,0.4-3.1,1.2-4s1.9-1.4,3.1-1.4c1.2,0,2.2,0.5,3,1.4v-5.2h2.7V301.4z M552,296c0,1.1,0.2,1.9,0.5,2.4
		c0.4,0.7,1.1,1.1,1.9,1.1c0.6,0,1.2-0.3,1.6-0.8s0.7-1.3,0.7-2.4c0-1.2-0.2-2-0.6-2.6s-1-0.8-1.7-0.8c-0.7,0-1.2,0.3-1.6,0.8
		S552,295,552,296z"/>
	<path d="M568.1,298.1l2.7,0.5c-0.4,1-0.9,1.8-1.7,2.3s-1.7,0.8-2.8,0.8c-1.8,0-3.1-0.6-4-1.8c-0.7-0.9-1-2.1-1-3.6
		c0-1.7,0.4-3.1,1.3-4s2-1.5,3.4-1.5c1.5,0,2.8,0.5,3.7,1.5s1.3,2.6,1.3,4.7h-6.9c0,0.8,0.2,1.4,0.7,1.9s1,0.7,1.6,0.7
		c0.4,0,0.8-0.1,1.1-0.4S567.9,298.6,568.1,298.1z M568.2,295.4c0-0.8-0.2-1.4-0.6-1.8s-0.9-0.6-1.4-0.6c-0.6,0-1.1,0.2-1.5,0.7
		s-0.6,1-0.6,1.8H568.2z"/>
	<path d="M583.5,291.1v2.2h-1.9v4.2c0,0.8,0,1.3,0.1,1.5s0.1,0.3,0.2,0.3s0.3,0.1,0.5,0.1c0.3,0,0.6-0.1,1.1-0.3l0.2,2.1
		c-0.6,0.3-1.4,0.4-2.2,0.4c-0.5,0-0.9-0.1-1.3-0.2s-0.7-0.4-0.9-0.6s-0.3-0.6-0.4-1.1c-0.1-0.3-0.1-1-0.1-1.9v-4.5h-1.3v-2.2h1.3
		V289l2.8-1.6v3.7H583.5z"/>
	<path d="M592.2,301.4v-1.6c-0.4,0.6-0.9,1-1.5,1.3s-1.3,0.5-1.9,0.5c-0.7,0-1.3-0.2-1.9-0.5s-1-0.7-1.2-1.3s-0.4-1.3-0.4-2.3v-6.6
		h2.7v4.8c0,1.5,0.1,2.4,0.2,2.7s0.3,0.6,0.6,0.8s0.6,0.3,1,0.3c0.5,0,0.9-0.1,1.3-0.4s0.6-0.6,0.8-1s0.2-1.3,0.2-2.8v-4.4h2.7v10.4
		H592.2z"/>
	<path d="M602.4,291.1v2.2h-1.9v4.2c0,0.8,0,1.3,0.1,1.5s0.1,0.3,0.2,0.3s0.3,0.1,0.5,0.1c0.3,0,0.6-0.1,1.1-0.3l0.2,2.1
		c-0.6,0.3-1.4,0.4-2.2,0.4c-0.5,0-0.9-0.1-1.3-0.2s-0.7-0.4-0.9-0.6s-0.3-0.6-0.4-1.1c-0.1-0.3-0.1-1-0.1-1.9v-4.5h-1.3v-2.2h1.3
		V289l2.8-1.6v3.7H602.4z"/>
	<path d="M603.6,296.1c0-0.9,0.2-1.8,0.7-2.6s1.1-1.5,1.9-2s1.7-0.7,2.8-0.7c1.6,0,2.9,0.5,3.9,1.5s1.5,2.3,1.5,3.9
		c0,1.6-0.5,2.9-1.5,3.9s-2.3,1.5-3.8,1.5c-1,0-1.9-0.2-2.7-0.6s-1.5-1.1-2-1.9S603.6,297.3,603.6,296.1z M606.4,296.2
		c0,1,0.2,1.8,0.7,2.4s1.1,0.8,1.8,0.8s1.3-0.3,1.8-0.8s0.7-1.3,0.7-2.4c0-1-0.2-1.8-0.7-2.3s-1.1-0.8-1.8-0.8s-1.3,0.3-1.8,0.8
		S606.4,295.2,606.4,296.2z"/>
	<path d="M619.1,301.4h-2.7v-10.4h2.5v1.5c0.4-0.7,0.8-1.2,1.2-1.4s0.7-0.3,1.2-0.3c0.6,0,1.2,0.2,1.8,0.5l-0.8,2.4
		c-0.5-0.3-0.9-0.4-1.3-0.4c-0.4,0-0.7,0.1-1,0.3s-0.5,0.6-0.6,1.1s-0.2,1.7-0.2,3.5V301.4z"/>
	<path d="M624.3,289.6v-2.5h2.7v2.5H624.3z M624.3,301.4v-10.4h2.7v10.4H624.3z"/>
	<path d="M631.9,294.2l-2.5-0.4c0.3-1,0.8-1.7,1.4-2.2s1.7-0.7,3-0.7c1.2,0,2.1,0.1,2.7,0.4s1,0.7,1.3,1.1s0.4,1.3,0.4,2.5l0,3.2
		c0,0.9,0,1.6,0.1,2s0.3,0.9,0.5,1.4h-2.7c-0.1-0.2-0.2-0.5-0.3-0.8c0-0.2-0.1-0.3-0.1-0.3c-0.5,0.5-1,0.8-1.5,1s-1.1,0.3-1.7,0.3
		c-1.1,0-1.9-0.3-2.5-0.9s-0.9-1.3-0.9-2.2c0-0.6,0.1-1.1,0.4-1.6s0.7-0.8,1.2-1.1s1.2-0.5,2.2-0.6c1.3-0.2,2.2-0.5,2.7-0.7v-0.3
		c0-0.5-0.1-0.9-0.4-1.1s-0.8-0.3-1.5-0.3c-0.5,0-0.9,0.1-1.1,0.3S632,293.7,631.9,294.2z M635.5,296.4c-0.4,0.1-0.9,0.3-1.7,0.4
		s-1.3,0.3-1.5,0.5c-0.4,0.3-0.5,0.6-0.5,1c0,0.4,0.1,0.7,0.4,1s0.7,0.4,1.1,0.4c0.5,0,1-0.2,1.4-0.5c0.3-0.2,0.5-0.5,0.7-0.9
		c0.1-0.2,0.1-0.7,0.1-1.3V296.4z"/>
	<path d="M640.9,301.4v-14.3h2.7v14.3H640.9z"/>
	<path d="M645.5,298.5l2.8-0.4c0.1,0.5,0.4,0.9,0.7,1.2s0.9,0.4,1.5,0.4c0.7,0,1.2-0.1,1.6-0.4c0.2-0.2,0.4-0.4,0.4-0.7
		c0-0.2-0.1-0.4-0.2-0.5c-0.1-0.1-0.4-0.3-0.9-0.4c-2.2-0.5-3.6-0.9-4.2-1.3c-0.8-0.6-1.2-1.3-1.2-2.3c0-0.9,0.4-1.7,1.1-2.3
		s1.8-0.9,3.3-0.9c1.4,0,2.5,0.2,3.2,0.7s1.2,1.1,1.4,2.1l-2.6,0.5c-0.1-0.4-0.3-0.7-0.6-0.9s-0.8-0.3-1.3-0.3
		c-0.7,0-1.2,0.1-1.6,0.3c-0.2,0.1-0.3,0.3-0.3,0.6c0,0.2,0.1,0.4,0.3,0.5c0.2,0.2,1.1,0.4,2.6,0.8s2.5,0.7,3.1,1.2
		c0.6,0.5,0.9,1.2,0.9,2c0,1-0.4,1.8-1.2,2.5s-2,1-3.5,1c-1.4,0-2.5-0.3-3.4-0.9S645.8,299.4,645.5,298.5z"/>
	<path d="M526.4,329.4v-11.9h-4.2v-2.4h11.4v2.4h-4.2v11.9H526.4z"/>
	<path d="M539.9,326.1l2.7,0.5c-0.4,1-0.9,1.8-1.7,2.3s-1.7,0.8-2.8,0.8c-1.8,0-3.1-0.6-4-1.8c-0.7-0.9-1-2.1-1-3.6
		c0-1.7,0.4-3.1,1.3-4s2-1.5,3.4-1.5c1.5,0,2.8,0.5,3.7,1.5s1.3,2.6,1.3,4.7h-6.9c0,0.8,0.2,1.4,0.7,1.9s1,0.7,1.6,0.7
		c0.4,0,0.8-0.1,1.1-0.4S539.8,326.6,539.9,326.1z M540.1,323.4c0-0.8-0.2-1.4-0.6-1.8s-0.9-0.6-1.4-0.6c-0.6,0-1.1,0.2-1.5,0.7
		s-0.6,1-0.6,1.8H540.1z"/>
	<path d="M554.1,322.1l-2.7,0.5c-0.1-0.5-0.3-0.9-0.6-1.2s-0.7-0.4-1.3-0.4c-0.7,0-1.2,0.2-1.6,0.7s-0.6,1.3-0.6,2.4
		c0,1.2,0.2,2.1,0.6,2.6s1,0.8,1.7,0.8c0.5,0,0.9-0.1,1.3-0.4s0.6-0.8,0.7-1.5l2.7,0.5c-0.3,1.2-0.8,2.2-1.6,2.8s-1.9,0.9-3.2,0.9
		c-1.5,0-2.7-0.5-3.6-1.4s-1.4-2.3-1.4-4c0-1.7,0.5-3,1.4-4s2.1-1.4,3.7-1.4c1.3,0,2.3,0.3,3,0.8S553.7,321,554.1,322.1z"/>
	<path d="M558.9,315.1v5.3c0.9-1,1.9-1.6,3.2-1.6c0.6,0,1.2,0.1,1.7,0.4s0.9,0.5,1.1,0.9s0.4,0.8,0.5,1.2s0.1,1.1,0.1,2.1v6.1h-2.7
		v-5.5c0-1.1-0.1-1.8-0.2-2.1s-0.3-0.5-0.6-0.7s-0.6-0.3-1-0.3c-0.5,0-0.9,0.1-1.2,0.3s-0.6,0.6-0.8,1s-0.2,1.1-0.2,2v5.2h-2.7
		v-14.3H558.9z"/>
	<path d="M573,326.5l2.8-0.4c0.1,0.5,0.4,0.9,0.7,1.2s0.9,0.4,1.5,0.4c0.7,0,1.2-0.1,1.6-0.4c0.2-0.2,0.4-0.4,0.4-0.7
		c0-0.2-0.1-0.4-0.2-0.5c-0.1-0.1-0.4-0.3-0.9-0.4c-2.2-0.5-3.6-0.9-4.2-1.3c-0.8-0.6-1.2-1.3-1.2-2.3c0-0.9,0.4-1.7,1.1-2.3
		s1.8-0.9,3.3-0.9c1.4,0,2.5,0.2,3.2,0.7s1.2,1.1,1.4,2.1l-2.6,0.5c-0.1-0.4-0.3-0.7-0.6-0.9s-0.8-0.3-1.3-0.3
		c-0.7,0-1.2,0.1-1.6,0.3c-0.2,0.1-0.3,0.3-0.3,0.6c0,0.2,0.1,0.4,0.3,0.5c0.2,0.2,1.1,0.4,2.6,0.8s2.5,0.7,3.1,1.2
		c0.6,0.5,0.9,1.2,0.9,2c0,1-0.4,1.8-1.2,2.5s-2,1-3.5,1c-1.4,0-2.5-0.3-3.4-0.9S573.2,327.4,573,326.5z"/>
	<path d="M585,319.1h2.6v1.5c0.3-0.5,0.8-0.9,1.3-1.3s1.2-0.5,1.9-0.5c1.2,0,2.2,0.5,3.1,1.4s1.3,2.3,1.3,3.9c0,1.7-0.4,3.1-1.3,4
		s-1.9,1.4-3.1,1.4c-0.6,0-1.1-0.1-1.6-0.3s-1-0.6-1.5-1.2v5.2H585V319.1z M587.7,324.1c0,1.2,0.2,2,0.7,2.6s1,0.8,1.7,0.8
		c0.6,0,1.2-0.3,1.6-0.8s0.6-1.3,0.6-2.5c0-1.1-0.2-1.9-0.7-2.4s-1-0.8-1.6-0.8c-0.7,0-1.2,0.3-1.7,0.8S587.7,323,587.7,324.1z"/>
	<path d="M603.3,326.1l2.7,0.5c-0.4,1-0.9,1.8-1.7,2.3s-1.7,0.8-2.8,0.8c-1.8,0-3.1-0.6-4-1.8c-0.7-0.9-1-2.1-1-3.6
		c0-1.7,0.4-3.1,1.3-4s2-1.5,3.4-1.5c1.5,0,2.8,0.5,3.7,1.5s1.3,2.6,1.3,4.7h-6.9c0,0.8,0.2,1.4,0.7,1.9s1,0.7,1.6,0.7
		c0.4,0,0.8-0.1,1.1-0.4S603.1,326.6,603.3,326.1z M603.4,323.4c0-0.8-0.2-1.4-0.6-1.8s-0.9-0.6-1.4-0.6c-0.6,0-1.1,0.2-1.5,0.7
		s-0.6,1-0.6,1.8H603.4z"/>
	<path d="M617.4,322.1l-2.7,0.5c-0.1-0.5-0.3-0.9-0.6-1.2s-0.7-0.4-1.3-0.4c-0.7,0-1.2,0.2-1.6,0.7s-0.6,1.3-0.6,2.4
		c0,1.2,0.2,2.1,0.6,2.6s1,0.8,1.7,0.8c0.5,0,0.9-0.1,1.3-0.4s0.6-0.8,0.7-1.5l2.7,0.5c-0.3,1.2-0.8,2.2-1.6,2.8s-1.9,0.9-3.2,0.9
		c-1.5,0-2.7-0.5-3.6-1.4s-1.4-2.3-1.4-4c0-1.7,0.5-3,1.4-4s2.1-1.4,3.7-1.4c1.3,0,2.3,0.3,3,0.8S617.1,321,617.4,322.1z"/>
	<path d="M618.5,326.5l2.8-0.4c0.1,0.5,0.4,0.9,0.7,1.2s0.9,0.4,1.5,0.4c0.7,0,1.2-0.1,1.6-0.4c0.2-0.2,0.4-0.4,0.4-0.7
		c0-0.2-0.1-0.4-0.2-0.5c-0.1-0.1-0.4-0.3-0.9-0.4c-2.2-0.5-3.6-0.9-4.2-1.3c-0.8-0.6-1.2-1.3-1.2-2.3c0-0.9,0.4-1.7,1.1-2.3
		s1.8-0.9,3.3-0.9c1.4,0,2.5,0.2,3.2,0.7s1.2,1.1,1.4,2.1l-2.6,0.5c-0.1-0.4-0.3-0.7-0.6-0.9s-0.8-0.3-1.3-0.3
		c-0.7,0-1.2,0.1-1.6,0.3c-0.2,0.1-0.3,0.3-0.3,0.6c0,0.2,0.1,0.4,0.3,0.5c0.2,0.2,1.1,0.4,2.6,0.8s2.5,0.7,3.1,1.2
		c0.6,0.5,0.9,1.2,0.9,2c0,1-0.4,1.8-1.2,2.5s-2,1-3.5,1c-1.4,0-2.5-0.3-3.4-0.9S618.8,327.4,618.5,326.5z"/>
	<path d="M522.5,352.8l2.8-0.3c0.2,0.9,0.5,1.6,1,2.1s1.2,0.7,2.1,0.7c0.9,0,1.6-0.2,2.1-0.6s0.7-0.9,0.7-1.4c0-0.3-0.1-0.6-0.3-0.9
		s-0.5-0.4-1-0.6c-0.3-0.1-1.1-0.3-2.3-0.6c-1.5-0.4-2.6-0.9-3.3-1.4c-0.9-0.8-1.3-1.7-1.3-2.9c0-0.7,0.2-1.4,0.6-2s1-1.1,1.8-1.5
		s1.7-0.5,2.8-0.5c1.8,0,3.1,0.4,4.1,1.2s1.4,1.8,1.4,3.2l-2.9,0.1c-0.1-0.7-0.4-1.3-0.8-1.6s-1-0.5-1.8-0.5c-0.8,0-1.5,0.2-2,0.5
		c-0.3,0.2-0.5,0.5-0.5,0.9c0,0.3,0.1,0.6,0.4,0.9c0.4,0.3,1.2,0.6,2.7,1s2.4,0.7,3.1,1s1.2,0.8,1.6,1.5s0.6,1.4,0.6,2.3
		c0,0.8-0.2,1.6-0.7,2.3s-1.1,1.2-1.9,1.6s-1.9,0.5-3.1,0.5c-1.8,0-3.2-0.4-4.2-1.3S522.6,354.4,522.5,352.8z"/>
	<path d="M536.4,347.1h2.6v1.5c0.3-0.5,0.8-0.9,1.3-1.3s1.2-0.5,1.9-0.5c1.2,0,2.2,0.5,3.1,1.4s1.3,2.3,1.3,3.9c0,1.7-0.4,3.1-1.3,4
		s-1.9,1.4-3.1,1.4c-0.6,0-1.1-0.1-1.6-0.3s-1-0.6-1.5-1.2v5.2h-2.7V347.1z M539.1,352.1c0,1.2,0.2,2,0.7,2.6s1,0.8,1.7,0.8
		c0.6,0,1.2-0.3,1.6-0.8s0.6-1.3,0.6-2.5c0-1.1-0.2-1.9-0.7-2.4s-1-0.8-1.6-0.8c-0.7,0-1.2,0.3-1.7,0.8S539.1,351,539.1,352.1z"/>
	<path d="M554.7,354.1l2.7,0.5c-0.4,1-0.9,1.8-1.7,2.3s-1.7,0.8-2.8,0.8c-1.8,0-3.1-0.6-4-1.8c-0.7-0.9-1-2.1-1-3.6
		c0-1.7,0.4-3.1,1.3-4s2-1.5,3.4-1.5c1.5,0,2.8,0.5,3.7,1.5s1.3,2.6,1.3,4.7h-6.9c0,0.8,0.2,1.4,0.7,1.9s1,0.7,1.6,0.7
		c0.4,0,0.8-0.1,1.1-0.4S554.6,354.6,554.7,354.1z M554.9,351.4c0-0.8-0.2-1.4-0.6-1.8s-0.9-0.6-1.4-0.6c-0.6,0-1.1,0.2-1.5,0.7
		s-0.6,1-0.6,1.8H554.9z"/>
	<path d="M568.9,350.1l-2.7,0.5c-0.1-0.5-0.3-0.9-0.6-1.2s-0.7-0.4-1.3-0.4c-0.7,0-1.2,0.2-1.6,0.7s-0.6,1.3-0.6,2.4
		c0,1.2,0.2,2.1,0.6,2.6s1,0.8,1.7,0.8c0.5,0,0.9-0.1,1.3-0.4s0.6-0.8,0.7-1.5l2.7,0.5c-0.3,1.2-0.8,2.2-1.6,2.8s-1.9,0.9-3.2,0.9
		c-1.5,0-2.7-0.5-3.6-1.4s-1.4-2.3-1.4-4c0-1.7,0.5-3,1.4-4s2.1-1.4,3.7-1.4c1.3,0,2.3,0.3,3,0.8S568.6,349,568.9,350.1z"/>
	<path d="M571,345.6v-2.5h2.7v2.5H571z M571,357.4v-10.4h2.7v10.4H571z"/>
	<path d="M578.6,350.2l-2.5-0.4c0.3-1,0.8-1.7,1.4-2.2s1.7-0.7,3-0.7c1.2,0,2.1,0.1,2.7,0.4s1,0.7,1.3,1.1s0.4,1.3,0.4,2.5l0,3.2
		c0,0.9,0,1.6,0.1,2s0.3,0.9,0.5,1.4h-2.7c-0.1-0.2-0.2-0.5-0.3-0.8c0-0.2-0.1-0.3-0.1-0.3c-0.5,0.5-1,0.8-1.5,1s-1.1,0.3-1.7,0.3
		c-1.1,0-1.9-0.3-2.5-0.9s-0.9-1.3-0.9-2.2c0-0.6,0.1-1.1,0.4-1.6s0.7-0.8,1.2-1.1s1.2-0.5,2.2-0.6c1.3-0.2,2.2-0.5,2.7-0.7v-0.3
		c0-0.5-0.1-0.9-0.4-1.1s-0.8-0.3-1.5-0.3c-0.5,0-0.9,0.1-1.1,0.3S578.7,349.7,578.6,350.2z M582.3,352.4c-0.4,0.1-0.9,0.3-1.7,0.4
		s-1.3,0.3-1.5,0.5c-0.4,0.3-0.5,0.6-0.5,1c0,0.4,0.1,0.7,0.4,1s0.7,0.4,1.1,0.4c0.5,0,1-0.2,1.4-0.5c0.3-0.2,0.5-0.5,0.7-0.9
		c0.1-0.2,0.1-0.7,0.1-1.3V352.4z"/>
	<path d="M587.7,357.4v-14.3h2.7v14.3H587.7z"/>
	<path d="M593.2,345.6v-2.5h2.7v2.5H593.2z M593.2,357.4v-10.4h2.7v10.4H593.2z"/>
	<path d="M597.7,357.4v-2.1l3.9-4.5c0.6-0.7,1.1-1.2,1.4-1.6c-0.3,0-0.7,0-1.3,0l-3.7,0v-2.3h8.6v1.9l-4,4.6l-1.4,1.5
		c0.8,0,1.2-0.1,1.4-0.1h4.2v2.4H597.7z"/>
	<path d="M614.8,354.1l2.7,0.5c-0.4,1-0.9,1.8-1.7,2.3s-1.7,0.8-2.8,0.8c-1.8,0-3.1-0.6-4-1.8c-0.7-0.9-1-2.1-1-3.6
		c0-1.7,0.4-3.1,1.3-4s2-1.5,3.4-1.5c1.5,0,2.8,0.5,3.7,1.5s1.3,2.6,1.3,4.7h-6.9c0,0.8,0.2,1.4,0.7,1.9s1,0.7,1.6,0.7
		c0.4,0,0.8-0.1,1.1-0.4S614.6,354.6,614.8,354.1z M614.9,351.4c0-0.8-0.2-1.4-0.6-1.8s-0.9-0.6-1.4-0.6c-0.6,0-1.1,0.2-1.5,0.7
		s-0.6,1-0.6,1.8H614.9z"/>
	<path d="M629.4,357.4h-2.5v-1.5c-0.4,0.6-0.9,1-1.5,1.3s-1.2,0.4-1.7,0.4c-1.2,0-2.2-0.5-3.1-1.4s-1.3-2.3-1.3-4
		c0-1.8,0.4-3.1,1.2-4s1.9-1.4,3.1-1.4c1.2,0,2.2,0.5,3,1.4v-5.2h2.7V357.4z M622.1,352c0,1.1,0.2,1.9,0.5,2.4
		c0.4,0.7,1.1,1.1,1.9,1.1c0.6,0,1.2-0.3,1.6-0.8s0.7-1.3,0.7-2.4c0-1.2-0.2-2-0.6-2.6s-1-0.8-1.7-0.8c-0.7,0-1.2,0.3-1.6,0.8
		S622.1,351,622.1,352z"/>
	<path d="M637.7,345.6v-2.5h2.7v2.5H637.7z M637.7,357.4v-10.4h2.7v10.4H637.7z"/>
	<path d="M652.7,357.4h-2.7v-5.3c0-1.1-0.1-1.8-0.2-2.2s-0.3-0.6-0.6-0.8s-0.6-0.3-1-0.3c-0.5,0-0.9,0.1-1.3,0.4s-0.6,0.6-0.8,1
		s-0.2,1.2-0.2,2.4v4.7h-2.7v-10.4h2.5v1.5c0.9-1.2,2-1.8,3.4-1.8c0.6,0,1.2,0.1,1.7,0.3s0.9,0.5,1.1,0.8s0.4,0.7,0.5,1.2
		s0.2,1,0.2,1.8V357.4z"/>
	<path d="M654.2,347.1h1.5v-0.8c0-0.9,0.1-1.5,0.3-2s0.5-0.8,1-1s1.1-0.4,1.9-0.4c0.8,0,1.5,0.1,2.3,0.4l-0.4,1.9
		c-0.4-0.1-0.9-0.2-1.3-0.2c-0.4,0-0.7,0.1-0.9,0.3s-0.3,0.5-0.3,1.1v0.7h2.1v2.2h-2.1v8.2h-2.7v-8.2h-1.5V347.1z"/>
	<path d="M661.5,352.1c0-0.9,0.2-1.8,0.7-2.6s1.1-1.5,1.9-2s1.7-0.7,2.8-0.7c1.6,0,2.9,0.5,3.9,1.5s1.5,2.3,1.5,3.9
		c0,1.6-0.5,2.9-1.5,3.9s-2.3,1.5-3.8,1.5c-1,0-1.9-0.2-2.7-0.6s-1.5-1.1-2-1.9S661.5,353.3,661.5,352.1z M664.3,352.2
		c0,1,0.2,1.8,0.7,2.4s1.1,0.8,1.8,0.8s1.3-0.3,1.8-0.8s0.7-1.3,0.7-2.4c0-1-0.2-1.8-0.7-2.3s-1.1-0.8-1.8-0.8s-1.3,0.3-1.8,0.8
		S664.3,351.2,664.3,352.2z"/>
</g>
<rect x="87.5" y="73.5" style="fill:none;stroke:#F4A337;stroke-width:13;stroke-miterlimit:10;" width="276" height="295"/>
<rect x="54" y="41" style="fill:none;stroke:#4D18B5;stroke-width:54;stroke-miterlimit:10;" width="343" height="360"/>
</svg>
