<?xml version="1.0" encoding="utf-8"?>
<!-- Generator: Adobe Illustrator 17.1.0, SVG Export Plug-In . SVG Version: 6.00 Build 0)  -->
<!DOCTYPE svg PUBLIC "-//W3C//DTD SVG 1.1//EN" "http://www.w3.org/Graphics/SVG/1.1/DTD/svg11.dtd">
<svg version="1.1" id="Layer_1" xmlns="http://www.w3.org/2000/svg" xmlns:xlink="http://www.w3.org/1999/xlink" x="0px" y="0px"
	 viewBox="0 0 620.8 384.1" style="enable-background:new 0 0 620.8 384.1;" xml:space="preserve">
<path d="M196.7,312h-27.7c-2.2,0-4-1.8-4-4s1.8-4,4-4h21.8c-1.5-1.7-3.7-3.3-6.8-4.4c-1.6-0.6-2.6-2.1-2.6-3.8l0-7.2
	c0-2.2,1.8-4,4-4h44.3c1.2,0,1.9-2.3,1.9-4v-8.1h-92.3c-2.2,0-4-1.8-4-4c0-2.2,1.8-4,4-4h92.3v-64.5c0-1.7-0.2-1.9-1.9-1.9h-83.3
	c-2.2,0-4-1.8-4-4c0-2.2,1.8-4,4-4h83.3c6.2,0,10,3.8,10,10v80.8c0,7-4.2,12.1-10,12.1l-40.2,0v0.5c6.9,3.4,11.3,9.2,11.3,14.9
	C200.7,310.1,198.9,312,196.7,312L196.7,312z M79.3,255.8c2.1,3.6,5,4,6.6,4c1.9-1.6,6-3.9,13.6-4.6c3.9-0.3,7,0.9,9.5,1.9
	c3.4,1.3,4.2,1.7,5.7-0.4c0.2-0.6,0.6-1.2,1.2-1.9c4-6.1,10.8-22.2,13.4-30c2.6-7.8,1.6-22-5.1-33.2c-6.2-10.3-16.7-16.6-23.4-14.1
	c-0.4,0.2-1.2,1.4-1.8,2.1c-1.4,1.9-3.3,4.5-6.6,5c-2.2,0.3-4.5-0.4-6.9-2.2c-0.5-0.4-1.7-0.4-3-0.1c-4.7,1.2-11.5,6.5-14.9,14.1
	c-4.5,10-2.5,28.1-1.8,32c1.7,9.5,10,22.6,13.1,26.9c0,0.1,0.1,0.1,0.1,0.2C79.2,255.7,79.2,255.7,79.3,255.8L79.3,255.8z
	 M78.9,266.3l-0.5,6.5c7.8,0,24.6-0.1,37.8-0.1l-0.8-6.8c-3.6,1.1-7-0.2-9.4-1.2c-2-0.8-3.9-1.6-5.8-1.4c-7.1,0.6-9.5,3-9.5,3
	c-0.6,0.7-1.2,1.1-2.1,1.3C86.4,268.1,82.6,268.1,78.9,266.3L78.9,266.3z M43.3,319.6H152c-1.5-8.7-4.7-25.4-6.5-28.6
	c-6.3-5.3-20-9.1-25.3-10.3c-16.8,0-42.6,0.1-45.8,0.1c-5.4,1-19.6,4.5-25.6,10C47.3,294.1,44.4,311.3,43.3,319.6L43.3,319.6z
	 M156.8,327.7H38.9c-2.2,0-4-1.8-4-4c0-1.3,3.9-34.1,8.2-38.3c7-6.8,21-10.5,27.3-11.9l1-14.9c-4.4-6.5-11.6-18.9-13.4-28.6
	c0-0.2-3.8-23,2.4-36.8c4-8.9,12.4-16.6,20.2-18.6c4.9-1.3,8.1,0.1,9.9,1.5c0.3,0.3,0.6,0.4,0.8,0.5c0.4-0.4,0.9-1.1,1.3-1.6
	c1.3-1.7,2.8-3.8,5.4-4.8c12-4.6,26,5.6,33.2,17.4c8.5,14,9,30.5,5.9,39.9c-2.5,7.5-9.4,24.3-14.3,31.8l1.8,14.2
	c5.9,1.5,19.5,5.4,26.7,11.7c4.7,4.1,9.5,37.7,9.6,38c0.1,1.1-0.2,2.3-1,3.2C159,327.2,157.9,327.7,156.8,327.7L156.8,327.7z"/>
<path style="fill:#FF931E;" d="M196.8,211.1v9.2l14.7,11.5l-14.7,11.5v9.2l1-0.8l21.9-17l1.4-1.1V230l-1.4-1.1l-21.9-17L196.8,211.1
	z M167.7,211.1l-1,0.8l-21.9,17l-1.4,1.1v3.5l1.4,1.1l21.9,17l1,0.8v-9.2L153,231.8l14.7-11.5V211.1z M184.9,203.8l-0.1,0.4
	l-12.1,53.4l-0.5,2h7.5l0.1-0.4l12.1-53.4l0.5-2H184.9z"/>
<path d="M530.8,307.5H503c-2.2,0-4-1.8-4-4s1.8-4,4-4h21.8c-1.5-1.7-3.7-3.3-6.8-4.4c-1.6-0.6-2.6-2.1-2.6-3.8l0-7.2
	c0-2.2,1.8-4,4-4h44.3c1.2,0,1.9-2.3,1.9-4v-8.1h-92.3c-2.2,0-4-1.8-4-4s1.8-4,4-4h92.3v-64.5c0-1.7-0.2-1.9-1.9-1.9h-83.3
	c-2.2,0-4-1.8-4-4c0-2.2,1.8-4,4-4h83.3c6.2,0,10,3.8,10,10V276c0,7-4.2,12.1-10,12.1l-40.2,0v0.5c6.9,3.4,11.3,9.2,11.3,14.9
	C534.8,305.7,533,307.5,530.8,307.5L530.8,307.5z M413.4,251.4c2.1,3.6,5,4,6.6,4c1.9-1.6,6-3.9,13.6-4.6c3.9-0.3,7,0.9,9.5,1.9
	c3.4,1.3,4.2,1.7,5.7-0.4c0.2-0.6,0.6-1.2,1.2-1.9c4-6.1,10.8-22.2,13.4-30c2.6-7.8,1.6-22-5.1-33.2c-6.2-10.3-16.7-16.6-23.4-14.1
	c-0.4,0.2-1.2,1.4-1.8,2.1c-1.4,1.9-3.3,4.5-6.6,5c-2.2,0.3-4.5-0.4-6.9-2.2c-0.5-0.4-1.7-0.4-3-0.1c-4.7,1.2-11.5,6.5-14.9,14.1
	c-4.5,10-2.5,28.1-1.8,32c1.7,9.5,10,22.6,13.1,26.9c0,0.1,0.1,0.1,0.1,0.2C413.3,251.2,413.3,251.3,413.4,251.4L413.4,251.4z
	 M413,261.8l-0.5,6.5c7.8,0,24.6-0.1,37.8-0.1l-0.8-6.8c-3.6,1.1-7-0.2-9.4-1.2c-2-0.8-3.9-1.6-5.8-1.4c-7.1,0.6-9.5,3-9.5,3
	c-0.6,0.7-1.2,1.1-2.1,1.3C420.5,263.7,416.7,263.7,413,261.8L413,261.8z M377.4,315.2h108.7c-1.5-8.7-4.7-25.4-6.5-28.6
	c-6.3-5.3-20-9.1-25.3-10.3c-16.8,0-42.6,0.1-45.8,0.1c-5.4,1-19.6,4.5-25.6,10C381.4,289.7,378.5,306.9,377.4,315.2L377.4,315.2z
	 M490.9,323.3H373c-2.2,0-4-1.8-4-4c0-1.3,3.9-34.1,8.2-38.3c7-6.8,21-10.5,27.3-11.9l1-14.9c-4.4-6.5-11.6-18.9-13.4-28.6
	c0-0.2-3.8-23,2.4-36.8c4-8.9,12.4-16.6,20.2-18.6c4.9-1.3,8.1,0.1,9.9,1.5c0.3,0.3,0.6,0.4,0.8,0.5c0.4-0.4,0.9-1.1,1.3-1.6
	c1.3-1.7,2.8-3.8,5.4-4.8c12-4.6,26,5.6,33.2,17.4c8.5,14,9,30.5,5.9,39.9c-2.5,7.5-9.4,24.3-14.3,31.8l1.8,14.2
	c5.9,1.5,19.5,5.4,26.7,11.7c4.7,4.1,9.5,37.7,9.6,38c0.1,1.1-0.2,2.3-1,3.2C493.1,322.8,492,323.3,490.9,323.3L490.9,323.3z"/>
<rect x="485.6" y="203.3" style="fill:#FF931E;" width="75.2" height="7.7"/>
<rect x="485.6" y="216.8" style="fill:#FF931E;" width="62.6" height="7.7"/>
<rect x="485.6" y="229.2" style="fill:#FF931E;" width="54" height="7.7"/>
<rect x="485.6" y="242.7" style="fill:#FF931E;" width="75.2" height="7.7"/>
<path d="M365.1,136.8v3.5h3.5v-3.5H365.1z M358.2,136.8v3.5h3.5v-3.5H358.2z M351.3,136.8v3.5h3.5v-3.5H351.3z M309.9,136.8v3.5h38
	v-3.5H309.9z M271.9,129.9v3.5h3.5v-3.5H271.9z M271.9,123v3.5h3.5V123H271.9z M365.1,119.6v3.5c0,3.9-3.1,6.9-6.9,6.9h-56.4
	l4.1-4.3l-2.5-2.4l-6.9,7.3c-0.6,0.7-0.6,1.7,0,2.4l6.9,7.2l2.5-2.4l-4.1-4.3h56.4c5.7,0,10.4-4.6,10.4-10.4v-3.5L365.1,119.6z
	 M271.9,116.1v3.5h3.5v-3.5H271.9z M323.7,81.6c3.8,0,6.9,3.1,6.9,6.9c0,3.8-3.1,6.9-6.9,6.9c-3.8,0-6.9-3.1-6.9-6.9
	C316.8,84.7,319.9,81.6,323.7,81.6z M323.7,78.1c-5.7,0-10.4,4.7-10.4,10.4c0,5.7,4.7,10.4,10.4,10.4s10.4-4.7,10.4-10.4
	C334.1,82.8,329.4,78.1,323.7,78.1z M271.9,74.7v38h3.5v-38H271.9z M372,64.3v38h3.5v-38H372z M280.5,60.9c-0.4,0-0.8,0.2-1.1,0.5
	l-7.3,6.9l2.4,2.5l4.3-4.1V123c0,5.7,4.6,10.4,10.4,10.4h3.5v-3.5h-3.5c-3.9,0-6.9-3.1-6.9-6.9V66.6l4.3,4.1l2.4-2.5l-7.2-6.9
	C281.4,61,281,60.9,280.5,60.9z M320.3,60.9h6.9v9.4c0,0.8,0.5,1.5,1.3,1.7c1.3,0.4,2.5,0.9,3.7,1.5c0.7,0.4,1.5,0.3,2.1-0.3
	l6.5-6.5l4.9,4.9l-6.5,6.5c-0.5,0.5-0.7,1.4-0.3,2.1c0.7,1.2,1.2,2.4,1.5,3.7c0.2,0.7,0.9,1.2,1.7,1.2h9.3V92h-9.3
	c-0.8,0-1.4,0.5-1.7,1.3c-0.4,1.3-0.9,2.6-1.6,3.8c-0.4,0.7-0.3,1.5,0.3,2.1l6.6,6.6l-4.9,4.9l-6.7-6.7c-0.5-0.5-1.4-0.7-2.1-0.3
	c-1.1,0.6-2.3,1.1-3.6,1.5c-0.7,0.2-1.2,0.9-1.2,1.7v9.4h-6.9v-9.4c0-0.8-0.5-1.4-1.3-1.7c-1.3-0.4-2.5-0.9-3.7-1.5
	c-0.7-0.4-1.5-0.3-2.1,0.3l-6.7,6.7l-4.9-4.9l6.7-6.7c0.5-0.5,0.7-1.4,0.3-2.1c-0.7-1.2-1.2-2.4-1.5-3.7c-0.2-0.7-0.9-1.3-1.7-1.3
	H296v-6.9h9.4c0.8,0,1.5-0.5,1.7-1.3c0.4-1.3,0.8-2.5,1.5-3.6c0.4-0.7,0.2-1.5-0.3-2l-6.6-6.6l4.9-4.9l6.6,6.6
	c0.5,0.6,1.4,0.7,2.1,0.3c1.2-0.7,2.5-1.2,3.8-1.6c0.7-0.2,1.3-0.9,1.3-1.7L320.3,60.9z M372,57.4v3.5h3.5v-3.5H372z M318.5,57.4
	c-1,0-1.7,0.8-1.7,1.7v9.9c-0.7,0.3-1.4,0.5-2,0.9l-7-7c-0.7-0.7-1.8-0.7-2.4,0l-7.3,7.3c-0.7,0.7-0.7,1.8,0,2.4l7,7
	c-0.3,0.6-0.5,1.2-0.8,1.8h-10c-1,0-1.7,0.8-1.7,1.7v10.4c0,1,0.8,1.7,1.7,1.7h10c0.2,0.7,0.5,1.3,0.8,1.9l-7.1,7.1
	c-0.7,0.7-0.7,1.8,0,2.4l7.3,7.3c0.7,0.7,1.8,0.7,2.4,0l7.1-7.1c0.6,0.3,1.3,0.6,1.9,0.8v9.9c0,1,0.8,1.7,1.7,1.7h10.4
	c1,0,1.7-0.8,1.7-1.7v-9.9c0.6-0.2,1.2-0.5,1.8-0.8l7.1,7.1c0.7,0.7,1.8,0.7,2.4,0l7.3-7.3c0.7-0.7,0.7-1.8,0-2.4l-7-7
	c0.3-0.7,0.6-1.3,0.8-2h9.9c1,0,1.7-0.8,1.7-1.7V83.3c0-1-0.8-1.7-1.7-1.7h-9.9c-0.2-0.7-0.5-1.3-0.8-1.9l7-7c0.7-0.7,0.7-1.8,0-2.4
	l-7.3-7.3c-0.7-0.7-1.8-0.7-2.4,0l-7,7c-0.6-0.3-1.3-0.6-1.9-0.8v-10c0-1-0.8-1.7-1.7-1.7L318.5,57.4z M372,50.5V54h3.5v-3.5H372z
	 M372,43.6v3.5h3.5v-3.5H372z M354.8,43.6v3.5h3.5c3.9,0,6.9,3.1,6.9,6.9v56.4l-4.3-4.1l-2.4,2.5l7.2,6.9c0.7,0.6,1.7,0.6,2.4,0
	l7.3-6.9l-2.4-2.5l-4.3,4.1V54c0-5.7-4.6-10.4-10.4-10.4H354.8z M343.9,36.9l-2.5,2.4l4.1,4.3h-56.4c-5.7,0-10.4,4.6-10.4,10.4v3.5
	h3.5V54c0-3.9,3.1-6.9,6.9-6.9h56.4l-4.1,4.3l2.5,2.4l6.9-7.2c0.6-0.7,0.6-1.7,0-2.4L343.9,36.9z M299.5,36.7v3.5h38v-3.5H299.5z
	 M292.6,36.7v3.5h3.5v-3.5H292.6z M285.7,36.7v3.5h3.5v-3.5H285.7z M278.8,36.7v3.5h3.5v-3.5H278.8z"/>
<g>
	<path d="M305,14.6c0.9-0.1,2-0.2,3.3-0.2c2.2,0,3.8,0.5,4.8,1.5c1.1,1,1.7,2.4,1.7,4.3c0,1.9-0.6,3.5-1.7,4.6
		c-1.1,1.1-3,1.7-5.3,1.7c-1.1,0-2-0.1-2.8-0.1V14.6z M306.5,25.2c0.4,0.1,1,0.1,1.6,0.1c3.3,0,5.1-1.8,5.1-5.1
		c0-2.8-1.6-4.6-4.8-4.6c-0.8,0-1.4,0.1-1.8,0.2V25.2z"/>
	<path d="M324.5,22c0,3.2-2.2,4.5-4.3,4.5c-2.3,0-4.1-1.7-4.1-4.4c0-2.9,1.9-4.5,4.2-4.5C322.9,17.6,324.5,19.4,324.5,22z
		 M317.7,22.1c0,1.9,1.1,3.3,2.6,3.3c1.5,0,2.6-1.4,2.6-3.3c0-1.4-0.7-3.3-2.6-3.3S317.7,20.5,317.7,22.1z"/>
	<path d="M332.6,26.1c-0.4,0.2-1.3,0.5-2.5,0.5c-2.6,0-4.3-1.7-4.3-4.4c0-2.6,1.8-4.5,4.6-4.5c0.9,0,1.7,0.2,2.2,0.4l-0.4,1.2
		c-0.4-0.2-1-0.4-1.8-0.4c-2,0-3,1.4-3,3.2c0,2,1.3,3.2,3,3.2c0.9,0,1.5-0.2,1.9-0.4L332.6,26.1z"/>
	<path d="M334.2,24.8c0.5,0.3,1.3,0.6,2.1,0.6c1.1,0,1.7-0.6,1.7-1.3c0-0.7-0.4-1.1-1.6-1.6c-1.5-0.5-2.3-1.4-2.3-2.4
		c0-1.4,1.1-2.5,3-2.5c0.9,0,1.6,0.2,2.1,0.5l-0.4,1.1c-0.3-0.2-1-0.5-1.7-0.5c-0.9,0-1.4,0.5-1.4,1.2c0,0.7,0.5,1,1.6,1.4
		c1.5,0.6,2.2,1.3,2.2,2.6c0,1.5-1.2,2.6-3.2,2.6c-0.9,0-1.8-0.2-2.4-0.6L334.2,24.8z"/>
</g>
<g>
	<path d="M386.5,72.5c-0.3-0.6-0.6-1.7-0.6-3.1c0-3.4,2.1-5.9,6-5.9c3.7,0,6.3,2.5,6.3,6.2c0,1.5-0.3,2.4-0.5,2.8l-1.3-0.4
		c0.3-0.6,0.5-1.4,0.5-2.4c0-2.8-1.8-4.6-4.9-4.6c-2.9,0-4.8,1.7-4.8,4.6c0,0.9,0.2,1.9,0.5,2.5L386.5,72.5z"/>
	<path d="M390.4,81.9c-3.2,0-4.5-2.2-4.5-4.3c0-2.3,1.7-4.1,4.4-4.1c2.9,0,4.5,1.9,4.5,4.2C394.8,80.2,393.1,81.9,390.4,81.9z
		 M390.3,75.1c-1.9,0-3.3,1.1-3.3,2.6c0,1.5,1.4,2.6,3.3,2.6c1.4,0,3.3-0.7,3.3-2.6S392,75.1,390.3,75.1z"/>
	<path d="M398.6,91.3h-10.3c-0.8,0-1.6,0-2.2,0.1v-1.4l1.5-0.1v0c-1-0.5-1.7-1.5-1.7-2.9c0-2.1,1.7-3.7,4.3-3.7
		c2.8,0,4.6,1.7,4.6,3.8c0,1.3-0.6,2.2-1.3,2.6v0h5.1V91.3z M391.2,89.7c0.2,0,0.5,0,0.7-0.1c1-0.2,1.8-1.1,1.8-2.2
		c0-1.6-1.4-2.6-3.3-2.6c-1.7,0-3.2,0.8-3.2,2.5c0,1,0.7,2,1.9,2.3c0.2,0.1,0.4,0.1,0.7,0.1H391.2z"/>
	<path d="M390.1,94.7c-2.1,0-3,1.4-3,2.9c0,1.1,0.2,1.8,0.4,2.4l-1.1,0.3c-0.2-0.5-0.5-1.5-0.5-2.8c0-2.6,1.7-4.2,4.3-4.2
		s4.6,1.5,4.6,4c0,2.8-2.5,3.5-4,3.5c-0.3,0-0.6,0-0.7-0.1V94.7z M391.2,99.3c1,0,2.5-0.4,2.5-2.2c0-1.6-1.4-2.3-2.5-2.4V99.3z"/>
</g>
<g>
	<path d="M265.8,95.7c0.3,0.6,0.6,1.7,0.6,3.1c0,3.4-2.1,5.9-6,5.9c-3.7,0-6.3-2.5-6.3-6.2c0-1.5,0.3-2.4,0.5-2.8l1.3,0.4
		c-0.3,0.6-0.5,1.4-0.5,2.4c0,2.8,1.8,4.6,4.9,4.6c2.9,0,4.8-1.7,4.8-4.6c0-0.9-0.2-1.9-0.5-2.5L265.8,95.7z"/>
	<path d="M261.8,86.3c3.2,0,4.5,2.2,4.5,4.3c0,2.3-1.7,4.1-4.4,4.1c-2.9,0-4.5-1.9-4.5-4.2C257.4,87.9,259.2,86.3,261.8,86.3z
		 M261.9,93.1c1.9,0,3.3-1.1,3.3-2.6c0-1.5-1.4-2.6-3.3-2.6c-1.4,0-3.3,0.7-3.3,2.6S260.3,93.1,261.9,93.1z"/>
	<path d="M253.6,76.9h10.3c0.8,0,1.6,0,2.2-0.1v1.4l-1.5,0.1v0c1,0.5,1.7,1.5,1.7,2.9c0,2.1-1.7,3.7-4.3,3.7c-2.8,0-4.6-1.7-4.6-3.8
		c0-1.3,0.6-2.2,1.3-2.6v0h-5.1V76.9z M261.1,78.5c-0.2,0-0.5,0-0.7,0.1c-1,0.2-1.8,1.1-1.8,2.2c0,1.6,1.4,2.6,3.3,2.6
		c1.7,0,3.2-0.8,3.2-2.5c0-1-0.7-2-1.9-2.3c-0.2-0.1-0.4-0.1-0.7-0.1H261.1z"/>
	<path d="M262.2,73.5c2.1,0,3-1.4,3-2.9c0-1.1-0.2-1.8-0.4-2.4l1.1-0.3c0.2,0.5,0.5,1.5,0.5,2.8c0,2.6-1.7,4.2-4.3,4.2
		c-2.6,0-4.6-1.5-4.6-4c0-2.8,2.5-3.5,4-3.5c0.3,0,0.6,0,0.7,0.1V73.5z M261,68.9c-1,0-2.5,0.4-2.5,2.2c0,1.6,1.4,2.3,2.5,2.4V68.9z
		"/>
</g>
<g>
	<path d="M306.1,147c0.9-0.1,2-0.2,3.3-0.2c2.2,0,3.8,0.5,4.8,1.5c1.1,1,1.7,2.4,1.7,4.3c0,1.9-0.6,3.5-1.7,4.6
		c-1.1,1.1-3,1.7-5.3,1.7c-1.1,0-2-0.1-2.8-0.1V147z M307.6,157.5c0.4,0.1,1,0.1,1.6,0.1c3.3,0,5.1-1.8,5.1-5.1
		c0-2.8-1.6-4.6-4.8-4.6c-0.8,0-1.4,0.1-1.8,0.2V157.5z"/>
	<path d="M325.6,154.4c0,3.2-2.2,4.5-4.3,4.5c-2.3,0-4.1-1.7-4.1-4.4c0-2.9,1.9-4.5,4.2-4.5C324,150,325.6,151.8,325.6,154.4z
		 M318.8,154.5c0,1.9,1.1,3.3,2.6,3.3c1.5,0,2.6-1.4,2.6-3.3c0-1.4-0.7-3.3-2.6-3.3S318.8,152.9,318.8,154.5z"/>
	<path d="M333.7,158.4c-0.4,0.2-1.3,0.5-2.5,0.5c-2.6,0-4.3-1.7-4.3-4.4c0-2.6,1.8-4.5,4.6-4.5c0.9,0,1.7,0.2,2.2,0.4l-0.4,1.2
		c-0.4-0.2-1-0.4-1.8-0.4c-2,0-3,1.4-3,3.2c0,2,1.3,3.2,3,3.2c0.9,0,1.5-0.2,1.9-0.4L333.7,158.4z"/>
	<path d="M335.3,157.2c0.5,0.3,1.3,0.6,2.1,0.6c1.1,0,1.7-0.6,1.7-1.3c0-0.7-0.4-1.1-1.6-1.6c-1.5-0.5-2.3-1.4-2.3-2.4
		c0-1.4,1.1-2.5,3-2.5c0.9,0,1.6,0.2,2.1,0.5l-0.4,1.1c-0.3-0.2-1-0.5-1.7-0.5c-0.9,0-1.4,0.5-1.4,1.2c0,0.7,0.5,1,1.6,1.4
		c1.5,0.6,2.2,1.3,2.2,2.6c0,1.5-1.2,2.6-3.2,2.6c-0.9,0-1.8-0.2-2.4-0.6L335.3,157.2z"/>
</g>
<g>
	<g>
		
			<line style="fill:none;stroke:#000000;stroke-width:3.3133;stroke-miterlimit:10;stroke-dasharray:6.6266,6.6266;" x1="505.8" y1="164.4" x2="422.5" y2="120.9"/>
		<g>
			<polygon points="430.7,117.1 424.7,122.1 424,129.9 412.2,115.5 			"/>
		</g>
	</g>
</g>
<g>
	<g>
		
			<line style="fill:none;stroke:#000000;stroke-width:3.3133;stroke-miterlimit:10;stroke-dasharray:6.6266,6.6266;" x1="155" y1="172.9" x2="234" y2="122.2"/>
		<g>
			<polygon points="233.3,131.3 232,123.5 225.5,119.1 243.9,115.9 			"/>
		</g>
	</g>
</g>
<g>
	<path d="M116.7,353.9c-0.6,0.3-2,0.6-3.8,0.6c-5.1,0-7.8-3.2-7.8-7.4c0-5.1,3.6-7.9,8.1-7.9c1.7,0,3.1,0.4,3.7,0.7l-0.7,2.7
		c-0.7-0.3-1.6-0.6-2.8-0.6c-2.7,0-4.8,1.6-4.8,4.9c0,3,1.8,4.9,4.8,4.9c1,0,2.1-0.2,2.8-0.5L116.7,353.9z"/>
	<path d="M129.1,348.8c0,4-2.8,5.8-5.7,5.8c-3.2,0-5.6-2.1-5.6-5.6c0-3.5,2.3-5.7,5.8-5.7C126.9,343.3,129.1,345.6,129.1,348.8z
		 M121.3,348.9c0,1.9,0.8,3.2,2.2,3.2c1.3,0,2.1-1.3,2.1-3.2c0-1.6-0.6-3.2-2.1-3.2C121.9,345.7,121.3,347.3,121.3,348.9z"/>
	<path d="M141.7,338.7v12.5c0,1.2,0,2.5,0.1,3.2h-3l-0.2-1.6h0c-0.7,1.2-2,1.8-3.4,1.8c-2.6,0-4.6-2.2-4.6-5.5
		c0-3.6,2.3-5.7,4.8-5.7c1.3,0,2.4,0.5,2.9,1.2h0v-5.9H141.7z M138.3,348.1c0-0.2,0-0.4,0-0.6c-0.2-0.9-0.9-1.7-2-1.7
		c-1.5,0-2.3,1.4-2.3,3.1c0,1.8,0.9,3,2.3,3c1,0,1.7-0.7,1.9-1.6c0.1-0.2,0.1-0.5,0.1-0.8V348.1z"/>
	<path d="M147,350c0.1,1.4,1.5,2.1,3,2.1c1.1,0,2.1-0.2,3-0.4l0.4,2.3c-1.1,0.4-2.5,0.7-3.9,0.7c-3.7,0-5.8-2.1-5.8-5.5
		c0-2.7,1.7-5.8,5.5-5.8c3.5,0,4.8,2.7,4.8,5.4c0,0.6-0.1,1.1-0.1,1.3H147z M150.9,347.7c0-0.8-0.4-2.2-1.9-2.2
		c-1.4,0-2,1.3-2.1,2.2H150.9z"/>
</g>
<g>
	<path d="M445.3,334.8c1.2-0.2,2.9-0.3,4.6-0.3c2.8,0,4.7,0.5,6.1,1.6c1.5,1.1,2.5,3,2.5,5.6c0,2.9-1,4.8-2.5,6
		c-1.6,1.3-4,1.9-6.9,1.9c-1.7,0-3-0.1-3.8-0.2V334.8z M448.7,346.9c0.3,0.1,0.8,0.1,1.2,0.1c3,0,5-1.7,5-5.2c0-3.1-1.8-4.7-4.7-4.7
		c-0.8,0-1.2,0.1-1.5,0.1V346.9z"/>
	<path d="M471.2,344c0,4-2.8,5.8-5.7,5.8c-3.2,0-5.6-2.1-5.6-5.6c0-3.5,2.3-5.7,5.8-5.7C469,338.4,471.2,340.7,471.2,344z
		 M463.4,344.1c0,1.9,0.8,3.2,2.2,3.2c1.3,0,2.1-1.3,2.1-3.2c0-1.6-0.6-3.2-2.1-3.2C464,340.8,463.4,342.5,463.4,344.1z"/>
	<path d="M481.5,349.2c-0.6,0.3-1.7,0.5-3,0.5c-3.5,0-5.7-2.1-5.7-5.5c0-3.2,2.2-5.7,6.2-5.7c0.9,0,1.9,0.2,2.6,0.4l-0.5,2.5
		c-0.4-0.2-1-0.3-1.9-0.3c-1.8,0-2.9,1.3-2.9,3c0,2,1.3,3,3,3c0.8,0,1.4-0.1,1.9-0.3L481.5,349.2z"/>
	<path d="M483.3,346.5c0.6,0.4,1.9,0.8,2.9,0.8c1,0,1.4-0.4,1.4-0.9c0-0.6-0.3-0.8-1.6-1.2c-2.2-0.8-3.1-2-3.1-3.2
		c0-2,1.7-3.5,4.4-3.5c1.3,0,2.4,0.3,3,0.6l-0.6,2.3c-0.5-0.3-1.4-0.6-2.3-0.6c-0.8,0-1.3,0.3-1.3,0.9c0,0.5,0.4,0.8,1.7,1.2
		c2.1,0.7,2.9,1.7,2.9,3.3c0,2-1.6,3.5-4.7,3.5c-1.4,0-2.7-0.3-3.5-0.8L483.3,346.5z"/>
</g>
</svg>
