<?xml version="1.0" encoding="utf-8"?>
<!-- Generator: Adobe Illustrator 17.1.0, SVG Export Plug-In . SVG Version: 6.00 Build 0)  -->
<!DOCTYPE svg PUBLIC "-//W3C//DTD SVG 1.1//EN" "http://www.w3.org/Graphics/SVG/1.1/DTD/svg11.dtd">
<svg version="1.1" id="Layer_1" xmlns="http://www.w3.org/2000/svg" xmlns:xlink="http://www.w3.org/1999/xlink" x="0px" y="0px"
	 viewBox="0 0 775 445" style="enable-background:new 0 0 775 445;" xml:space="preserve">
<path d="M268.3,372.9h-27.7c-2.2,0-4-1.8-4-4c0-2.2,1.8-4,4-4h21.8c-1.5-1.7-3.7-3.3-6.8-4.4c-1.6-0.6-2.6-2.1-2.6-3.8l0-7.2
	c0-2.2,1.8-4,4-4h44.3c1.2,0,1.9-2.3,1.9-4v-8.1h-92.3c-2.2,0-4-1.8-4-4c0-2.2,1.8-4,4-4h92.3v-64.5c0-1.7-0.2-1.9-1.9-1.9H218
	c-2.2,0-4-1.8-4-4c0-2.2,1.8-4,4-4h83.3c6.2,0,10,3.8,10,10v80.8c0,7-4.2,12.1-10,12.1l-40.2,0v0.5c6.9,3.4,11.3,9.2,11.3,14.9
	C272.3,371.1,270.5,372.9,268.3,372.9L268.3,372.9z M150.9,316.7c2.1,3.6,5,4,6.6,4c1.9-1.6,6-3.9,13.6-4.6c3.9-0.3,7,0.9,9.5,1.9
	c3.4,1.3,4.2,1.7,5.7-0.4c0.2-0.6,0.6-1.2,1.2-1.9c4-6.1,10.8-22.2,13.4-30c2.6-7.8,1.6-22-5.1-33.2c-6.2-10.3-16.7-16.6-23.4-14.1
	c-0.4,0.2-1.2,1.4-1.8,2.1c-1.4,1.9-3.3,4.5-6.6,5c-2.2,0.3-4.5-0.4-6.9-2.2c-0.5-0.4-1.7-0.4-3-0.1c-4.7,1.2-11.5,6.5-14.9,14.1
	c-4.5,10-2.5,28.1-1.8,32c1.7,9.5,10,22.6,13.1,26.9c0,0.1,0.1,0.1,0.1,0.2C150.8,316.6,150.9,316.7,150.9,316.7L150.9,316.7z
	 M150.5,327.2l-0.5,6.5c7.8,0,24.6-0.1,37.8-0.1l-0.8-6.8c-3.6,1.1-7-0.2-9.4-1.2c-2-0.8-3.9-1.6-5.8-1.4c-7.1,0.6-9.5,3-9.5,3
	c-0.6,0.7-1.2,1.1-2.1,1.3C158,329,154.2,329,150.5,327.2L150.5,327.2z M114.9,380.5h108.7c-1.5-8.7-4.7-25.4-6.5-28.6
	c-6.3-5.3-20-9.1-25.3-10.3c-16.8,0-42.6,0.1-45.8,0.1c-5.4,1-19.6,4.5-25.6,10C119,355,116,372.2,114.9,380.5L114.9,380.5z
	 M228.4,388.6H110.5c-2.2,0-4-1.8-4-4c0-1.3,3.9-34.1,8.2-38.3c7-6.8,21-10.5,27.3-11.9l1-14.9c-4.4-6.5-11.6-18.9-13.4-28.6
	c0-0.2-3.8-23,2.4-36.8c4-8.9,12.4-16.6,20.2-18.6c4.9-1.3,8.1,0.1,9.9,1.5c0.3,0.3,0.6,0.4,0.8,0.5c0.4-0.4,0.9-1.1,1.3-1.6
	c1.3-1.7,2.8-3.8,5.4-4.8c12-4.6,26,5.6,33.2,17.4c8.5,14,9,30.5,5.9,39.9c-2.5,7.5-9.4,24.3-14.3,31.8l1.8,14.2
	c5.9,1.5,19.5,5.4,26.7,11.7c4.7,4.1,9.5,37.7,9.6,38c0.1,1.1-0.2,2.3-1,3.2C230.6,388.1,229.5,388.6,228.4,388.6L228.4,388.6z"/>
<path style="fill:#FF931E;" d="M268.5,272v9.2l14.7,11.5l-14.7,11.5v9.2l1-0.8l21.9-17l1.4-1.1v-3.5l-1.4-1.1l-21.9-17L268.5,272z
	 M239.3,272l-1,0.8l-21.9,17l-1.4,1.1v3.5l1.4,1.1l21.9,17l1,0.8v-9.2l-14.7-11.5l14.7-11.5V272z M256.5,264.8l-0.1,0.4l-12.1,53.4
	l-0.5,2h7.5l0.1-0.4l12.1-53.4l0.5-2H256.5z"/>
<path d="M602.4,368.5h-27.7c-2.2,0-4-1.8-4-4c0-2.2,1.8-4,4-4h21.8c-1.5-1.7-3.7-3.3-6.8-4.4c-1.6-0.6-2.6-2.1-2.6-3.8l0-7.2
	c0-2.2,1.8-4,4-4h44.3c1.2,0,1.9-2.3,1.9-4v-8.1h-92.3c-2.2,0-4-1.8-4-4c0-2.2,1.8-4,4-4h92.3v-64.5c0-1.7-0.2-1.9-1.9-1.9h-83.3
	c-2.2,0-4-1.8-4-4c0-2.2,1.8-4,4-4h83.3c6.2,0,10,3.8,10,10v80.8c0,7-4.2,12.1-10,12.1l-40.2,0v0.5c6.9,3.4,11.3,9.2,11.3,14.9
	C606.4,366.6,604.6,368.5,602.4,368.5L602.4,368.5z M485,312.3c2.1,3.6,5,4,6.6,4c1.9-1.6,6-3.9,13.6-4.6c3.9-0.3,7,0.9,9.5,1.9
	c3.4,1.3,4.2,1.7,5.7-0.4c0.2-0.6,0.6-1.2,1.2-1.9c4-6.1,10.8-22.2,13.4-30c2.6-7.8,1.6-22-5.1-33.2c-6.2-10.3-16.7-16.6-23.4-14.1
	c-0.4,0.2-1.2,1.4-1.8,2.1c-1.4,1.9-3.3,4.5-6.6,5c-2.2,0.3-4.5-0.4-6.9-2.2c-0.5-0.4-1.7-0.4-3-0.1c-4.7,1.2-11.5,6.5-14.9,14.1
	c-4.5,10-2.5,28.1-1.8,32c1.7,9.5,10,22.6,13.1,26.9c0,0.1,0.1,0.1,0.1,0.2C484.9,312.2,485,312.2,485,312.3L485,312.3z
	 M484.6,322.8l-0.5,6.5c7.8,0,24.6-0.1,37.8-0.1l-0.8-6.8c-3.6,1.1-7-0.2-9.4-1.2c-2-0.8-3.9-1.6-5.8-1.4c-7.1,0.6-9.5,3-9.5,3
	c-0.6,0.7-1.2,1.1-2.1,1.3C492.1,324.6,488.3,324.6,484.6,322.8L484.6,322.8z M449,376.1h108.7c-1.5-8.7-4.7-25.4-6.5-28.6
	c-6.3-5.3-20-9.1-25.3-10.3c-16.8,0-42.6,0.1-45.8,0.1c-5.4,1-19.6,4.5-25.6,10C453.1,350.6,450.1,367.8,449,376.1L449,376.1z
	 M562.5,384.2H444.6c-2.2,0-4-1.8-4-4c0-1.3,3.9-34.1,8.2-38.3c7-6.8,21-10.5,27.3-11.9l1-14.9c-4.4-6.5-11.6-18.9-13.4-28.6
	c0-0.2-3.8-23,2.4-36.8c4-8.9,12.4-16.6,20.2-18.6c4.9-1.3,8.1,0.1,9.9,1.5c0.3,0.3,0.6,0.4,0.8,0.5c0.4-0.4,0.9-1.1,1.3-1.6
	c1.3-1.7,2.8-3.8,5.4-4.8c12-4.6,26,5.6,33.2,17.4c8.5,14,9,30.5,5.9,39.9c-2.5,7.5-9.4,24.3-14.3,31.8l1.8,14.2
	c5.9,1.5,19.5,5.4,26.7,11.7c4.7,4.1,9.5,37.7,9.6,38c0.1,1.1-0.2,2.3-1,3.2C564.7,383.7,563.6,384.2,562.5,384.2L562.5,384.2z"/>
<rect x="557.3" y="264.2" style="fill:#FF931E;" width="75.2" height="7.7"/>
<rect x="557.3" y="277.7" style="fill:#FF931E;" width="62.6" height="7.7"/>
<rect x="557.3" y="290.1" style="fill:#FF931E;" width="54" height="7.7"/>
<rect x="557.3" y="303.6" style="fill:#FF931E;" width="75.2" height="7.7"/>
<path d="M436.7,197.7v3.5h3.5v-3.5H436.7z M429.8,197.7v3.5h3.5v-3.5H429.8z M422.9,197.7v3.5h3.5v-3.5H422.9z M381.5,197.7v3.5h38
	v-3.5H381.5z M343.5,190.8v3.5h3.5v-3.5H343.5z M343.5,183.9v3.5h3.5v-3.5H343.5z M436.7,180.5v3.5c0,3.9-3.1,6.9-6.9,6.9h-56.4
	l4.1-4.3l-2.5-2.4l-6.9,7.3c-0.6,0.7-0.6,1.7,0,2.4l6.9,7.2l2.5-2.4l-4.1-4.3h56.4c5.7,0,10.4-4.6,10.4-10.4v-3.5L436.7,180.5z
	 M343.5,177v3.5h3.5V177H343.5z M395.3,142.5c3.8,0,6.9,3.1,6.9,6.9c0,3.8-3.1,6.9-6.9,6.9c-3.8,0-6.9-3.1-6.9-6.9
	C388.4,145.6,391.5,142.5,395.3,142.5z M395.3,139.1c-5.7,0-10.4,4.7-10.4,10.4c0,5.7,4.7,10.4,10.4,10.4s10.4-4.7,10.4-10.4
	C405.7,143.7,401,139.1,395.3,139.1z M343.5,135.6v38h3.5v-38H343.5z M443.6,125.3v38h3.5v-38H443.6z M352.1,121.8
	c-0.4,0-0.8,0.2-1.1,0.5l-7.3,6.9l2.4,2.5l4.3-4.1v56.4c0,5.7,4.6,10.4,10.4,10.4h3.5v-3.5h-3.5c-3.9,0-6.9-3.1-6.9-6.9v-56.4
	l4.3,4.1l2.4-2.5l-7.2-6.9C353,122,352.6,121.8,352.1,121.8z M391.9,121.8h6.9v9.4c0,0.8,0.5,1.5,1.3,1.7c1.3,0.4,2.5,0.9,3.7,1.5
	c0.7,0.4,1.5,0.3,2.1-0.3l6.5-6.5l4.9,4.9l-6.5,6.5c-0.5,0.5-0.7,1.4-0.3,2.1c0.7,1.2,1.2,2.4,1.5,3.7c0.2,0.7,0.9,1.2,1.7,1.2h9.3
	v6.9h-9.3c-0.8,0-1.4,0.5-1.7,1.3c-0.4,1.3-0.9,2.6-1.6,3.8c-0.4,0.7-0.3,1.5,0.3,2.1l6.6,6.6l-4.9,4.9l-6.7-6.7
	c-0.5-0.5-1.4-0.7-2.1-0.3c-1.1,0.6-2.3,1.1-3.6,1.5c-0.7,0.2-1.2,0.9-1.2,1.7v9.4h-6.9v-9.4c0-0.8-0.5-1.4-1.3-1.7
	c-1.3-0.4-2.5-0.9-3.7-1.5c-0.7-0.4-1.5-0.3-2.1,0.3l-6.7,6.7l-4.9-4.9l6.7-6.7c0.5-0.5,0.7-1.4,0.3-2.1c-0.7-1.2-1.2-2.4-1.5-3.7
	c-0.2-0.7-0.9-1.3-1.7-1.3h-9.4V146h9.4c0.8,0,1.5-0.5,1.7-1.3c0.4-1.3,0.8-2.5,1.5-3.6c0.4-0.7,0.2-1.5-0.3-2l-6.6-6.6l4.9-4.9
	l6.6,6.6c0.5,0.6,1.4,0.7,2.1,0.3c1.2-0.7,2.5-1.2,3.8-1.6c0.7-0.2,1.3-0.9,1.3-1.7L391.9,121.8z M443.6,118.4v3.5h3.5v-3.5H443.6z
	 M390.1,118.4c-1,0-1.7,0.8-1.7,1.7v9.9c-0.7,0.3-1.4,0.5-2,0.9l-7-7c-0.7-0.7-1.8-0.7-2.4,0l-7.3,7.3c-0.7,0.7-0.7,1.8,0,2.4l7,7
	c-0.3,0.6-0.5,1.2-0.8,1.8h-10c-1,0-1.7,0.8-1.7,1.7v10.4c0,1,0.8,1.7,1.7,1.7h10c0.2,0.7,0.5,1.3,0.8,1.9l-7.1,7.1
	c-0.7,0.7-0.7,1.8,0,2.4l7.3,7.3c0.7,0.7,1.8,0.7,2.4,0l7.1-7.1c0.6,0.3,1.3,0.6,1.9,0.8v9.9c0,1,0.8,1.7,1.7,1.7h10.4
	c1,0,1.7-0.8,1.7-1.7v-9.9c0.6-0.2,1.2-0.5,1.8-0.8l7.1,7.1c0.7,0.7,1.8,0.7,2.4,0l7.3-7.3c0.7-0.7,0.7-1.8,0-2.4l-7-7
	c0.3-0.7,0.6-1.3,0.8-2h9.9c1,0,1.7-0.8,1.7-1.7v-10.4c0-1-0.8-1.7-1.7-1.7h-9.9c-0.2-0.7-0.5-1.3-0.8-1.9l7-7
	c0.7-0.7,0.7-1.8,0-2.4l-7.3-7.3c-0.7-0.7-1.8-0.7-2.4,0l-7,7c-0.6-0.3-1.3-0.6-1.9-0.8v-10c0-1-0.8-1.7-1.7-1.7L390.1,118.4z
	 M443.6,111.5v3.5h3.5v-3.5H443.6z M443.6,104.6v3.5h3.5v-3.5H443.6z M426.4,104.6v3.5h3.5c3.9,0,6.9,3.1,6.9,6.9v56.4l-4.3-4.1
	l-2.4,2.5l7.2,6.9c0.7,0.6,1.7,0.6,2.4,0l7.3-6.9l-2.4-2.5l-4.3,4.1v-56.4c0-5.7-4.6-10.4-10.4-10.4H426.4z M415.5,97.9l-2.5,2.4
	l4.1,4.3h-56.4c-5.7,0-10.4,4.6-10.4,10.4v3.5h3.5v-3.5c0-3.9,3.1-6.9,6.9-6.9h56.4l-4.1,4.3l2.5,2.4l6.9-7.2c0.6-0.7,0.6-1.7,0-2.4
	L415.5,97.9z M371.2,97.7v3.5h38v-3.5H371.2z M364.3,97.7v3.5h3.5v-3.5H364.3z M357.4,97.7v3.5h3.5v-3.5H357.4z M350.5,97.7v3.5h3.5
	v-3.5H350.5z"/>
<g>
	<path d="M376.6,75.6c0.9-0.1,2-0.2,3.3-0.2c2.2,0,3.8,0.5,4.8,1.5c1.1,1,1.7,2.4,1.7,4.3c0,1.9-0.6,3.5-1.7,4.6
		c-1.1,1.1-3,1.7-5.3,1.7c-1.1,0-2-0.1-2.8-0.1V75.6z M378.2,86.1c0.4,0.1,1,0.1,1.6,0.1c3.3,0,5.1-1.8,5.1-5.1
		c0-2.8-1.6-4.6-4.8-4.6c-0.8,0-1.4,0.1-1.8,0.2V86.1z"/>
	<path d="M396.1,83c0,3.2-2.2,4.5-4.3,4.5c-2.3,0-4.1-1.7-4.1-4.4c0-2.9,1.9-4.5,4.2-4.5C394.5,78.6,396.1,80.3,396.1,83z M389.4,83
		c0,1.9,1.1,3.3,2.6,3.3c1.5,0,2.6-1.4,2.6-3.3c0-1.4-0.7-3.3-2.6-3.3C390.2,79.7,389.4,81.4,389.4,83z"/>
	<path d="M404.2,87c-0.4,0.2-1.3,0.5-2.5,0.5c-2.6,0-4.3-1.7-4.3-4.4c0-2.6,1.8-4.5,4.6-4.5c0.9,0,1.7,0.2,2.2,0.4l-0.4,1.2
		c-0.4-0.2-1-0.4-1.8-0.4c-2,0-3,1.4-3,3.2c0,2,1.3,3.2,3,3.2c0.9,0,1.5-0.2,1.9-0.4L404.2,87z"/>
	<path d="M405.8,85.7c0.5,0.3,1.3,0.6,2,0.6c1.1,0,1.7-0.6,1.7-1.3c0-0.7-0.4-1.1-1.6-1.6c-1.5-0.5-2.3-1.4-2.3-2.4
		c0-1.4,1.1-2.5,3-2.5c0.9,0,1.6,0.2,2.1,0.5l-0.4,1.1c-0.3-0.2-1-0.5-1.7-0.5c-0.9,0-1.4,0.5-1.4,1.2c0,0.7,0.5,1,1.6,1.4
		c1.5,0.6,2.2,1.3,2.2,2.6c0,1.5-1.2,2.6-3.2,2.6c-0.9,0-1.8-0.2-2.4-0.6L405.8,85.7z"/>
</g>
<g>
	<path d="M458.1,133.4c-0.3-0.6-0.6-1.7-0.6-3.1c0-3.4,2.1-5.9,6-5.9c3.7,0,6.3,2.5,6.3,6.2c0,1.5-0.3,2.4-0.5,2.8l-1.3-0.4
		c0.3-0.6,0.5-1.4,0.5-2.4c0-2.8-1.8-4.6-4.9-4.6c-2.9,0-4.8,1.7-4.8,4.6c0,0.9,0.2,1.9,0.5,2.5L458.1,133.4z"/>
	<path d="M462.1,142.8c-3.2,0-4.5-2.2-4.5-4.3c0-2.3,1.7-4.1,4.4-4.1c2.9,0,4.5,1.9,4.5,4.2C466.5,141.2,464.7,142.8,462.1,142.8z
		 M462,136c-1.9,0-3.3,1.1-3.3,2.6c0,1.5,1.4,2.6,3.3,2.6c1.4,0,3.3-0.7,3.3-2.6S463.6,136,462,136z"/>
	<path d="M470.3,152.2h-10.3c-0.8,0-1.6,0-2.2,0.1v-1.4l1.5-0.1v0c-1-0.5-1.7-1.5-1.7-2.9c0-2.1,1.7-3.7,4.3-3.7
		c2.8,0,4.6,1.7,4.6,3.8c0,1.3-0.6,2.2-1.3,2.6v0h5.1V152.2z M462.8,150.6c0.2,0,0.5,0,0.7-0.1c1-0.2,1.8-1.1,1.8-2.2
		c0-1.6-1.4-2.6-3.3-2.6c-1.7,0-3.2,0.8-3.2,2.5c0,1,0.7,2,1.9,2.3c0.2,0.1,0.4,0.1,0.7,0.1H462.8z"/>
	<path d="M461.7,155.6c-2.1,0-3,1.4-3,2.9c0,1.1,0.2,1.8,0.4,2.4l-1.1,0.3c-0.2-0.5-0.5-1.5-0.5-2.8c0-2.6,1.7-4.2,4.3-4.2
		c2.6,0,4.6,1.5,4.6,4c0,2.8-2.5,3.5-4,3.5c-0.3,0-0.6,0-0.7-0.1V155.6z M462.8,160.2c1,0,2.5-0.4,2.5-2.2c0-1.6-1.4-2.3-2.5-2.4
		V160.2z"/>
</g>
<g>
	<path d="M337.4,156.6c0.3,0.6,0.6,1.7,0.6,3.1c0,3.4-2.1,5.9-6,5.9c-3.7,0-6.3-2.5-6.3-6.2c0-1.5,0.3-2.4,0.5-2.8l1.3,0.4
		c-0.3,0.6-0.5,1.4-0.5,2.4c0,2.8,1.8,4.6,4.9,4.6c2.9,0,4.8-1.7,4.8-4.6c0-0.9-0.2-1.9-0.5-2.5L337.4,156.6z"/>
	<path d="M333.4,147.2c3.2,0,4.5,2.2,4.5,4.3c0,2.3-1.7,4.1-4.4,4.1c-2.9,0-4.5-1.9-4.5-4.2C329,148.9,330.8,147.2,333.4,147.2z
		 M333.5,154c1.9,0,3.3-1.1,3.3-2.6c0-1.5-1.4-2.6-3.3-2.6c-1.4,0-3.3,0.7-3.3,2.6S331.9,154,333.5,154z"/>
	<path d="M325.2,137.9h10.3c0.8,0,1.6,0,2.2-0.1v1.4l-1.5,0.1v0c1,0.5,1.7,1.5,1.7,2.9c0,2.1-1.7,3.7-4.3,3.7
		c-2.8,0-4.6-1.7-4.6-3.8c0-1.3,0.6-2.2,1.3-2.6v0h-5.1V137.9z M332.7,139.4c-0.2,0-0.5,0-0.7,0.1c-1,0.2-1.8,1.1-1.8,2.2
		c0,1.6,1.4,2.6,3.3,2.6c1.7,0,3.2-0.8,3.2-2.5c0-1-0.7-2-1.9-2.3c-0.2-0.1-0.4-0.1-0.7-0.1H332.7z"/>
	<path d="M333.8,134.4c2.1,0,3-1.4,3-2.9c0-1.1-0.2-1.8-0.4-2.4l1.1-0.3c0.2,0.5,0.5,1.5,0.5,2.8c0,2.6-1.7,4.2-4.3,4.2
		c-2.6,0-4.6-1.5-4.6-4c0-2.8,2.5-3.5,4-3.5c0.3,0,0.6,0,0.7,0.1V134.4z M332.7,129.9c-1,0-2.5,0.4-2.5,2.2c0,1.6,1.4,2.3,2.5,2.4
		V129.9z"/>
</g>
<g>
	<path d="M377.7,207.9c0.9-0.1,2-0.2,3.3-0.2c2.2,0,3.8,0.5,4.8,1.5c1.1,1,1.7,2.4,1.7,4.3c0,1.9-0.6,3.5-1.7,4.6
		c-1.1,1.1-3,1.7-5.3,1.7c-1.1,0-2-0.1-2.8-0.1V207.9z M379.3,218.4c0.4,0.1,1,0.1,1.6,0.1c3.3,0,5.1-1.8,5.1-5.1
		c0-2.8-1.6-4.6-4.8-4.6c-0.8,0-1.4,0.1-1.8,0.2V218.4z"/>
	<path d="M397.2,215.3c0,3.2-2.2,4.5-4.3,4.5c-2.3,0-4.1-1.7-4.1-4.4c0-2.9,1.9-4.5,4.2-4.5C395.6,210.9,397.2,212.7,397.2,215.3z
		 M390.5,215.4c0,1.9,1.1,3.3,2.6,3.3c1.5,0,2.6-1.4,2.6-3.3c0-1.4-0.7-3.3-2.6-3.3C391.3,212.1,390.5,213.8,390.5,215.4z"/>
	<path d="M405.3,219.3c-0.4,0.2-1.3,0.5-2.5,0.5c-2.6,0-4.3-1.7-4.3-4.4c0-2.6,1.8-4.5,4.6-4.5c0.9,0,1.7,0.2,2.2,0.4l-0.4,1.2
		c-0.4-0.2-1-0.4-1.8-0.4c-2,0-3,1.4-3,3.2c0,2,1.3,3.2,3,3.2c0.9,0,1.5-0.2,1.9-0.4L405.3,219.3z"/>
	<path d="M406.9,218.1c0.5,0.3,1.3,0.6,2,0.6c1.1,0,1.7-0.6,1.7-1.3c0-0.7-0.4-1.1-1.6-1.6c-1.5-0.5-2.3-1.4-2.3-2.4
		c0-1.4,1.1-2.5,3-2.5c0.9,0,1.6,0.2,2.1,0.5l-0.4,1.1c-0.3-0.2-1-0.5-1.7-0.5c-0.9,0-1.4,0.5-1.4,1.2c0,0.7,0.5,1,1.6,1.4
		c1.5,0.6,2.2,1.3,2.2,2.6c0,1.5-1.2,2.6-3.2,2.6c-0.9,0-1.8-0.2-2.4-0.6L406.9,218.1z"/>
</g>
<g>
	<g>
		
			<line style="fill:none;stroke:#000000;stroke-width:3.3133;stroke-miterlimit:10;stroke-dasharray:6.6266,6.6266;" x1="577.4" y1="225.4" x2="494.1" y2="181.9"/>
		<g>
			<polygon points="502.4,178 496.3,183 495.6,190.8 483.8,176.5 			"/>
		</g>
	</g>
</g>
<g>
	<g>
		
			<line style="fill:none;stroke:#000000;stroke-width:3.3133;stroke-miterlimit:10;stroke-dasharray:6.6266,6.6266;" x1="226.6" y1="233.8" x2="305.7" y2="183.1"/>
		<g>
			<polygon points="304.9,192.2 303.6,184.4 297.1,180 315.5,176.8 			"/>
		</g>
	</g>
</g>
<g>
	<path d="M188.3,414.8c-0.6,0.3-2,0.6-3.8,0.6c-5.1,0-7.8-3.2-7.8-7.4c0-5.1,3.6-7.9,8.1-7.9c1.7,0,3.1,0.4,3.7,0.7l-0.7,2.7
		c-0.7-0.3-1.6-0.6-2.8-0.6c-2.7,0-4.8,1.6-4.8,4.9c0,3,1.8,4.9,4.8,4.9c1,0,2.1-0.2,2.8-0.5L188.3,414.8z"/>
	<path d="M200.7,409.7c0,4-2.8,5.8-5.7,5.8c-3.2,0-5.6-2.1-5.6-5.6c0-3.5,2.3-5.7,5.8-5.7C198.5,404.2,200.7,406.5,200.7,409.7z
		 M192.9,409.8c0,1.9,0.8,3.2,2.2,3.2c1.3,0,2.1-1.3,2.1-3.2c0-1.6-0.6-3.2-2.1-3.2C193.5,406.6,192.9,408.3,192.9,409.8z"/>
	<path d="M213.3,399.6V412c0,1.2,0,2.5,0.1,3.2h-3l-0.2-1.6h0c-0.7,1.2-2,1.8-3.4,1.8c-2.6,0-4.6-2.2-4.6-5.5c0-3.6,2.3-5.7,4.8-5.7
		c1.3,0,2.4,0.5,2.9,1.2h0v-5.9H213.3z M209.9,409c0-0.2,0-0.4,0-0.6c-0.2-0.9-0.9-1.7-2-1.7c-1.5,0-2.3,1.4-2.3,3.1
		c0,1.8,0.9,3,2.3,3c1,0,1.7-0.7,1.9-1.6c0.1-0.2,0.1-0.5,0.1-0.8V409z"/>
	<path d="M218.6,410.9c0.1,1.4,1.5,2.1,3,2.1c1.1,0,2.1-0.2,3-0.4l0.4,2.3c-1.1,0.4-2.5,0.7-3.9,0.7c-3.7,0-5.8-2.1-5.8-5.5
		c0-2.7,1.7-5.8,5.5-5.8c3.5,0,4.8,2.7,4.8,5.4c0,0.6-0.1,1.1-0.1,1.3H218.6z M222.5,408.6c0-0.8-0.4-2.2-1.9-2.2
		c-1.4,0-2,1.3-2.1,2.2H222.5z"/>
</g>
<g>
	<path d="M516.9,395.7c1.2-0.2,2.9-0.3,4.6-0.3c2.8,0,4.7,0.5,6.1,1.6c1.5,1.1,2.5,3,2.5,5.6c0,2.9-1,4.8-2.5,6
		c-1.6,1.3-4,1.9-6.9,1.9c-1.7,0-3-0.1-3.8-0.2V395.7z M520.3,407.9c0.3,0.1,0.8,0.1,1.2,0.1c3,0,5-1.7,5-5.2c0-3.1-1.8-4.7-4.7-4.7
		c-0.8,0-1.2,0.1-1.5,0.1V407.9z"/>
	<path d="M542.8,404.9c0,4-2.8,5.8-5.7,5.8c-3.2,0-5.6-2.1-5.6-5.6c0-3.5,2.3-5.7,5.8-5.7C540.6,399.4,542.8,401.6,542.8,404.9z
		 M535,405c0,1.9,0.8,3.2,2.2,3.2c1.3,0,2.1-1.3,2.1-3.2c0-1.6-0.6-3.2-2.1-3.2C535.6,401.7,535,403.4,535,405z"/>
	<path d="M553.1,410.1c-0.6,0.3-1.7,0.5-3,0.5c-3.5,0-5.7-2.1-5.7-5.5c0-3.2,2.2-5.7,6.2-5.7c0.9,0,1.9,0.2,2.6,0.4l-0.5,2.5
		c-0.4-0.2-1-0.3-1.9-0.3c-1.8,0-2.9,1.3-2.9,3c0,2,1.3,3,3,3c0.8,0,1.4-0.1,1.9-0.3L553.1,410.1z"/>
	<path d="M554.9,407.5c0.6,0.4,1.9,0.8,2.9,0.8c1,0,1.4-0.4,1.4-0.9c0-0.6-0.3-0.8-1.6-1.2c-2.2-0.8-3.1-2-3.1-3.2
		c0-2,1.7-3.5,4.4-3.5c1.3,0,2.4,0.3,3,0.6l-0.6,2.3c-0.5-0.3-1.4-0.6-2.3-0.6c-0.8,0-1.3,0.3-1.3,0.9c0,0.5,0.4,0.8,1.7,1.2
		c2.1,0.7,2.9,1.7,2.9,3.3c0,2-1.6,3.5-4.7,3.5c-1.4,0-2.7-0.3-3.5-0.8L554.9,407.5z"/>
</g>
<g>
	<path d="M32.5,44.2c0-0.6,0.2-1.1,0.6-1.5c0.4-0.4,0.9-0.6,1.5-0.6c0.6,0,1.1,0.2,1.5,0.6c0.4,0.4,0.6,0.9,0.6,1.5
		s-0.2,1.1-0.6,1.5c-0.4,0.4-0.9,0.6-1.5,0.6c-0.6,0-1.1-0.2-1.5-0.6C32.7,45.3,32.5,44.8,32.5,44.2z"/>
	<path d="M43.7,50.2V35.8h4.6c1.8,0,2.9,0.1,3.4,0.2c0.8,0.2,1.5,0.7,2.1,1.4s0.8,1.6,0.8,2.8c0,0.9-0.2,1.6-0.5,2.2
		s-0.7,1.1-1.2,1.4s-1,0.6-1.5,0.7c-0.7,0.1-1.7,0.2-3,0.2h-1.9v5.4H43.7z M46.6,38.3v4.1h1.6c1.1,0,1.9-0.1,2.3-0.2
		s0.7-0.4,0.9-0.7s0.3-0.7,0.3-1.1c0-0.5-0.2-1-0.5-1.3s-0.7-0.5-1.2-0.6c-0.3-0.1-1-0.1-2.1-0.1H46.6z"/>
	<path d="M57.1,50.2V35.8h2.7v14.3H57.1z"/>
	<path d="M64.7,42.9l-2.5-0.4c0.3-1,0.8-1.7,1.4-2.2s1.7-0.7,3-0.7c1.2,0,2.1,0.1,2.7,0.4s1,0.7,1.3,1.1s0.4,1.3,0.4,2.5l0,3.2
		c0,0.9,0,1.6,0.1,2s0.3,0.9,0.5,1.4h-2.7c-0.1-0.2-0.2-0.5-0.3-0.8c0-0.2-0.1-0.3-0.1-0.3c-0.5,0.5-1,0.8-1.5,1s-1.1,0.3-1.7,0.3
		c-1.1,0-1.9-0.3-2.5-0.9s-0.9-1.3-0.9-2.2c0-0.6,0.1-1.1,0.4-1.6s0.7-0.8,1.2-1.1s1.2-0.5,2.2-0.6c1.3-0.2,2.2-0.5,2.7-0.7v-0.3
		c0-0.5-0.1-0.9-0.4-1.1s-0.8-0.3-1.5-0.3c-0.5,0-0.9,0.1-1.1,0.3S64.8,42.5,64.7,42.9z M68.3,45.2c-0.4,0.1-0.9,0.3-1.7,0.4
		s-1.3,0.3-1.5,0.5c-0.4,0.3-0.5,0.6-0.5,1c0,0.4,0.1,0.7,0.4,1s0.7,0.4,1.1,0.4c0.5,0,1-0.2,1.4-0.5c0.3-0.2,0.6-0.5,0.7-0.9
		c0.1-0.2,0.1-0.7,0.1-1.3V45.2z"/>
	<path d="M73.7,38.4v-2.5h2.7v2.5H73.7z M73.7,50.2V39.8h2.7v10.4H73.7z"/>
	<path d="M88.7,50.2H86v-5.3c0-1.1-0.1-1.8-0.2-2.2s-0.3-0.6-0.6-0.8s-0.6-0.3-1-0.3c-0.5,0-0.9,0.1-1.3,0.4s-0.6,0.6-0.8,1
		S82,44.3,82,45.5v4.7h-2.7V39.8h2.5v1.5c0.9-1.2,2-1.8,3.4-1.8c0.6,0,1.2,0.1,1.7,0.3s0.9,0.5,1.1,0.8s0.4,0.7,0.5,1.2
		s0.2,1,0.2,1.8V50.2z"/>
	<path d="M91.2,46.3v-2.7h5.4v2.7H91.2z"/>
	<path d="M102.9,39.8V42h-1.9v4.2c0,0.8,0,1.3,0.1,1.5s0.1,0.3,0.2,0.3s0.3,0.1,0.5,0.1c0.3,0,0.6-0.1,1.1-0.3l0.2,2.1
		c-0.6,0.3-1.4,0.4-2.2,0.4c-0.5,0-0.9-0.1-1.3-0.2s-0.7-0.4-0.9-0.6s-0.3-0.6-0.4-1.1c-0.1-0.3-0.1-1-0.1-1.9V42H97v-2.2h1.3v-2.1
		l2.8-1.6v3.7H102.9z"/>
	<path d="M110.8,46.9l2.7,0.5c-0.4,1-0.9,1.8-1.7,2.3s-1.7,0.8-2.8,0.8c-1.8,0-3.1-0.6-4-1.8c-0.7-0.9-1-2.1-1-3.6
		c0-1.7,0.4-3.1,1.3-4s2-1.5,3.4-1.5c1.5,0,2.8,0.5,3.7,1.5s1.3,2.6,1.3,4.7h-6.9c0,0.8,0.2,1.4,0.7,1.9s1,0.7,1.6,0.7
		c0.4,0,0.8-0.1,1.1-0.4S110.7,47.4,110.8,46.9z M111,44.1c0-0.8-0.2-1.4-0.6-1.8s-0.9-0.6-1.4-0.6c-0.6,0-1.1,0.2-1.5,0.7
		s-0.6,1-0.6,1.8H111z"/>
	<path d="M114.6,50.2l3.7-5.3l-3.6-5h3.3l1.8,2.9l1.9-2.9h3.2l-3.5,4.9l3.8,5.5h-3.4l-2.1-3.2l-2.1,3.2H114.6z"/>
	<path d="M131.8,39.8V42H130v4.2c0,0.8,0,1.3,0.1,1.5s0.1,0.3,0.2,0.3s0.3,0.1,0.5,0.1c0.3,0,0.6-0.1,1.1-0.3l0.2,2.1
		c-0.6,0.3-1.4,0.4-2.2,0.4c-0.5,0-0.9-0.1-1.3-0.2s-0.7-0.4-0.9-0.6s-0.3-0.6-0.4-1.1c-0.1-0.3-0.1-1-0.1-1.9V42H126v-2.2h1.3v-2.1
		l2.8-1.6v3.7H131.8z"/>
	<path d="M138.1,39.8h1.5V39c0-0.9,0.1-1.5,0.3-2s0.5-0.8,1-1s1.1-0.4,1.9-0.4c0.8,0,1.5,0.1,2.3,0.4l-0.4,1.9
		c-0.4-0.1-0.9-0.2-1.3-0.2c-0.4,0-0.7,0.1-0.9,0.3s-0.3,0.5-0.3,1.1v0.7h2.1v2.2h-2.1v8.2h-2.7v-8.2h-1.5V39.8z"/>
	<path d="M146,38.4v-2.5h2.7v2.5H146z M146,50.2V39.8h2.7v10.4H146z"/>
	<path d="M151.5,50.2V35.8h2.7v14.3H151.5z"/>
	<path d="M163.1,46.9l2.7,0.5c-0.4,1-0.9,1.8-1.7,2.3s-1.7,0.8-2.8,0.8c-1.8,0-3.1-0.6-4-1.8c-0.7-0.9-1-2.1-1-3.6
		c0-1.7,0.4-3.1,1.3-4s2-1.5,3.4-1.5c1.5,0,2.8,0.5,3.7,1.5s1.3,2.6,1.3,4.7h-6.9c0,0.8,0.2,1.4,0.7,1.9s1,0.7,1.6,0.7
		c0.4,0,0.8-0.1,1.1-0.4S162.9,47.4,163.1,46.9z M163.2,44.1c0-0.8-0.2-1.4-0.6-1.8s-0.9-0.6-1.4-0.6c-0.6,0-1.1,0.2-1.5,0.7
		s-0.6,1-0.6,1.8H163.2z"/>
	<path d="M167.2,47.2l2.8-0.4c0.1,0.5,0.4,0.9,0.7,1.2s0.9,0.4,1.5,0.4c0.7,0,1.2-0.1,1.6-0.4c0.2-0.2,0.4-0.4,0.4-0.7
		c0-0.2-0.1-0.4-0.2-0.5c-0.1-0.1-0.4-0.3-0.9-0.4c-2.2-0.5-3.6-0.9-4.2-1.3c-0.8-0.6-1.2-1.3-1.2-2.3c0-0.9,0.4-1.7,1.1-2.3
		s1.8-0.9,3.3-0.9c1.4,0,2.5,0.2,3.2,0.7s1.2,1.1,1.4,2.1l-2.6,0.5c-0.1-0.4-0.3-0.7-0.6-0.9s-0.8-0.3-1.3-0.3
		c-0.7,0-1.2,0.1-1.6,0.3c-0.2,0.1-0.3,0.3-0.3,0.6c0,0.2,0.1,0.4,0.3,0.5c0.2,0.2,1.1,0.4,2.6,0.8s2.5,0.7,3.1,1.2
		c0.6,0.5,0.9,1.2,0.9,2c0,1-0.4,1.8-1.2,2.5s-2,1-3.5,1c-1.4,0-2.5-0.3-3.4-0.9S167.5,48.2,167.2,47.2z"/>
	<path d="M38,78.1c0,0.8-0.3,1.5-0.8,2s-1.2,0.8-2,0.8c-0.8,0-1.5-0.3-2-0.8s-0.8-1.2-0.8-2s0.3-1.5,0.8-2s1.2-0.8,2-0.8
		c0.8,0,1.5,0.3,2,0.8S38,77.3,38,78.1z"/>
	<path d="M44.9,80.5l2.8-0.3c0.2,0.9,0.5,1.6,1,2.1S50,83,50.8,83c0.9,0,1.6-0.2,2.1-0.6s0.7-0.9,0.7-1.4c0-0.3-0.1-0.6-0.3-0.9
		s-0.5-0.4-1-0.6c-0.3-0.1-1.1-0.3-2.3-0.6c-1.5-0.4-2.6-0.9-3.3-1.4c-0.9-0.8-1.3-1.7-1.3-2.9c0-0.7,0.2-1.4,0.6-2s1-1.1,1.8-1.5
		s1.7-0.5,2.8-0.5c1.8,0,3.1,0.4,4.1,1.2s1.4,1.8,1.4,3.2l-2.9,0.1c-0.1-0.7-0.4-1.3-0.8-1.6s-1-0.5-1.8-0.5c-0.8,0-1.5,0.2-2,0.5
		c-0.3,0.2-0.5,0.5-0.5,0.9c0,0.3,0.1,0.6,0.4,0.9c0.4,0.3,1.2,0.6,2.7,1s2.4,0.7,3.1,1s1.2,0.8,1.6,1.5s0.6,1.4,0.6,2.3
		c0,0.8-0.2,1.6-0.7,2.3s-1.1,1.2-1.9,1.6s-1.9,0.5-3.1,0.5c-1.8,0-3.2-0.4-4.2-1.3S45.1,82.1,44.9,80.5z"/>
	<path d="M63.7,74.8V77h-1.9v4.2c0,0.8,0,1.3,0.1,1.5s0.1,0.3,0.2,0.3s0.3,0.1,0.5,0.1c0.3,0,0.6-0.1,1.1-0.3l0.2,2.1
		c-0.6,0.3-1.4,0.4-2.2,0.4c-0.5,0-0.9-0.1-1.3-0.2s-0.7-0.4-0.9-0.6s-0.3-0.6-0.4-1.1c-0.1-0.3-0.1-1-0.1-1.9V77h-1.3v-2.2h1.3
		v-2.1l2.8-1.6v3.7H63.7z"/>
	<path d="M67.7,77.9l-2.5-0.4c0.3-1,0.8-1.7,1.4-2.2s1.7-0.7,3-0.7c1.2,0,2.1,0.1,2.7,0.4s1,0.7,1.3,1.1s0.4,1.3,0.4,2.5l0,3.2
		c0,0.9,0,1.6,0.1,2s0.3,0.9,0.5,1.4h-2.7c-0.1-0.2-0.2-0.5-0.3-0.8c0-0.2-0.1-0.3-0.1-0.3c-0.5,0.5-1,0.8-1.5,1s-1.1,0.3-1.7,0.3
		c-1.1,0-1.9-0.3-2.5-0.9s-0.9-1.3-0.9-2.2c0-0.6,0.1-1.1,0.4-1.6s0.7-0.8,1.2-1.1s1.2-0.5,2.2-0.6c1.3-0.2,2.2-0.5,2.7-0.7v-0.3
		c0-0.5-0.1-0.9-0.4-1.1s-0.8-0.3-1.5-0.3c-0.5,0-0.9,0.1-1.1,0.3S67.8,77.5,67.7,77.9z M71.3,80.2c-0.4,0.1-0.9,0.3-1.7,0.4
		s-1.3,0.3-1.5,0.5c-0.4,0.3-0.5,0.6-0.5,1c0,0.4,0.1,0.7,0.4,1s0.7,0.4,1.1,0.4c0.5,0,1-0.2,1.4-0.5c0.3-0.2,0.6-0.5,0.7-0.9
		c0.1-0.2,0.1-0.7,0.1-1.3V80.2z"/>
	<path d="M81.5,74.8V77h-1.9v4.2c0,0.8,0,1.3,0.1,1.5s0.1,0.3,0.2,0.3s0.3,0.1,0.5,0.1c0.3,0,0.6-0.1,1.1-0.3l0.2,2.1
		c-0.6,0.3-1.4,0.4-2.2,0.4c-0.5,0-0.9-0.1-1.3-0.2s-0.7-0.4-0.9-0.6s-0.3-0.6-0.4-1.1c-0.1-0.3-0.1-1-0.1-1.9V77h-1.3v-2.2h1.3
		v-2.1l2.8-1.6v3.7H81.5z"/>
	<path d="M83.4,73.4v-2.5h2.7v2.5H83.4z M83.4,85.2V74.8h2.7v10.4H83.4z"/>
	<path d="M98,77.8l-2.7,0.5c-0.1-0.5-0.3-0.9-0.6-1.2s-0.7-0.4-1.3-0.4c-0.7,0-1.2,0.2-1.6,0.7s-0.6,1.3-0.6,2.4
		c0,1.2,0.2,2.1,0.6,2.6s1,0.8,1.7,0.8c0.5,0,0.9-0.1,1.3-0.4s0.6-0.8,0.7-1.5l2.7,0.5c-0.3,1.2-0.8,2.2-1.6,2.8s-1.9,0.9-3.2,0.9
		c-1.5,0-2.7-0.5-3.6-1.4s-1.4-2.3-1.4-4c0-1.7,0.5-3,1.4-4s2.1-1.4,3.7-1.4c1.3,0,2.3,0.3,3,0.8S97.7,76.7,98,77.8z"/>
	<path d="M104.7,82.2l2.8-0.4c0.1,0.5,0.4,0.9,0.7,1.2s0.9,0.4,1.5,0.4c0.7,0,1.2-0.1,1.6-0.4c0.2-0.2,0.4-0.4,0.4-0.7
		c0-0.2-0.1-0.4-0.2-0.5c-0.1-0.1-0.4-0.3-0.9-0.4c-2.2-0.5-3.6-0.9-4.2-1.3c-0.8-0.6-1.2-1.3-1.2-2.3c0-0.9,0.4-1.7,1.1-2.3
		s1.8-0.9,3.3-0.9c1.4,0,2.5,0.2,3.2,0.7s1.2,1.1,1.4,2.1l-2.6,0.5c-0.1-0.4-0.3-0.7-0.6-0.9s-0.8-0.3-1.3-0.3
		c-0.7,0-1.2,0.1-1.6,0.3c-0.2,0.1-0.3,0.3-0.3,0.6c0,0.2,0.1,0.4,0.3,0.5c0.2,0.2,1.1,0.4,2.6,0.8s2.5,0.7,3.1,1.2
		c0.6,0.5,0.9,1.2,0.9,2c0,1-0.4,1.8-1.2,2.5s-2,1-3.5,1c-1.4,0-2.5-0.3-3.4-0.9S104.9,83.2,104.7,82.2z"/>
	<path d="M116.8,73.4v-2.5h2.7v2.5H116.8z M116.8,85.2V74.8h2.7v10.4H116.8z"/>
	<path d="M127.1,74.8V77h-1.9v4.2c0,0.8,0,1.3,0.1,1.5s0.1,0.3,0.2,0.3s0.3,0.1,0.5,0.1c0.3,0,0.6-0.1,1.1-0.3l0.2,2.1
		c-0.6,0.3-1.4,0.4-2.2,0.4c-0.5,0-0.9-0.1-1.3-0.2s-0.7-0.4-0.9-0.6s-0.3-0.6-0.4-1.1c-0.1-0.3-0.1-1-0.1-1.9V77h-1.3v-2.2h1.3
		v-2.1l2.8-1.6v3.7H127.1z"/>
	<path d="M135,81.9l2.7,0.5c-0.4,1-0.9,1.8-1.7,2.3s-1.7,0.8-2.8,0.8c-1.8,0-3.1-0.6-4-1.8c-0.7-0.9-1-2.1-1-3.6
		c0-1.7,0.4-3.1,1.3-4s2-1.5,3.4-1.5c1.5,0,2.8,0.5,3.7,1.5s1.3,2.6,1.3,4.7H131c0,0.8,0.2,1.4,0.7,1.9s1,0.7,1.6,0.7
		c0.4,0,0.8-0.1,1.1-0.4S134.8,82.4,135,81.9z M135.1,79.1c0-0.8-0.2-1.4-0.6-1.8s-0.9-0.6-1.4-0.6c-0.6,0-1.1,0.2-1.5,0.7
		s-0.6,1-0.6,1.8H135.1z"/>
	<path d="M145.4,85.8l3.1,0.4c0.1,0.4,0.2,0.6,0.4,0.8c0.3,0.2,0.7,0.3,1.2,0.3c0.7,0,1.3-0.1,1.6-0.3c0.2-0.1,0.4-0.4,0.5-0.7
		c0.1-0.2,0.1-0.6,0.1-1.3v-1.5c-0.8,1.1-1.9,1.7-3.1,1.7c-1.4,0-2.5-0.6-3.3-1.8c-0.6-0.9-1-2.1-1-3.5c0-1.7,0.4-3.1,1.3-4
		s1.9-1.4,3.1-1.4c1.3,0,2.3,0.6,3.2,1.7v-1.5h2.6v9.3c0,1.2-0.1,2.1-0.3,2.7s-0.5,1.1-0.8,1.4s-0.9,0.6-1.5,0.8s-1.4,0.3-2.3,0.3
		c-1.8,0-3-0.3-3.7-0.9s-1.1-1.4-1.1-2.3C145.4,86.1,145.4,86,145.4,85.8z M147.8,79.8c0,1.1,0.2,1.9,0.6,2.4s1,0.8,1.6,0.8
		c0.7,0,1.2-0.3,1.7-0.8s0.7-1.3,0.7-2.3c0-1.1-0.2-1.9-0.7-2.4s-1-0.8-1.7-0.8c-0.7,0-1.2,0.3-1.6,0.8S147.8,78.7,147.8,79.8z"/>
	<path d="M163.9,81.9l2.7,0.5c-0.4,1-0.9,1.8-1.7,2.3s-1.7,0.8-2.8,0.8c-1.8,0-3.1-0.6-4-1.8c-0.7-0.9-1-2.1-1-3.6
		c0-1.7,0.4-3.1,1.3-4s2-1.5,3.4-1.5c1.5,0,2.8,0.5,3.7,1.5s1.3,2.6,1.3,4.7h-6.9c0,0.8,0.2,1.4,0.7,1.9s1,0.7,1.6,0.7
		c0.4,0,0.8-0.1,1.1-0.4S163.7,82.4,163.9,81.9z M164,79.1c0-0.8-0.2-1.4-0.6-1.8s-0.9-0.6-1.4-0.6c-0.6,0-1.1,0.2-1.5,0.7
		s-0.6,1-0.6,1.8H164z"/>
	<path d="M178.4,85.2h-2.7v-5.3c0-1.1-0.1-1.8-0.2-2.2s-0.3-0.6-0.6-0.8s-0.6-0.3-1-0.3c-0.5,0-0.9,0.1-1.3,0.4s-0.6,0.6-0.8,1
		s-0.2,1.2-0.2,2.4v4.7H169V74.8h2.5v1.5c0.9-1.2,2-1.8,3.4-1.8c0.6,0,1.2,0.1,1.7,0.3s0.9,0.5,1.1,0.8s0.4,0.7,0.5,1.2
		s0.2,1,0.2,1.8V85.2z"/>
	<path d="M187.2,81.9l2.7,0.5c-0.4,1-0.9,1.8-1.7,2.3s-1.7,0.8-2.8,0.8c-1.8,0-3.1-0.6-4-1.8c-0.7-0.9-1-2.1-1-3.6
		c0-1.7,0.4-3.1,1.3-4s2-1.5,3.4-1.5c1.5,0,2.8,0.5,3.7,1.5s1.3,2.6,1.3,4.7h-6.9c0,0.8,0.2,1.4,0.7,1.9s1,0.7,1.6,0.7
		c0.4,0,0.8-0.1,1.1-0.4S187.1,82.4,187.2,81.9z M187.4,79.1c0-0.8-0.2-1.4-0.6-1.8s-0.9-0.6-1.4-0.6c-0.6,0-1.1,0.2-1.5,0.7
		s-0.6,1-0.6,1.8H187.4z"/>
	<path d="M195,85.2h-2.7V74.8h2.5v1.5c0.4-0.7,0.8-1.2,1.2-1.4s0.7-0.3,1.2-0.3c0.6,0,1.2,0.2,1.8,0.5l-0.8,2.4
		c-0.5-0.3-0.9-0.4-1.3-0.4c-0.4,0-0.7,0.1-1,0.3s-0.5,0.6-0.6,1.1S195,80.2,195,82V85.2z"/>
	<path d="M202.2,77.9l-2.5-0.4c0.3-1,0.8-1.7,1.4-2.2s1.7-0.7,3-0.7c1.2,0,2.1,0.1,2.7,0.4s1,0.7,1.3,1.1s0.4,1.3,0.4,2.5l0,3.2
		c0,0.9,0,1.6,0.1,2s0.3,0.9,0.5,1.4h-2.7c-0.1-0.2-0.2-0.5-0.3-0.8c0-0.2-0.1-0.3-0.1-0.3c-0.5,0.5-1,0.8-1.5,1s-1.1,0.3-1.7,0.3
		c-1.1,0-1.9-0.3-2.5-0.9s-0.9-1.3-0.9-2.2c0-0.6,0.1-1.1,0.4-1.6s0.7-0.8,1.2-1.1s1.2-0.5,2.2-0.6c1.3-0.2,2.2-0.5,2.7-0.7v-0.3
		c0-0.5-0.1-0.9-0.4-1.1s-0.8-0.3-1.5-0.3c-0.5,0-0.9,0.1-1.1,0.3S202.3,77.5,202.2,77.9z M205.8,80.2c-0.4,0.1-0.9,0.3-1.7,0.4
		s-1.3,0.3-1.5,0.5c-0.4,0.3-0.5,0.6-0.5,1c0,0.4,0.1,0.7,0.4,1s0.7,0.4,1.1,0.4c0.5,0,1-0.2,1.4-0.5c0.3-0.2,0.6-0.5,0.7-0.9
		c0.1-0.2,0.1-0.7,0.1-1.3V80.2z"/>
	<path d="M216,74.8V77h-1.9v4.2c0,0.8,0,1.3,0.1,1.5s0.1,0.3,0.2,0.3s0.3,0.1,0.5,0.1c0.3,0,0.6-0.1,1.1-0.3l0.2,2.1
		c-0.6,0.3-1.4,0.4-2.2,0.4c-0.5,0-0.9-0.1-1.3-0.2s-0.7-0.4-0.9-0.6s-0.3-0.6-0.4-1.1c-0.1-0.3-0.1-1-0.1-1.9V77h-1.3v-2.2h1.3
		v-2.1l2.8-1.6v3.7H216z"/>
	<path d="M217.3,79.8c0-0.9,0.2-1.8,0.7-2.6s1.1-1.5,1.9-2s1.7-0.7,2.8-0.7c1.6,0,2.9,0.5,3.9,1.5s1.5,2.3,1.5,3.9
		c0,1.6-0.5,2.9-1.5,3.9s-2.3,1.5-3.8,1.5c-1,0-1.9-0.2-2.7-0.6s-1.5-1.1-2-1.9S217.3,81,217.3,79.8z M220.1,80c0,1,0.2,1.8,0.7,2.4
		s1.1,0.8,1.8,0.8s1.3-0.3,1.8-0.8s0.7-1.3,0.7-2.4c0-1-0.2-1.8-0.7-2.3s-1.1-0.8-1.8-0.8s-1.3,0.3-1.8,0.8S220.1,78.9,220.1,80z"/>
	<path d="M232.7,85.2H230V74.8h2.5v1.5c0.4-0.7,0.8-1.2,1.2-1.4s0.7-0.3,1.2-0.3c0.6,0,1.2,0.2,1.8,0.5l-0.8,2.4
		c-0.5-0.3-0.9-0.4-1.3-0.4c-0.4,0-0.7,0.1-1,0.3s-0.5,0.6-0.6,1.1s-0.2,1.7-0.2,3.5V85.2z"/>
	<path d="M236.9,82.2l2.8-0.4c0.1,0.5,0.4,0.9,0.7,1.2s0.9,0.4,1.5,0.4c0.7,0,1.2-0.1,1.6-0.4c0.2-0.2,0.4-0.4,0.4-0.7
		c0-0.2-0.1-0.4-0.2-0.5c-0.1-0.1-0.4-0.3-0.9-0.4c-2.2-0.5-3.6-0.9-4.2-1.3c-0.8-0.6-1.2-1.3-1.2-2.3c0-0.9,0.4-1.7,1.1-2.3
		s1.8-0.9,3.3-0.9c1.4,0,2.5,0.2,3.2,0.7s1.2,1.1,1.4,2.1l-2.6,0.5c-0.1-0.4-0.3-0.7-0.6-0.9s-0.8-0.3-1.3-0.3
		c-0.7,0-1.2,0.1-1.6,0.3c-0.2,0.1-0.3,0.3-0.3,0.6c0,0.2,0.1,0.4,0.3,0.5c0.2,0.2,1.1,0.4,2.6,0.8s2.5,0.7,3.1,1.2
		c0.6,0.5,0.9,1.2,0.9,2c0,1-0.4,1.8-1.2,2.5s-2,1-3.5,1c-1.4,0-2.5-0.3-3.4-0.9S237.2,83.2,236.9,82.2z"/>
	<path d="M38,113.1c0,0.8-0.3,1.5-0.8,2s-1.2,0.8-2,0.8c-0.8,0-1.5-0.3-2-0.8s-0.8-1.2-0.8-2s0.3-1.5,0.8-2s1.2-0.8,2-0.8
		c0.8,0,1.5,0.3,2,0.8S38,112.3,38,113.1z"/>
	<path d="M43.3,120.2v-11.9H39v-2.4h11.4v2.4h-4.2v11.9H43.3z"/>
	<path d="M56.8,116.9l2.7,0.5c-0.4,1-0.9,1.8-1.7,2.3s-1.7,0.8-2.8,0.8c-1.8,0-3.1-0.6-4-1.8c-0.7-0.9-1-2.1-1-3.6
		c0-1.7,0.4-3.1,1.3-4s2-1.5,3.4-1.5c1.5,0,2.8,0.5,3.7,1.5s1.3,2.6,1.3,4.7h-6.9c0,0.8,0.2,1.4,0.7,1.9s1,0.7,1.6,0.7
		c0.4,0,0.8-0.1,1.1-0.4S56.6,117.4,56.8,116.9z M56.9,114.1c0-0.8-0.2-1.4-0.6-1.8s-0.9-0.6-1.4-0.6c-0.6,0-1.1,0.2-1.5,0.7
		s-0.6,1-0.6,1.8H56.9z"/>
	<path d="M60.6,120.2l3.7-5.3l-3.6-5h3.3l1.8,2.9l1.9-2.9h3.2l-3.5,4.9l3.8,5.5H68l-2.1-3.2l-2.1,3.2H60.6z"/>
	<path d="M77.8,109.8v2.2h-1.9v4.2c0,0.8,0,1.3,0.1,1.5s0.1,0.3,0.2,0.3s0.3,0.1,0.5,0.1c0.3,0,0.6-0.1,1.1-0.3L78,120
		c-0.6,0.3-1.4,0.4-2.2,0.4c-0.5,0-0.9-0.1-1.3-0.2s-0.7-0.4-0.9-0.6s-0.3-0.6-0.4-1.1c-0.1-0.3-0.1-1-0.1-1.9V112h-1.3v-2.2h1.3
		v-2.1l2.8-1.6v3.7H77.8z"/>
	<path d="M91.3,116.9l2.7,0.5c-0.4,1-0.9,1.8-1.7,2.3s-1.7,0.8-2.8,0.8c-1.8,0-3.1-0.6-4-1.8c-0.7-0.9-1-2.1-1-3.6
		c0-1.7,0.4-3.1,1.3-4s2-1.5,3.4-1.5c1.5,0,2.8,0.5,3.7,1.5s1.3,2.6,1.3,4.7h-6.9c0,0.8,0.2,1.4,0.7,1.9s1,0.7,1.6,0.7
		c0.4,0,0.8-0.1,1.1-0.4S91.1,117.4,91.3,116.9z M91.4,114.1c0-0.8-0.2-1.4-0.6-1.8s-0.9-0.6-1.4-0.6c-0.6,0-1.1,0.2-1.5,0.7
		s-0.6,1-0.6,1.8H91.4z"/>
	<path d="M105.9,120.2h-2.5v-1.5c-0.4,0.6-0.9,1-1.5,1.3s-1.2,0.4-1.7,0.4c-1.2,0-2.2-0.5-3.1-1.4s-1.3-2.3-1.3-4
		c0-1.8,0.4-3.1,1.2-4s1.9-1.4,3.1-1.4c1.2,0,2.2,0.5,3,1.4v-5.2h2.7V120.2z M98.6,114.7c0,1.1,0.2,1.9,0.5,2.4
		c0.4,0.7,1.1,1.1,1.9,1.1c0.6,0,1.2-0.3,1.6-0.8s0.7-1.3,0.7-2.4c0-1.2-0.2-2-0.6-2.6s-1-0.8-1.7-0.8c-0.7,0-1.2,0.3-1.6,0.8
		S98.6,113.7,98.6,114.7z"/>
	<path d="M108.6,108.4v-2.5h2.7v2.5H108.6z M108.6,120.2v-10.4h2.7v10.4H108.6z"/>
	<path d="M118.9,109.8v2.2H117v4.2c0,0.8,0,1.3,0.1,1.5s0.1,0.3,0.2,0.3s0.3,0.1,0.5,0.1c0.3,0,0.6-0.1,1.1-0.3l0.2,2.1
		c-0.6,0.3-1.4,0.4-2.2,0.4c-0.5,0-0.9-0.1-1.3-0.2s-0.7-0.4-0.9-0.6s-0.3-0.6-0.4-1.1c-0.1-0.3-0.1-1-0.1-1.9V112H113v-2.2h1.3
		v-2.1l2.8-1.6v3.7H118.9z"/>
	<path d="M120.2,114.8c0-0.9,0.2-1.8,0.7-2.6s1.1-1.5,1.9-2s1.7-0.7,2.8-0.7c1.6,0,2.9,0.5,3.9,1.5s1.5,2.3,1.5,3.9
		c0,1.6-0.5,2.9-1.5,3.9s-2.3,1.5-3.8,1.5c-1,0-1.9-0.2-2.7-0.6s-1.5-1.1-2-1.9S120.2,116,120.2,114.8z M123,115
		c0,1,0.2,1.8,0.7,2.4s1.1,0.8,1.8,0.8s1.3-0.3,1.8-0.8s0.7-1.3,0.7-2.4c0-1-0.2-1.8-0.7-2.3s-1.1-0.8-1.8-0.8s-1.3,0.3-1.8,0.8
		S123,113.9,123,115z"/>
	<path d="M135.6,120.2h-2.7v-10.4h2.5v1.5c0.4-0.7,0.8-1.2,1.2-1.4s0.7-0.3,1.2-0.3c0.6,0,1.2,0.2,1.8,0.5l-0.8,2.4
		c-0.5-0.3-0.9-0.4-1.3-0.4c-0.4,0-0.7,0.1-1,0.3s-0.5,0.6-0.6,1.1s-0.2,1.7-0.2,3.5V120.2z"/>
	<path d="M139.8,117.2l2.8-0.4c0.1,0.5,0.4,0.9,0.7,1.2s0.9,0.4,1.5,0.4c0.7,0,1.2-0.1,1.6-0.4c0.2-0.2,0.4-0.4,0.4-0.7
		c0-0.2-0.1-0.4-0.2-0.5c-0.1-0.1-0.4-0.3-0.9-0.4c-2.2-0.5-3.6-0.9-4.2-1.3c-0.8-0.6-1.2-1.3-1.2-2.3c0-0.9,0.4-1.7,1.1-2.3
		s1.8-0.9,3.3-0.9c1.4,0,2.5,0.2,3.2,0.7s1.2,1.1,1.4,2.1l-2.6,0.5c-0.1-0.4-0.3-0.7-0.6-0.9s-0.8-0.3-1.3-0.3
		c-0.7,0-1.2,0.1-1.6,0.3c-0.2,0.1-0.3,0.3-0.3,0.6c0,0.2,0.1,0.4,0.3,0.5c0.2,0.2,1.1,0.4,2.6,0.8s2.5,0.7,3.1,1.2
		c0.6,0.5,0.9,1.2,0.9,2c0,1-0.4,1.8-1.2,2.5s-2,1-3.5,1c-1.4,0-2.5-0.3-3.4-0.9S140.1,118.2,139.8,117.2z"/>
</g>
<g>
	<path d="M527.4,38.8c0-0.6,0.2-1.1,0.6-1.5c0.4-0.4,0.9-0.6,1.5-0.6c0.6,0,1.1,0.2,1.5,0.6c0.4,0.4,0.6,0.9,0.6,1.5
		s-0.2,1.1-0.6,1.5c-0.4,0.4-0.9,0.6-1.5,0.6c-0.6,0-1.1-0.2-1.5-0.6C527.7,39.9,527.4,39.4,527.4,38.8z"/>
	<path d="M545.3,39.5v-2.4h6.2v5.7c-0.6,0.6-1.5,1.1-2.6,1.5s-2.3,0.7-3.5,0.7c-1.5,0-2.8-0.3-3.9-0.9s-1.9-1.5-2.5-2.7
		s-0.8-2.4-0.8-3.8c0-1.5,0.3-2.8,0.9-4s1.5-2,2.7-2.7c0.9-0.5,2.1-0.7,3.4-0.7c1.8,0,3.2,0.4,4.2,1.1s1.6,1.8,1.9,3.1l-2.9,0.5
		c-0.2-0.7-0.6-1.3-1.1-1.7s-1.3-0.6-2.1-0.6c-1.3,0-2.3,0.4-3,1.2s-1.1,2-1.1,3.6c0,1.7,0.4,3,1.1,3.8s1.7,1.3,3,1.3
		c0.6,0,1.2-0.1,1.8-0.4s1.1-0.5,1.6-0.9v-1.8H545.3z"/>
	<path d="M554.2,33v-2.5h2.7V33H554.2z M554.2,44.8V34.4h2.7v10.4H554.2z"/>
	<path d="M564.5,34.4v2.2h-1.9v4.2c0,0.8,0,1.3,0.1,1.5s0.1,0.3,0.2,0.3s0.3,0.1,0.5,0.1c0.3,0,0.6-0.1,1.1-0.3l0.2,2.1
		c-0.6,0.3-1.4,0.4-2.2,0.4c-0.5,0-0.9-0.1-1.3-0.2s-0.7-0.4-0.9-0.6s-0.3-0.6-0.4-1.1c-0.1-0.3-0.1-1-0.1-1.9v-4.5h-1.3v-2.2h1.3
		v-2.1l2.8-1.6v3.7H564.5z"/>
	<path d="M570.8,34.4h1.5v-0.8c0-0.9,0.1-1.5,0.3-2s0.5-0.8,1-1s1.1-0.4,1.9-0.4c0.8,0,1.5,0.1,2.3,0.4l-0.4,1.9
		c-0.4-0.1-0.9-0.2-1.3-0.2c-0.4,0-0.7,0.1-0.9,0.3s-0.3,0.5-0.3,1.1v0.7h2.1v2.2H575v8.2h-2.7v-8.2h-1.5V34.4z"/>
	<path d="M578,39.4c0-0.9,0.2-1.8,0.7-2.6s1.1-1.5,1.9-2s1.7-0.7,2.8-0.7c1.6,0,2.9,0.5,3.9,1.5s1.5,2.3,1.5,3.9
		c0,1.6-0.5,2.9-1.5,3.9s-2.3,1.5-3.8,1.5c-1,0-1.9-0.2-2.7-0.6s-1.5-1.1-2-1.9S578,40.6,578,39.4z M580.8,39.6c0,1,0.2,1.8,0.7,2.4
		s1.1,0.8,1.8,0.8s1.3-0.3,1.8-0.8s0.7-1.3,0.7-2.4c0-1-0.2-1.8-0.7-2.3s-1.1-0.8-1.8-0.8s-1.3,0.3-1.8,0.8S580.8,38.6,580.8,39.6z"
		/>
	<path d="M593.5,44.8h-2.7V34.4h2.5v1.5c0.4-0.7,0.8-1.2,1.2-1.4s0.7-0.3,1.2-0.3c0.6,0,1.2,0.2,1.8,0.5l-0.8,2.4
		c-0.5-0.3-0.9-0.4-1.3-0.4c-0.4,0-0.7,0.1-1,0.3s-0.5,0.6-0.6,1.1s-0.2,1.7-0.2,3.5V44.8z"/>
	<path d="M613.7,44.8h-2.5v-1.5c-0.4,0.6-0.9,1-1.5,1.3s-1.2,0.4-1.7,0.4c-1.2,0-2.2-0.5-3.1-1.4s-1.3-2.3-1.3-4
		c0-1.8,0.4-3.1,1.2-4s1.9-1.4,3.1-1.4c1.2,0,2.2,0.5,3,1.4v-5.2h2.7V44.8z M606.4,39.4c0,1.1,0.2,1.9,0.5,2.4
		c0.4,0.7,1.1,1.1,1.9,1.1c0.6,0,1.2-0.3,1.6-0.8s0.7-1.3,0.7-2.4c0-1.2-0.2-2-0.6-2.6s-1-0.8-1.7-0.8c-0.7,0-1.2,0.3-1.6,0.8
		S606.4,38.3,606.4,39.4z"/>
	<path d="M615.8,39.4c0-0.9,0.2-1.8,0.7-2.6s1.1-1.5,1.9-2s1.7-0.7,2.8-0.7c1.6,0,2.9,0.5,3.9,1.5s1.5,2.3,1.5,3.9
		c0,1.6-0.5,2.9-1.5,3.9s-2.3,1.5-3.8,1.5c-1,0-1.9-0.2-2.7-0.6s-1.5-1.1-2-1.9S615.8,40.6,615.8,39.4z M618.6,39.6
		c0,1,0.2,1.8,0.7,2.4s1.1,0.8,1.8,0.8s1.3-0.3,1.8-0.8s0.7-1.3,0.7-2.4c0-1-0.2-1.8-0.7-2.3s-1.1-0.8-1.8-0.8s-1.3,0.3-1.8,0.8
		S618.6,38.6,618.6,39.6z"/>
	<path d="M637.7,37.5L635,38c-0.1-0.5-0.3-0.9-0.6-1.2s-0.7-0.4-1.3-0.4c-0.7,0-1.2,0.2-1.6,0.7s-0.6,1.3-0.6,2.4
		c0,1.2,0.2,2.1,0.6,2.6s1,0.8,1.7,0.8c0.5,0,0.9-0.1,1.3-0.4s0.6-0.8,0.7-1.5l2.7,0.5c-0.3,1.2-0.8,2.2-1.6,2.8S634.3,45,633,45
		c-1.5,0-2.7-0.5-3.6-1.4s-1.4-2.3-1.4-4c0-1.7,0.5-3,1.4-4s2.1-1.4,3.7-1.4c1.3,0,2.3,0.3,3,0.8S637.4,36.4,637.7,37.5z"/>
	<path d="M645.1,34.4h2.5v1.4c0.9-1.1,2-1.7,3.2-1.7c0.7,0,1.2,0.1,1.7,0.4s0.9,0.7,1.2,1.2c0.5-0.6,0.9-1,1.5-1.2s1.1-0.4,1.7-0.4
		c0.8,0,1.4,0.2,1.9,0.5s0.9,0.8,1.2,1.4c0.2,0.4,0.3,1.2,0.3,2.1v6.6h-2.7v-5.9c0-1-0.1-1.7-0.3-2c-0.3-0.4-0.6-0.6-1.2-0.6
		c-0.4,0-0.7,0.1-1.1,0.4s-0.6,0.6-0.7,1s-0.2,1.2-0.2,2.1v5h-2.7v-5.7c0-1,0-1.7-0.1-2s-0.2-0.5-0.5-0.7s-0.5-0.2-0.8-0.2
		c-0.4,0-0.8,0.1-1.1,0.3s-0.6,0.6-0.7,1s-0.2,1.1-0.2,2.1v5h-2.7V34.4z"/>
	<path d="M665.1,37.6l-2.5-0.4c0.3-1,0.8-1.7,1.4-2.2s1.7-0.7,3-0.7c1.2,0,2.1,0.1,2.7,0.4s1,0.7,1.3,1.1s0.4,1.3,0.4,2.5l0,3.2
		c0,0.9,0,1.6,0.1,2s0.3,0.9,0.5,1.4h-2.7c-0.1-0.2-0.2-0.5-0.3-0.8c0-0.2-0.1-0.3-0.1-0.3c-0.5,0.5-1,0.8-1.5,1s-1.1,0.3-1.7,0.3
		c-1.1,0-1.9-0.3-2.5-0.9s-0.9-1.3-0.9-2.2c0-0.6,0.1-1.1,0.4-1.6s0.7-0.8,1.2-1.1s1.2-0.5,2.2-0.6c1.3-0.2,2.2-0.5,2.7-0.7v-0.3
		c0-0.5-0.1-0.9-0.4-1.1s-0.8-0.3-1.5-0.3c-0.5,0-0.9,0.1-1.1,0.3S665.3,37.1,665.1,37.6z M668.8,39.8c-0.4,0.1-0.9,0.3-1.7,0.4
		s-1.3,0.3-1.5,0.5c-0.4,0.3-0.5,0.6-0.5,1c0,0.4,0.1,0.7,0.4,1s0.7,0.4,1.1,0.4c0.5,0,1-0.2,1.4-0.5c0.3-0.2,0.6-0.5,0.7-0.9
		c0.1-0.2,0.1-0.7,0.1-1.3V39.8z"/>
	<path d="M683.7,44.8h-2.7v-5.3c0-1.1-0.1-1.8-0.2-2.2s-0.3-0.6-0.6-0.8s-0.6-0.3-1-0.3c-0.5,0-0.9,0.1-1.3,0.4s-0.6,0.6-0.8,1
		s-0.2,1.2-0.2,2.4v4.7h-2.7V34.4h2.5v1.5c0.9-1.2,2-1.8,3.4-1.8c0.6,0,1.2,0.1,1.7,0.3s0.9,0.5,1.1,0.8s0.4,0.7,0.5,1.2
		s0.2,1,0.2,1.8V44.8z"/>
	<path d="M688.5,37.6l-2.5-0.4c0.3-1,0.8-1.7,1.4-2.2s1.7-0.7,3-0.7c1.2,0,2.1,0.1,2.7,0.4s1,0.7,1.3,1.1s0.4,1.3,0.4,2.5l0,3.2
		c0,0.9,0,1.6,0.1,2s0.3,0.9,0.5,1.4h-2.7c-0.1-0.2-0.2-0.5-0.3-0.8c0-0.2-0.1-0.3-0.1-0.3c-0.5,0.5-1,0.8-1.5,1s-1.1,0.3-1.7,0.3
		c-1.1,0-1.9-0.3-2.5-0.9s-0.9-1.3-0.9-2.2c0-0.6,0.1-1.1,0.4-1.6s0.7-0.8,1.2-1.1s1.2-0.5,2.2-0.6c1.3-0.2,2.2-0.5,2.7-0.7v-0.3
		c0-0.5-0.1-0.9-0.4-1.1s-0.8-0.3-1.5-0.3c-0.5,0-0.9,0.1-1.1,0.3S688.7,37.1,688.5,37.6z M692.2,39.8c-0.4,0.1-0.9,0.3-1.7,0.4
		s-1.3,0.3-1.5,0.5c-0.4,0.3-0.5,0.6-0.5,1c0,0.4,0.1,0.7,0.4,1s0.7,0.4,1.1,0.4c0.5,0,1-0.2,1.4-0.5c0.3-0.2,0.6-0.5,0.7-0.9
		c0.1-0.2,0.1-0.7,0.1-1.3V39.8z"/>
	<path d="M697.3,45.5l3.1,0.4c0.1,0.4,0.2,0.6,0.4,0.8c0.3,0.2,0.7,0.3,1.2,0.3c0.7,0,1.3-0.1,1.6-0.3c0.2-0.1,0.4-0.4,0.5-0.7
		c0.1-0.2,0.1-0.6,0.1-1.3v-1.5c-0.8,1.1-1.9,1.7-3.1,1.7c-1.4,0-2.5-0.6-3.3-1.8c-0.6-0.9-1-2.1-1-3.5c0-1.7,0.4-3.1,1.3-4
		s1.9-1.4,3.1-1.4c1.3,0,2.3,0.6,3.2,1.7v-1.5h2.6v9.3c0,1.2-0.1,2.1-0.3,2.7s-0.5,1.1-0.8,1.4s-0.9,0.6-1.5,0.8s-1.4,0.3-2.3,0.3
		c-1.8,0-3-0.3-3.7-0.9s-1.1-1.4-1.1-2.3C697.3,45.7,697.3,45.6,697.3,45.5z M699.8,39.4c0,1.1,0.2,1.9,0.6,2.4s1,0.8,1.6,0.8
		c0.7,0,1.2-0.3,1.7-0.8s0.7-1.3,0.7-2.3c0-1.1-0.2-1.9-0.7-2.4s-1-0.8-1.7-0.8c-0.7,0-1.2,0.3-1.6,0.8S699.8,38.3,699.8,39.4z"/>
	<path d="M709.6,34.4h2.5v1.4c0.9-1.1,2-1.7,3.2-1.7c0.7,0,1.2,0.1,1.7,0.4s0.9,0.7,1.2,1.2c0.5-0.6,0.9-1,1.5-1.2s1.1-0.4,1.7-0.4
		c0.8,0,1.4,0.2,1.9,0.5s0.9,0.8,1.2,1.4c0.2,0.4,0.3,1.2,0.3,2.1v6.6h-2.7v-5.9c0-1-0.1-1.7-0.3-2c-0.3-0.4-0.6-0.6-1.2-0.6
		c-0.4,0-0.7,0.1-1.1,0.4s-0.6,0.6-0.7,1s-0.2,1.2-0.2,2.1v5h-2.7v-5.7c0-1,0-1.7-0.1-2s-0.2-0.5-0.5-0.7s-0.5-0.2-0.8-0.2
		c-0.4,0-0.8,0.1-1.1,0.3s-0.6,0.6-0.7,1s-0.2,1.1-0.2,2.1v5h-2.7V34.4z"/>
	<path d="M733.6,41.5l2.7,0.5c-0.4,1-0.9,1.8-1.7,2.3s-1.7,0.8-2.8,0.8c-1.8,0-3.1-0.6-4-1.8c-0.7-0.9-1-2.1-1-3.6
		c0-1.7,0.4-3.1,1.3-4s2-1.5,3.4-1.5c1.5,0,2.8,0.5,3.7,1.5s1.3,2.6,1.3,4.7h-6.9c0,0.8,0.2,1.4,0.7,1.9s1,0.7,1.6,0.7
		c0.4,0,0.8-0.1,1.1-0.4S733.4,42,733.6,41.5z M733.7,38.7c0-0.8-0.2-1.4-0.6-1.8s-0.9-0.6-1.4-0.6c-0.6,0-1.1,0.2-1.5,0.7
		s-0.6,1-0.6,1.8H733.7z"/>
	<path d="M748.1,44.8h-2.7v-5.3c0-1.1-0.1-1.8-0.2-2.2s-0.3-0.6-0.6-0.8s-0.6-0.3-1-0.3c-0.5,0-0.9,0.1-1.3,0.4s-0.6,0.6-0.8,1
		s-0.2,1.2-0.2,2.4v4.7h-2.7V34.4h2.5v1.5c0.9-1.2,2-1.8,3.4-1.8c0.6,0,1.2,0.1,1.7,0.3s0.9,0.5,1.1,0.8s0.4,0.7,0.5,1.2
		s0.2,1,0.2,1.8V44.8z"/>
	<path d="M755.7,34.4v2.2h-1.9v4.2c0,0.8,0,1.3,0.1,1.5s0.1,0.3,0.2,0.3s0.3,0.1,0.5,0.1c0.3,0,0.6-0.1,1.1-0.3l0.2,2.1
		c-0.6,0.3-1.4,0.4-2.2,0.4c-0.5,0-0.9-0.1-1.3-0.2s-0.7-0.4-0.9-0.6s-0.3-0.6-0.4-1.1c-0.1-0.3-0.1-1-0.1-1.9v-4.5h-1.3v-2.2h1.3
		v-2.1l2.8-1.6v3.7H755.7z"/>
	<path d="M541.1,65.6l-2.5-0.4c0.3-1,0.8-1.7,1.4-2.2s1.7-0.7,3-0.7c1.2,0,2.1,0.1,2.7,0.4s1,0.7,1.3,1.1s0.4,1.3,0.4,2.5l0,3.2
		c0,0.9,0,1.6,0.1,2s0.3,0.9,0.5,1.4h-2.7c-0.1-0.2-0.2-0.5-0.3-0.8c0-0.2-0.1-0.3-0.1-0.3c-0.5,0.5-1,0.8-1.5,1s-1.1,0.3-1.7,0.3
		c-1.1,0-1.9-0.3-2.5-0.9s-0.9-1.3-0.9-2.2c0-0.6,0.1-1.1,0.4-1.6s0.7-0.8,1.2-1.1s1.2-0.5,2.2-0.6c1.3-0.2,2.2-0.5,2.7-0.7v-0.3
		c0-0.5-0.1-0.9-0.4-1.1s-0.8-0.3-1.5-0.3c-0.5,0-0.9,0.1-1.1,0.3S541.3,65.1,541.1,65.6z M544.8,67.8c-0.4,0.1-0.9,0.3-1.7,0.4
		s-1.3,0.3-1.5,0.5c-0.4,0.3-0.5,0.6-0.5,1c0,0.4,0.1,0.7,0.4,1s0.7,0.4,1.1,0.4c0.5,0,1-0.2,1.4-0.5c0.3-0.2,0.6-0.5,0.7-0.9
		c0.1-0.2,0.1-0.7,0.1-1.3V67.8z"/>
	<path d="M559.6,72.8h-2.7v-5.3c0-1.1-0.1-1.8-0.2-2.2s-0.3-0.6-0.6-0.8s-0.6-0.3-1-0.3c-0.5,0-0.9,0.1-1.3,0.4s-0.6,0.6-0.8,1
		s-0.2,1.2-0.2,2.4v4.7h-2.7V62.4h2.5v1.5c0.9-1.2,2-1.8,3.4-1.8c0.6,0,1.2,0.1,1.7,0.3s0.9,0.5,1.1,0.8s0.4,0.7,0.5,1.2
		s0.2,1,0.2,1.8V72.8z"/>
	<path d="M571.9,72.8h-2.5v-1.5c-0.4,0.6-0.9,1-1.5,1.3s-1.2,0.4-1.7,0.4c-1.2,0-2.2-0.5-3.1-1.4s-1.3-2.3-1.3-4
		c0-1.8,0.4-3.1,1.2-4s1.9-1.4,3.1-1.4c1.2,0,2.2,0.5,3,1.4v-5.2h2.7V72.8z M564.6,67.4c0,1.1,0.2,1.9,0.5,2.4
		c0.4,0.7,1.1,1.1,1.9,1.1c0.6,0,1.2-0.3,1.6-0.8s0.7-1.3,0.7-2.4c0-1.2-0.2-2-0.6-2.6s-1-0.8-1.7-0.8c-0.7,0-1.2,0.3-1.6,0.8
		S564.6,66.3,564.6,67.4z"/>
	<path d="M589.2,65.5l-2.7,0.5c-0.1-0.5-0.3-0.9-0.6-1.2s-0.7-0.4-1.3-0.4c-0.7,0-1.2,0.2-1.6,0.7s-0.6,1.3-0.6,2.4
		c0,1.2,0.2,2.1,0.6,2.6s1,0.8,1.7,0.8c0.5,0,0.9-0.1,1.3-0.4s0.6-0.8,0.7-1.5l2.7,0.5c-0.3,1.2-0.8,2.2-1.6,2.8s-1.9,0.9-3.2,0.9
		c-1.5,0-2.7-0.5-3.6-1.4s-1.4-2.3-1.4-4c0-1.7,0.5-3,1.4-4s2.1-1.4,3.7-1.4c1.3,0,2.3,0.3,3,0.8S588.9,64.4,589.2,65.5z"/>
	<path d="M590.7,67.4c0-0.9,0.2-1.8,0.7-2.6s1.1-1.5,1.9-2s1.7-0.7,2.8-0.7c1.6,0,2.9,0.5,3.9,1.5s1.5,2.3,1.5,3.9
		c0,1.6-0.5,2.9-1.5,3.9s-2.3,1.5-3.8,1.5c-1,0-1.9-0.2-2.7-0.6s-1.5-1.1-2-1.9S590.7,68.6,590.7,67.4z M593.5,67.6
		c0,1,0.2,1.8,0.7,2.4s1.1,0.8,1.8,0.8s1.3-0.3,1.8-0.8s0.7-1.3,0.7-2.4c0-1-0.2-1.8-0.7-2.3s-1.1-0.8-1.8-0.8s-1.3,0.3-1.8,0.8
		S593.5,66.6,593.5,67.6z"/>
	<path d="M603.5,72.8V58.5h2.7v14.3H603.5z"/>
	<path d="M609.1,72.8V58.5h2.7v14.3H609.1z"/>
	<path d="M616.7,65.6l-2.5-0.4c0.3-1,0.8-1.7,1.4-2.2s1.7-0.7,3-0.7c1.2,0,2.1,0.1,2.7,0.4s1,0.7,1.3,1.1s0.4,1.3,0.4,2.5l0,3.2
		c0,0.9,0,1.6,0.1,2s0.3,0.9,0.5,1.4H621c-0.1-0.2-0.2-0.5-0.3-0.8c0-0.2-0.1-0.3-0.1-0.3c-0.5,0.5-1,0.8-1.5,1S618,73,617.4,73
		c-1.1,0-1.9-0.3-2.5-0.9s-0.9-1.3-0.9-2.2c0-0.6,0.1-1.1,0.4-1.6s0.7-0.8,1.2-1.1s1.2-0.5,2.2-0.6c1.3-0.2,2.2-0.5,2.7-0.7v-0.3
		c0-0.5-0.1-0.9-0.4-1.1s-0.8-0.3-1.5-0.3c-0.5,0-0.9,0.1-1.1,0.3S616.9,65.1,616.7,65.6z M620.4,67.8c-0.4,0.1-0.9,0.3-1.7,0.4
		s-1.3,0.3-1.5,0.5c-0.4,0.3-0.5,0.6-0.5,1c0,0.4,0.1,0.7,0.4,1s0.7,0.4,1.1,0.4c0.5,0,1-0.2,1.4-0.5c0.3-0.2,0.6-0.5,0.7-0.9
		c0.1-0.2,0.1-0.7,0.1-1.3V67.8z"/>
	<path d="M625.7,72.8V58.5h2.7v5.2c0.8-1,1.8-1.4,3-1.4c1.3,0,2.3,0.5,3.1,1.4s1.2,2.2,1.2,3.9c0,1.8-0.4,3.1-1.3,4.1
		s-1.9,1.4-3.1,1.4c-0.6,0-1.2-0.1-1.8-0.4s-1.1-0.7-1.5-1.3v1.5H625.7z M628.4,67.4c0,1.1,0.2,1.9,0.5,2.4c0.5,0.7,1.1,1.1,1.9,1.1
		c0.6,0,1.1-0.3,1.5-0.8s0.6-1.3,0.6-2.4c0-1.2-0.2-2-0.6-2.6s-1-0.8-1.7-0.8c-0.7,0-1.2,0.3-1.6,0.8S628.4,66.3,628.4,67.4z"/>
	<path d="M637.4,67.4c0-0.9,0.2-1.8,0.7-2.6s1.1-1.5,1.9-2s1.7-0.7,2.8-0.7c1.6,0,2.9,0.5,3.9,1.5s1.5,2.3,1.5,3.9
		c0,1.6-0.5,2.9-1.5,3.9s-2.3,1.5-3.8,1.5c-1,0-1.9-0.2-2.7-0.6s-1.5-1.1-2-1.9S637.4,68.6,637.4,67.4z M640.2,67.6
		c0,1,0.2,1.8,0.7,2.4s1.1,0.8,1.8,0.8s1.3-0.3,1.8-0.8s0.7-1.3,0.7-2.4c0-1-0.2-1.8-0.7-2.3s-1.1-0.8-1.8-0.8s-1.3,0.3-1.8,0.8
		S640.2,66.6,640.2,67.6z"/>
	<path d="M652.8,72.8h-2.7V62.4h2.5v1.5c0.4-0.7,0.8-1.2,1.2-1.4s0.7-0.3,1.2-0.3c0.6,0,1.2,0.2,1.8,0.5l-0.8,2.4
		c-0.5-0.3-0.9-0.4-1.3-0.4c-0.4,0-0.7,0.1-1,0.3s-0.5,0.6-0.6,1.1s-0.2,1.7-0.2,3.5V72.8z"/>
	<path d="M660,65.6l-2.5-0.4c0.3-1,0.8-1.7,1.4-2.2s1.7-0.7,3-0.7c1.2,0,2.1,0.1,2.7,0.4s1,0.7,1.3,1.1s0.4,1.3,0.4,2.5l0,3.2
		c0,0.9,0,1.6,0.1,2s0.3,0.9,0.5,1.4h-2.7c-0.1-0.2-0.2-0.5-0.3-0.8c0-0.2-0.1-0.3-0.1-0.3c-0.5,0.5-1,0.8-1.5,1s-1.1,0.3-1.7,0.3
		c-1.1,0-1.9-0.3-2.5-0.9s-0.9-1.3-0.9-2.2c0-0.6,0.1-1.1,0.4-1.6s0.7-0.8,1.2-1.1s1.2-0.5,2.2-0.6c1.3-0.2,2.2-0.5,2.7-0.7v-0.3
		c0-0.5-0.1-0.9-0.4-1.1s-0.8-0.3-1.5-0.3c-0.5,0-0.9,0.1-1.1,0.3S660.2,65.1,660,65.6z M663.7,67.8c-0.4,0.1-0.9,0.3-1.7,0.4
		s-1.3,0.3-1.5,0.5c-0.4,0.3-0.5,0.6-0.5,1c0,0.4,0.1,0.7,0.4,1s0.7,0.4,1.1,0.4c0.5,0,1-0.2,1.4-0.5c0.3-0.2,0.6-0.5,0.7-0.9
		c0.1-0.2,0.1-0.7,0.1-1.3V67.8z"/>
	<path d="M673.9,62.4v2.2H672v4.2c0,0.8,0,1.3,0.1,1.5s0.1,0.3,0.2,0.3s0.3,0.1,0.5,0.1c0.3,0,0.6-0.1,1.1-0.3l0.2,2.1
		c-0.6,0.3-1.4,0.4-2.2,0.4c-0.5,0-0.9-0.1-1.3-0.2s-0.7-0.4-0.9-0.6s-0.3-0.6-0.4-1.1c-0.1-0.3-0.1-1-0.1-1.9v-4.5H668v-2.2h1.3
		v-2.1l2.8-1.6v3.7H673.9z"/>
	<path d="M675.8,61v-2.5h2.7V61H675.8z M675.8,72.8V62.4h2.7v10.4H675.8z"/>
	<path d="M680.7,67.4c0-0.9,0.2-1.8,0.7-2.6s1.1-1.5,1.9-2s1.7-0.7,2.8-0.7c1.6,0,2.9,0.5,3.9,1.5s1.5,2.3,1.5,3.9
		c0,1.6-0.5,2.9-1.5,3.9s-2.3,1.5-3.8,1.5c-1,0-1.9-0.2-2.7-0.6s-1.5-1.1-2-1.9S680.7,68.6,680.7,67.4z M683.5,67.6
		c0,1,0.2,1.8,0.7,2.4s1.1,0.8,1.8,0.8s1.3-0.3,1.8-0.8s0.7-1.3,0.7-2.4c0-1-0.2-1.8-0.7-2.3s-1.1-0.8-1.8-0.8s-1.3,0.3-1.8,0.8
		S683.5,66.6,683.5,67.6z"/>
	<path d="M703,72.8h-2.7v-5.3c0-1.1-0.1-1.8-0.2-2.2s-0.3-0.6-0.6-0.8s-0.6-0.3-1-0.3c-0.5,0-0.9,0.1-1.3,0.4s-0.6,0.6-0.8,1
		s-0.2,1.2-0.2,2.4v4.7h-2.7V62.4h2.5v1.5c0.9-1.2,2-1.8,3.4-1.8c0.6,0,1.2,0.1,1.7,0.3s0.9,0.5,1.1,0.8s0.4,0.7,0.5,1.2
		s0.2,1,0.2,1.8V72.8z"/>
	<path d="M533,100.7c0,0.8-0.3,1.5-0.8,2s-1.2,0.8-2,0.8c-0.8,0-1.5-0.3-2-0.8s-0.8-1.2-0.8-2s0.3-1.5,0.8-2s1.2-0.8,2-0.8
		c0.8,0,1.5,0.3,2,0.8S533,99.9,533,100.7z"/>
	<path d="M549.7,102.5l2.8,0.9c-0.4,1.6-1.1,2.7-2.1,3.5s-2.3,1.1-3.8,1.1c-1.9,0-3.5-0.6-4.7-1.9s-1.8-3.1-1.8-5.3
		c0-2.4,0.6-4.2,1.8-5.6s2.8-2,4.9-2c1.8,0,3.2,0.5,4.3,1.6c0.7,0.6,1.1,1.5,1.5,2.6l-2.9,0.7c-0.2-0.7-0.5-1.3-1.1-1.8
		s-1.2-0.6-2-0.6c-1.1,0-1.9,0.4-2.6,1.1s-1,2-1,3.7c0,1.8,0.3,3.1,1,3.9s1.5,1.2,2.5,1.2c0.8,0,1.4-0.2,2-0.7
		S549.5,103.6,549.7,102.5z"/>
	<path d="M554.3,102.4c0-0.9,0.2-1.8,0.7-2.6s1.1-1.5,1.9-2s1.7-0.7,2.8-0.7c1.6,0,2.9,0.5,3.9,1.5s1.5,2.3,1.5,3.9
		c0,1.6-0.5,2.9-1.5,3.9s-2.3,1.5-3.8,1.5c-1,0-1.9-0.2-2.7-0.6s-1.5-1.1-2-1.9S554.3,103.6,554.3,102.4z M557.2,102.6
		c0,1,0.2,1.8,0.7,2.4s1.1,0.8,1.8,0.8s1.3-0.3,1.8-0.8s0.7-1.3,0.7-2.4c0-1-0.2-1.8-0.7-2.3s-1.1-0.8-1.8-0.8s-1.3,0.3-1.8,0.8
		S557.2,101.6,557.2,102.6z"/>
	<path d="M576.6,107.8h-2.7v-5.3c0-1.1-0.1-1.8-0.2-2.2s-0.3-0.6-0.6-0.8s-0.6-0.3-1-0.3c-0.5,0-0.9,0.1-1.3,0.4s-0.6,0.6-0.8,1
		s-0.2,1.2-0.2,2.4v4.7h-2.7V97.4h2.5v1.5c0.9-1.2,2-1.8,3.4-1.8c0.6,0,1.2,0.1,1.7,0.3s0.9,0.5,1.1,0.8s0.4,0.7,0.5,1.2
		s0.2,1,0.2,1.8V107.8z"/>
	<path d="M584.2,97.4v2.2h-1.9v4.2c0,0.8,0,1.3,0.1,1.5s0.1,0.3,0.2,0.3s0.3,0.1,0.5,0.1c0.3,0,0.6-0.1,1.1-0.3l0.2,2.1
		c-0.6,0.3-1.4,0.4-2.2,0.4c-0.5,0-0.9-0.1-1.3-0.2s-0.7-0.4-0.9-0.6s-0.3-0.6-0.4-1.1c-0.1-0.3-0.1-1-0.1-1.9v-4.5h-1.3v-2.2h1.3
		v-2.1l2.8-1.6v3.7H584.2z"/>
	<path d="M586.1,96v-2.5h2.7V96H586.1z M586.1,107.8V97.4h2.7v10.4H586.1z"/>
	<path d="M601.1,107.8h-2.7v-5.3c0-1.1-0.1-1.8-0.2-2.2s-0.3-0.6-0.6-0.8s-0.6-0.3-1-0.3c-0.5,0-0.9,0.1-1.3,0.4s-0.6,0.6-0.8,1
		s-0.2,1.2-0.2,2.4v4.7h-2.7V97.4h2.5v1.5c0.9-1.2,2-1.8,3.4-1.8c0.6,0,1.2,0.1,1.7,0.3s0.9,0.5,1.1,0.8s0.4,0.7,0.5,1.2
		s0.2,1,0.2,1.8V107.8z"/>
	<path d="M610.7,107.8v-1.6c-0.4,0.6-0.9,1-1.5,1.3s-1.3,0.5-1.9,0.5c-0.7,0-1.3-0.2-1.9-0.5s-1-0.7-1.2-1.3s-0.4-1.3-0.4-2.3v-6.6
		h2.7v4.8c0,1.5,0.1,2.4,0.2,2.7s0.3,0.6,0.6,0.8s0.6,0.3,1,0.3c0.5,0,0.9-0.1,1.3-0.4s0.6-0.6,0.8-1s0.2-1.3,0.2-2.8v-4.4h2.7v10.4
		H610.7z"/>
	<path d="M615.4,102.4c0-0.9,0.2-1.8,0.7-2.6s1.1-1.5,1.9-2s1.7-0.7,2.8-0.7c1.6,0,2.9,0.5,3.9,1.5s1.5,2.3,1.5,3.9
		c0,1.6-0.5,2.9-1.5,3.9s-2.3,1.5-3.8,1.5c-1,0-1.9-0.2-2.7-0.6s-1.5-1.1-2-1.9S615.4,103.6,615.4,102.4z M618.2,102.6
		c0,1,0.2,1.8,0.7,2.4s1.1,0.8,1.8,0.8s1.3-0.3,1.8-0.8s0.7-1.3,0.7-2.4c0-1-0.2-1.8-0.7-2.3s-1.1-0.8-1.8-0.8s-1.3,0.3-1.8,0.8
		S618.2,101.6,618.2,102.6z"/>
	<path d="M635.1,107.8v-1.6c-0.4,0.6-0.9,1-1.5,1.3s-1.3,0.5-1.9,0.5c-0.7,0-1.3-0.2-1.9-0.5s-1-0.7-1.2-1.3s-0.4-1.3-0.4-2.3v-6.6
		h2.7v4.8c0,1.5,0.1,2.4,0.2,2.7s0.3,0.6,0.6,0.8s0.6,0.3,1,0.3c0.5,0,0.9-0.1,1.3-0.4s0.6-0.6,0.8-1s0.2-1.3,0.2-2.8v-4.4h2.7v10.4
		H635.1z"/>
	<path d="M639.5,104.8l2.8-0.4c0.1,0.5,0.4,0.9,0.7,1.2s0.9,0.4,1.5,0.4c0.7,0,1.2-0.1,1.6-0.4c0.2-0.2,0.4-0.4,0.4-0.7
		c0-0.2-0.1-0.4-0.2-0.5c-0.1-0.1-0.4-0.3-0.9-0.4c-2.2-0.5-3.6-0.9-4.2-1.3c-0.8-0.6-1.2-1.3-1.2-2.3c0-0.9,0.4-1.7,1.1-2.3
		s1.8-0.9,3.3-0.9c1.4,0,2.5,0.2,3.2,0.7s1.2,1.1,1.4,2.1l-2.6,0.5c-0.1-0.4-0.3-0.7-0.6-0.9s-0.8-0.3-1.3-0.3
		c-0.7,0-1.2,0.1-1.6,0.3c-0.2,0.1-0.3,0.3-0.3,0.6c0,0.2,0.1,0.4,0.3,0.5c0.2,0.2,1.1,0.4,2.6,0.8s2.5,0.7,3.1,1.2
		c0.6,0.5,0.9,1.2,0.9,2c0,1-0.4,1.8-1.2,2.5s-2,1-3.5,1c-1.4,0-2.5-0.3-3.4-0.9S639.8,105.8,639.5,104.8z"/>
	<path d="M666.7,107.8h-2.5v-1.5c-0.4,0.6-0.9,1-1.5,1.3s-1.2,0.4-1.7,0.4c-1.2,0-2.2-0.5-3.1-1.4s-1.3-2.3-1.3-4
		c0-1.8,0.4-3.1,1.2-4s1.9-1.4,3.1-1.4c1.2,0,2.2,0.5,3,1.4v-5.2h2.7V107.8z M659.4,102.4c0,1.1,0.2,1.9,0.5,2.4
		c0.4,0.7,1.1,1.1,1.9,1.1c0.6,0,1.2-0.3,1.6-0.8s0.7-1.3,0.7-2.4c0-1.2-0.2-2-0.6-2.6s-1-0.8-1.7-0.8c-0.7,0-1.2,0.3-1.6,0.8
		S659.4,101.3,659.4,102.4z"/>
	<path d="M675.4,104.5l2.7,0.5c-0.4,1-0.9,1.8-1.7,2.3s-1.7,0.8-2.8,0.8c-1.8,0-3.1-0.6-4-1.8c-0.7-0.9-1-2.1-1-3.6
		c0-1.7,0.4-3.1,1.3-4s2-1.5,3.4-1.5c1.5,0,2.8,0.5,3.7,1.5s1.3,2.6,1.3,4.7h-6.9c0,0.8,0.2,1.4,0.7,1.9s1,0.7,1.6,0.7
		c0.4,0,0.8-0.1,1.1-0.4S675.2,105,675.4,104.5z M675.6,101.7c0-0.8-0.2-1.4-0.6-1.8s-0.9-0.6-1.4-0.6c-0.6,0-1.1,0.2-1.5,0.7
		s-0.6,1-0.6,1.8H675.6z"/>
	<path d="M680.5,107.8V93.5h2.7v14.3H680.5z"/>
	<path d="M686.1,96v-2.5h2.7V96H686.1z M686.1,107.8V97.4h2.7v10.4H686.1z"/>
	<path d="M694.5,107.8l-4.2-10.4h2.9l2,5.3l0.6,1.8c0.1-0.4,0.2-0.7,0.3-0.9c0.1-0.3,0.2-0.6,0.3-0.9l2-5.3h2.8l-4.1,10.4H694.5z"/>
	<path d="M708.8,104.5l2.7,0.5c-0.4,1-0.9,1.8-1.7,2.3s-1.7,0.8-2.8,0.8c-1.8,0-3.1-0.6-4-1.8c-0.7-0.9-1-2.1-1-3.6
		c0-1.7,0.4-3.1,1.3-4s2-1.5,3.4-1.5c1.5,0,2.8,0.5,3.7,1.5s1.3,2.6,1.3,4.7h-6.9c0,0.8,0.2,1.4,0.7,1.9s1,0.7,1.6,0.7
		c0.4,0,0.8-0.1,1.1-0.4S708.6,105,708.8,104.5z M708.9,101.7c0-0.8-0.2-1.4-0.6-1.8s-0.9-0.6-1.4-0.6c-0.6,0-1.1,0.2-1.5,0.7
		s-0.6,1-0.6,1.8H708.9z"/>
	<path d="M716.5,107.8h-2.7V97.4h2.5v1.5c0.4-0.7,0.8-1.2,1.2-1.4s0.7-0.3,1.2-0.3c0.6,0,1.2,0.2,1.8,0.5l-0.8,2.4
		c-0.5-0.3-0.9-0.4-1.3-0.4c-0.4,0-0.7,0.1-1,0.3s-0.5,0.6-0.6,1.1s-0.2,1.7-0.2,3.5V107.8z"/>
	<path d="M720.4,97.4h2.9l2.5,7.4l2.4-7.4h2.8l-3.7,10l-0.7,1.8c-0.2,0.6-0.5,1.1-0.7,1.4s-0.5,0.6-0.8,0.8s-0.6,0.4-1,0.5
		s-0.9,0.2-1.4,0.2c-0.5,0-1-0.1-1.6-0.2l-0.2-2.1c0.4,0.1,0.8,0.1,1.2,0.1c0.6,0,1.1-0.2,1.4-0.6s0.5-0.9,0.7-1.4L720.4,97.4z"/>
	<path d="M533,135.7c0,0.8-0.3,1.5-0.8,2s-1.2,0.8-2,0.8c-0.8,0-1.5-0.3-2-0.8s-0.8-1.2-0.8-2s0.3-1.5,0.8-2s1.2-0.8,2-0.8
		c0.8,0,1.5,0.3,2,0.8S533,134.9,533,135.7z"/>
	<path d="M544.2,142.8l-5.1-14.3h3.1l3.6,10.6l3.5-10.6h3.1l-5.1,14.3H544.2z"/>
	<path d="M554.8,135.6l-2.5-0.4c0.3-1,0.8-1.7,1.4-2.2s1.7-0.7,3-0.7c1.2,0,2.1,0.1,2.7,0.4s1,0.7,1.3,1.1s0.4,1.3,0.4,2.5l0,3.2
		c0,0.9,0,1.6,0.1,2s0.3,0.9,0.5,1.4h-2.7c-0.1-0.2-0.2-0.5-0.3-0.8c0-0.2-0.1-0.3-0.1-0.3c-0.5,0.5-1,0.8-1.5,1s-1.1,0.3-1.7,0.3
		c-1.1,0-1.9-0.3-2.5-0.9s-0.9-1.3-0.9-2.2c0-0.6,0.1-1.1,0.4-1.6s0.7-0.8,1.2-1.1s1.2-0.5,2.2-0.6c1.3-0.2,2.2-0.5,2.7-0.7v-0.3
		c0-0.5-0.1-0.9-0.4-1.1s-0.8-0.3-1.5-0.3c-0.5,0-0.9,0.1-1.1,0.3S555,135.1,554.8,135.6z M558.5,137.8c-0.4,0.1-0.9,0.3-1.7,0.4
		s-1.3,0.3-1.5,0.5c-0.4,0.3-0.5,0.6-0.5,1c0,0.4,0.1,0.7,0.4,1s0.7,0.4,1.1,0.4c0.5,0,1-0.2,1.4-0.5c0.3-0.2,0.6-0.5,0.7-0.9
		c0.1-0.2,0.1-0.7,0.1-1.3V137.8z"/>
	<path d="M563.9,142.8v-14.3h2.7v14.3H563.9z"/>
	<path d="M569.5,131v-2.5h2.7v2.5H569.5z M569.5,142.8v-10.4h2.7v10.4H569.5z"/>
	<path d="M584.5,142.8H582v-1.5c-0.4,0.6-0.9,1-1.5,1.3s-1.2,0.4-1.7,0.4c-1.2,0-2.2-0.5-3.1-1.4s-1.3-2.3-1.3-4
		c0-1.8,0.4-3.1,1.2-4s1.9-1.4,3.1-1.4c1.2,0,2.2,0.5,3,1.4v-5.2h2.7V142.8z M577.2,137.4c0,1.1,0.2,1.9,0.5,2.4
		c0.4,0.7,1.1,1.1,1.9,1.1c0.6,0,1.2-0.3,1.6-0.8s0.7-1.3,0.7-2.4c0-1.2-0.2-2-0.6-2.6s-1-0.8-1.7-0.8c-0.7,0-1.2,0.3-1.6,0.8
		S577.2,136.3,577.2,137.4z"/>
	<path d="M589.3,135.6l-2.5-0.4c0.3-1,0.8-1.7,1.4-2.2s1.7-0.7,3-0.7c1.2,0,2.1,0.1,2.7,0.4s1,0.7,1.3,1.1s0.4,1.3,0.4,2.5l0,3.2
		c0,0.9,0,1.6,0.1,2s0.3,0.9,0.5,1.4h-2.7c-0.1-0.2-0.2-0.5-0.3-0.8c0-0.2-0.1-0.3-0.1-0.3c-0.5,0.5-1,0.8-1.5,1s-1.1,0.3-1.7,0.3
		c-1.1,0-1.9-0.3-2.5-0.9s-0.9-1.3-0.9-2.2c0-0.6,0.1-1.1,0.4-1.6s0.7-0.8,1.2-1.1s1.2-0.5,2.2-0.6c1.3-0.2,2.2-0.5,2.7-0.7v-0.3
		c0-0.5-0.1-0.9-0.4-1.1s-0.8-0.3-1.5-0.3c-0.5,0-0.9,0.1-1.1,0.3S589.4,135.1,589.3,135.6z M592.9,137.8c-0.4,0.1-0.9,0.3-1.7,0.4
		s-1.3,0.3-1.5,0.5c-0.4,0.3-0.5,0.6-0.5,1c0,0.4,0.1,0.7,0.4,1s0.7,0.4,1.1,0.4c0.5,0,1-0.2,1.4-0.5c0.3-0.2,0.6-0.5,0.7-0.9
		c0.1-0.2,0.1-0.7,0.1-1.3V137.8z"/>
	<path d="M603.1,132.4v2.2h-1.9v4.2c0,0.8,0,1.3,0.1,1.5s0.1,0.3,0.2,0.3s0.3,0.1,0.5,0.1c0.3,0,0.6-0.1,1.1-0.3l0.2,2.1
		c-0.6,0.3-1.4,0.4-2.2,0.4c-0.5,0-0.9-0.1-1.3-0.2s-0.7-0.4-0.9-0.6s-0.3-0.6-0.4-1.1c-0.1-0.3-0.1-1-0.1-1.9v-4.5h-1.3v-2.2h1.3
		v-2.1l2.8-1.6v3.7H603.1z"/>
	<path d="M605,131v-2.5h2.7v2.5H605z M605,142.8v-10.4h2.7v10.4H605z"/>
	<path d="M609.9,137.4c0-0.9,0.2-1.8,0.7-2.6s1.1-1.5,1.9-2s1.7-0.7,2.8-0.7c1.6,0,2.9,0.5,3.9,1.5s1.5,2.3,1.5,3.9
		c0,1.6-0.5,2.9-1.5,3.9s-2.3,1.5-3.8,1.5c-1,0-1.9-0.2-2.7-0.6s-1.5-1.1-2-1.9S609.9,138.6,609.9,137.4z M612.7,137.6
		c0,1,0.2,1.8,0.7,2.4s1.1,0.8,1.8,0.8s1.3-0.3,1.8-0.8s0.7-1.3,0.7-2.4c0-1-0.2-1.8-0.7-2.3s-1.1-0.8-1.8-0.8s-1.3,0.3-1.8,0.8
		S612.7,136.6,612.7,137.6z"/>
	<path d="M632.2,142.8h-2.7v-5.3c0-1.1-0.1-1.8-0.2-2.2s-0.3-0.6-0.6-0.8s-0.6-0.3-1-0.3c-0.5,0-0.9,0.1-1.3,0.4s-0.6,0.6-0.8,1
		s-0.2,1.2-0.2,2.4v4.7h-2.7v-10.4h2.5v1.5c0.9-1.2,2-1.8,3.4-1.8c0.6,0,1.2,0.1,1.7,0.3s0.9,0.5,1.1,0.8s0.4,0.7,0.5,1.2
		s0.2,1,0.2,1.8V142.8z"/>
	<path d="M649.6,135.5l-2.7,0.5c-0.1-0.5-0.3-0.9-0.6-1.2s-0.7-0.4-1.3-0.4c-0.7,0-1.2,0.2-1.6,0.7s-0.6,1.3-0.6,2.4
		c0,1.2,0.2,2.1,0.6,2.6s1,0.8,1.7,0.8c0.5,0,0.9-0.1,1.3-0.4s0.6-0.8,0.7-1.5l2.7,0.5c-0.3,1.2-0.8,2.2-1.6,2.8s-1.9,0.9-3.2,0.9
		c-1.5,0-2.7-0.5-3.6-1.4s-1.4-2.3-1.4-4c0-1.7,0.5-3,1.4-4s2.1-1.4,3.7-1.4c1.3,0,2.3,0.3,3,0.8S649.3,134.4,649.6,135.5z"/>
	<path d="M654.4,128.5v5.3c0.9-1,1.9-1.6,3.2-1.6c0.6,0,1.2,0.1,1.7,0.4s0.9,0.5,1.1,0.9s0.4,0.8,0.5,1.2s0.1,1.1,0.1,2.1v6.1h-2.7
		v-5.5c0-1.1-0.1-1.8-0.2-2.1s-0.3-0.5-0.6-0.7s-0.6-0.3-1-0.3c-0.5,0-0.9,0.1-1.2,0.3s-0.6,0.6-0.8,1s-0.2,1.1-0.2,2v5.2h-2.7
		v-14.3H654.4z"/>
	<path d="M669.9,139.5l2.7,0.5c-0.4,1-0.9,1.8-1.7,2.3s-1.7,0.8-2.8,0.8c-1.8,0-3.1-0.6-4-1.8c-0.7-0.9-1-2.1-1-3.6
		c0-1.7,0.4-3.1,1.3-4s2-1.5,3.4-1.5c1.5,0,2.8,0.5,3.7,1.5s1.3,2.6,1.3,4.7h-6.9c0,0.8,0.2,1.4,0.7,1.9s1,0.7,1.6,0.7
		c0.4,0,0.8-0.1,1.1-0.4S669.8,140,669.9,139.5z M670.1,136.7c0-0.8-0.2-1.4-0.6-1.8s-0.9-0.6-1.4-0.6c-0.6,0-1.1,0.2-1.5,0.7
		s-0.6,1-0.6,1.8H670.1z"/>
	<path d="M684.1,135.5l-2.7,0.5c-0.1-0.5-0.3-0.9-0.6-1.2s-0.7-0.4-1.3-0.4c-0.7,0-1.2,0.2-1.6,0.7s-0.6,1.3-0.6,2.4
		c0,1.2,0.2,2.1,0.6,2.6s1,0.8,1.7,0.8c0.5,0,0.9-0.1,1.3-0.4s0.6-0.8,0.7-1.5l2.7,0.5c-0.3,1.2-0.8,2.2-1.6,2.8s-1.9,0.9-3.2,0.9
		c-1.5,0-2.7-0.5-3.6-1.4s-1.4-2.3-1.4-4c0-1.7,0.5-3,1.4-4s2.1-1.4,3.7-1.4c1.3,0,2.3,0.3,3,0.8S683.7,134.4,684.1,135.5z"/>
	<path d="M686,142.8v-14.3h2.7v7.6l3.2-3.7h3.4l-3.5,3.8l3.8,6.6h-3l-2.6-4.7l-1.3,1.3v3.3H686z"/>
	<path d="M696.3,139.8l2.8-0.4c0.1,0.5,0.4,0.9,0.7,1.2s0.9,0.4,1.5,0.4c0.7,0,1.2-0.1,1.6-0.4c0.2-0.2,0.4-0.4,0.4-0.7
		c0-0.2-0.1-0.4-0.2-0.5c-0.1-0.1-0.4-0.3-0.9-0.4c-2.2-0.5-3.6-0.9-4.2-1.3c-0.8-0.6-1.2-1.3-1.2-2.3c0-0.9,0.4-1.7,1.1-2.3
		s1.8-0.9,3.3-0.9c1.4,0,2.5,0.2,3.2,0.7s1.2,1.1,1.4,2.1l-2.6,0.5c-0.1-0.4-0.3-0.7-0.6-0.9s-0.8-0.3-1.3-0.3
		c-0.7,0-1.2,0.1-1.6,0.3c-0.2,0.1-0.3,0.3-0.3,0.6c0,0.2,0.1,0.4,0.3,0.5c0.2,0.2,1.1,0.4,2.6,0.8s2.5,0.7,3.1,1.2
		c0.6,0.5,0.9,1.2,0.9,2c0,1-0.4,1.8-1.2,2.5s-2,1-3.5,1c-1.4,0-2.5-0.3-3.4-0.9S696.6,140.8,696.3,139.8z"/>
</g>
</svg>
