<?xml version="1.0" encoding="utf-8"?>
<!-- Generator: Adobe Illustrator 17.1.0, SVG Export Plug-In . SVG Version: 6.00 Build 0)  -->
<!DOCTYPE svg PUBLIC "-//W3C//DTD SVG 1.1//EN" "http://www.w3.org/Graphics/SVG/1.1/DTD/svg11.dtd">
<svg version="1.1" id="Layer_1" xmlns="http://www.w3.org/2000/svg" xmlns:xlink="http://www.w3.org/1999/xlink" x="0px" y="0px"
	 viewBox="0 0 775 445" style="enable-background:new 0 0 775 445;" xml:space="preserve">
<rect x="231.5" y="63.5" style="fill:none;stroke:#000000;stroke-miterlimit:10;" width="167" height="191"/>
<line style="fill:none;stroke:#C6C4C4;stroke-width:7;stroke-miterlimit:10;" x1="254" y1="112.5" x2="340" y2="112.5"/>
<line style="fill:none;stroke:#C6C4C4;stroke-width:7;stroke-miterlimit:10;" x1="254" y1="154.5" x2="340" y2="154.5"/>
<line style="fill:none;stroke:#C6C4C4;stroke-width:7;stroke-miterlimit:10;" x1="254" y1="132.5" x2="340" y2="132.5"/>
<g>
	<path d="M255.2,83.2h2.5v1.4c0.9-1.1,2-1.7,3.2-1.7c0.7,0,1.2,0.1,1.7,0.4s0.9,0.7,1.2,1.2c0.5-0.6,0.9-1,1.5-1.2s1.1-0.4,1.7-0.4
		c0.8,0,1.4,0.2,1.9,0.5s0.9,0.8,1.2,1.4c0.2,0.4,0.3,1.2,0.3,2.1v6.6h-2.7v-5.9c0-1-0.1-1.7-0.3-2c-0.3-0.4-0.6-0.6-1.2-0.6
		c-0.4,0-0.7,0.1-1.1,0.4s-0.6,0.6-0.7,1s-0.2,1.2-0.2,2.1v5h-2.7v-5.7c0-1,0-1.7-0.1-2s-0.2-0.5-0.5-0.7s-0.5-0.2-0.8-0.2
		c-0.4,0-0.8,0.1-1.1,0.3s-0.6,0.6-0.7,1s-0.2,1.1-0.2,2.1v5h-2.7V83.2z"/>
	<path d="M279.2,90.3l2.7,0.5c-0.4,1-0.9,1.8-1.7,2.3s-1.7,0.8-2.8,0.8c-1.8,0-3.1-0.6-4-1.8c-0.7-0.9-1-2.1-1-3.6
		c0-1.7,0.4-3.1,1.3-4s2-1.5,3.4-1.5c1.5,0,2.8,0.5,3.7,1.5s1.3,2.6,1.3,4.7h-6.9c0,0.8,0.2,1.4,0.7,1.9s1,0.7,1.6,0.7
		c0.4,0,0.8-0.1,1.1-0.4S279.1,90.8,279.2,90.3z M279.4,87.5c0-0.8-0.2-1.4-0.6-1.8s-0.9-0.6-1.4-0.6c-0.6,0-1.1,0.2-1.5,0.7
		s-0.6,1-0.6,1.8H279.4z"/>
	<path d="M289.1,83.2v2.2h-1.9v4.2c0,0.8,0,1.3,0.1,1.5s0.1,0.3,0.2,0.3s0.3,0.1,0.5,0.1c0.3,0,0.6-0.1,1.1-0.3l0.2,2.1
		c-0.6,0.3-1.4,0.4-2.2,0.4c-0.5,0-0.9-0.1-1.3-0.2s-0.7-0.4-0.9-0.6s-0.3-0.6-0.4-1.1c-0.1-0.3-0.1-1-0.1-1.9v-4.5h-1.3v-2.2h1.3
		v-2.1l2.8-1.6v3.7H289.1z"/>
	<path d="M293.1,86.4l-2.5-0.4c0.3-1,0.8-1.7,1.4-2.2s1.7-0.7,3-0.7c1.2,0,2.1,0.1,2.7,0.4s1,0.7,1.3,1.1s0.4,1.3,0.4,2.5l0,3.2
		c0,0.9,0,1.6,0.1,2s0.3,0.9,0.5,1.4h-2.7c-0.1-0.2-0.2-0.5-0.3-0.8c0-0.2-0.1-0.3-0.1-0.3c-0.5,0.5-1,0.8-1.5,1s-1.1,0.3-1.7,0.3
		c-1.1,0-1.9-0.3-2.5-0.9s-0.9-1.3-0.9-2.2c0-0.6,0.1-1.1,0.4-1.6s0.7-0.8,1.2-1.1s1.2-0.5,2.2-0.6c1.3-0.2,2.2-0.5,2.7-0.7v-0.3
		c0-0.5-0.1-0.9-0.4-1.1s-0.8-0.3-1.5-0.3c-0.5,0-0.9,0.1-1.1,0.3S293.2,85.9,293.1,86.4z M296.7,88.6c-0.4,0.1-0.9,0.3-1.7,0.4
		s-1.3,0.3-1.5,0.5c-0.4,0.3-0.5,0.6-0.5,1c0,0.4,0.1,0.7,0.4,1s0.7,0.4,1.1,0.4c0.5,0,1-0.2,1.4-0.5c0.3-0.2,0.6-0.5,0.7-0.9
		c0.1-0.2,0.1-0.7,0.1-1.3V88.6z"/>
	<path d="M311.6,93.6h-2.5v-1.5c-0.4,0.6-0.9,1-1.5,1.3s-1.2,0.4-1.7,0.4c-1.2,0-2.2-0.5-3.1-1.4s-1.3-2.3-1.3-4
		c0-1.8,0.4-3.1,1.2-4s1.9-1.4,3.1-1.4c1.2,0,2.2,0.5,3,1.4v-5.2h2.7V93.6z M304.3,88.2c0,1.1,0.2,1.9,0.5,2.4
		c0.4,0.7,1.1,1.1,1.9,1.1c0.6,0,1.2-0.3,1.6-0.8s0.7-1.3,0.7-2.4c0-1.2-0.2-2-0.6-2.6s-1-0.8-1.7-0.8c-0.7,0-1.2,0.3-1.6,0.8
		S304.3,87.2,304.3,88.2z"/>
	<path d="M316.4,86.4l-2.5-0.4c0.3-1,0.8-1.7,1.4-2.2s1.7-0.7,3-0.7c1.2,0,2.1,0.1,2.7,0.4s1,0.7,1.3,1.1s0.4,1.3,0.4,2.5l0,3.2
		c0,0.9,0,1.6,0.1,2s0.3,0.9,0.5,1.4h-2.7c-0.1-0.2-0.2-0.5-0.3-0.8c0-0.2-0.1-0.3-0.1-0.3c-0.5,0.5-1,0.8-1.5,1s-1.1,0.3-1.7,0.3
		c-1.1,0-1.9-0.3-2.5-0.9s-0.9-1.3-0.9-2.2c0-0.6,0.1-1.1,0.4-1.6s0.7-0.8,1.2-1.1s1.2-0.5,2.2-0.6c1.3-0.2,2.2-0.5,2.7-0.7v-0.3
		c0-0.5-0.1-0.9-0.4-1.1s-0.8-0.3-1.5-0.3c-0.5,0-0.9,0.1-1.1,0.3S316.6,85.9,316.4,86.4z M320.1,88.6c-0.4,0.1-0.9,0.3-1.7,0.4
		s-1.3,0.3-1.5,0.5c-0.4,0.3-0.5,0.6-0.5,1c0,0.4,0.1,0.7,0.4,1s0.7,0.4,1.1,0.4c0.5,0,1-0.2,1.4-0.5c0.3-0.2,0.6-0.5,0.7-0.9
		c0.1-0.2,0.1-0.7,0.1-1.3V88.6z"/>
	<path d="M330.2,83.2v2.2h-1.9v4.2c0,0.8,0,1.3,0.1,1.5s0.1,0.3,0.2,0.3s0.3,0.1,0.5,0.1c0.3,0,0.6-0.1,1.1-0.3l0.2,2.1
		c-0.6,0.3-1.4,0.4-2.2,0.4c-0.5,0-0.9-0.1-1.3-0.2s-0.7-0.4-0.9-0.6s-0.3-0.6-0.4-1.1c-0.1-0.3-0.1-1-0.1-1.9v-4.5h-1.3v-2.2h1.3
		v-2.1l2.8-1.6v3.7H330.2z"/>
	<path d="M334.2,86.4l-2.5-0.4c0.3-1,0.8-1.7,1.4-2.2s1.7-0.7,3-0.7c1.2,0,2.1,0.1,2.7,0.4s1,0.7,1.3,1.1s0.4,1.3,0.4,2.5l0,3.2
		c0,0.9,0,1.6,0.1,2s0.3,0.9,0.5,1.4h-2.7c-0.1-0.2-0.2-0.5-0.3-0.8c0-0.2-0.1-0.3-0.1-0.3c-0.5,0.5-1,0.8-1.5,1s-1.1,0.3-1.7,0.3
		c-1.1,0-1.9-0.3-2.5-0.9s-0.9-1.3-0.9-2.2c0-0.6,0.1-1.1,0.4-1.6s0.7-0.8,1.2-1.1s1.2-0.5,2.2-0.6c1.3-0.2,2.2-0.5,2.7-0.7v-0.3
		c0-0.5-0.1-0.9-0.4-1.1s-0.8-0.3-1.5-0.3c-0.5,0-0.9,0.1-1.1,0.3S334.3,85.9,334.2,86.4z M337.8,88.6c-0.4,0.1-0.9,0.3-1.7,0.4
		s-1.3,0.3-1.5,0.5c-0.4,0.3-0.5,0.6-0.5,1c0,0.4,0.1,0.7,0.4,1s0.7,0.4,1.1,0.4c0.5,0,1-0.2,1.4-0.5c0.3-0.2,0.6-0.5,0.7-0.9
		c0.1-0.2,0.1-0.7,0.1-1.3V88.6z"/>
</g>
<rect x="423.5" y="63.5" style="fill:none;stroke:#000000;stroke-miterlimit:10;" width="167" height="191"/>
<line style="fill:none;stroke:#C6C4C4;stroke-width:7;stroke-miterlimit:10;" x1="434" y1="168.5" x2="576" y2="168.5"/>
<line style="fill:none;stroke:#C6C4C4;stroke-width:7;stroke-miterlimit:10;" x1="434" y1="123.5" x2="576" y2="123.5"/>
<line style="fill:none;stroke:#C6C4C4;stroke-width:7;stroke-miterlimit:10;" x1="434" y1="146.5" x2="576" y2="146.5"/>
<line style="fill:none;stroke:#C6C4C4;stroke-width:7;stroke-miterlimit:10;" x1="434" y1="101.5" x2="576" y2="101.5"/>
<line style="fill:none;stroke:#C6C4C4;stroke-width:7;stroke-miterlimit:10;" x1="434" y1="190.5" x2="576" y2="190.5"/>
<line style="fill:none;stroke:#C6C4C4;stroke-width:7;stroke-miterlimit:10;" x1="434" y1="212.5" x2="576" y2="212.5"/>
<line style="fill:none;stroke:#C6C4C4;stroke-width:7;stroke-miterlimit:10;" x1="434" y1="234.5" x2="576" y2="234.5"/>
<rect x="611.5" y="202.5" style="fill:none;stroke:#000000;stroke-miterlimit:10;" width="64" height="73"/>
<line style="fill:none;stroke:#C6C4C4;stroke-width:3;stroke-miterlimit:10;" x1="616" y1="242.5" x2="670" y2="242.5"/>
<line style="fill:none;stroke:#C6C4C4;stroke-width:3;stroke-miterlimit:10;" x1="616" y1="225.5" x2="670" y2="225.5"/>
<line style="fill:none;stroke:#C6C4C4;stroke-width:3;stroke-miterlimit:10;" x1="616" y1="234.5" x2="670" y2="234.5"/>
<line style="fill:none;stroke:#C6C4C4;stroke-width:3;stroke-miterlimit:10;" x1="616" y1="217.5" x2="670" y2="217.5"/>
<line style="fill:none;stroke:#C6C4C4;stroke-width:3;stroke-miterlimit:10;" x1="616" y1="251.5" x2="670" y2="251.5"/>
<line style="fill:none;stroke:#C6C4C4;stroke-width:3;stroke-miterlimit:10;" x1="616" y1="259.5" x2="670" y2="259.5"/>
<line style="fill:none;stroke:#C6C4C4;stroke-width:3;stroke-miterlimit:10;" x1="616" y1="267.5" x2="670" y2="267.5"/>
<rect x="691.5" y="202.5" style="fill:none;stroke:#000000;stroke-miterlimit:10;" width="64" height="73"/>
<line style="fill:none;stroke:#C6C4C4;stroke-width:3;stroke-miterlimit:10;" x1="696" y1="242.5" x2="750" y2="242.5"/>
<line style="fill:none;stroke:#C6C4C4;stroke-width:3;stroke-miterlimit:10;" x1="696" y1="225.5" x2="750" y2="225.5"/>
<line style="fill:none;stroke:#C6C4C4;stroke-width:3;stroke-miterlimit:10;" x1="696" y1="234.5" x2="750" y2="234.5"/>
<line style="fill:none;stroke:#C6C4C4;stroke-width:3;stroke-miterlimit:10;" x1="696" y1="217.5" x2="750" y2="217.5"/>
<line style="fill:none;stroke:#C6C4C4;stroke-width:3;stroke-miterlimit:10;" x1="696" y1="251.5" x2="750" y2="251.5"/>
<line style="fill:none;stroke:#C6C4C4;stroke-width:3;stroke-miterlimit:10;" x1="696" y1="259.5" x2="750" y2="259.5"/>
<line style="fill:none;stroke:#C6C4C4;stroke-width:3;stroke-miterlimit:10;" x1="696" y1="267.5" x2="750" y2="267.5"/>
<rect x="611.5" y="293.5" style="fill:none;stroke:#000000;stroke-miterlimit:10;" width="64" height="73"/>
<line style="fill:none;stroke:#C6C4C4;stroke-width:3;stroke-miterlimit:10;" x1="616" y1="333.5" x2="670" y2="333.5"/>
<line style="fill:none;stroke:#C6C4C4;stroke-width:3;stroke-miterlimit:10;" x1="616" y1="316.5" x2="670" y2="316.5"/>
<line style="fill:none;stroke:#C6C4C4;stroke-width:3;stroke-miterlimit:10;" x1="616" y1="325.5" x2="670" y2="325.5"/>
<line style="fill:none;stroke:#C6C4C4;stroke-width:3;stroke-miterlimit:10;" x1="616" y1="308.5" x2="670" y2="308.5"/>
<line style="fill:none;stroke:#C6C4C4;stroke-width:3;stroke-miterlimit:10;" x1="616" y1="342.5" x2="670" y2="342.5"/>
<line style="fill:none;stroke:#C6C4C4;stroke-width:3;stroke-miterlimit:10;" x1="616" y1="350.5" x2="670" y2="350.5"/>
<line style="fill:none;stroke:#C6C4C4;stroke-width:3;stroke-miterlimit:10;" x1="616" y1="358.5" x2="670" y2="358.5"/>
<rect x="691.5" y="293.5" style="fill:none;stroke:#000000;stroke-miterlimit:10;" width="64" height="73"/>
<line style="fill:none;stroke:#C6C4C4;stroke-width:3;stroke-miterlimit:10;" x1="696" y1="333.5" x2="750" y2="333.5"/>
<line style="fill:none;stroke:#C6C4C4;stroke-width:3;stroke-miterlimit:10;" x1="696" y1="316.5" x2="750" y2="316.5"/>
<line style="fill:none;stroke:#C6C4C4;stroke-width:3;stroke-miterlimit:10;" x1="696" y1="325.5" x2="750" y2="325.5"/>
<line style="fill:none;stroke:#C6C4C4;stroke-width:3;stroke-miterlimit:10;" x1="696" y1="308.5" x2="750" y2="308.5"/>
<line style="fill:none;stroke:#C6C4C4;stroke-width:3;stroke-miterlimit:10;" x1="696" y1="342.5" x2="750" y2="342.5"/>
<line style="fill:none;stroke:#C6C4C4;stroke-width:3;stroke-miterlimit:10;" x1="696" y1="350.5" x2="750" y2="350.5"/>
<line style="fill:none;stroke:#C6C4C4;stroke-width:3;stroke-miterlimit:10;" x1="696" y1="358.5" x2="750" y2="358.5"/>
<rect x="611.5" y="112.5" style="fill:none;stroke:#000000;stroke-miterlimit:10;" width="64" height="73"/>
<line style="fill:none;stroke:#C6C4C4;stroke-width:3;stroke-miterlimit:10;" x1="616" y1="152.5" x2="670" y2="152.5"/>
<line style="fill:none;stroke:#C6C4C4;stroke-width:3;stroke-miterlimit:10;" x1="616" y1="135.5" x2="670" y2="135.5"/>
<line style="fill:none;stroke:#C6C4C4;stroke-width:3;stroke-miterlimit:10;" x1="616" y1="144.5" x2="670" y2="144.5"/>
<line style="fill:none;stroke:#C6C4C4;stroke-width:3;stroke-miterlimit:10;" x1="616" y1="127.5" x2="670" y2="127.5"/>
<line style="fill:none;stroke:#C6C4C4;stroke-width:3;stroke-miterlimit:10;" x1="616" y1="161.5" x2="670" y2="161.5"/>
<line style="fill:none;stroke:#C6C4C4;stroke-width:3;stroke-miterlimit:10;" x1="616" y1="169.5" x2="670" y2="169.5"/>
<line style="fill:none;stroke:#C6C4C4;stroke-width:3;stroke-miterlimit:10;" x1="616" y1="177.5" x2="670" y2="177.5"/>
<rect x="691.5" y="112.5" style="fill:none;stroke:#000000;stroke-miterlimit:10;" width="64" height="73"/>
<line style="fill:none;stroke:#C6C4C4;stroke-width:3;stroke-miterlimit:10;" x1="696" y1="152.5" x2="750" y2="152.5"/>
<line style="fill:none;stroke:#C6C4C4;stroke-width:3;stroke-miterlimit:10;" x1="696" y1="135.5" x2="750" y2="135.5"/>
<line style="fill:none;stroke:#C6C4C4;stroke-width:3;stroke-miterlimit:10;" x1="696" y1="144.5" x2="750" y2="144.5"/>
<line style="fill:none;stroke:#C6C4C4;stroke-width:3;stroke-miterlimit:10;" x1="696" y1="127.5" x2="750" y2="127.5"/>
<line style="fill:none;stroke:#C6C4C4;stroke-width:3;stroke-miterlimit:10;" x1="696" y1="161.5" x2="750" y2="161.5"/>
<line style="fill:none;stroke:#C6C4C4;stroke-width:3;stroke-miterlimit:10;" x1="696" y1="169.5" x2="750" y2="169.5"/>
<line style="fill:none;stroke:#C6C4C4;stroke-width:3;stroke-miterlimit:10;" x1="696" y1="177.5" x2="750" y2="177.5"/>
<g>
	<rect x="23.5" y="107.5" style="fill:none;stroke:#000000;stroke-miterlimit:10;" width="74" height="85"/>
	<line style="fill:none;stroke:#C6C4C4;stroke-width:3;stroke-miterlimit:10;" x1="34" y1="129.5" x2="72" y2="129.5"/>
	<line style="fill:none;stroke:#C6C4C4;stroke-width:3;stroke-miterlimit:10;" x1="34" y1="148.5" x2="72" y2="148.5"/>
	<line style="fill:none;stroke:#C6C4C4;stroke-width:3;stroke-miterlimit:10;" x1="34" y1="138.5" x2="72" y2="138.5"/>
	<g>
		<path d="M34.1,116.3h1.1v0.6c0.4-0.5,0.9-0.7,1.4-0.7c0.3,0,0.6,0.1,0.8,0.2c0.2,0.1,0.4,0.3,0.5,0.6c0.2-0.2,0.4-0.4,0.7-0.6
			s0.5-0.2,0.8-0.2c0.3,0,0.6,0.1,0.9,0.2s0.4,0.3,0.5,0.6c0.1,0.2,0.1,0.5,0.1,1v3h-1.2v-2.6c0-0.5,0-0.8-0.1-0.9
			c-0.1-0.2-0.3-0.3-0.5-0.3c-0.2,0-0.3,0.1-0.5,0.2c-0.2,0.1-0.3,0.3-0.3,0.5c-0.1,0.2-0.1,0.5-0.1,1v2.2h-1.2v-2.5
			c0-0.5,0-0.7-0.1-0.9c0-0.1-0.1-0.2-0.2-0.3c-0.1-0.1-0.2-0.1-0.4-0.1c-0.2,0-0.4,0.1-0.5,0.2c-0.2,0.1-0.3,0.2-0.3,0.4
			s-0.1,0.5-0.1,1v2.2h-1.2V116.3z"/>
		<path d="M44.8,119.5l1.2,0.2c-0.2,0.4-0.4,0.8-0.7,1S44.5,121,44,121c-0.8,0-1.4-0.3-1.8-0.8c-0.3-0.4-0.5-1-0.5-1.6
			c0-0.8,0.2-1.4,0.6-1.8c0.4-0.4,0.9-0.7,1.5-0.7c0.7,0,1.2,0.2,1.6,0.7c0.4,0.5,0.6,1.2,0.6,2.1H43c0,0.4,0.1,0.6,0.3,0.8
			c0.2,0.2,0.4,0.3,0.7,0.3c0.2,0,0.4-0.1,0.5-0.2S44.7,119.7,44.8,119.5z M44.9,118.2c0-0.4-0.1-0.6-0.3-0.8s-0.4-0.3-0.6-0.3
			c-0.3,0-0.5,0.1-0.7,0.3c-0.2,0.2-0.3,0.5-0.3,0.8H44.9z"/>
		<path d="M49.2,116.3v1h-0.8v1.9c0,0.4,0,0.6,0,0.7c0,0.1,0.1,0.1,0.1,0.2c0.1,0,0.1,0.1,0.2,0.1c0.1,0,0.3,0,0.5-0.1l0.1,1
			c-0.3,0.1-0.6,0.2-1,0.2c-0.2,0-0.4,0-0.6-0.1s-0.3-0.2-0.4-0.3c-0.1-0.1-0.1-0.3-0.2-0.5c0-0.1,0-0.4,0-0.9v-2h-0.6v-1h0.6v-0.9
			l1.2-0.7v1.6H49.2z"/>
		<path d="M51,117.7l-1.1-0.2c0.1-0.4,0.3-0.8,0.6-1c0.3-0.2,0.8-0.3,1.4-0.3c0.5,0,1,0.1,1.2,0.2c0.3,0.1,0.5,0.3,0.6,0.5
			s0.2,0.6,0.2,1.1l0,1.4c0,0.4,0,0.7,0.1,0.9c0,0.2,0.1,0.4,0.2,0.6h-1.2c0-0.1-0.1-0.2-0.1-0.4c0-0.1,0-0.1,0-0.1
			c-0.2,0.2-0.4,0.4-0.7,0.5s-0.5,0.2-0.8,0.2c-0.5,0-0.9-0.1-1.1-0.4c-0.3-0.3-0.4-0.6-0.4-1c0-0.3,0.1-0.5,0.2-0.7
			c0.1-0.2,0.3-0.4,0.5-0.5c0.2-0.1,0.5-0.2,1-0.3c0.6-0.1,1-0.2,1.2-0.3v-0.1c0-0.2-0.1-0.4-0.2-0.5c-0.1-0.1-0.3-0.2-0.7-0.2
			c-0.2,0-0.4,0-0.5,0.1S51,117.5,51,117.7z M52.6,118.7c-0.2,0.1-0.4,0.1-0.7,0.2c-0.3,0.1-0.6,0.1-0.7,0.2
			c-0.2,0.1-0.2,0.3-0.2,0.4c0,0.2,0.1,0.3,0.2,0.4s0.3,0.2,0.5,0.2c0.2,0,0.4-0.1,0.6-0.2c0.1-0.1,0.2-0.2,0.3-0.4
			c0-0.1,0-0.3,0-0.6V118.7z"/>
		<path d="M59.2,120.9h-1.1v-0.7c-0.2,0.3-0.4,0.5-0.7,0.6c-0.3,0.1-0.5,0.2-0.8,0.2c-0.5,0-1-0.2-1.4-0.6s-0.6-1-0.6-1.8
			c0-0.8,0.2-1.4,0.6-1.8c0.4-0.4,0.8-0.6,1.4-0.6c0.5,0,1,0.2,1.3,0.6v-2.3h1.2V120.9z M56,118.5c0,0.5,0.1,0.9,0.2,1.1
			c0.2,0.3,0.5,0.5,0.8,0.5c0.3,0,0.5-0.1,0.7-0.4c0.2-0.2,0.3-0.6,0.3-1.1c0-0.5-0.1-0.9-0.3-1.1c-0.2-0.2-0.4-0.4-0.7-0.4
			c-0.3,0-0.5,0.1-0.7,0.3C56.1,117.7,56,118.1,56,118.5z"/>
		<path d="M61.4,117.7l-1.1-0.2c0.1-0.4,0.3-0.8,0.6-1c0.3-0.2,0.8-0.3,1.4-0.3c0.5,0,1,0.1,1.2,0.2c0.3,0.1,0.5,0.3,0.6,0.5
			s0.2,0.6,0.2,1.1l0,1.4c0,0.4,0,0.7,0.1,0.9c0,0.2,0.1,0.4,0.2,0.6h-1.2c0-0.1-0.1-0.2-0.1-0.4c0-0.1,0-0.1,0-0.1
			c-0.2,0.2-0.4,0.4-0.7,0.5s-0.5,0.2-0.8,0.2c-0.5,0-0.9-0.1-1.1-0.4c-0.3-0.3-0.4-0.6-0.4-1c0-0.3,0.1-0.5,0.2-0.7
			c0.1-0.2,0.3-0.4,0.5-0.5c0.2-0.1,0.5-0.2,1-0.3c0.6-0.1,1-0.2,1.2-0.3v-0.1c0-0.2-0.1-0.4-0.2-0.5c-0.1-0.1-0.3-0.2-0.7-0.2
			c-0.2,0-0.4,0-0.5,0.1S61.4,117.5,61.4,117.7z M63,118.7c-0.2,0.1-0.4,0.1-0.7,0.2c-0.3,0.1-0.6,0.1-0.7,0.2
			c-0.2,0.1-0.2,0.3-0.2,0.4c0,0.2,0.1,0.3,0.2,0.4s0.3,0.2,0.5,0.2c0.2,0,0.4-0.1,0.6-0.2c0.1-0.1,0.2-0.2,0.3-0.4
			c0-0.1,0-0.3,0-0.6V118.7z"/>
		<path d="M67.5,116.3v1h-0.8v1.9c0,0.4,0,0.6,0,0.7c0,0.1,0.1,0.1,0.1,0.2c0.1,0,0.1,0.1,0.2,0.1c0.1,0,0.3,0,0.5-0.1l0.1,1
			c-0.3,0.1-0.6,0.2-1,0.2c-0.2,0-0.4,0-0.6-0.1s-0.3-0.2-0.4-0.3c-0.1-0.1-0.1-0.3-0.2-0.5c0-0.1,0-0.4,0-0.9v-2h-0.6v-1h0.6v-0.9
			l1.2-0.7v1.6H67.5z"/>
		<path d="M69.3,117.7l-1.1-0.2c0.1-0.4,0.3-0.8,0.6-1c0.3-0.2,0.8-0.3,1.4-0.3c0.5,0,1,0.1,1.2,0.2c0.3,0.1,0.5,0.3,0.6,0.5
			s0.2,0.6,0.2,1.1l0,1.4c0,0.4,0,0.7,0.1,0.9c0,0.2,0.1,0.4,0.2,0.6h-1.2c0-0.1-0.1-0.2-0.1-0.4c0-0.1,0-0.1,0-0.1
			c-0.2,0.2-0.4,0.4-0.7,0.5s-0.5,0.2-0.8,0.2c-0.5,0-0.9-0.1-1.1-0.4c-0.3-0.3-0.4-0.6-0.4-1c0-0.3,0.1-0.5,0.2-0.7
			c0.1-0.2,0.3-0.4,0.5-0.5c0.2-0.1,0.5-0.2,1-0.3c0.6-0.1,1-0.2,1.2-0.3v-0.1c0-0.2-0.1-0.4-0.2-0.5c-0.1-0.1-0.3-0.2-0.7-0.2
			c-0.2,0-0.4,0-0.5,0.1S69.4,117.5,69.3,117.7z M70.9,118.7c-0.2,0.1-0.4,0.1-0.7,0.2c-0.3,0.1-0.6,0.1-0.7,0.2
			c-0.2,0.1-0.2,0.3-0.2,0.4c0,0.2,0.1,0.3,0.2,0.4s0.3,0.2,0.5,0.2c0.2,0,0.4-0.1,0.6-0.2c0.1-0.1,0.2-0.2,0.3-0.4
			c0-0.1,0-0.3,0-0.6V118.7z"/>
	</g>
</g>
<g>
	<rect x="116.5" y="107.5" style="fill:none;stroke:#000000;stroke-miterlimit:10;" width="74" height="85"/>
	<line style="fill:none;stroke:#C6C4C4;stroke-width:3;stroke-miterlimit:10;" x1="127" y1="129.5" x2="165" y2="129.5"/>
	<line style="fill:none;stroke:#C6C4C4;stroke-width:3;stroke-miterlimit:10;" x1="127" y1="148.5" x2="165" y2="148.5"/>
	<line style="fill:none;stroke:#C6C4C4;stroke-width:3;stroke-miterlimit:10;" x1="127" y1="138.5" x2="165" y2="138.5"/>
	<g>
		<path d="M127.1,116.3h1.1v0.6c0.4-0.5,0.9-0.7,1.4-0.7c0.3,0,0.6,0.1,0.8,0.2c0.2,0.1,0.4,0.3,0.5,0.6c0.2-0.2,0.4-0.4,0.7-0.6
			s0.5-0.2,0.8-0.2c0.3,0,0.6,0.1,0.9,0.2s0.4,0.3,0.5,0.6c0.1,0.2,0.1,0.5,0.1,1v3h-1.2v-2.6c0-0.5,0-0.8-0.1-0.9
			c-0.1-0.2-0.3-0.3-0.5-0.3c-0.2,0-0.3,0.1-0.5,0.2c-0.2,0.1-0.3,0.3-0.3,0.5c-0.1,0.2-0.1,0.5-0.1,1v2.2h-1.2v-2.5
			c0-0.5,0-0.7-0.1-0.9c0-0.1-0.1-0.2-0.2-0.3c-0.1-0.1-0.2-0.1-0.4-0.1c-0.2,0-0.4,0.1-0.5,0.2c-0.2,0.1-0.3,0.2-0.3,0.4
			s-0.1,0.5-0.1,1v2.2h-1.2V116.3z"/>
		<path d="M137.8,119.5l1.2,0.2c-0.2,0.4-0.4,0.8-0.7,1s-0.8,0.4-1.3,0.4c-0.8,0-1.4-0.3-1.8-0.8c-0.3-0.4-0.5-1-0.5-1.6
			c0-0.8,0.2-1.4,0.6-1.8c0.4-0.4,0.9-0.7,1.5-0.7c0.7,0,1.2,0.2,1.6,0.7c0.4,0.5,0.6,1.2,0.6,2.1H136c0,0.4,0.1,0.6,0.3,0.8
			c0.2,0.2,0.4,0.3,0.7,0.3c0.2,0,0.4-0.1,0.5-0.2S137.7,119.7,137.8,119.5z M137.9,118.2c0-0.4-0.1-0.6-0.3-0.8s-0.4-0.3-0.6-0.3
			c-0.3,0-0.5,0.1-0.7,0.3c-0.2,0.2-0.3,0.5-0.3,0.8H137.9z"/>
		<path d="M142.2,116.3v1h-0.8v1.9c0,0.4,0,0.6,0,0.7c0,0.1,0.1,0.1,0.1,0.2c0.1,0,0.1,0.1,0.2,0.1c0.1,0,0.3,0,0.5-0.1l0.1,1
			c-0.3,0.1-0.6,0.2-1,0.2c-0.2,0-0.4,0-0.6-0.1s-0.3-0.2-0.4-0.3c-0.1-0.1-0.1-0.3-0.2-0.5c0-0.1,0-0.4,0-0.9v-2h-0.6v-1h0.6v-0.9
			l1.2-0.7v1.6H142.2z"/>
		<path d="M144,117.7l-1.1-0.2c0.1-0.4,0.3-0.8,0.6-1c0.3-0.2,0.8-0.3,1.4-0.3c0.5,0,1,0.1,1.2,0.2c0.3,0.1,0.5,0.3,0.6,0.5
			s0.2,0.6,0.2,1.1l0,1.4c0,0.4,0,0.7,0.1,0.9c0,0.2,0.1,0.4,0.2,0.6h-1.2c0-0.1-0.1-0.2-0.1-0.4c0-0.1,0-0.1,0-0.1
			c-0.2,0.2-0.4,0.4-0.7,0.5s-0.5,0.2-0.8,0.2c-0.5,0-0.9-0.1-1.1-0.4c-0.3-0.3-0.4-0.6-0.4-1c0-0.3,0.1-0.5,0.2-0.7
			c0.1-0.2,0.3-0.4,0.5-0.5c0.2-0.1,0.5-0.2,1-0.3c0.6-0.1,1-0.2,1.2-0.3v-0.1c0-0.2-0.1-0.4-0.2-0.5c-0.1-0.1-0.3-0.2-0.7-0.2
			c-0.2,0-0.4,0-0.5,0.1S144,117.5,144,117.7z M145.6,118.7c-0.2,0.1-0.4,0.1-0.7,0.2c-0.3,0.1-0.6,0.1-0.7,0.2
			c-0.2,0.1-0.2,0.3-0.2,0.4c0,0.2,0.1,0.3,0.2,0.4s0.3,0.2,0.5,0.2c0.2,0,0.4-0.1,0.6-0.2c0.1-0.1,0.2-0.2,0.3-0.4
			c0-0.1,0-0.3,0-0.6V118.7z"/>
		<path d="M152.2,120.9h-1.1v-0.7c-0.2,0.3-0.4,0.5-0.7,0.6c-0.3,0.1-0.5,0.2-0.8,0.2c-0.5,0-1-0.2-1.4-0.6s-0.6-1-0.6-1.8
			c0-0.8,0.2-1.4,0.6-1.8c0.4-0.4,0.8-0.6,1.4-0.6c0.5,0,1,0.2,1.3,0.6v-2.3h1.2V120.9z M149,118.5c0,0.5,0.1,0.9,0.2,1.1
			c0.2,0.3,0.5,0.5,0.8,0.5c0.3,0,0.5-0.1,0.7-0.4c0.2-0.2,0.3-0.6,0.3-1.1c0-0.5-0.1-0.9-0.3-1.1c-0.2-0.2-0.4-0.4-0.7-0.4
			c-0.3,0-0.5,0.1-0.7,0.3C149.1,117.7,149,118.1,149,118.5z"/>
		<path d="M154.4,117.7l-1.1-0.2c0.1-0.4,0.3-0.8,0.6-1c0.3-0.2,0.8-0.3,1.4-0.3c0.5,0,1,0.1,1.2,0.2c0.3,0.1,0.5,0.3,0.6,0.5
			s0.2,0.6,0.2,1.1l0,1.4c0,0.4,0,0.7,0.1,0.9c0,0.2,0.1,0.4,0.2,0.6h-1.2c0-0.1-0.1-0.2-0.1-0.4c0-0.1,0-0.1,0-0.1
			c-0.2,0.2-0.4,0.4-0.7,0.5s-0.5,0.2-0.8,0.2c-0.5,0-0.9-0.1-1.1-0.4c-0.3-0.3-0.4-0.6-0.4-1c0-0.3,0.1-0.5,0.2-0.7
			c0.1-0.2,0.3-0.4,0.5-0.5c0.2-0.1,0.5-0.2,1-0.3c0.6-0.1,1-0.2,1.2-0.3v-0.1c0-0.2-0.1-0.4-0.2-0.5c-0.1-0.1-0.3-0.2-0.7-0.2
			c-0.2,0-0.4,0-0.5,0.1S154.4,117.5,154.4,117.7z M156,118.7c-0.2,0.1-0.4,0.1-0.7,0.2c-0.3,0.1-0.6,0.1-0.7,0.2
			c-0.2,0.1-0.2,0.3-0.2,0.4c0,0.2,0.1,0.3,0.2,0.4s0.3,0.2,0.5,0.2c0.2,0,0.4-0.1,0.6-0.2c0.1-0.1,0.2-0.2,0.3-0.4
			c0-0.1,0-0.3,0-0.6V118.7z"/>
		<path d="M160.5,116.3v1h-0.8v1.9c0,0.4,0,0.6,0,0.7c0,0.1,0.1,0.1,0.1,0.2c0.1,0,0.1,0.1,0.2,0.1c0.1,0,0.3,0,0.5-0.1l0.1,1
			c-0.3,0.1-0.6,0.2-1,0.2c-0.2,0-0.4,0-0.6-0.1s-0.3-0.2-0.4-0.3c-0.1-0.1-0.1-0.3-0.2-0.5c0-0.1,0-0.4,0-0.9v-2h-0.6v-1h0.6v-0.9
			l1.2-0.7v1.6H160.5z"/>
		<path d="M162.3,117.7l-1.1-0.2c0.1-0.4,0.3-0.8,0.6-1c0.3-0.2,0.8-0.3,1.4-0.3c0.5,0,1,0.1,1.2,0.2c0.3,0.1,0.5,0.3,0.6,0.5
			s0.2,0.6,0.2,1.1l0,1.4c0,0.4,0,0.7,0.1,0.9c0,0.2,0.1,0.4,0.2,0.6h-1.2c0-0.1-0.1-0.2-0.1-0.4c0-0.1,0-0.1,0-0.1
			c-0.2,0.2-0.4,0.4-0.7,0.5s-0.5,0.2-0.8,0.2c-0.5,0-0.9-0.1-1.1-0.4c-0.3-0.3-0.4-0.6-0.4-1c0-0.3,0.1-0.5,0.2-0.7
			c0.1-0.2,0.3-0.4,0.5-0.5c0.2-0.1,0.5-0.2,1-0.3c0.6-0.1,1-0.2,1.2-0.3v-0.1c0-0.2-0.1-0.4-0.2-0.5c-0.1-0.1-0.3-0.2-0.7-0.2
			c-0.2,0-0.4,0-0.5,0.1S162.4,117.5,162.3,117.7z M163.9,118.7c-0.2,0.1-0.4,0.1-0.7,0.2c-0.3,0.1-0.6,0.1-0.7,0.2
			c-0.2,0.1-0.2,0.3-0.2,0.4c0,0.2,0.1,0.3,0.2,0.4s0.3,0.2,0.5,0.2c0.2,0,0.4-0.1,0.6-0.2c0.1-0.1,0.2-0.2,0.3-0.4
			c0-0.1,0-0.3,0-0.6V118.7z"/>
	</g>
</g>
<g>
	<rect x="24.5" y="211.5" style="fill:none;stroke:#000000;stroke-miterlimit:10;" width="74" height="85"/>
	<line style="fill:none;stroke:#C6C4C4;stroke-width:3;stroke-miterlimit:10;" x1="35" y1="233.5" x2="73" y2="233.5"/>
	<line style="fill:none;stroke:#C6C4C4;stroke-width:3;stroke-miterlimit:10;" x1="35" y1="252.5" x2="73" y2="252.5"/>
	<line style="fill:none;stroke:#C6C4C4;stroke-width:3;stroke-miterlimit:10;" x1="35" y1="242.5" x2="73" y2="242.5"/>
	<g>
		<path d="M35.1,220.3h1.1v0.6c0.4-0.5,0.9-0.7,1.4-0.7c0.3,0,0.6,0.1,0.8,0.2c0.2,0.1,0.4,0.3,0.5,0.6c0.2-0.2,0.4-0.4,0.7-0.6
			s0.5-0.2,0.8-0.2c0.3,0,0.6,0.1,0.9,0.2s0.4,0.3,0.5,0.6c0.1,0.2,0.1,0.5,0.1,1v3h-1.2v-2.6c0-0.5,0-0.8-0.1-0.9
			c-0.1-0.2-0.3-0.3-0.5-0.3c-0.2,0-0.3,0.1-0.5,0.2c-0.2,0.1-0.3,0.3-0.3,0.5c-0.1,0.2-0.1,0.5-0.1,1v2.2h-1.2v-2.5
			c0-0.5,0-0.7-0.1-0.9c0-0.1-0.1-0.2-0.2-0.3c-0.1-0.1-0.2-0.1-0.4-0.1c-0.2,0-0.4,0.1-0.5,0.2c-0.2,0.1-0.3,0.2-0.3,0.4
			s-0.1,0.5-0.1,1v2.2h-1.2V220.3z"/>
		<path d="M45.8,223.5l1.2,0.2c-0.2,0.4-0.4,0.8-0.7,1S45.5,225,45,225c-0.8,0-1.4-0.3-1.8-0.8c-0.3-0.4-0.5-1-0.5-1.6
			c0-0.8,0.2-1.4,0.6-1.8c0.4-0.4,0.9-0.7,1.5-0.7c0.7,0,1.2,0.2,1.6,0.7c0.4,0.5,0.6,1.2,0.6,2.1H44c0,0.4,0.1,0.6,0.3,0.8
			c0.2,0.2,0.4,0.3,0.7,0.3c0.2,0,0.4-0.1,0.5-0.2S45.7,223.7,45.8,223.5z M45.9,222.2c0-0.4-0.1-0.6-0.3-0.8s-0.4-0.3-0.6-0.3
			c-0.3,0-0.5,0.1-0.7,0.3c-0.2,0.2-0.3,0.5-0.3,0.8H45.9z"/>
		<path d="M50.2,220.3v1h-0.8v1.9c0,0.4,0,0.6,0,0.7c0,0.1,0.1,0.1,0.1,0.2c0.1,0,0.1,0.1,0.2,0.1c0.1,0,0.3,0,0.5-0.1l0.1,1
			c-0.3,0.1-0.6,0.2-1,0.2c-0.2,0-0.4,0-0.6-0.1s-0.3-0.2-0.4-0.3c-0.1-0.1-0.1-0.3-0.2-0.5c0-0.1,0-0.4,0-0.9v-2h-0.6v-1h0.6v-0.9
			l1.2-0.7v1.6H50.2z"/>
		<path d="M52,221.7l-1.1-0.2c0.1-0.4,0.3-0.8,0.6-1c0.3-0.2,0.8-0.3,1.4-0.3c0.5,0,1,0.1,1.2,0.2c0.3,0.1,0.5,0.3,0.6,0.5
			s0.2,0.6,0.2,1.1l0,1.4c0,0.4,0,0.7,0.1,0.9c0,0.2,0.1,0.4,0.2,0.6h-1.2c0-0.1-0.1-0.2-0.1-0.4c0-0.1,0-0.1,0-0.1
			c-0.2,0.2-0.4,0.4-0.7,0.5s-0.5,0.2-0.8,0.2c-0.5,0-0.9-0.1-1.1-0.4c-0.3-0.3-0.4-0.6-0.4-1c0-0.3,0.1-0.5,0.2-0.7
			c0.1-0.2,0.3-0.4,0.5-0.5c0.2-0.1,0.5-0.2,1-0.3c0.6-0.1,1-0.2,1.2-0.3v-0.1c0-0.2-0.1-0.4-0.2-0.5c-0.1-0.1-0.3-0.2-0.7-0.2
			c-0.2,0-0.4,0-0.5,0.1S52,221.5,52,221.7z M53.6,222.7c-0.2,0.1-0.4,0.1-0.7,0.2c-0.3,0.1-0.6,0.1-0.7,0.2
			c-0.2,0.1-0.2,0.3-0.2,0.4c0,0.2,0.1,0.3,0.2,0.4s0.3,0.2,0.5,0.2c0.2,0,0.4-0.1,0.6-0.2c0.1-0.1,0.2-0.2,0.3-0.4
			c0-0.1,0-0.3,0-0.6V222.7z"/>
		<path d="M60.2,224.9h-1.1v-0.7c-0.2,0.3-0.4,0.5-0.7,0.6c-0.3,0.1-0.5,0.2-0.8,0.2c-0.5,0-1-0.2-1.4-0.6s-0.6-1-0.6-1.8
			c0-0.8,0.2-1.4,0.6-1.8c0.4-0.4,0.8-0.6,1.4-0.6c0.5,0,1,0.2,1.3,0.6v-2.3h1.2V224.9z M57,222.5c0,0.5,0.1,0.9,0.2,1.1
			c0.2,0.3,0.5,0.5,0.8,0.5c0.3,0,0.5-0.1,0.7-0.4c0.2-0.2,0.3-0.6,0.3-1.1c0-0.5-0.1-0.9-0.3-1.1c-0.2-0.2-0.4-0.4-0.7-0.4
			c-0.3,0-0.5,0.1-0.7,0.3C57.1,221.7,57,222.1,57,222.5z"/>
		<path d="M62.4,221.7l-1.1-0.2c0.1-0.4,0.3-0.8,0.6-1c0.3-0.2,0.8-0.3,1.4-0.3c0.5,0,1,0.1,1.2,0.2c0.3,0.1,0.5,0.3,0.6,0.5
			s0.2,0.6,0.2,1.1l0,1.4c0,0.4,0,0.7,0.1,0.9c0,0.2,0.1,0.4,0.2,0.6h-1.2c0-0.1-0.1-0.2-0.1-0.4c0-0.1,0-0.1,0-0.1
			c-0.2,0.2-0.4,0.4-0.7,0.5s-0.5,0.2-0.8,0.2c-0.5,0-0.9-0.1-1.1-0.4c-0.3-0.3-0.4-0.6-0.4-1c0-0.3,0.1-0.5,0.2-0.7
			c0.1-0.2,0.3-0.4,0.5-0.5c0.2-0.1,0.5-0.2,1-0.3c0.6-0.1,1-0.2,1.2-0.3v-0.1c0-0.2-0.1-0.4-0.2-0.5c-0.1-0.1-0.3-0.2-0.7-0.2
			c-0.2,0-0.4,0-0.5,0.1S62.4,221.5,62.4,221.7z M64,222.7c-0.2,0.1-0.4,0.1-0.7,0.2c-0.3,0.1-0.6,0.1-0.7,0.2
			c-0.2,0.1-0.2,0.3-0.2,0.4c0,0.2,0.1,0.3,0.2,0.4s0.3,0.2,0.5,0.2c0.2,0,0.4-0.1,0.6-0.2c0.1-0.1,0.2-0.2,0.3-0.4
			c0-0.1,0-0.3,0-0.6V222.7z"/>
		<path d="M68.5,220.3v1h-0.8v1.9c0,0.4,0,0.6,0,0.7c0,0.1,0.1,0.1,0.1,0.2c0.1,0,0.1,0.1,0.2,0.1c0.1,0,0.3,0,0.5-0.1l0.1,1
			c-0.3,0.1-0.6,0.2-1,0.2c-0.2,0-0.4,0-0.6-0.1s-0.3-0.2-0.4-0.3c-0.1-0.1-0.1-0.3-0.2-0.5c0-0.1,0-0.4,0-0.9v-2h-0.6v-1h0.6v-0.9
			l1.2-0.7v1.6H68.5z"/>
		<path d="M70.3,221.7l-1.1-0.2c0.1-0.4,0.3-0.8,0.6-1c0.3-0.2,0.8-0.3,1.4-0.3c0.5,0,1,0.1,1.2,0.2c0.3,0.1,0.5,0.3,0.6,0.5
			s0.2,0.6,0.2,1.1l0,1.4c0,0.4,0,0.7,0.1,0.9c0,0.2,0.1,0.4,0.2,0.6h-1.2c0-0.1-0.1-0.2-0.1-0.4c0-0.1,0-0.1,0-0.1
			c-0.2,0.2-0.4,0.4-0.7,0.5s-0.5,0.2-0.8,0.2c-0.5,0-0.9-0.1-1.1-0.4c-0.3-0.3-0.4-0.6-0.4-1c0-0.3,0.1-0.5,0.2-0.7
			c0.1-0.2,0.3-0.4,0.5-0.5c0.2-0.1,0.5-0.2,1-0.3c0.6-0.1,1-0.2,1.2-0.3v-0.1c0-0.2-0.1-0.4-0.2-0.5c-0.1-0.1-0.3-0.2-0.7-0.2
			c-0.2,0-0.4,0-0.5,0.1S70.4,221.5,70.3,221.7z M71.9,222.7c-0.2,0.1-0.4,0.1-0.7,0.2c-0.3,0.1-0.6,0.1-0.7,0.2
			c-0.2,0.1-0.2,0.3-0.2,0.4c0,0.2,0.1,0.3,0.2,0.4s0.3,0.2,0.5,0.2c0.2,0,0.4-0.1,0.6-0.2c0.1-0.1,0.2-0.2,0.3-0.4
			c0-0.1,0-0.3,0-0.6V222.7z"/>
	</g>
</g>
<g>
	<rect x="117.5" y="211.5" style="fill:none;stroke:#000000;stroke-miterlimit:10;" width="74" height="85"/>
	<line style="fill:none;stroke:#C6C4C4;stroke-width:3;stroke-miterlimit:10;" x1="128" y1="233.5" x2="166" y2="233.5"/>
	<line style="fill:none;stroke:#C6C4C4;stroke-width:3;stroke-miterlimit:10;" x1="128" y1="252.5" x2="166" y2="252.5"/>
	<line style="fill:none;stroke:#C6C4C4;stroke-width:3;stroke-miterlimit:10;" x1="128" y1="242.5" x2="166" y2="242.5"/>
	<g>
		<path d="M128.1,220.3h1.1v0.6c0.4-0.5,0.9-0.7,1.4-0.7c0.3,0,0.6,0.1,0.8,0.2c0.2,0.1,0.4,0.3,0.5,0.6c0.2-0.2,0.4-0.4,0.7-0.6
			s0.5-0.2,0.8-0.2c0.3,0,0.6,0.1,0.9,0.2s0.4,0.3,0.5,0.6c0.1,0.2,0.1,0.5,0.1,1v3h-1.2v-2.6c0-0.5,0-0.8-0.1-0.9
			c-0.1-0.2-0.3-0.3-0.5-0.3c-0.2,0-0.3,0.1-0.5,0.2c-0.2,0.1-0.3,0.3-0.3,0.5c-0.1,0.2-0.1,0.5-0.1,1v2.2h-1.2v-2.5
			c0-0.5,0-0.7-0.1-0.9c0-0.1-0.1-0.2-0.2-0.3c-0.1-0.1-0.2-0.1-0.4-0.1c-0.2,0-0.4,0.1-0.5,0.2c-0.2,0.1-0.3,0.2-0.3,0.4
			s-0.1,0.5-0.1,1v2.2h-1.2V220.3z"/>
		<path d="M138.8,223.5l1.2,0.2c-0.2,0.4-0.4,0.8-0.7,1s-0.8,0.4-1.3,0.4c-0.8,0-1.4-0.3-1.8-0.8c-0.3-0.4-0.5-1-0.5-1.6
			c0-0.8,0.2-1.4,0.6-1.8c0.4-0.4,0.9-0.7,1.5-0.7c0.7,0,1.2,0.2,1.6,0.7c0.4,0.5,0.6,1.2,0.6,2.1H137c0,0.4,0.1,0.6,0.3,0.8
			c0.2,0.2,0.4,0.3,0.7,0.3c0.2,0,0.4-0.1,0.5-0.2S138.7,223.7,138.8,223.5z M138.9,222.2c0-0.4-0.1-0.6-0.3-0.8s-0.4-0.3-0.6-0.3
			c-0.3,0-0.5,0.1-0.7,0.3c-0.2,0.2-0.3,0.5-0.3,0.8H138.9z"/>
		<path d="M143.2,220.3v1h-0.8v1.9c0,0.4,0,0.6,0,0.7c0,0.1,0.1,0.1,0.1,0.2c0.1,0,0.1,0.1,0.2,0.1c0.1,0,0.3,0,0.5-0.1l0.1,1
			c-0.3,0.1-0.6,0.2-1,0.2c-0.2,0-0.4,0-0.6-0.1s-0.3-0.2-0.4-0.3c-0.1-0.1-0.1-0.3-0.2-0.5c0-0.1,0-0.4,0-0.9v-2h-0.6v-1h0.6v-0.9
			l1.2-0.7v1.6H143.2z"/>
		<path d="M145,221.7l-1.1-0.2c0.1-0.4,0.3-0.8,0.6-1c0.3-0.2,0.8-0.3,1.4-0.3c0.5,0,1,0.1,1.2,0.2c0.3,0.1,0.5,0.3,0.6,0.5
			s0.2,0.6,0.2,1.1l0,1.4c0,0.4,0,0.7,0.1,0.9c0,0.2,0.1,0.4,0.2,0.6h-1.2c0-0.1-0.1-0.2-0.1-0.4c0-0.1,0-0.1,0-0.1
			c-0.2,0.2-0.4,0.4-0.7,0.5s-0.5,0.2-0.8,0.2c-0.5,0-0.9-0.1-1.1-0.4c-0.3-0.3-0.4-0.6-0.4-1c0-0.3,0.1-0.5,0.2-0.7
			c0.1-0.2,0.3-0.4,0.5-0.5c0.2-0.1,0.5-0.2,1-0.3c0.6-0.1,1-0.2,1.2-0.3v-0.1c0-0.2-0.1-0.4-0.2-0.5c-0.1-0.1-0.3-0.2-0.7-0.2
			c-0.2,0-0.4,0-0.5,0.1S145,221.5,145,221.7z M146.6,222.7c-0.2,0.1-0.4,0.1-0.7,0.2c-0.3,0.1-0.6,0.1-0.7,0.2
			c-0.2,0.1-0.2,0.3-0.2,0.4c0,0.2,0.1,0.3,0.2,0.4s0.3,0.2,0.5,0.2c0.2,0,0.4-0.1,0.6-0.2c0.1-0.1,0.2-0.2,0.3-0.4
			c0-0.1,0-0.3,0-0.6V222.7z"/>
		<path d="M153.2,224.9h-1.1v-0.7c-0.2,0.3-0.4,0.5-0.7,0.6c-0.3,0.1-0.5,0.2-0.8,0.2c-0.5,0-1-0.2-1.4-0.6s-0.6-1-0.6-1.8
			c0-0.8,0.2-1.4,0.6-1.8c0.4-0.4,0.8-0.6,1.4-0.6c0.5,0,1,0.2,1.3,0.6v-2.3h1.2V224.9z M150,222.5c0,0.5,0.1,0.9,0.2,1.1
			c0.2,0.3,0.5,0.5,0.8,0.5c0.3,0,0.5-0.1,0.7-0.4c0.2-0.2,0.3-0.6,0.3-1.1c0-0.5-0.1-0.9-0.3-1.1c-0.2-0.2-0.4-0.4-0.7-0.4
			c-0.3,0-0.5,0.1-0.7,0.3C150.1,221.7,150,222.1,150,222.5z"/>
		<path d="M155.4,221.7l-1.1-0.2c0.1-0.4,0.3-0.8,0.6-1c0.3-0.2,0.8-0.3,1.4-0.3c0.5,0,1,0.1,1.2,0.2c0.3,0.1,0.5,0.3,0.6,0.5
			s0.2,0.6,0.2,1.1l0,1.4c0,0.4,0,0.7,0.1,0.9c0,0.2,0.1,0.4,0.2,0.6h-1.2c0-0.1-0.1-0.2-0.1-0.4c0-0.1,0-0.1,0-0.1
			c-0.2,0.2-0.4,0.4-0.7,0.5s-0.5,0.2-0.8,0.2c-0.5,0-0.9-0.1-1.1-0.4c-0.3-0.3-0.4-0.6-0.4-1c0-0.3,0.1-0.5,0.2-0.7
			c0.1-0.2,0.3-0.4,0.5-0.5c0.2-0.1,0.5-0.2,1-0.3c0.6-0.1,1-0.2,1.2-0.3v-0.1c0-0.2-0.1-0.4-0.2-0.5c-0.1-0.1-0.3-0.2-0.7-0.2
			c-0.2,0-0.4,0-0.5,0.1S155.4,221.5,155.4,221.7z M157,222.7c-0.2,0.1-0.4,0.1-0.7,0.2c-0.3,0.1-0.6,0.1-0.7,0.2
			c-0.2,0.1-0.2,0.3-0.2,0.4c0,0.2,0.1,0.3,0.2,0.4s0.3,0.2,0.5,0.2c0.2,0,0.4-0.1,0.6-0.2c0.1-0.1,0.2-0.2,0.3-0.4
			c0-0.1,0-0.3,0-0.6V222.7z"/>
		<path d="M161.5,220.3v1h-0.8v1.9c0,0.4,0,0.6,0,0.7c0,0.1,0.1,0.1,0.1,0.2c0.1,0,0.1,0.1,0.2,0.1c0.1,0,0.3,0,0.5-0.1l0.1,1
			c-0.3,0.1-0.6,0.2-1,0.2c-0.2,0-0.4,0-0.6-0.1s-0.3-0.2-0.4-0.3c-0.1-0.1-0.1-0.3-0.2-0.5c0-0.1,0-0.4,0-0.9v-2h-0.6v-1h0.6v-0.9
			l1.2-0.7v1.6H161.5z"/>
		<path d="M163.3,221.7l-1.1-0.2c0.1-0.4,0.3-0.8,0.6-1c0.3-0.2,0.8-0.3,1.4-0.3c0.5,0,1,0.1,1.2,0.2c0.3,0.1,0.5,0.3,0.6,0.5
			s0.2,0.6,0.2,1.1l0,1.4c0,0.4,0,0.7,0.1,0.9c0,0.2,0.1,0.4,0.2,0.6h-1.2c0-0.1-0.1-0.2-0.1-0.4c0-0.1,0-0.1,0-0.1
			c-0.2,0.2-0.4,0.4-0.7,0.5s-0.5,0.2-0.8,0.2c-0.5,0-0.9-0.1-1.1-0.4c-0.3-0.3-0.4-0.6-0.4-1c0-0.3,0.1-0.5,0.2-0.7
			c0.1-0.2,0.3-0.4,0.5-0.5c0.2-0.1,0.5-0.2,1-0.3c0.6-0.1,1-0.2,1.2-0.3v-0.1c0-0.2-0.1-0.4-0.2-0.5c-0.1-0.1-0.3-0.2-0.7-0.2
			c-0.2,0-0.4,0-0.5,0.1S163.4,221.5,163.3,221.7z M164.9,222.7c-0.2,0.1-0.4,0.1-0.7,0.2c-0.3,0.1-0.6,0.1-0.7,0.2
			c-0.2,0.1-0.2,0.3-0.2,0.4c0,0.2,0.1,0.3,0.2,0.4s0.3,0.2,0.5,0.2c0.2,0,0.4-0.1,0.6-0.2c0.1-0.1,0.2-0.2,0.3-0.4
			c0-0.1,0-0.3,0-0.6V222.7z"/>
	</g>
</g>
<g>
	<rect x="24.5" y="316.5" style="fill:none;stroke:#000000;stroke-miterlimit:10;" width="74" height="85"/>
	<line style="fill:none;stroke:#C6C4C4;stroke-width:3;stroke-miterlimit:10;" x1="35" y1="338.5" x2="73" y2="338.5"/>
	<line style="fill:none;stroke:#C6C4C4;stroke-width:3;stroke-miterlimit:10;" x1="35" y1="357.5" x2="73" y2="357.5"/>
	<line style="fill:none;stroke:#C6C4C4;stroke-width:3;stroke-miterlimit:10;" x1="35" y1="347.5" x2="73" y2="347.5"/>
	<g>
		<path d="M35.1,325.3h1.1v0.6c0.4-0.5,0.9-0.7,1.4-0.7c0.3,0,0.6,0.1,0.8,0.2c0.2,0.1,0.4,0.3,0.5,0.6c0.2-0.2,0.4-0.4,0.7-0.6
			s0.5-0.2,0.8-0.2c0.3,0,0.6,0.1,0.9,0.2s0.4,0.3,0.5,0.6c0.1,0.2,0.1,0.5,0.1,1v3h-1.2v-2.6c0-0.5,0-0.8-0.1-0.9
			c-0.1-0.2-0.3-0.3-0.5-0.3c-0.2,0-0.3,0.1-0.5,0.2c-0.2,0.1-0.3,0.3-0.3,0.5c-0.1,0.2-0.1,0.5-0.1,1v2.2h-1.2v-2.5
			c0-0.5,0-0.7-0.1-0.9c0-0.1-0.1-0.2-0.2-0.3c-0.1-0.1-0.2-0.1-0.4-0.1c-0.2,0-0.4,0.1-0.5,0.2c-0.2,0.1-0.3,0.2-0.3,0.4
			s-0.1,0.5-0.1,1v2.2h-1.2V325.3z"/>
		<path d="M45.8,328.5l1.2,0.2c-0.2,0.4-0.4,0.8-0.7,1S45.5,330,45,330c-0.8,0-1.4-0.3-1.8-0.8c-0.3-0.4-0.5-1-0.5-1.6
			c0-0.8,0.2-1.4,0.6-1.8c0.4-0.4,0.9-0.7,1.5-0.7c0.7,0,1.2,0.2,1.6,0.7c0.4,0.5,0.6,1.2,0.6,2.1H44c0,0.4,0.1,0.6,0.3,0.8
			c0.2,0.2,0.4,0.3,0.7,0.3c0.2,0,0.4-0.1,0.5-0.2S45.7,328.7,45.8,328.5z M45.9,327.2c0-0.4-0.1-0.6-0.3-0.8s-0.4-0.3-0.6-0.3
			c-0.3,0-0.5,0.1-0.7,0.3c-0.2,0.2-0.3,0.5-0.3,0.8H45.9z"/>
		<path d="M50.2,325.3v1h-0.8v1.9c0,0.4,0,0.6,0,0.7c0,0.1,0.1,0.1,0.1,0.2c0.1,0,0.1,0.1,0.2,0.1c0.1,0,0.3,0,0.5-0.1l0.1,1
			c-0.3,0.1-0.6,0.2-1,0.2c-0.2,0-0.4,0-0.6-0.1s-0.3-0.2-0.4-0.3c-0.1-0.1-0.1-0.3-0.2-0.5c0-0.1,0-0.4,0-0.9v-2h-0.6v-1h0.6v-0.9
			l1.2-0.7v1.6H50.2z"/>
		<path d="M52,326.7l-1.1-0.2c0.1-0.4,0.3-0.8,0.6-1c0.3-0.2,0.8-0.3,1.4-0.3c0.5,0,1,0.1,1.2,0.2c0.3,0.1,0.5,0.3,0.6,0.5
			s0.2,0.6,0.2,1.1l0,1.4c0,0.4,0,0.7,0.1,0.9c0,0.2,0.1,0.4,0.2,0.6h-1.2c0-0.1-0.1-0.2-0.1-0.4c0-0.1,0-0.1,0-0.1
			c-0.2,0.2-0.4,0.4-0.7,0.5s-0.5,0.2-0.8,0.2c-0.5,0-0.9-0.1-1.1-0.4c-0.3-0.3-0.4-0.6-0.4-1c0-0.3,0.1-0.5,0.2-0.7
			c0.1-0.2,0.3-0.4,0.5-0.5c0.2-0.1,0.5-0.2,1-0.3c0.6-0.1,1-0.2,1.2-0.3v-0.1c0-0.2-0.1-0.4-0.2-0.5c-0.1-0.1-0.3-0.2-0.7-0.2
			c-0.2,0-0.4,0-0.5,0.1S52,326.5,52,326.7z M53.6,327.7c-0.2,0.1-0.4,0.1-0.7,0.2c-0.3,0.1-0.6,0.1-0.7,0.2
			c-0.2,0.1-0.2,0.3-0.2,0.4c0,0.2,0.1,0.3,0.2,0.4s0.3,0.2,0.5,0.2c0.2,0,0.4-0.1,0.6-0.2c0.1-0.1,0.2-0.2,0.3-0.4
			c0-0.1,0-0.3,0-0.6V327.7z"/>
		<path d="M60.2,329.9h-1.1v-0.7c-0.2,0.3-0.4,0.5-0.7,0.6c-0.3,0.1-0.5,0.2-0.8,0.2c-0.5,0-1-0.2-1.4-0.6s-0.6-1-0.6-1.8
			c0-0.8,0.2-1.4,0.6-1.8c0.4-0.4,0.8-0.6,1.4-0.6c0.5,0,1,0.2,1.3,0.6v-2.3h1.2V329.9z M57,327.5c0,0.5,0.1,0.9,0.2,1.1
			c0.2,0.3,0.5,0.5,0.8,0.5c0.3,0,0.5-0.1,0.7-0.4c0.2-0.2,0.3-0.6,0.3-1.1c0-0.5-0.1-0.9-0.3-1.1c-0.2-0.2-0.4-0.4-0.7-0.4
			c-0.3,0-0.5,0.1-0.7,0.3C57.1,326.7,57,327.1,57,327.5z"/>
		<path d="M62.4,326.7l-1.1-0.2c0.1-0.4,0.3-0.8,0.6-1c0.3-0.2,0.8-0.3,1.4-0.3c0.5,0,1,0.1,1.2,0.2c0.3,0.1,0.5,0.3,0.6,0.5
			s0.2,0.6,0.2,1.1l0,1.4c0,0.4,0,0.7,0.1,0.9c0,0.2,0.1,0.4,0.2,0.6h-1.2c0-0.1-0.1-0.2-0.1-0.4c0-0.1,0-0.1,0-0.1
			c-0.2,0.2-0.4,0.4-0.7,0.5s-0.5,0.2-0.8,0.2c-0.5,0-0.9-0.1-1.1-0.4c-0.3-0.3-0.4-0.6-0.4-1c0-0.3,0.1-0.5,0.2-0.7
			c0.1-0.2,0.3-0.4,0.5-0.5c0.2-0.1,0.5-0.2,1-0.3c0.6-0.1,1-0.2,1.2-0.3v-0.1c0-0.2-0.1-0.4-0.2-0.5c-0.1-0.1-0.3-0.2-0.7-0.2
			c-0.2,0-0.4,0-0.5,0.1S62.4,326.5,62.4,326.7z M64,327.7c-0.2,0.1-0.4,0.1-0.7,0.2c-0.3,0.1-0.6,0.1-0.7,0.2
			c-0.2,0.1-0.2,0.3-0.2,0.4c0,0.2,0.1,0.3,0.2,0.4s0.3,0.2,0.5,0.2c0.2,0,0.4-0.1,0.6-0.2c0.1-0.1,0.2-0.2,0.3-0.4
			c0-0.1,0-0.3,0-0.6V327.7z"/>
		<path d="M68.5,325.3v1h-0.8v1.9c0,0.4,0,0.6,0,0.7c0,0.1,0.1,0.1,0.1,0.2c0.1,0,0.1,0.1,0.2,0.1c0.1,0,0.3,0,0.5-0.1l0.1,1
			c-0.3,0.1-0.6,0.2-1,0.2c-0.2,0-0.4,0-0.6-0.1s-0.3-0.2-0.4-0.3c-0.1-0.1-0.1-0.3-0.2-0.5c0-0.1,0-0.4,0-0.9v-2h-0.6v-1h0.6v-0.9
			l1.2-0.7v1.6H68.5z"/>
		<path d="M70.3,326.7l-1.1-0.2c0.1-0.4,0.3-0.8,0.6-1c0.3-0.2,0.8-0.3,1.4-0.3c0.5,0,1,0.1,1.2,0.2c0.3,0.1,0.5,0.3,0.6,0.5
			s0.2,0.6,0.2,1.1l0,1.4c0,0.4,0,0.7,0.1,0.9c0,0.2,0.1,0.4,0.2,0.6h-1.2c0-0.1-0.1-0.2-0.1-0.4c0-0.1,0-0.1,0-0.1
			c-0.2,0.2-0.4,0.4-0.7,0.5s-0.5,0.2-0.8,0.2c-0.5,0-0.9-0.1-1.1-0.4c-0.3-0.3-0.4-0.6-0.4-1c0-0.3,0.1-0.5,0.2-0.7
			c0.1-0.2,0.3-0.4,0.5-0.5c0.2-0.1,0.5-0.2,1-0.3c0.6-0.1,1-0.2,1.2-0.3v-0.1c0-0.2-0.1-0.4-0.2-0.5c-0.1-0.1-0.3-0.2-0.7-0.2
			c-0.2,0-0.4,0-0.5,0.1S70.4,326.5,70.3,326.7z M71.9,327.7c-0.2,0.1-0.4,0.1-0.7,0.2c-0.3,0.1-0.6,0.1-0.7,0.2
			c-0.2,0.1-0.2,0.3-0.2,0.4c0,0.2,0.1,0.3,0.2,0.4s0.3,0.2,0.5,0.2c0.2,0,0.4-0.1,0.6-0.2c0.1-0.1,0.2-0.2,0.3-0.4
			c0-0.1,0-0.3,0-0.6V327.7z"/>
	</g>
</g>
<g>
	<rect x="117.5" y="316.5" style="fill:none;stroke:#000000;stroke-miterlimit:10;" width="74" height="85"/>
	<line style="fill:none;stroke:#C6C4C4;stroke-width:3;stroke-miterlimit:10;" x1="128" y1="338.5" x2="166" y2="338.5"/>
	<line style="fill:none;stroke:#C6C4C4;stroke-width:3;stroke-miterlimit:10;" x1="128" y1="357.5" x2="166" y2="357.5"/>
	<line style="fill:none;stroke:#C6C4C4;stroke-width:3;stroke-miterlimit:10;" x1="128" y1="347.5" x2="166" y2="347.5"/>
	<g>
		<path d="M128.1,325.3h1.1v0.6c0.4-0.5,0.9-0.7,1.4-0.7c0.3,0,0.6,0.1,0.8,0.2c0.2,0.1,0.4,0.3,0.5,0.6c0.2-0.2,0.4-0.4,0.7-0.6
			s0.5-0.2,0.8-0.2c0.3,0,0.6,0.1,0.9,0.2s0.4,0.3,0.5,0.6c0.1,0.2,0.1,0.5,0.1,1v3h-1.2v-2.6c0-0.5,0-0.8-0.1-0.9
			c-0.1-0.2-0.3-0.3-0.5-0.3c-0.2,0-0.3,0.1-0.5,0.2c-0.2,0.1-0.3,0.3-0.3,0.5c-0.1,0.2-0.1,0.5-0.1,1v2.2h-1.2v-2.5
			c0-0.5,0-0.7-0.1-0.9c0-0.1-0.1-0.2-0.2-0.3c-0.1-0.1-0.2-0.1-0.4-0.1c-0.2,0-0.4,0.1-0.5,0.2c-0.2,0.1-0.3,0.2-0.3,0.4
			s-0.1,0.5-0.1,1v2.2h-1.2V325.3z"/>
		<path d="M138.8,328.5l1.2,0.2c-0.2,0.4-0.4,0.8-0.7,1s-0.8,0.4-1.3,0.4c-0.8,0-1.4-0.3-1.8-0.8c-0.3-0.4-0.5-1-0.5-1.6
			c0-0.8,0.2-1.4,0.6-1.8c0.4-0.4,0.9-0.7,1.5-0.7c0.7,0,1.2,0.2,1.6,0.7c0.4,0.5,0.6,1.2,0.6,2.1H137c0,0.4,0.1,0.6,0.3,0.8
			c0.2,0.2,0.4,0.3,0.7,0.3c0.2,0,0.4-0.1,0.5-0.2S138.7,328.7,138.8,328.5z M138.9,327.2c0-0.4-0.1-0.6-0.3-0.8s-0.4-0.3-0.6-0.3
			c-0.3,0-0.5,0.1-0.7,0.3c-0.2,0.2-0.3,0.5-0.3,0.8H138.9z"/>
		<path d="M143.2,325.3v1h-0.8v1.9c0,0.4,0,0.6,0,0.7c0,0.1,0.1,0.1,0.1,0.2c0.1,0,0.1,0.1,0.2,0.1c0.1,0,0.3,0,0.5-0.1l0.1,1
			c-0.3,0.1-0.6,0.2-1,0.2c-0.2,0-0.4,0-0.6-0.1s-0.3-0.2-0.4-0.3c-0.1-0.1-0.1-0.3-0.2-0.5c0-0.1,0-0.4,0-0.9v-2h-0.6v-1h0.6v-0.9
			l1.2-0.7v1.6H143.2z"/>
		<path d="M145,326.7l-1.1-0.2c0.1-0.4,0.3-0.8,0.6-1c0.3-0.2,0.8-0.3,1.4-0.3c0.5,0,1,0.1,1.2,0.2c0.3,0.1,0.5,0.3,0.6,0.5
			s0.2,0.6,0.2,1.1l0,1.4c0,0.4,0,0.7,0.1,0.9c0,0.2,0.1,0.4,0.2,0.6h-1.2c0-0.1-0.1-0.2-0.1-0.4c0-0.1,0-0.1,0-0.1
			c-0.2,0.2-0.4,0.4-0.7,0.5s-0.5,0.2-0.8,0.2c-0.5,0-0.9-0.1-1.1-0.4c-0.3-0.3-0.4-0.6-0.4-1c0-0.3,0.1-0.5,0.2-0.7
			c0.1-0.2,0.3-0.4,0.5-0.5c0.2-0.1,0.5-0.2,1-0.3c0.6-0.1,1-0.2,1.2-0.3v-0.1c0-0.2-0.1-0.4-0.2-0.5c-0.1-0.1-0.3-0.2-0.7-0.2
			c-0.2,0-0.4,0-0.5,0.1S145,326.5,145,326.7z M146.6,327.7c-0.2,0.1-0.4,0.1-0.7,0.2c-0.3,0.1-0.6,0.1-0.7,0.2
			c-0.2,0.1-0.2,0.3-0.2,0.4c0,0.2,0.1,0.3,0.2,0.4s0.3,0.2,0.5,0.2c0.2,0,0.4-0.1,0.6-0.2c0.1-0.1,0.2-0.2,0.3-0.4
			c0-0.1,0-0.3,0-0.6V327.7z"/>
		<path d="M153.2,329.9h-1.1v-0.7c-0.2,0.3-0.4,0.5-0.7,0.6c-0.3,0.1-0.5,0.2-0.8,0.2c-0.5,0-1-0.2-1.4-0.6s-0.6-1-0.6-1.8
			c0-0.8,0.2-1.4,0.6-1.8c0.4-0.4,0.8-0.6,1.4-0.6c0.5,0,1,0.2,1.3,0.6v-2.3h1.2V329.9z M150,327.5c0,0.5,0.1,0.9,0.2,1.1
			c0.2,0.3,0.5,0.5,0.8,0.5c0.3,0,0.5-0.1,0.7-0.4c0.2-0.2,0.3-0.6,0.3-1.1c0-0.5-0.1-0.9-0.3-1.1c-0.2-0.2-0.4-0.4-0.7-0.4
			c-0.3,0-0.5,0.1-0.7,0.3C150.1,326.7,150,327.1,150,327.5z"/>
		<path d="M155.4,326.7l-1.1-0.2c0.1-0.4,0.3-0.8,0.6-1c0.3-0.2,0.8-0.3,1.4-0.3c0.5,0,1,0.1,1.2,0.2c0.3,0.1,0.5,0.3,0.6,0.5
			s0.2,0.6,0.2,1.1l0,1.4c0,0.4,0,0.7,0.1,0.9c0,0.2,0.1,0.4,0.2,0.6h-1.2c0-0.1-0.1-0.2-0.1-0.4c0-0.1,0-0.1,0-0.1
			c-0.2,0.2-0.4,0.4-0.7,0.5s-0.5,0.2-0.8,0.2c-0.5,0-0.9-0.1-1.1-0.4c-0.3-0.3-0.4-0.6-0.4-1c0-0.3,0.1-0.5,0.2-0.7
			c0.1-0.2,0.3-0.4,0.5-0.5c0.2-0.1,0.5-0.2,1-0.3c0.6-0.1,1-0.2,1.2-0.3v-0.1c0-0.2-0.1-0.4-0.2-0.5c-0.1-0.1-0.3-0.2-0.7-0.2
			c-0.2,0-0.4,0-0.5,0.1S155.4,326.5,155.4,326.7z M157,327.7c-0.2,0.1-0.4,0.1-0.7,0.2c-0.3,0.1-0.6,0.1-0.7,0.2
			c-0.2,0.1-0.2,0.3-0.2,0.4c0,0.2,0.1,0.3,0.2,0.4s0.3,0.2,0.5,0.2c0.2,0,0.4-0.1,0.6-0.2c0.1-0.1,0.2-0.2,0.3-0.4
			c0-0.1,0-0.3,0-0.6V327.7z"/>
		<path d="M161.5,325.3v1h-0.8v1.9c0,0.4,0,0.6,0,0.7c0,0.1,0.1,0.1,0.1,0.2c0.1,0,0.1,0.1,0.2,0.1c0.1,0,0.3,0,0.5-0.1l0.1,1
			c-0.3,0.1-0.6,0.2-1,0.2c-0.2,0-0.4,0-0.6-0.1s-0.3-0.2-0.4-0.3c-0.1-0.1-0.1-0.3-0.2-0.5c0-0.1,0-0.4,0-0.9v-2h-0.6v-1h0.6v-0.9
			l1.2-0.7v1.6H161.5z"/>
		<path d="M163.3,326.7l-1.1-0.2c0.1-0.4,0.3-0.8,0.6-1c0.3-0.2,0.8-0.3,1.4-0.3c0.5,0,1,0.1,1.2,0.2c0.3,0.1,0.5,0.3,0.6,0.5
			s0.2,0.6,0.2,1.1l0,1.4c0,0.4,0,0.7,0.1,0.9c0,0.2,0.1,0.4,0.2,0.6h-1.2c0-0.1-0.1-0.2-0.1-0.4c0-0.1,0-0.1,0-0.1
			c-0.2,0.2-0.4,0.4-0.7,0.5s-0.5,0.2-0.8,0.2c-0.5,0-0.9-0.1-1.1-0.4c-0.3-0.3-0.4-0.6-0.4-1c0-0.3,0.1-0.5,0.2-0.7
			c0.1-0.2,0.3-0.4,0.5-0.5c0.2-0.1,0.5-0.2,1-0.3c0.6-0.1,1-0.2,1.2-0.3v-0.1c0-0.2-0.1-0.4-0.2-0.5c-0.1-0.1-0.3-0.2-0.7-0.2
			c-0.2,0-0.4,0-0.5,0.1S163.4,326.5,163.3,326.7z M164.9,327.7c-0.2,0.1-0.4,0.1-0.7,0.2c-0.3,0.1-0.6,0.1-0.7,0.2
			c-0.2,0.1-0.2,0.3-0.2,0.4c0,0.2,0.1,0.3,0.2,0.4s0.3,0.2,0.5,0.2c0.2,0,0.4-0.1,0.6-0.2c0.1-0.1,0.2-0.2,0.3-0.4
			c0-0.1,0-0.3,0-0.6V327.7z"/>
	</g>
</g>
<g>
	<path d="M435.5,92.6V78.3h2.9v5.6h5.7v-5.6h2.9v14.3H444v-6.3h-5.7v6.3H435.5z"/>
	<path d="M453.1,92.6V80.7h-4.2v-2.4h11.4v2.4H456v11.9H453.1z"/>
	<path d="M462.1,92.6V78.3h4.3l2.6,9.8l2.6-9.8h4.3v14.3h-2.7V81.3l-2.8,11.3h-2.8l-2.8-11.3v11.3H462.1z"/>
	<path d="M478.9,92.6V78.4h2.9v11.8h7.2v2.4H478.9z"/>
</g>
<g>
	<path d="M617.5,122.5v-6.9h1.5v2.7h3v-2.7h1.5v6.9H622v-3h-3v3H617.5z"/>
	<path d="M626.8,122.5v-5.8h-2.2v-1.2h6v1.2h-2.2v5.8H626.8z"/>
	<path d="M631.5,122.5v-6.9h2.3l1.4,4.7l1.4-4.7h2.3v6.9h-1.4V117l-1.5,5.5h-1.5l-1.5-5.5v5.5H631.5z"/>
	<path d="M640.3,122.5v-6.9h1.5v5.7h3.8v1.2H640.3z"/>
</g>
<g>
	<path d="M696.8,122.5v-6.9h1.5v2.7h3v-2.7h1.5v6.9h-1.5v-3h-3v3H696.8z"/>
	<path d="M706.1,122.5v-5.8h-2.2v-1.2h6v1.2h-2.2v5.8H706.1z"/>
	<path d="M710.8,122.5v-6.9h2.3l1.4,4.7l1.4-4.7h2.3v6.9h-1.4V117l-1.5,5.5h-1.5l-1.5-5.5v5.5H710.8z"/>
	<path d="M719.6,122.5v-6.9h1.5v5.7h3.8v1.2H719.6z"/>
</g>
<g>
	<path d="M696.8,213.3v-6.9h1.5v2.7h3v-2.7h1.5v6.9h-1.5v-3h-3v3H696.8z"/>
	<path d="M706.1,213.3v-5.8h-2.2v-1.2h6v1.2h-2.2v5.8H706.1z"/>
	<path d="M710.8,213.3v-6.9h2.3l1.4,4.7l1.4-4.7h2.3v6.9h-1.4v-5.5l-1.5,5.5h-1.5l-1.5-5.5v5.5H710.8z"/>
	<path d="M719.6,213.3v-6.9h1.5v5.7h3.8v1.2H719.6z"/>
</g>
<g>
	<path d="M698.8,304.5v-6.9h1.5v2.7h3v-2.7h1.5v6.9h-1.5v-3h-3v3H698.8z"/>
	<path d="M708.1,304.5v-5.8h-2.2v-1.2h6v1.2h-2.2v5.8H708.1z"/>
	<path d="M712.8,304.5v-6.9h2.3l1.4,4.7l1.4-4.7h2.3v6.9h-1.4V299l-1.5,5.5h-1.5l-1.5-5.5v5.5H712.8z"/>
	<path d="M721.6,304.5v-6.9h1.5v5.7h3.8v1.2H721.6z"/>
</g>
<g>
	<path d="M617.5,213.3v-6.9h1.5v2.7h3v-2.7h1.5v6.9H622v-3h-3v3H617.5z"/>
	<path d="M626.8,213.3v-5.8h-2.2v-1.2h6v1.2h-2.2v5.8H626.8z"/>
	<path d="M631.5,213.3v-6.9h2.3l1.4,4.7l1.4-4.7h2.3v6.9h-1.4v-5.5l-1.5,5.5h-1.5l-1.5-5.5v5.5H631.5z"/>
	<path d="M640.3,213.3v-6.9h1.5v5.7h3.8v1.2H640.3z"/>
</g>
<g>
	<path d="M616.8,304.5v-6.9h1.5v2.7h3v-2.7h1.5v6.9h-1.5v-3h-3v3H616.8z"/>
	<path d="M626.1,304.5v-5.8h-2.2v-1.2h6v1.2h-2.2v5.8H626.1z"/>
	<path d="M630.8,304.5v-6.9h2.3l1.4,4.7l1.4-4.7h2.3v6.9h-1.4V299l-1.5,5.5h-1.5l-1.5-5.5v5.5H630.8z"/>
	<path d="M639.6,304.5v-6.9h1.5v5.7h3.8v1.2H639.6z"/>
</g>
<g>
	<g>
		<path style="fill:none;stroke:#7F7E7E;stroke-width:6;stroke-miterlimit:10;stroke-dasharray:6,6;" d="M368.8,47
			c13.5-17.8,53.2-58.8,95.6,5.7"/>
		<g>
			<path style="fill:#7F7E7E;" d="M369.4,46.2c-0.6-3.5-4-7.3-6.7-9.4c1.8,5.5,2.5,11.4,1.3,17.2c4.9-3.2,10.8-4.2,16.6-4.6
				C377.3,47.5,373.1,45.7,369.4,46.2z"/>
		</g>
	</g>
</g>
</svg>
