<?xml version="1.0" encoding="utf-8"?>
<!-- Generator: Adobe Illustrator 17.1.0, SVG Export Plug-In . SVG Version: 6.00 Build 0)  -->
<!DOCTYPE svg PUBLIC "-//W3C//DTD SVG 1.1//EN" "http://www.w3.org/Graphics/SVG/1.1/DTD/svg11.dtd">
<svg version="1.1" id="Layer_1" xmlns="http://www.w3.org/2000/svg" xmlns:xlink="http://www.w3.org/1999/xlink" x="0px" y="0px"
	 viewBox="0 652.9 595.3 384" enable-background="new 0 652.9 595.3 384" xml:space="preserve">
<line fill="none" stroke="#FF0000" stroke-width="4" stroke-miterlimit="10" stroke-opacity="0.31" x1="59.7" y1="836.9" x2="532.6" y2="743.1"/>
<line fill="none" stroke="#FF0000" stroke-width="4" stroke-miterlimit="10" stroke-opacity="0.31" x1="59.7" y1="967.7" x2="532.6" y2="868.2"/>
<line fill="none" stroke="#009245" stroke-width="4" stroke-miterlimit="10" x1="59.7" y1="926.7" x2="525.8" y2="677.4"/>
<line fill="none" stroke="#009245" stroke-width="4" stroke-miterlimit="10" x1="213.4" y1="973.8" x2="491.3" y2="677.4"/>
<text transform="matrix(1 0 0 1 0 661.1491)" font-family="'ArialMT'" font-size="9.3134"> </text>
<g>
	<g>
		<line fill="none" stroke="#000000" stroke-width="4" stroke-miterlimit="10" x1="59.8" y1="996.4" x2="59.8" y2="693.7"/>
		<g>
			<polygon points="59.7,677.4 69.2,700.7 59.7,695.1 50.2,700.7 			"/>
		</g>
	</g>
</g>
<g>
	<g>
		<line fill="none" stroke="#000000" stroke-width="4" stroke-miterlimit="10" x1="59" y1="996.4" x2="515.3" y2="996.4"/>
		<g>
			<polygon points="531.9,996.3 508.7,1005.7 514.2,996.3 508.7,986.8 			"/>
		</g>
	</g>
</g>
<text transform="matrix(0.9833 -0.1821 0.1821 0.9833 84.5762 824.8903)" opacity="0.5" fill="#7C7B7B" font-family="'ArialMT'" font-size="12">Performance demanded at high end of market</text>
<text transform="matrix(0.9782 -0.2075 0.2075 0.9782 92.2494 954.8119)" opacity="0.5" fill="#7C7B7B" font-family="'ArialMT'" font-size="12">Performance demanded at low end of market</text>
<text transform="matrix(0.8877 -0.4603 0.4603 0.8877 71.9884 911.3169)" fill="#7C7B7B" font-family="'ArialMT'" font-size="12">Progress due to sustaining innovations</text>
<text transform="matrix(0.695 -0.719 0.719 0.695 266.7147 906.5346)" fill="#7C7B7B" font-family="'ArialMT'" font-size="12">Progress due to disruptive innovations</text>
<text transform="matrix(1 0 0 1 40.2148 766.0382)" font-family="'Arial-BoldMT'" font-size="16" glyph-orientation-vertical="0" writing-mode="tb">Performance</text>
<g>
	<text transform="matrix(1 0 0 1 130.164 1020.2019)" font-family="'Arial-BoldMT'" font-size="16">Time</text>
</g>
</svg>
